<?xml version="1.0" encoding="UTF-8" standalone="no"?>
<!-- Created with Inkscape (http://www.inkscape.org/) -->

<svg
   xmlns:dc="http://purl.org/dc/elements/1.1/"
   xmlns:cc="http://creativecommons.org/ns#"
   xmlns:rdf="http://www.w3.org/1999/02/22-rdf-syntax-ns#"
   xmlns:svg="http://www.w3.org/2000/svg"
   xmlns="http://www.w3.org/2000/svg"
   xmlns:sodipodi="http://sodipodi.sourceforge.net/DTD/sodipodi-0.dtd"
   xmlns:inkscape="http://www.inkscape.org/namespaces/inkscape"
   width="313mm"
   height="297mm"
   viewBox="0 0 313 297"
   version="1.1"
   id="svg8"
   inkscape:version="0.92.1 r15371"
   sodipodi:docname="fimAvaliacao.svg">
  <defs
     id="defs2">
    <clipPath
       id="clipPath3698"
       clipPathUnits="userSpaceOnUse">
      <path
         inkscape:connector-curvature="0"
         id="path3696"
         d="M 0,800 H 800 V 0 H 0 Z" />
    </clipPath>
  </defs>
  <sodipodi:namedview
     id="base"
     pagecolor="#ffffff"
     bordercolor="#666666"
     borderopacity="1.0"
     inkscape:pageopacity="0.0"
     inkscape:pageshadow="2"
     inkscape:zoom="0.35"
     inkscape:cx="-27.142857"
     inkscape:cy="560"
     inkscape:document-units="mm"
     inkscape:current-layer="layer1"
     showgrid="false"
     inkscape:window-width="1366"
     inkscape:window-height="705"
     inkscape:window-x="-8"
     inkscape:window-y="-8"
     inkscape:window-maximized="1" />
  <metadata
     id="metadata5">
    <rdf:RDF>
      <cc:Work
         rdf:about="">
        <dc:format>image/svg+xml</dc:format>
        <dc:type
           rdf:resource="http://purl.org/dc/dcmitype/StillImage" />
        <dc:title></dc:title>
      </cc:Work>
    </rdf:RDF>
  </metadata>
  <g
     inkscape:label="Layer 1"
     inkscape:groupmode="layer"
     id="layer1">
    <g
       id="g3700"
       transform="matrix(0.47940128,0,0,-0.47940128,67.583825,125.50178)">
      <path
         d="m 0,0 c 0,0 0.14,-1.387 -2.59,-0.943 -1.362,3.127 -3.646,6.597 -6.675,9.882 -7.026,7.621 -15.371,11.355 -18.639,8.342 -3.267,-3.012 -0.221,-11.633 6.803,-19.253 1.959,-2.125 4.019,-3.933 6.044,-5.391 l -1.071,-2.036 4.472,-4.918 c 0,0 14.771,2.405 16.16,5.898 z"
         style="fill:#0c0c0c;fill-opacity:1;fill-rule:nonzero;stroke:none"
         id="path3702"
         inkscape:connector-curvature="0" />
    </g>
    <g
       id="g3704"
       transform="matrix(0.47940128,0,0,-0.47940128,166.95168,173.18816)">
      <path
         d="m 0,0 c 0,0 -33.756,-39.213 -64.266,6.178 -22.698,33.768 -2.829,79.987 -2.829,79.987 l 9.438,15.31 z"
         style="fill:#175467;fill-opacity:1;fill-rule:nonzero;stroke:none"
         id="path3706"
         inkscape:connector-curvature="0" />
    </g>
    <g
       id="g3708"
       transform="matrix(0.47940128,0,0,-0.47940128,142.11975,176.97376)">
      <path
         d="m 0,0 -79.791,39.517 c -6.819,-2.416 -67.742,-19.619 -67.742,-19.619 l -9.364,17.503 c 0,0 66.529,24.273 77.606,24.438 15.262,0.226 64.939,-2.39 72.607,-2.368 C 0.986,59.495 0,0 0,0"
         style="fill:#175467;fill-opacity:1;fill-rule:nonzero;stroke:none"
         id="path3710"
         inkscape:connector-curvature="0" />
    </g>
    <g
       id="g3712"
       transform="matrix(0.47940128,0,0,-0.47940128,140.00645,153.7691)">
      <path
         d="m 0,0 -82.961,53.549 c -15.557,0.651 -64.917,-7.853 -64.917,-7.853 l -4.611,17.903 c 0,0 61.581,15.07 72.253,12.092 C -60.762,70.257 -17.058,51.763 -9.39,51.785 -1.72,51.809 0,0 0,0"
         style="fill:#175467;fill-opacity:1;fill-rule:nonzero;stroke:none"
         id="path3714"
         inkscape:connector-curvature="0" />
    </g>
    <g
       id="g3716"
       transform="matrix(0.47940128,0,0,-0.47940128,283.84788,87.592312)">
      <path
         d="M 0,0 C -5.71,3.04 -11.851,7.63 -14.88,9.99 -13.19,17.2 4.7,40.63 7.11,39.18 9.52,37.71 0.899,27.35 2.32,24.23 c 1.409,-3.12 14.909,16.85 14.909,16.85 0,0 3.941,-0.5 7.231,-11.46 C 27.26,20.29 6.26,4.47 0,0"
         style="fill:#ffd0a2;fill-opacity:1;fill-rule:nonzero;stroke:none"
         id="path3718"
         inkscape:connector-curvature="0" />
    </g>
    <g
       id="g3720"
       transform="matrix(0.47940128,0,0,-0.47940128,175.84356,28.017114)">
      <path
         d="m 0,0 c -2.85,1.14 -10.5,4.34 -16.55,8.06 1.34,4.47 10.5,33.61 21.05,33.85 11.439,0.27 13.13,-3.33 13.13,-3.33 0,0 -14.82,-19.01 -11.42,-19.39 3.41,-0.39 10.6,11.02 12.74,9.17 C 20.87,26.7 7.28,6.58 0,0"
         style="fill:#ffd0a2;fill-opacity:1;fill-rule:nonzero;stroke:none"
         id="path3722"
         inkscape:connector-curvature="0" />
    </g>
    <g
       id="g3724"
       transform="matrix(0.47940128,0,0,-0.47940128,228.42976,104.32994)">
      <path
         d="m 0,0 c 0,0 -11.246,-65.752 -82.133,-126.343 -31.233,-26.697 -42.694,-26.95 -53.123,-11.737 0,0 -78.311,92.635 -56.368,112.412 21.943,19.781 91.839,76.549 91.839,76.549 0,0 34.343,-68.366 99.785,-50.881"
         style="fill:#f9feff;fill-opacity:1;fill-rule:nonzero;stroke:none"
         id="path3726"
         inkscape:connector-curvature="0" />
    </g>
    <g
       id="g3728"
       transform="matrix(0.47940128,0,0,-0.47940128,179.96622,82.141471)">
      <path
         d="m 0,0 c 0,0 -7.81,-87.43 -39.529,-32.04 -34.101,59.55 11.819,154.67 11.819,154.67 0.8,-0.57 1.66,-1.13 2.561,-1.67 6.049,-3.72 13.7,-6.92 16.549,-8.06 0.72,-0.29 1.14,-0.45 1.14,-0.45 0,0 -16.76,-46.19 -16.12,-77.19 C -22.939,4.26 0,0 0,0"
         style="fill:#f9feff;fill-opacity:1;fill-rule:nonzero;stroke:none"
         id="path3730"
         inkscape:connector-curvature="0" />
    </g>
    <g
       id="g3732"
       transform="matrix(0.47940128,0,0,-0.47940128,284.83056,88.085999)">
      <path
         d="m 0,0 c 0,0 -59.979,-86.94 -128.61,-86.73 -63.82,0.19 10.96,52.85 10.96,52.85 0,0 12.4,-20.49 39.66,-5.721 27.261,14.771 59.13,52.171 59.13,52.171 0,0 0.72,-0.59 1.93,-1.55 C -13.9,8.66 -7.76,4.07 -2.05,1.03 -1.36,0.66 -0.67,0.32 0,0"
         style="fill:#f9feff;fill-opacity:1;fill-rule:nonzero;stroke:none"
         id="path3734"
         inkscape:connector-curvature="0" />
    </g>
    <g
       id="g3740"
       transform="matrix(0.47940128,0,0,-0.47940128,229.20548,99.069178)">
      <path
         d="m 0,0 c -0.149,-3.91 -0.56,-9.13 -1.62,-10.97 -1.789,-3.1 -70.05,-11.67 -83.4,-5.51 0,0 -0.44,2.65 -1.07,6.33 -0.38,2.21 -0.83,4.79 -1.29,7.39 -0.74,4.16 -1.519,8.34 -2.099,11.08 -2.93,-0.83 -11.75,-4.3 -17.18,-6.46 -2.631,-1.05 -4.461,-1.8 -4.461,-1.8 -5.17,6.92 0.1,20.74 1.891,23.83 0.709,1.22 1.549,2.67 2.299,3.98 3.55,-6.87 9.401,-12.26 16.6,-16.44 0,0 0,-0.01 0.011,-0.01 0,0 0,-0.01 0.009,-0.01 C -59.489,-6.53 -4.109,-2.63 0,0"
         style="fill:#dceff5;fill-opacity:1;fill-rule:nonzero;stroke:none"
         id="path3742"
         inkscape:connector-curvature="0" />
    </g>
    <g
       id="g3744"
       transform="matrix(0.47940128,0,0,-0.47940128,261.27297,40.548712)">
      <path
         d="m 0,0 c 0,0 -51.4,-109.77 -66.8,-122.01 l -0.091,-0.06 c -4.109,-2.63 -59.489,-6.53 -90.309,11.41 l -0.01,0.01 c -0.011,0 -0.011,0.01 -0.011,0.01 -7.199,4.18 -13.05,9.57 -16.599,16.44 -1.111,2.14 -1.991,4.42 -2.62,6.86 -1.581,6.1 -1.85,16.66 28.87,34.73 0,0 -13.33,18.06 -2.821,30.69 10.511,12.64 32.88,15.41 44.931,24.14 12.06,8.73 27.399,38.71 37.75,37.52 C -57.36,38.55 4.239,13.49 0,0"
         style="fill:#ffd0a2;fill-opacity:1;fill-rule:nonzero;stroke:none"
         id="path3746"
         inkscape:connector-curvature="0" />
    </g>
    <g
       id="g3748"
       transform="matrix(0.47940128,0,0,-0.47940128,222.7514,80.581068)">
      <path
         d="m 0,0 c 0,0 -6.542,-4.177 -16.093,-8.805 -51.406,4.924 -55.498,13.967 -56.316,20.137 4.939,7.101 7.685,14.808 7.685,14.808 0,0 -5.396,-24.387 64.724,-26.14"
         style="fill:#ffffff;fill-opacity:1;fill-rule:nonzero;stroke:none"
         id="path3750"
         inkscape:connector-curvature="0" />
    </g>
    <g
       id="g3752"
       transform="matrix(0.47940128,0,0,-0.47940128,216.76027,83.943924)">
      <path
         d="m 0,0 c -7.008,-3.393 -19.242,-8.808 -28.105,-11.206 -15.26,-4.119 -31.205,-4.569 -40.715,6.192 -0.181,0.196 -0.371,0.407 -0.549,0.63 -0.842,1.015 -1.536,2.013 -2.123,3.025 -6.062,10.46 11.973,28.032 19.265,34.513 C -51.408,26.984 -65.597,2.91 0,0"
         style="fill:#3b2b20;fill-opacity:1;fill-rule:nonzero;stroke:none"
         id="path3754"
         inkscape:connector-curvature="0" />
    </g>
    <g
       id="g3756"
       transform="matrix(0.47940128,0,0,-0.47940128,224.22982,52.814433)">
      <path
         d="m 0,0 c -2.37,-2.849 -2.829,-6.374 -1.022,-7.874 1.803,-1.5 5.185,-0.407 7.553,2.44 2.37,2.85 2.828,6.373 1.024,7.874 C 5.75,3.939 2.367,2.848 0,0"
         style="fill:#6a3018;fill-opacity:1;fill-rule:nonzero;stroke:none"
         id="path3758"
         inkscape:connector-curvature="0" />
    </g>
    <g
       id="g3760"
       transform="matrix(0.47940128,0,0,-0.47940128,233.3338,56.204424)">
      <path
         d="m 0,0 c 0,0 0.151,0.511 0.361,1.393 0.211,0.881 0.469,2.138 0.67,3.627 0.183,1.492 0.301,3.219 0.192,5.024 -0.046,0.904 -0.179,1.821 -0.336,2.743 -0.201,0.913 -0.404,1.839 -0.74,2.725 -0.286,0.903 -0.697,1.759 -1.102,2.603 -0.228,0.412 -0.453,0.821 -0.676,1.225 -0.251,0.392 -0.498,0.779 -0.741,1.16 -0.266,0.372 -0.527,0.736 -0.783,1.094 -0.278,0.346 -0.548,0.686 -0.812,1.016 -0.254,0.343 -0.555,0.629 -0.811,0.942 -0.259,0.312 -0.518,0.608 -0.787,0.872 -0.528,0.541 -1.004,1.058 -1.462,1.483 -0.452,0.431 -0.833,0.835 -1.176,1.132 -0.67,0.616 -1.043,1.004 -1.043,1.004 0,0 0.503,-0.16 1.365,-0.503 0.438,-0.163 0.95,-0.396 1.522,-0.7 0.588,-0.278 1.223,-0.645 1.893,-1.09 0.688,-0.42 1.383,-0.957 2.103,-1.549 0.346,-0.315 0.702,-0.639 1.066,-0.969 C -0.96,22.87 -0.615,22.5 -0.265,22.124 0.067,21.729 0.383,21.307 0.711,20.885 1.01,20.441 1.314,19.991 1.594,19.52 2.136,18.566 2.624,17.554 2.982,16.491 3.729,14.372 3.993,12.107 3.875,10.039 3.761,7.967 3.288,6.095 2.691,4.591 2.118,3.076 1.429,1.918 0.902,1.151 0.378,0.38 0,0 0,0"
         style="fill:#6a3018;fill-opacity:1;fill-rule:nonzero;stroke:none"
         id="path3762"
         inkscape:connector-curvature="0" />
    </g>
    <g
       id="g3764"
       transform="matrix(0.47940128,0,0,-0.47940128,203.28646,89.316095)">
      <path
         d="M 0,0 C -15.26,-4.119 -31.204,-4.569 -40.715,6.192 -36.196,8.144 -21.63,12.479 0,0"
         style="fill:#ff4345;fill-opacity:1;fill-rule:nonzero;stroke:none"
         id="path3766"
         inkscape:connector-curvature="0" />
    </g>
    <g
       id="g3768"
       transform="matrix(0.47940128,0,0,-0.47940128,68.781178,162.55332)">
      <path
         d="m 0,0 c 0,0 0.14,-1.388 -2.59,-0.943 -1.362,3.127 -3.646,6.596 -6.675,9.881 -7.026,7.622 -15.371,11.356 -18.639,8.342 -3.268,-3.011 -0.221,-11.632 6.803,-19.252 1.959,-2.125 4.019,-3.934 6.044,-5.392 l -1.071,-2.035 4.472,-4.918 c 0,0 14.77,2.405 16.16,5.897 z"
         style="fill:#0c0c0c;fill-opacity:1;fill-rule:nonzero;stroke:none"
         id="path3770"
         inkscape:connector-curvature="0" />
    </g>
    <g
       id="g3772"
       transform="matrix(0.47940128,0,0,-0.47940128,268.70978,39.064869)">
      <path
         d="m 0,0 c -8.96,36.678 -37.515,38.67 -62.993,56.656 -13.3,9.389 -1.941,20.903 -1.941,20.903 -10.321,-0.88 -17.889,-5.538 -23.262,-10.805 -5.827,5.248 -1.43,12.291 -1.43,12.291 -20.917,-15.226 -14.978,-41.738 -14.978,-41.738 l 0.001,10e-4 c 3.262,-17.43 25.618,-21.543 42.902,-22.34 21.841,-1.01 30.113,0.545 34.984,-5.835 0,0 8.328,-26.697 -43.674,-63.705 l 5.672,-4.718 c 0,0 8.181,5.992 12.536,1.788 4.355,-4.204 1.537,-18.434 -16.491,-26.123 -18.027,-7.689 9.854,-12.48 9.854,-12.48 0,0 67.315,61.331 58.82,96.105"
         style="fill:#6a3018;fill-opacity:1;fill-rule:nonzero;stroke:none"
         id="path3774"
         inkscape:connector-curvature="0" />
    </g>
    <g
       id="g3776"
       transform="matrix(0.47940128,0,0,-0.47940128,257.5323,134.89551)">
      <path
         d="M 0,0 C 0,0 20.984,-6.104 62.163,22.106"
         style="fill:none;stroke:#1e0e00;stroke-width:1;stroke-linecap:butt;stroke-linejoin:miter;stroke-miterlimit:10;stroke-dasharray:none;stroke-opacity:1"
         id="path3778"
         inkscape:connector-curvature="0" />
    </g>
    <g
       id="g3780"
       transform="matrix(0.47940128,0,0,-0.47940128,130.064,21.761263)">
      <path
         d="M 0,0 C 0,0 -12.093,-14.844 1.742,-58.243"
         style="fill:none;stroke:#1e0e00;stroke-width:1;stroke-linecap:butt;stroke-linejoin:miter;stroke-miterlimit:10;stroke-dasharray:none;stroke-opacity:1"
         id="path3782"
         inkscape:connector-curvature="0" />
    </g>
    <g
       id="g3784"
       transform="matrix(0.47940128,0,0,-0.47940128,122.29574,181.23875)">
      <path
         d="M 0,0 C 0,0 -10.313,9.777 -43.205,1.958"
         style="fill:none;stroke:#1e0e00;stroke-width:1;stroke-linecap:butt;stroke-linejoin:miter;stroke-miterlimit:10;stroke-dasharray:none;stroke-opacity:1"
         id="path3786"
         inkscape:connector-curvature="0" />
    </g>
    <g
       id="g3788"
       transform="matrix(0.47940128,0,0,-0.47940128,45.846477,140.86837)">
      <path
         d="M 0,0 C 0,0 -4.208,13.574 -36.72,22.851"
         style="fill:none;stroke:#1e0e00;stroke-width:1;stroke-linecap:butt;stroke-linejoin:miter;stroke-miterlimit:10;stroke-dasharray:none;stroke-opacity:1"
         id="path3790"
         inkscape:connector-curvature="0" />
    </g>
    <g
       id="g3792"
       transform="matrix(0.47940128,0,0,-0.47940128,134.58015,35.251663)">
      <path
         d="M 0,0 C 0,0 -8.983,-11.027 1.294,-43.266"
         style="fill:none;stroke:#1e0e00;stroke-width:1;stroke-linecap:butt;stroke-linejoin:miter;stroke-miterlimit:10;stroke-dasharray:none;stroke-opacity:1"
         id="path3794"
         inkscape:connector-curvature="0" />
    </g>
    <g
       id="g3796"
       transform="matrix(0.47940128,0,0,-0.47940128,251.971,139.9971)">
      <path
         d="M 0,0 C 0,0 9.115,-10.919 42.721,-6.963"
         style="fill:none;stroke:#1e0e00;stroke-width:1;stroke-linecap:butt;stroke-linejoin:miter;stroke-miterlimit:10;stroke-dasharray:none;stroke-opacity:1"
         id="path3798"
         inkscape:connector-curvature="0" />
    </g>
    <g
       id="g3800"
       transform="matrix(0.47940128,0,0,-0.47940128,301.99211,271.86664)">
      <path
         d="M 0,0 16.142,45.104"
         style="fill:none;stroke:#1e0e00;stroke-width:1;stroke-linecap:butt;stroke-linejoin:miter;stroke-miterlimit:10;stroke-dasharray:none;stroke-opacity:1"
         id="path3802"
         inkscape:connector-curvature="0" />
    </g>
    <g
       id="g3804"
       transform="matrix(0.47940128,0,0,-0.47940128,206.8918,246.97708)">
      <path
         d="M 0,0 30.11,79.753"
         style="fill:none;stroke:#1e0e00;stroke-width:1;stroke-linecap:butt;stroke-linejoin:miter;stroke-miterlimit:10;stroke-dasharray:none;stroke-opacity:1"
         id="path3806"
         inkscape:connector-curvature="0" />
    </g>
    <g
       id="g3808"
       transform="matrix(0.47940128,0,0,-0.47940128,1.0924018,282.07731)">
      <path
         d="M 0,0 3.303,42.126"
         style="fill:none;stroke:#1e0e00;stroke-width:1;stroke-linecap:butt;stroke-linejoin:miter;stroke-miterlimit:10;stroke-dasharray:none;stroke-opacity:1"
         id="path3810"
         inkscape:connector-curvature="0" />
    </g>
    <g
       id="g3812"
       transform="matrix(0.47940128,0,0,-0.47940128,207.95688,254.27112)">
      <path
         d="M 0,0 12.574,26.753"
         style="fill:none;stroke:#1e0e00;stroke-width:1;stroke-linecap:butt;stroke-linejoin:miter;stroke-miterlimit:10;stroke-dasharray:none;stroke-opacity:1"
         id="path3814"
         inkscape:connector-curvature="0" />
    </g>
    <g
       id="g3816"
       transform="matrix(0.47940128,0,0,-0.47940128,89.52933,245.06556)">
      <path
         d="M 0,0 -13.668,45.915"
         style="fill:none;stroke:#1e0e00;stroke-width:1;stroke-linecap:butt;stroke-linejoin:miter;stroke-miterlimit:10;stroke-dasharray:none;stroke-opacity:1"
         id="path3818"
         inkscape:connector-curvature="0" />
    </g>
    <g
       id="g3820"
       transform="matrix(0.47940128,0,0,-0.47940128,94.703028,250.31649)">
      <path
         d="M 0,0 -5.688,29.009"
         style="fill:none;stroke:#1e0e00;stroke-width:1;stroke-linecap:butt;stroke-linejoin:miter;stroke-miterlimit:10;stroke-dasharray:none;stroke-opacity:1"
         id="path3822"
         inkscape:connector-curvature="0" />
    </g>
    <g
       id="g3824"
       transform="matrix(0.47940128,0,0,-0.47940128,203.00836,199.67695)">
      <path
         d="m 0,0 c -4.411,2.5 -13.396,-26.881 -15.159,-25.454 -1.074,0.87 5.364,22.388 5.574,23.389 1.147,5.464 -3.739,4.18 -5.369,-2.086 -3.417,-13.139 -9.767,-28.04 -13.142,-25.072 -3.375,2.969 1.396,18.215 -2.035,19.617 -4.448,1.817 -4.678,-10.079 -5.586,-22.855 -0.603,-8.492 -0.52,-18.059 0.78,-26.298 1.453,-9.198 19.599,-0.376 19.599,-0.376 0,0 6.481,13.982 10.115,18.387 6.753,8.184 16.476,14.374 16.031,15.488 -2.433,6.079 -15.987,-10.235 -16.931,-8.466 -0.721,1.352 14.024,17.571 13.778,21.614 -0.09,1.474 -1.775,3.947 -4.863,-1.081 C 2.392,-13.847 -8.194,-29.492 -9.585,-28.568 -10.641,-27.866 4.053,-2.296 0,0"
         style="fill:#ffd0a2;fill-opacity:1;fill-rule:nonzero;stroke:none"
         id="path3826"
         inkscape:connector-curvature="0" />
    </g>
    <g
       id="g3828"
       transform="matrix(0.47940128,0,0,-0.47940128,198.00135,231.55666)">
      <path
         d="m 0,0 -12.17,-93.699 -0.26,-2.061 -0.84,-6.429 -0.25,-1.941 -3.94,-30.3 h -40.16 l 5.83,31.5 0.42,2.241 0.32,1.729 0.24,1.3 v 0.011 L -32.72,0 Z"
         style="fill:#1d1f16;fill-opacity:1;fill-rule:nonzero;stroke:none"
         id="path3830"
         inkscape:connector-curvature="0" />
    </g>
    <g
       id="g3832"
       transform="matrix(0.47940128,0,0,-0.47940128,185.4592,227.32868)">
      <path
         d="M 0,0 H 22.559 L 21.612,-8.823 H -2.026 Z"
         style="fill:#ffffff;fill-opacity:1;fill-rule:nonzero;stroke:none"
         id="path3834"
         inkscape:connector-curvature="0" />
    </g>
    <g
       id="g3836"
       transform="matrix(0.47940128,0,0,-0.47940128,293.52392,217.67555)">
      <path
         d="m 0,0 c -4.451,1.482 -7.365,-26.8 -9.221,-25.818 -1.131,0.597 0.874,21.284 0.886,22.231 0.067,5.167 -4.141,3.128 -4.501,-2.852 -0.758,-12.54 -3.863,-27.205 -7.458,-25.112 -3.595,2.094 -3.93,15.917 -10.866,16.974 -4.396,0.669 3.068,-9.511 4.524,-21.275 0.968,-7.818 3.598,-15.45 6.249,-22.7 2.961,-8.093 17.017,2.118 17.017,2.118 0,0 3.389,13.853 5.902,18.501 4.67,8.637 15.712,14.268 15.109,15.2 -3.293,5.086 -16.006,-10.422 -17.18,-8.983 -0.896,1.097 9.598,18.456 8.652,22.084 -0.344,1.323 -2.316,3.267 -4.222,-1.849 -0.247,-0.665 -7.067,-16.761 -8.494,-16.17 C -4.687,-27.202 4.09,-1.362 0,0"
         style="fill:#ffd0a2;fill-opacity:1;fill-rule:nonzero;stroke:none"
         id="path3838"
         inkscape:connector-curvature="0" />
    </g>
    <g
       id="g3840"
       transform="matrix(0.47940128,0,0,-0.47940128,294.78796,247.73132)">
      <path
         d="m 0,0 -6.591,-100.69 h -35.47 l 11.84,98.759 3.441,0.221 z"
         style="fill:#6a3018;fill-opacity:1;fill-rule:nonzero;stroke:none"
         id="path3842"
         inkscape:connector-curvature="0" />
    </g>
    <g
       id="g3844"
       transform="matrix(0.47940128,0,0,-0.47940128,282.95418,244.56464)">
      <path
         d="M 0,0 20.833,1.331 20.48,-6.873 -1.35,-8.269 Z"
         style="fill:#ffffff;fill-opacity:1;fill-rule:nonzero;stroke:none"
         id="path3846"
         inkscape:connector-curvature="0" />
    </g>
    <g
       id="g3848"
       transform="matrix(0.47940128,0,0,-0.47940128,56.536071,199.15824)">
      <path
         d="m 0,0 c 4.358,1.736 8.896,-26.332 10.692,-25.244 1.095,0.662 -2.098,21.197 -2.165,22.143 -0.364,5.154 3.954,3.362 4.659,-2.588 1.478,-12.476 5.422,-26.937 8.891,-24.641 3.468,2.298 3.006,16.116 9.871,17.571 4.349,0.921 -2.516,-9.672 -3.292,-21.5 -0.516,-7.86 -1.798,-16.62 -4.027,-24.01 -2.49,-8.251 -17.383,0.007 -17.383,0.007 l -0.632,2.116 c 0,0 -4.181,13.634 -6.958,18.13 -5.159,8.354 -16.508,13.339 -15.959,14.305 2.995,5.267 16.58,-9.483 17.669,-7.979 0.831,1.146 -10.943,14.402 -12.82,18.834 -0.533,1.259 0.021,5.214 3.942,0.266 0.441,-0.556 11.31,-15.48 12.7,-14.807 C 6.245,-26.887 -4.005,-1.595 0,0"
         style="fill:#ffd0a2;fill-opacity:1;fill-rule:nonzero;stroke:none"
         id="path3850"
         inkscape:connector-curvature="0" />
    </g>
    <g
       id="g3852"
       transform="matrix(0.47940128,0,0,-0.47940128,88.410407,296.00243)">
      <path
         d="m 0,0 h -37.38 l -25.32,134.46 3.25,1.15 25.28,8.98 z"
         style="fill:#175467;fill-opacity:1;fill-rule:nonzero;stroke:none"
         id="path3854"
         inkscape:connector-curvature="0" />
    </g>
    <g
       id="g3856"
       transform="matrix(0.47940128,0,0,-0.47940128,59.784686,226.88159)">
      <path
         d="M 0,0 19.671,6.987 21.58,-1 0.967,-8.321 Z"
         style="fill:#ffffff;fill-opacity:1;fill-rule:nonzero;stroke:none"
         id="path3858"
         inkscape:connector-curvature="0" />
    </g>
    <g
       id="g3860"
       transform="matrix(0.47940128,0,0,-0.47940128,106.70398,216.14046)">
      <path
         d="m 0,0 c 4.106,2.269 12.124,-25.011 13.769,-23.706 1.003,0.794 -4.736,20.768 -4.92,21.698 -1.007,5.068 3.502,3.83 4.945,-1.985 3.029,-12.193 8.754,-26.045 11.907,-23.333 3.153,2.714 0.965,16.366 7.593,18.669 4.2,1.459 -1.285,-9.91 -0.574,-21.743 0.473,-7.863 0.299,-16.714 -0.988,-24.325 -1.437,-8.498 -17.31,-2.112 -17.31,-2.112 l -0.829,1.962 c 0,0 -5.855,13.003 -9.174,17.116 -6.165,7.642 -18.047,11.166 -17.624,12.194 2.311,5.599 17.637,-7.332 18.529,-5.705 0.68,1.242 -12.66,12.919 -15.078,17.081 -0.687,1.183 -0.632,5.176 3.878,0.758 0.506,-0.496 13.159,-13.942 14.455,-13.1 C 9.563,-25.893 -3.774,-2.083 0,0"
         style="fill:#ffd0a2;fill-opacity:1;fill-rule:nonzero;stroke:none"
         id="path3862"
         inkscape:connector-curvature="0" />
    </g>
    <g
       id="g3864"
       transform="matrix(0.47940128,0,0,-0.47940128,144.66326,296.00243)">
      <path
         d="m 0,0 h -37.79 l -8.88,30.45 -2.54,8.71 -17.75,60.88 3.08,1.55 23.96,12.08 29.44,-83.84 0.99,-2.83 z"
         style="fill:#6a3018;fill-opacity:1;fill-rule:nonzero;stroke:none"
         id="path3866"
         inkscape:connector-curvature="0" />
    </g>
    <g
       id="g3868"
       transform="matrix(0.47940128,0,0,-0.47940128,113.39872,243.23833)">
      <path
         d="M 0,0 18.642,9.396 21.535,1.71 2.001,-8.135 Z"
         style="fill:#ffffff;fill-opacity:1;fill-rule:nonzero;stroke:none"
         id="path3870"
         inkscape:connector-curvature="0" />
    </g>
    <g
       id="g3872"
       transform="matrix(0.47940128,0,0,-0.47940128,239.8235,218.09128)">
      <path
         d="m 0,0 c -4.407,1.609 -8.132,-26.577 -9.958,-25.544 -1.113,0.631 1.484,21.252 1.523,22.198 0.215,5.162 -4.049,3.245 -4.582,-2.722 -1.117,-12.513 -4.641,-27.082 -8.174,-24.886 -3.534,2.195 -1.502,16.838 -4.847,17.594 -4.338,0.981 -2.733,-9.911 -1.616,-21.712 0.743,-7.843 2.276,-16.562 4.718,-23.885 2.727,-8.174 17.947,2.644 17.947,2.644 0,0 3.785,13.75 6.43,18.324 4.917,8.498 12.849,15.63 12.272,16.579 C 10.566,-16.232 0.682,-33.188 -0.45,-31.717 -1.313,-30.594 9.673,-13.543 8.833,-9.89 8.526,-8.557 6.611,-6.557 4.559,-11.617 4.292,-12.274 -2.985,-28.169 -4.396,-27.537 -5.466,-27.057 4.049,-1.479 0,0"
         style="fill:#ffd0a2;fill-opacity:1;fill-rule:nonzero;stroke:none"
         id="path3874"
         inkscape:connector-curvature="0" />
    </g>
    <g
       id="g3876"
       transform="matrix(0.47940128,0,0,-0.47940128,241.85204,296.00243)">
      <path
         d="m 0,0 h -35.189 l 1.689,95.24 3.4,0.57 26.47,4.41 z"
         style="fill:#175467;fill-opacity:1;fill-rule:nonzero;stroke:none"
         id="path3878"
         inkscape:connector-curvature="0" />
    </g>
    <g
       id="g3880"
       transform="matrix(0.47940128,0,0,-0.47940128,228.01872,246.00471)">
      <path
         d="M 0,0 20.59,3.438 21.071,-4.761 -0.505,-8.362 Z"
         style="fill:#ffffff;fill-opacity:1;fill-rule:nonzero;stroke:none"
         id="path3882"
         inkscape:connector-curvature="0" />
    </g>
    <g
       id="g3884"
       transform="matrix(0.47940128,0,0,-0.47940128,229.53464,252.61661)">
      <path
         d="m 0,0 c 0,-1.013 -0.821,-1.834 -1.834,-1.834 -1.012,0 -1.833,0.821 -1.833,1.834 0,1.012 0.821,1.833 1.833,1.833 C -0.821,1.833 0,1.012 0,0"
         style="fill:#ffffff;fill-opacity:1;fill-rule:nonzero;stroke:none"
         id="path3886"
         inkscape:connector-curvature="0" />
    </g>
    <g
       id="g3888"
       transform="matrix(0.47940128,0,0,-0.47940128,21.560152,211.14327)">
      <path
         d="m 0,0 c 4.667,0.476 1.343,-27.762 3.368,-27.208 1.234,0.337 3.789,20.962 3.984,21.89 1.061,5.056 4.723,2.149 3.771,-3.766 -1.996,-12.403 -2.163,-27.392 1.801,-26.134 3.965,1.26 7.307,14.677 14.307,14.196 4.436,-0.306 -5.069,-8.613 -9.055,-19.776 -2.65,-7.419 -7.2,-13.403 -11.368,-19.9 -4.655,-7.253 -15.827,4.887 -15.827,4.887 0,0 -0.286,14.258 -1.725,19.343 -2.674,9.447 -12.222,17.351 -11.43,18.129 4.323,4.245 13.348,-13.662 14.807,-12.514 1.113,0.875 -6.579,16.849 -7.171,21.625 -0.168,1.358 1.45,5.01 3.865,-0.823 0.272,-0.655 6.637,-17.986 8.158,-17.72 C -1.359,-27.569 -4.289,-0.437 0,0"
         style="fill:#ffd0a2;fill-opacity:1;fill-rule:nonzero;stroke:none"
         id="path3890"
         inkscape:connector-curvature="0" />
    </g>
    <g
       id="g3892"
       transform="matrix(0.47940128,0,0,-0.47940128,28.921358,240.80436)">
      <path
         d="m 0,0 -7.53,-115.14 h -36.26 l 13.58,113.21 3.43,0.22 z"
         style="fill:#1d1f16;fill-opacity:1;fill-rule:nonzero;stroke:none"
         id="path3894"
         inkscape:connector-curvature="0" />
    </g>
    <g
       id="g3896"
       transform="matrix(0.47940128,0,0,-0.47940128,17.09055,237.63815)">
      <path
         d="M 0,0 20.833,1.331 20.48,-6.873 -1.35,-8.269 Z"
         style="fill:#ffffff;fill-opacity:1;fill-rule:nonzero;stroke:none"
         id="path3898"
         inkscape:connector-curvature="0" />
    </g>
    <g
       id="g3900"
       transform="matrix(0.47940128,0,0,-0.47940128,27.956899,243.81509)">
      <path
         d="m 0,0 c 0,-1.013 -0.821,-1.834 -1.834,-1.834 -1.012,0 -1.833,0.821 -1.833,1.834 0,1.012 0.821,1.833 1.833,1.833 C -0.821,1.833 0,1.012 0,0"
         style="fill:#ffffff;fill-opacity:1;fill-rule:nonzero;stroke:none"
         id="path3902"
         inkscape:connector-curvature="0" />
    </g>
  </g>
</svg>
