<?xml version="1.0" encoding="UTF-8" standalone="no"?>
<!-- Created with Inkscape (http://www.inkscape.org/) -->

<svg
   xmlns:dc="http://purl.org/dc/elements/1.1/"
   xmlns:cc="http://creativecommons.org/ns#"
   xmlns:rdf="http://www.w3.org/1999/02/22-rdf-syntax-ns#"
   xmlns:svg="http://www.w3.org/2000/svg"
   xmlns="http://www.w3.org/2000/svg"
   xmlns:sodipodi="http://sodipodi.sourceforge.net/DTD/sodipodi-0.dtd"
   xmlns:inkscape="http://www.inkscape.org/namespaces/inkscape"
   width="242mm"
   height="236mm"
   viewBox="0 0 242 236"
   version="1.1"
   id="svg8"
   inkscape:version="0.92.1 r15371"
   sodipodi:docname="validadores.svg">
  <defs
     id="defs2">
    <clipPath
       id="clipPath30"
       clipPathUnits="userSpaceOnUse">
      <path
         inkscape:connector-curvature="0"
         id="path28"
         d="M 0,800 H 800 V 0 H 0 Z" />
    </clipPath>
    <clipPath
       id="clipPath162"
       clipPathUnits="userSpaceOnUse">
      <path
         inkscape:connector-curvature="0"
         id="path160"
         d="M 0,800 H 800 V 0 H 0 Z" />
    </clipPath>
  </defs>
  <sodipodi:namedview
     id="base"
     pagecolor="#ffffff"
     bordercolor="#666666"
     borderopacity="1.0"
     inkscape:pageopacity="0.0"
     inkscape:pageshadow="2"
     inkscape:zoom="0.35"
     inkscape:cx="-27.142857"
     inkscape:cy="560"
     inkscape:document-units="mm"
     inkscape:current-layer="layer1"
     showgrid="false"
     inkscape:window-width="1366"
     inkscape:window-height="705"
     inkscape:window-x="-8"
     inkscape:window-y="-8"
     inkscape:window-maximized="1" />
  <metadata
     id="metadata5">
    <rdf:RDF>
      <cc:Work
         rdf:about="">
        <dc:format>image/svg+xml</dc:format>
        <dc:type
           rdf:resource="http://purl.org/dc/dcmitype/StillImage" />
        <dc:title></dc:title>
      </cc:Work>
    </rdf:RDF>
  </metadata>
  <g
     inkscape:label="Layer 1"
     inkscape:groupmode="layer"
     id="layer1"
     transform="translate(0,-61)">
    <g
       id="g1368"
       transform="translate(7.1059524,75.141668)">
      <g
         transform="matrix(0.35277777,0,0,-0.35277777,106.80156,6.7737765)"
         id="g168">
        <path
           inkscape:connector-curvature="0"
           id="path170"
           style="fill:#422d0e;fill-opacity:1;fill-rule:nonzero;stroke:none"
           d="m 0,0 c 0,0 -17.724,-2.255 -24.485,-14.819 -6.761,-12.564 -12.317,-61.408 5.441,-113.66 17.758,-52.252 21.624,-98.642 21.624,-98.642 l 9.02,14.819 11.121,-40.27 c 0,0 16.182,9.987 18.961,33.183 0,0 3.423,-17.075 0.523,-22.229 0,0 25.773,54.122 27.062,117.587 1.288,63.465 -2.255,89.56 -13.853,107.923 C 43.816,2.255 24.485,14.819 0,0" />
      </g>
      <g
         transform="matrix(0.35277777,0,0,-0.35277777,134.48177,104.67804)"
         id="g172">
        <path
           inkscape:connector-curvature="0"
           id="path174"
           style="fill:#0a364f;fill-opacity:1;fill-rule:nonzero;stroke:none"
           d="m 0,0 c 0,0 -19.329,-124.997 -19.329,-137.239 0,-12.242 36.726,-99.815 39.303,-106.285 0,0 0.966,-4.538 0,-8.081 -0.967,-3.544 2.577,-6.443 4.188,-7.088 1.611,-0.644 3.221,-7.409 3.221,-9.342 v -7.41 c 0,0 9.021,-4.832 23.518,4.188 0,0 -5.799,17.074 -5.799,19.652 0,2.577 -1.288,9.987 -3.866,12.886 -2.577,2.899 -21.907,88.271 -22.551,97.936 -0.644,9.665 25.129,93.426 29.478,97.775 0,0 67.653,-75.868 75.385,-85.533 0,0 26.578,-81.28 27.061,-87.348 0,0 -5.316,-6.552 0,-9.935 5.315,-3.382 4.832,-19.325 5.799,-21.741 0.966,-2.416 1.449,-8.68 5.798,-8.689 4.35,-0.009 14.014,2.89 15.464,5.307 1.45,2.416 -3.866,26.09 -3.866,30.439 0,4.349 -3.383,12.564 -3.383,12.564 0,0 -10.631,79.428 -13.047,86.906 -2.416,7.477 -62.337,103.803 -67.17,114.595 C 85.372,4.349 0,0 0,0" />
      </g>
      <g
         transform="matrix(0.35277777,0,0,-0.35277777,195.78622,193.29567)"
         id="g176">
        <path
           inkscape:connector-curvature="0"
           id="path178"
           style="fill:#222c30;fill-opacity:1;fill-rule:nonzero;stroke:none"
           d="m 0,0 c 0,0 20.296,1.933 22.229,3.866 1.933,1.933 14.014,26.287 17.396,25.466 3.383,-0.821 14.497,-4.687 17.397,-9.036 0,0 -25.612,-38.049 -34.793,-41.737 0,0 -5.799,3.078 -7.249,2.595 -1.449,-0.483 -0.483,-5.316 -0.483,-5.316 0,0 -19.329,-3.72 -23.679,-3.31 -4.349,0.411 -4.832,19.758 -4.349,23.132 C -13.047,-0.966 0,0 0,0" />
      </g>
      <g
         transform="matrix(0.35277777,0,0,-0.35277777,145.27853,201.84888)"
         id="g180">
        <path
           inkscape:connector-curvature="0"
           id="path182"
           style="fill:#222c30;fill-opacity:1;fill-rule:nonzero;stroke:none"
           d="m 0,0 c 0,0 -5.155,-24.094 -8.537,-28.477 -3.383,-4.383 -27.791,1.416 -25.493,-23.713 0,0 39.99,-3.382 45.306,2.417 5.315,5.798 10.147,18.363 10.147,18.363 l -2.416,9.181 c 0,0 6.766,1.984 7.732,4.133 0.967,2.149 3.866,14.838 3.866,14.838 0,0 -12.081,7.124 -17.88,6.641 C 6.926,2.899 0,0 0,0" />
      </g>
      <g
         transform="matrix(0.35277777,0,0,-0.35277777,139.3307,48.883871)"
         id="g184">
        <path
           inkscape:connector-curvature="0"
           id="path186"
           style="fill:#69afdf;fill-opacity:1;fill-rule:nonzero;stroke:none"
           d="m 0,0 c 0,0 -14.703,1.878 -33.074,-3.653 0,0 6.013,-57.212 16.537,-90.717 0,0 -10.739,-59.277 -11.383,-65.075 0,0 32.659,-18.229 48.867,-20.39 l 4.925,21.034 c 0,0 4.841,-20.618 10.64,-19.652 0,0 40.592,5.477 54.767,20.296 0,0 -13.537,49.208 -13.856,54.887 -0.319,5.679 13.533,47.563 16.433,61.412 2.899,13.849 6.765,30.915 0,34.465 C 87.09,-3.843 51.159,0.352 44.807,-0.469 38.455,-1.291 0,0 0,0" />
      </g>
      <g
         transform="matrix(0.35277777,0,0,-0.35277777,143.8011,50.172709)"
         id="g188">
        <path
           inkscape:connector-curvature="0"
           id="path190"
           style="fill:#7fcbf6;fill-opacity:1;fill-rule:nonzero;stroke:none"
           d="m 0,0 11.377,-9.201 c 0,0 -9.349,-10.963 -9.719,-11.929 -0.369,-0.966 -19.377,23.195 -20.021,27.383 -0.644,4.189 12.319,4.73 12.319,4.73 z" />
      </g>
      <g
         transform="matrix(0.35277777,0,0,-0.35277777,156.98451,46.231123)"
         id="g192">
        <path
           inkscape:connector-curvature="0"
           id="path194"
           style="fill:#7fcbf6;fill-opacity:1;fill-rule:nonzero;stroke:none"
           d="m 0,0 c -0.966,-0.087 -25.993,-20.374 -25.993,-20.374 0,0 14.637,-10.375 15.805,-11.957 0,0 18.886,17.434 18.886,23.711 v 1.1 z" />
      </g>
      <g
         transform="matrix(0.35277777,0,0,-0.35277777,148.09613,55.15379)"
         id="g196">
        <path
           inkscape:connector-curvature="0"
           id="path198"
           style="fill:#4587ac;fill-opacity:1;fill-rule:nonzero;stroke:none"
           d="m 0,0 c 0,0 -3.899,-103.661 1.025,-137.533 0,0 -9.468,71.091 -1.025,137.533" />
      </g>
      <g
         transform="matrix(0.35277777,0,0,-0.35277777,145.27853,62.229736)"
         id="g200">
        <path
           inkscape:connector-curvature="0"
           id="path202"
           style="fill:#4587ac;fill-opacity:1;fill-rule:nonzero;stroke:none"
           d="m 0,0 c 0,-2.046 -1.096,-3.705 -2.448,-3.705 -1.351,0 -2.447,1.659 -2.447,3.705 0,2.046 1.096,3.705 2.447,3.705 C -1.096,3.705 0,2.046 0,0" />
      </g>
      <g
         transform="matrix(0.35277777,0,0,-0.35277777,145.24961,71.946824)"
         id="g204">
        <path
           inkscape:connector-curvature="0"
           id="path206"
           style="fill:#4587ac;fill-opacity:1;fill-rule:nonzero;stroke:none"
           d="m 0,0 c 0,-2.046 -1.096,-3.705 -2.448,-3.705 -1.351,0 -2.447,1.659 -2.447,3.705 0,2.046 1.096,3.705 2.447,3.705 C -1.096,3.705 0,2.046 0,0" />
      </g>
      <g
         transform="matrix(0.35277777,0,0,-0.35277777,145.27853,83.425471)"
         id="g208">
        <path
           inkscape:connector-curvature="0"
           id="path210"
           style="fill:#4587ac;fill-opacity:1;fill-rule:nonzero;stroke:none"
           d="m 0,0 c 0,-2.046 -1.096,-3.705 -2.448,-3.705 -1.351,0 -2.447,1.659 -2.447,3.705 0,2.046 1.096,3.705 2.447,3.705 C -1.096,3.705 0,2.046 0,0" />
      </g>
      <g
         transform="matrix(0.35277777,0,0,-0.35277777,146.14203,94.568487)"
         id="g212">
        <path
           inkscape:connector-curvature="0"
           id="path214"
           style="fill:#4587ac;fill-opacity:1;fill-rule:nonzero;stroke:none"
           d="m 0,0 c 0,-2.046 -1.096,-3.705 -2.448,-3.705 -1.351,0 -2.447,1.659 -2.447,3.705 0,2.046 1.096,3.705 2.447,3.705 C -1.096,3.705 0,2.046 0,0" />
      </g>
      <g
         transform="matrix(0.35277777,0,0,-0.35277777,146.14203,106.95106)"
         id="g216">
        <path
           inkscape:connector-curvature="0"
           id="path218"
           style="fill:#4587ac;fill-opacity:1;fill-rule:nonzero;stroke:none"
           d="m 0,0 c 0,-2.046 -1.096,-3.705 -2.448,-3.705 -1.351,0 -2.447,1.659 -2.447,3.705 0,2.046 1.096,3.705 2.447,3.705 C -1.096,3.705 0,2.046 0,0" />
      </g>
      <g
         transform="matrix(0.35277777,0,0,-0.35277777,152.21122,62.741158)"
         id="g220">
        <path
           inkscape:connector-curvature="0"
           id="path222"
           style="fill:#7fcbf6;fill-opacity:1;fill-rule:nonzero;stroke:none"
           d="m 0,0 c 0,0 30.283,-2.255 31.894,-2.255 0,0 -1.611,-22.551 -2.578,-23.84 C 28.35,-27.383 15.141,-35.76 13.531,-35.76 11.92,-35.76 1.289,-28.35 0,-26.095 -1.289,-23.84 0,0 0,0" />
      </g>
      <g
         transform="matrix(0.35277777,0,0,-0.35277777,127.66279,50.172709)"
         id="g224">
        <path
           inkscape:connector-curvature="0"
           id="path226"
           style="fill:#69afdf;fill-opacity:1;fill-rule:nonzero;stroke:none"
           d="m 0,0 c 0,0 -33.081,-61.561 -39.855,-65.427 -6.775,-3.866 -40.083,64.896 -40.083,64.896 0,0 -14.65,-12.447 -15.764,-20.627 -1.114,-8.18 40.035,-74.244 58.389,-73.116 18.354,1.127 43.687,48.778 43.687,48.778 0,0 0.025,37.464 -6.374,45.496" />
      </g>
      <g
         transform="matrix(0.35277777,0,0,-0.35277777,214.15659,47.625689)"
         id="g228">
        <path
           inkscape:connector-curvature="0"
           id="path230"
           style="fill:#69afdf;fill-opacity:1;fill-rule:nonzero;stroke:none"
           d="m 0,0 c 0,0 22.233,-10.688 25.777,-18.343 0,0 -44.157,-72.959 -76.373,-74.987 -32.216,-2.029 -72.232,38.563 -78.319,43.073 -6.086,4.511 -10.595,13.46 -7.697,24.484 2.897,11.025 14.907,20.728 18.363,14.814 3.456,-5.915 45.746,-47.674 60.566,-47.029 C -42.864,-57.344 -5.155,-12.242 0,0" />
      </g>
      <g
         transform="matrix(0.35277777,0,0,-0.35277777,215.91209,50.172709)"
         id="g232">
        <path
           inkscape:connector-curvature="0"
           id="path234"
           style="fill:#ffdac6;fill-opacity:1;fill-rule:nonzero;stroke:none"
           d="m 0,0 c 0,0 -15.464,22.456 -18.846,27.241 -3.383,4.785 4.51,8.224 7.409,5.538 2.9,-2.686 10.309,-9.773 11.437,-10.418 1.128,-0.644 5.96,4.594 7.249,7.935 1.288,3.341 5.154,26.002 6.765,26.43 1.611,0.428 7.087,0.05 7.732,-1.372 0.644,-1.421 -3.866,-25.655 -3.222,-26.908 0.644,-1.252 15.142,23.939 16.752,23.263 1.611,-0.676 6.121,-4.071 6.443,-6.078 0.323,-2.007 -13.852,-23.27 -13.53,-24.88 0.322,-1.611 19.329,6.86 20.618,6.49 1.289,-0.369 2.899,-7.322 2.577,-8.034 C 51.062,18.495 33.666,9.153 31.41,7.22 29.155,5.287 19.349,-11.143 15.876,-10.821 12.403,-10.499 1.385,-2.01 0,0" />
      </g>
      <g
         transform="matrix(0.35277777,0,0,-0.35277777,89.610202,57.636852)"
         id="g236">
        <path
           inkscape:connector-curvature="0"
           id="path238"
           style="fill:#f1c9b5;fill-opacity:1;fill-rule:nonzero;stroke:none"
           d="m 0,0 c 0,0 -18.783,-43.666 -26.547,-52.847 -7.763,-9.182 -38.207,-23.959 -38.207,-23.959 0,0 -4.349,-9.868 -2.416,-11.801 1.933,-1.933 43.336,15.899 50.179,23.655 6.843,7.756 31.963,56.309 31.963,56.309 0,0 -6.587,7.049 -14.972,8.643" />
      </g>
      <g
         transform="matrix(0.35277777,0,0,-0.35277777,92.316854,61.895021)"
         id="g240">
        <path
           inkscape:connector-curvature="0"
           id="path242"
           style="fill:#cd6117;fill-opacity:1;fill-rule:nonzero;stroke:none"
           d="m 0,0 c 0,0 -8.01,9.521 -9.964,10.81 -1.954,1.289 8.355,23.195 13.51,27.061 5.154,3.866 15.644,6.341 15.644,6.341 0,0 -3.113,-29.214 -3.902,-32.436 C 14.499,8.555 0,0 0,0" />
      </g>
      <g
         transform="matrix(0.35277777,0,0,-0.35277777,129.01446,48.128115)"
         id="g244">
        <path
           inkscape:connector-curvature="0"
           id="path246"
           style="fill:#ffdac6;fill-opacity:1;fill-rule:nonzero;stroke:none"
           d="m 0,0 c 0,0 7.847,5.165 9.538,5.187 1.691,0.023 9.906,-7.329 9.906,-7.329 0,0 -17.233,3 -19.444,2.142" />
      </g>
      <g
         transform="matrix(0.35277777,0,0,-0.35277777,78.679595,51.491887)"
         id="g248">
        <path
           inkscape:connector-curvature="0"
           id="path250"
           style="fill:#ffdac6;fill-opacity:1;fill-rule:nonzero;stroke:none"
           d="m 0,0 c 0,0 -1.289,3.576 6.121,-0.943 7.41,-4.519 27.986,-27.155 37.027,-35.493 9.042,-8.338 5.609,-21.546 5.609,-21.546 0,0 -26.893,17.537 -36.458,28.493 C 2.734,-18.533 0,-9.993 0,0" />
      </g>
      <g
         transform="matrix(0.35277777,0,0,-0.35277777,111.09659,64.345627)"
         id="g252">
        <path
           inkscape:connector-curvature="0"
           id="path254"
           style="fill:#ffdac6;fill-opacity:1;fill-rule:nonzero;stroke:none"
           d="m 0,0 c 0,0 22.636,8.061 31.335,20.802 8.698,12.74 12.886,20.88 15.624,23.334 2.739,2.454 19.092,6.596 23.276,-0.307 0,0 -12.893,-2.225 -15.326,-3.654 -0.483,-3.685 0.742,-3.575 3.728,-5.087 2.987,-1.513 11.598,-2.45 11.598,-6.036 0,0 -14.194,-5.156 -22.002,0.298 0,0 -7.621,-17.951 -19.991,-29.35 C 15.871,-11.399 -7.426,-23.2 -15.832,-23.098 -24.238,-22.996 0,0 0,0" />
      </g>
      <g
         transform="matrix(0.35277777,0,0,-0.35277777,67.477348,191.78134)"
         id="g256">
        <path
           inkscape:connector-curvature="0"
           id="path258"
           style="fill:#d4f2f9;fill-opacity:1;fill-rule:nonzero;stroke:none"
           d="m 0,0 c 0,0 -4.769,-10.175 -5.253,-12.591 -0.483,-2.416 3.74,-23.628 5.253,-24.861 1.513,-1.234 22.292,1.666 21.809,-16.214 0,0 -28.511,-3.866 -40.109,0 -11.598,3.866 -11.598,37.71 -12.081,43.983 -0.483,6.273 20.296,19.116 20.296,19.116 z" />
      </g>
      <g
         transform="matrix(0.35277777,0,0,-0.35277777,59.613367,92.823789)"
         id="g260">
        <path
           inkscape:connector-curvature="0"
           id="path262"
           style="fill:#25818b;fill-opacity:1;fill-rule:nonzero;stroke:none"
           d="m 0,0 c 0,0 27.782,-19.876 70.069,0 0,0 26.138,-108.215 27.125,-148.227 0,0 -42.227,-75.449 -54.769,-101.866 -12.541,-26.417 -8.724,-18.038 -15.383,-27.034 -3.43,-4.635 -8.111,-14.202 -8.111,-14.202 0,0 -14.517,7.231 -12.754,14.202 1.763,6.97 11.626,19.303 16.7,25.746 5.074,6.443 26.82,90.204 40.35,103.154 0,0 -26.317,91.75 -34.972,115.491 0,0 -40.313,16.87 -28.255,32.736" />
      </g>
      <g
         transform="matrix(0.35277777,0,0,-0.35277777,2.5032676,169.13428)"
         id="g264">
        <path
           inkscape:connector-curvature="0"
           id="path266"
           style="fill:#d4f2f9;fill-opacity:1;fill-rule:nonzero;stroke:none"
           d="m 0,0 c 0,0 -8.772,-16.402 -9.739,-21.467 -0.966,-5.064 5.799,-23.371 0,-25.573 -5.799,-2.203 -11.114,-2.348 -11.114,-2.348 0,0 -10.148,33.972 -4.349,46.536 l 4.832,4.832 c 0,0 -6.282,5.799 0.483,15.947 0,0 15.142,-4.349 21.585,-7.249 C 8.141,7.779 0,0 0,0" />
      </g>
      <g
         transform="matrix(0.35277777,0,0,-0.35277777,79.08857,103.67223)"
         id="g268">
        <path
           inkscape:connector-curvature="0"
           id="path270"
           style="fill:#25818b;fill-opacity:1;fill-rule:nonzero;stroke:none"
           d="m 0,0 c 0,0 -12.48,-4.784 -12.78,-9.294 -0.299,-4.51 -38.502,-87.627 -67.08,-119.199 0,0 -94.298,-44.457 -107.829,-50.901 -13.53,-6.443 -23.839,-9.02 -27.705,-9.02 -3.866,0 0,13.531 0,13.531 0,0 22.551,11.597 29.638,15.463 7.088,3.866 50.498,35.53 73.452,44.507 0,0 32.444,72.759 38.015,101.914 2.546,13.328 -0.491,32.895 19.084,43.751 0,0 40.579,-27.901 55.205,-30.752" />
      </g>
      <g
         transform="matrix(0.35277777,0,0,-0.35277777,68.79201,47.625689)"
         id="g272">
        <path
           inkscape:connector-curvature="0"
           id="path274"
           style="fill:#ffdac6;fill-opacity:1;fill-rule:nonzero;stroke:none"
           d="m 0,0 c 0,0 -15.464,-3.222 -22.551,0 -7.088,3.222 -47.035,17.46 -62.499,44.489 -15.463,27.03 -18.363,60.534 -10.953,84.052 0,0 11.92,2.899 14.497,6.121 2.577,3.222 5.155,8.698 6.443,10.953 1.289,2.255 -3.866,4.833 -5.154,3.866 -1.289,-0.966 -4.51,-5.154 -7.41,-5.799 -2.899,-0.644 -5.154,8.054 -7.41,13.531 -2.255,5.477 -13.852,15.464 -17.396,13.209 -3.544,-2.256 4.188,-8.377 5.477,-10.632 1.288,-2.255 3.866,-9.02 3.866,-9.02 0,0 -6.675,7.087 -10.264,9.342 -3.589,2.256 -11.643,4.511 -13.254,1.933 -1.611,-2.577 5.799,-6.443 7.732,-8.698 1.933,-2.255 4.188,-7.41 4.188,-7.41 0,0 -10.442,5.477 -12.147,6.444 -1.706,0.966 -8.793,0 -8.793,-3.222 0,-3.222 10.953,-5.477 15.785,-9.665 4.833,-4.188 6.766,-9.987 6.766,-9.987 0,0 -13.106,-64.838 11.056,-96.748 24.162,-31.909 70.127,-59.352 70.127,-59.352 0,0 10.65,-28.496 12.091,-29.14 1.44,-0.645 57.987,8.698 53.871,21.584 -4.115,12.887 -10.389,26.398 -10.389,26.398 0,0 -10.016,1.63 -13.787,5.818 C 6.121,2.255 0,0 0,0" />
      </g>
      <g
         transform="matrix(0.35277777,0,0,-0.35277777,60.536445,47.493927)"
         id="g276">
        <path
           inkscape:connector-curvature="0"
           id="path278"
           style="fill:#09242d;fill-opacity:1;fill-rule:nonzero;stroke:none"
           d="m 0,0 c 0,0 10.656,0.177 13.002,-1.709 2.346,-1.886 14.344,-37.791 32.628,-32.813 14.479,3.941 -0.971,26.018 -2.661,26.929 0,0 3.685,1.428 8.46,-0.532 0,0 7.556,-21.833 10.034,-24.806 2.478,-2.974 10.506,-17.055 11.795,-21.565 1.289,-4.51 -6.221,-13.208 -6.221,-13.208 0,0 0.078,-16.654 -1.111,-22.775 -1.188,-6.121 -2.255,-22.716 -2.255,-22.716 l 4.088,-16.54 c 0,0 -35.659,-20.472 -71.419,0 0,0 18.041,21.117 18.363,27.882 0.322,6.765 -9.362,37.048 -12.886,47.035 -3.524,9.987 -8.425,22.869 -8.425,22.869 0,0 5.752,-12.92 10.206,-13.527 4.454,-0.606 10.872,15.226 -2.747,45.103" />
      </g>
      <g
         transform="matrix(0.35277777,0,0,-0.35277777,71.434386,42.05681)"
         id="g280">
        <path
           inkscape:connector-curvature="0"
           id="path282"
           style="fill:#ffdac6;fill-opacity:1;fill-rule:nonzero;stroke:none"
           d="m 0,0 c 0,0 4.33,-16.77 6.796,-19.822 2.466,-3.051 4.532,-4.605 -4.394,-3.184 -8.926,1.421 -13.033,3.961 -13.033,3.961 0,0 -5.139,27.362 -7.102,33.937 C -19.696,21.467 -2.658,3.944 0,0" />
      </g>
      <g
         transform="matrix(0.35277777,0,0,-0.35277777,74.588184,5.5467449)"
         id="g284">
        <path
           inkscape:connector-curvature="0"
           id="path286"
           style="fill:#ea8b00;fill-opacity:1;fill-rule:nonzero;stroke:none"
           d="m 0,0 c 0,0 -24.403,7.249 -45.183,-10.873 -20.779,-18.121 -18.846,-37.77 -16.913,-47.396 1.933,-9.626 -2.416,-24.896 -3.866,-25.234 -1.45,-0.339 10.873,-1.353 14.497,0 0,0 -1.691,-10.564 -3.382,-12.7 -1.692,-2.136 9.906,1.005 13.047,4.146 0,0 -0.966,-8.939 0,-8.456 0.967,0.483 14.739,3.815 17.397,10.123 2.657,6.307 46.632,3.87 46.632,3.87 0,0 9.906,-0.261 11.598,0 1.691,0.262 -3.383,3.62 -3.625,5.324 -0.241,1.704 5.316,0.229 7.49,0 0,0 -5.66,7.18 -10.562,15.436 -4.901,8.255 -3.451,7.416 -2.727,10.513 0.725,3.097 8.599,16.588 5.074,33.018 C 25.953,-5.799 5.557,-2.175 0,0" />
      </g>
      <g
         transform="matrix(0.35277777,0,0,-0.35277777,82.543675,19.236286)"
         id="g288">
        <path
           inkscape:connector-curvature="0"
           id="path290"
           style="fill:#ffdac6;fill-opacity:1;fill-rule:nonzero;stroke:none"
           d="m 0,0 c 0,0 7.41,-33.729 4.832,-44.698 -2.577,-10.97 -15.141,-25.789 -25.45,-25.789 -10.309,0 -27.384,11.63 -30.283,25.789 l -3.866,19.968 c 0,0 22.068,16.419 21.585,37.44 0,0 2.899,-14.862 -3.141,-21.203 0,0 19.571,11.78 21.987,25.069 0,0 5.96,-16.722 14.336,-16.576" />
      </g>
      <g
         transform="matrix(0.35277777,0,0,-0.35277777,64.24601,28.745552)"
         id="g292">
        <path
           inkscape:connector-curvature="0"
           id="path294"
           style="fill:#ffdac6;fill-opacity:1;fill-rule:nonzero;stroke:none"
           d="m 0,0 c 0,0 -4.188,3.846 -9.665,2.225 -5.476,-1.621 -7.087,-10.541 -4.832,-13.491 2.255,-2.949 14.497,-9.292 15.786,0 C 2.577,-1.973 0,0 0,0" />
      </g>
      <g
         transform="matrix(0.35277777,0,0,-0.35277777,72.218611,23.741082)"
         id="g296">
        <path
           inkscape:connector-curvature="0"
           id="path298"
           style="fill:#422511;fill-opacity:1;fill-rule:nonzero;stroke:none"
           d="m 0,0 c 0.502,-1.95 -0.087,-3.787 -1.315,-4.103 -1.227,-0.316 -2.629,1.009 -3.131,2.959 -0.502,1.95 0.087,3.787 1.315,4.103 C -1.904,3.275 -0.502,1.95 0,0" />
      </g>
      <g
         transform="matrix(0.35277777,0,0,-0.35277777,67.683935,21.447427)"
         id="g300">
        <path
           inkscape:connector-curvature="0"
           id="path302"
           style="fill:#b18004;fill-opacity:1;fill-rule:nonzero;stroke:none"
           d="M 0,0 C 0,0 7.007,10.038 15.705,7.622 15.705,7.622 1.208,13.399 0,0" />
      </g>
      <g
         transform="matrix(0.35277777,0,0,-0.35277777,75.696259,20.83691)"
         id="g304">
        <path
           inkscape:connector-curvature="0"
           id="path306"
           style="fill:#cb926d;fill-opacity:1;fill-rule:nonzero;stroke:none"
           d="m 0,0 c 0,0 -0.242,-9.629 3.141,-10.688 3.383,-1.059 6.765,0.076 7.49,-1.216 0.725,-1.292 -1.605,-5.152 -4.107,-6.85 0,0 7.248,4.051 6.282,8.066 -0.967,4.015 -6.354,0.432 -9.182,1.884 C 0.797,-7.352 0,0 0,0" />
      </g>
      <g
         transform="matrix(0.35277777,0,0,-0.35277777,81.029377,22.030745)"
         id="g308">
        <path
           inkscape:connector-curvature="0"
           id="path310"
           style="fill:#422511;fill-opacity:1;fill-rule:nonzero;stroke:none"
           d="m 0,0 c 0.502,-1.95 -0.087,-3.787 -1.315,-4.103 -1.227,-0.316 -2.629,1.009 -3.131,2.959 -0.502,1.95 0.087,3.787 1.315,4.103 C -1.904,3.275 -0.502,1.95 0,0" />
      </g>
      <g
         transform="matrix(0.35277777,0,0,-0.35277777,77.145293,18.321639)"
         id="g312">
        <path
           inkscape:connector-curvature="0"
           id="path314"
           style="fill:#b18004;fill-opacity:1;fill-rule:nonzero;stroke:none"
           d="M 0,0 C 0,0 9.181,1.38 13.531,-3.674 13.531,-3.674 6.04,8.004 0,0" />
      </g>
      <g
         transform="matrix(0.35277777,0,0,-0.35277777,68.651957,33.818073)"
         id="g316">
        <path
           inkscape:connector-curvature="0"
           id="path318"
           style="fill:#eca999;fill-opacity:1;fill-rule:nonzero;stroke:none"
           d="m 0,0 c 2.286,-7.259 6.313,-15.041 13.203,-16.063 1.363,-0.203 2.667,-0.114 3.916,0.185 C 17.045,-6.206 4.586,-1.429 0,0" />
      </g>
      <g
         transform="matrix(0.35277777,0,0,-0.35277777,80.810513,31.544209)"
         id="g320">
        <path
           inkscape:connector-curvature="0"
           id="path322"
           style="fill:#983e1f;fill-opacity:1;fill-rule:nonzero;stroke:none"
           d="m 0,0 c -3.624,0.725 -37.209,6.589 -37.209,6.589 0,0 0.621,-6.292 2.744,-13.035 4.586,-1.429 17.044,-6.205 17.119,-15.877 C -6.425,-19.703 0,0 0,0" />
      </g>
      <g
         transform="matrix(0.35277777,0,0,-0.35277777,61.828635,83.427765)"
         id="g324">
        <path
           inkscape:connector-curvature="0"
           id="path326"
           style="fill:#ffdac6;fill-opacity:1;fill-rule:nonzero;stroke:none"
           d="m 0,0 c -0.74,-3.334 2.775,-5.261 2.775,-5.261 0,0 -4.186,-1.435 -1.557,-6.428 2.629,-4.994 15.71,-6.764 16.657,-3.768 0.474,1.498 -1.413,3.182 -4.731,4.915 -2.597,1.357 -4.02,2.883 -5.092,3.557 0,0 15.859,-5.01 15.408,0 -0.242,2.694 -4.173,3.984 -7.575,5.685 -2.926,1.464 -5.293,3.492 -6.525,3.964 0,0 2.893,-0.818 6.236,-1.076 C 19.351,1.3 23.554,0.865 23.555,3.466 23.556,6.932 19.825,7.14 16.174,7.799 14.07,8.179 9.656,8.537 9.36,10.343 4.236,11.36 1.155,9.05 2.775,4.101 2.775,4.101 0.443,1.993 0,0" />
      </g>
      <g
         transform="matrix(0.35277777,0,0,-0.35277777,123.38666,42.05681)"
         id="g328">
        <path
           inkscape:connector-curvature="0"
           id="path330"
           style="fill:#ffdac6;fill-opacity:1;fill-rule:nonzero;stroke:none"
           d="m 0,0 c 0,0 40.149,15.767 48.525,19.32 3.807,1.615 11.09,3.899 19.229,2.587 9.768,-1.575 20.747,-7.329 28.128,-12.247 13.531,-9.016 36.404,-32.855 36.404,-32.855 0,0 -5.477,-12.565 -14.497,-4.833 C 108.769,-20.296 81.385,2.577 66.244,4.51 51.102,6.443 0.524,-20.035 0.524,-20.035 Z" />
      </g>
      <g
         transform="matrix(0.35277777,0,0,-0.35277777,164.94,50.694221)"
         id="g332">
        <path
           inkscape:connector-curvature="0"
           id="path334"
           style="fill:#ffdac6;fill-opacity:1;fill-rule:nonzero;stroke:none"
           d="m 0,0 c 0,0 -9.343,-8.698 -10.631,-11.276 -1.289,-2.577 -3.222,-7.087 -3.222,-7.087 0,0 2.255,-1.289 4.188,0 1.933,1.289 5.477,5.155 6.766,5.477 1.288,0.322 3.221,-0.645 5.798,-4.188 2.578,-3.544 4.188,-11.92 4.188,-11.92 0,0 -0.322,-9.021 2.256,-9.665 2.577,-0.644 3.221,7.088 3.221,10.631 0,3.544 -1.933,10.631 -1.933,11.92 0,1.289 6.121,-4.832 7.088,-8.376 0.966,-3.544 2.577,-12.242 3.543,-12.242 0.967,0 6.444,2.57 2.9,13.849 -3.544,11.279 -4.833,9.991 -4.833,9.991 0,0 7.41,-4.188 9.987,-8.376 2.578,-4.189 3.222,-7.732 4.511,-7.41 1.288,0.322 1.933,3.828 0,9.324 C 31.894,-13.853 18.161,-2.17 14.497,1.289 10.833,4.747 1.968,1.867 0,0" />
      </g>
      <g
         transform="matrix(0.35277777,0,0,-0.35277777,88.329407,115.68326)"
         id="g336">
        <path
           inkscape:connector-curvature="0"
           id="path338"
           style="fill:#ffdac6;fill-opacity:1;fill-rule:nonzero;stroke:none"
           d="m 0,0 c 0,0 16.527,-97.74 18.958,-105.519 0,0 -7.724,-16.609 -11.208,-39.099 -3.484,-22.489 -9.842,-52.118 -8.583,-53.701 1.259,-1.582 6.96,-6.845 13.62,4.63 6.661,11.474 29.745,70.683 32.312,88.823 0,0 -0.988,108.547 -4.292,118.598 C 37.502,23.782 26.769,35.584 14.493,33.882 2.217,32.18 -1.229,6.652 0,0" />
      </g>
      <g
         transform="matrix(0.35277777,0,0,-0.35277777,88.203889,176.70722)"
         id="g340">
        <path
           inkscape:connector-curvature="0"
           id="path342"
           style="fill:#edc56b;fill-opacity:1;fill-rule:nonzero;stroke:none"
           d="m 0,0 c 0,0 6.991,-7.865 20.306,-9.565 0,0 -17.423,-42.688 -21.461,-51.795 -4.038,-9.107 -0.236,-12.562 -0.236,-12.562 0,0 1.349,-5.342 -5.889,-4.723 -7.238,0.62 -7.747,4.98 -7.11,10.284 C -13.753,-63.056 -0.2,-10.629 0,0" />
      </g>
      <g
         transform="matrix(0.35277777,0,0,-0.35277777,83.119797,198.43621)"
         id="g344">
        <path
           inkscape:connector-curvature="0"
           id="path346"
           style="fill:#99471d;fill-opacity:1;fill-rule:nonzero;stroke:none"
           d="m 0,0 c 0,0 10.178,-8.408 16.754,-6.115 0,0 4.207,-20.862 9.449,-24.827 5.242,-3.966 25.598,-0.966 28.451,-3.436 2.854,-2.47 5.803,-12.676 5.601,-17.022 -0.203,-4.346 -35.017,-5.14 -46.576,-2.99 0,0 -22.853,18.44 -25.106,27.119 0,0 8.704,21.705 11.427,27.271" />
      </g>
      <g
         transform="matrix(0.35277777,0,0,-0.35277777,105.51145,110.31903)"
         id="g348">
        <path
           inkscape:connector-curvature="0"
           id="path350"
           style="fill:#ffdac6;fill-opacity:1;fill-rule:nonzero;stroke:none"
           d="m 0,0 c 0,0 -7.425,-96.121 -6.465,-110.296 0.959,-14.175 42.839,-83.761 46.705,-91.492 3.866,-7.732 4.752,-13.531 10.43,-11.598 5.678,1.933 -3.987,38.659 -9.786,56.055 -5.798,17.397 -17.211,39.304 -17.948,41.881 0,0 14.727,55.531 17.304,81.303 C 42.817,-8.374 35.719,14.497 0,0" />
      </g>
      <g
         transform="matrix(0.35277777,0,0,-0.35277777,117.37745,180.02805)"
         id="g352">
        <path
           inkscape:connector-curvature="0"
           id="path354"
           style="fill:#edc56b;fill-opacity:1;fill-rule:nonzero;stroke:none"
           d="m 0,0 c 0,0 15.29,9.182 18.76,9.182 0,0 23.622,-69.103 26.109,-73.452 2.488,-4.35 -20.224,-14.014 -20.949,-10.148 0,0 4.495,10.631 -0.29,24.645 C 18.846,-35.76 2.899,-6.765 0,0" />
      </g>
      <g
         transform="matrix(0.35277777,0,0,-0.35277777,129.9926,203.55364)"
         id="g356">
        <path
           inkscape:connector-curvature="0"
           id="path358"
           style="fill:#99471d;fill-opacity:1;fill-rule:nonzero;stroke:none"
           d="m 0,0 c 0,0 -4.23,-5.316 -13.23,0 0,0 -15.764,-28.511 -22.53,-29.961 0,0 -12.08,2.9 -15.946,1.933 -3.866,-0.966 -9.182,-13.53 -7.249,-16.913 0,0 22.229,-11.598 47.116,-5.316 0,0 10.389,16.914 14.738,21.746 0,0 1.688,-2.899 6.401,-1.933 4.714,0.967 12.929,9.182 13.412,13.531 0,0 -10.919,18.529 -13.412,21.745 C 9.3,4.832 5.319,2.347 0,0" />
      </g>
      <g
         transform="matrix(0.35277777,0,0,-0.35277777,91.143127,90.326369)"
         id="g360">
        <path
           inkscape:connector-curvature="0"
           id="path362"
           style="fill:#562306;fill-opacity:1;fill-rule:nonzero;stroke:none"
           d="m 0,0 c 0,0 -11.806,-29.609 -13.67,-57.637 -1.865,-28.027 0,-58.954 0,-58.954 0,0 27.667,-11.598 45.834,-7.088 18.168,4.51 60.329,4.51 63.793,9.665 0,0 -4.131,80.555 -24.647,109.729 C 71.31,-4.285 8.699,-9.05 0,0" />
      </g>
      <g
         transform="matrix(0.35277777,0,0,-0.35277777,111.09659,39.897457)"
         id="g364">
        <path
           inkscape:connector-curvature="0"
           id="path366"
           style="fill:#ffdac6;fill-opacity:1;fill-rule:nonzero;stroke:none"
           d="m 0,0 c 0,0 -2.867,-13.853 -2.76,-17.074 0.107,-3.222 6.288,-1.933 9.319,0 0,0 0.513,-5.477 0,-11.598 -0.514,-6.121 -9.383,-27.706 -24.439,-24.484 -15.056,3.222 -14.71,28.994 -12.467,35.115 0,0 4.821,-1.611 7.076,-0.966 2.255,0.644 9.826,6.443 9.423,19.007 0,0 11.629,2.631 13.848,0" />
      </g>
      <g
         transform="matrix(0.35277777,0,0,-0.35277777,101.43803,45.778862)"
         id="g368">
        <path
           inkscape:connector-curvature="0"
           id="path370"
           style="fill:#dd5d05;fill-opacity:1;fill-rule:nonzero;stroke:none"
           d="m 0,0 c 0,0 -4.553,-1.193 -7.936,-1.676 0,0 -2.695,-23.211 -5.836,-29.976 -3.141,-6.765 -16.189,-14.014 -14.497,-21.746 1.691,-7.731 8.94,-11.597 8.94,-11.597 0,0 -4.35,-17.438 1.449,-31.694 0,0 -17.129,-25.746 -18.579,-45.317 0,0 59.855,-14.014 86.191,0 0,0 -7.875,29.612 -25.329,44.592 0,0 -6.523,1.975 2.658,26.378 0,0 14.014,2.416 14.014,14.497 0,12.081 -5.557,21.263 1.208,28.028 6.766,6.765 26.82,19.027 26.82,19.027 0,0 -4.833,20.357 -4.349,23.015 0,0 -20.055,-8.457 -24.887,-10.148 -4.832,-1.692 -6.995,-4.372 -6.995,-4.372 0,0 -0.402,-28.73 -17.845,-30.421 C -2.416,-33.102 -0.242,-3.141 0,0" />
      </g>
      <g
         transform="matrix(0.35277777,0,0,-0.35277777,97.685426,44.680207)"
         id="g372">
        <path
           inkscape:connector-curvature="0"
           id="path374"
           style="fill:#ffdac6;fill-opacity:1;fill-rule:nonzero;stroke:none"
           d="m 0,0 c 0,0 -7.274,-0.966 -7.918,-2.899 -0.644,-1.933 5.61,-20.73 7.584,-21.634 1.974,-0.903 6.452,0.938 6.86,2.653 C 6.933,-20.165 0.508,-4.188 0,0" />
      </g>
      <g
         transform="matrix(0.35277777,0,0,-0.35277777,93.861809,45.322721)"
         id="g376">
        <path
           inkscape:connector-curvature="0"
           id="path378"
           style="fill:#ffdac6;fill-opacity:1;fill-rule:nonzero;stroke:none"
           d="M 0,0 C -2.137,1.959 -7.41,-4.394 -7.732,-5.902 -8.054,-7.41 1.099,-27.146 2.71,-27.79 c 1.611,-0.645 7.377,2.899 7.795,5.079 0,0 -6.639,19.167 -10.505,22.711" />
      </g>
      <g
         transform="matrix(0.35277777,0,0,-0.35277777,88.599705,50.827606)"
         id="g380">
        <path
           inkscape:connector-curvature="0"
           id="path382"
           style="fill:#ffdac6;fill-opacity:1;fill-rule:nonzero;stroke:none"
           d="m 0,0 c 0,0 8.101,-15.65 11.283,-17.517 0,0 7.859,2.871 6.365,4.787 C 16.154,-10.813 8.036,4.185 7.505,5.335 6.974,6.485 -0.864,1.635 0,0" />
      </g>
      <g
         transform="matrix(0.35277777,0,0,-0.35277777,109.13779,10.234809)"
         id="g384">
        <path
           inkscape:connector-curvature="0"
           id="path386"
           style="fill:#ffdac6;fill-opacity:1;fill-rule:nonzero;stroke:none"
           d="m 0,0 c 0,0 -6.121,-20.618 -18.685,-29.961 0,0 -7.732,-24.484 -5.799,-33.182 1.933,-8.698 9.665,-23.517 21.585,-25.128 11.919,-1.611 29.638,11.275 34.47,20.618 4.833,9.342 9.343,23.449 9.343,23.449 0,0 -37.692,12.955 -40.914,44.204" />
      </g>
      <g
         transform="matrix(0.35277777,0,0,-0.35277777,121.51659,28.024757)"
         id="g388">
        <path
           inkscape:connector-curvature="0"
           id="path390"
           style="fill:#ffdac6;fill-opacity:1;fill-rule:nonzero;stroke:none"
           d="M 0,0 C 0,0 4.317,7.364 9.65,4.825 12.843,3.304 12.443,-6.095 9.65,-8.38 6.857,-10.666 1.525,-13.677 -0.507,-6.965 -2.539,-0.254 0,0 0,0" />
      </g>
      <g
         transform="matrix(0.35277777,0,0,-0.35277777,102.20536,21.941774)"
         id="g392">
        <path
           inkscape:connector-curvature="0"
           id="path394"
           style="fill:#ffdac6;fill-opacity:1;fill-rule:nonzero;stroke:none"
           d="m 0,0 c 0,0 2.255,5.157 -2.9,7.412 -5.155,2.256 -13.531,-10.953 -8.054,-16.107 5.477,-5.155 9.343,-2.324 9.343,-2.324 z" />
      </g>
      <g
         transform="matrix(0.35277777,0,0,-0.35277777,111.09659,22.232498)"
         id="g396">
        <path
           inkscape:connector-curvature="0"
           id="path398"
           style="fill:#cb926d;fill-opacity:1;fill-rule:nonzero;stroke:none"
           d="m 0,0 c 0,0 -1.691,-13.125 -5.799,-13.328 -4.107,-0.203 -7.007,3.905 -9.181,2.938 -2.175,-0.966 -2.658,-4.349 2.174,-8.698 0,0 -7.973,5.316 -5.074,9.544 2.9,4.228 7.732,-1.571 10.39,-1.571 2.658,0 6.282,4.591 7.49,11.115" />
      </g>
      <g
         transform="matrix(0.35277777,0,0,-0.35277777,110.12285,37.434433)"
         id="g400">
        <path
           inkscape:connector-curvature="0"
           id="path402"
           style="fill:#eca999;fill-opacity:1;fill-rule:nonzero;stroke:none"
           d="M 0,0 C 1.213,-0.302 2.461,-0.385 3.727,-0.158 9.742,0.922 15.359,7.806 18.638,12.647 7.258,13.614 2.033,4.95 0,0" />
      </g>
      <g
         transform="matrix(0.35277777,0,0,-0.35277777,116.69786,32.972712)"
         id="g404">
        <path
           inkscape:connector-curvature="0"
           id="path406"
           style="fill:#983e1f;fill-opacity:1;fill-rule:nonzero;stroke:none"
           d="M 0,0 C 1.858,2.743 2.002,8.811 2.002,8.811 -0.172,8.57 -33.757,4.574 -33.757,4.574 c 0,0 7.304,-15.279 15.119,-17.221 C -16.605,-7.697 -11.38,0.967 0,0" />
      </g>
      <g
         transform="matrix(0.35277777,0,0,-0.35277777,117.49827,24.917172)"
         id="g408">
        <path
           inkscape:connector-curvature="0"
           id="path410"
           style="fill:#422511;fill-opacity:1;fill-rule:nonzero;stroke:none"
           d="m 0,0 c -0.453,-1.889 -1.836,-3.177 -3.089,-2.876 -1.253,0.3 -1.902,2.075 -1.449,3.965 0.453,1.889 1.837,3.176 3.09,2.876 C -0.195,3.664 0.453,1.889 0,0" />
      </g>
      <g
         transform="matrix(0.35277777,0,0,-0.35277777,108.63124,22.861501)"
         id="g412">
        <path
           inkscape:connector-curvature="0"
           id="path414"
           style="fill:#422511;fill-opacity:1;fill-rule:nonzero;stroke:none"
           d="m 0,0 c -0.453,-1.889 -1.836,-3.177 -3.089,-2.876 -1.253,0.3 -1.902,2.075 -1.449,3.965 0.453,1.889 1.837,3.176 3.09,2.876 C -0.195,3.664 0.453,1.889 0,0" />
      </g>
      <g
         transform="matrix(0.35277777,0,0,-0.35277777,106.21132,18.247133)"
         id="g416">
        <path
           inkscape:connector-curvature="0"
           id="path418"
           style="fill:#1e1305;fill-opacity:1;fill-rule:nonzero;stroke:none"
           d="M 0,0 C 0,0 10.541,5.316 13.848,0 13.848,0 8.698,9.906 0,0" />
      </g>
      <g
         transform="matrix(0.35277777,0,0,-0.35277777,115.84646,18.588057)"
         id="g420">
        <path
           inkscape:connector-curvature="0"
           id="path422"
           style="fill:#1e1305;fill-opacity:1;fill-rule:nonzero;stroke:none"
           d="M 0,0 C 0,0 8.689,-0.242 10.38,-6.765 10.38,-6.765 10.157,4.107 0,0" />
      </g>
      <g
         transform="matrix(0.35277777,0,0,-0.35277777,135.44782,23.891577)"
         id="g424">
        <path
           inkscape:connector-curvature="0"
           id="path426"
           style="fill:#b97b0c;fill-opacity:1;fill-rule:nonzero;stroke:none"
           d="m 0,0 c 0,0 -7.732,10.738 -7.249,18.201 0.484,7.464 8.457,11.813 21.504,12.296 0,0 4.833,2.658 9.665,2.416 0,0 15.464,11.598 32.135,-1.208 0,0 16.431,0.054 23.437,-13.504 7.007,-13.557 4.591,-30.229 1.209,-38.444 -3.383,-8.215 -7.007,-11.597 -6.283,-14.739 0.725,-3.141 2.417,-28.027 -0.241,-29.719 -2.658,-1.691 -4.43,-0.966 -4.43,-0.966 0,0 1.53,-9.665 -3.302,-11.114 -4.832,-1.45 -10.631,5.467 -10.631,5.467 0,0 -4.833,-7.159 -14.497,-6.917 -9.665,0.241 -17.638,3.733 -17.638,3.733 0,0 -4.108,-3.998 -6.282,0 0,0 -3.142,-4.458 -7.249,-2.767 -4.108,1.692 -3.141,5.951 -3.141,5.951 0,0 -3.383,-1.083 -5.799,0.47 -2.416,1.553 2.9,27.165 2.658,34.413 C 3.624,-29.183 2.607,-4.113 0,0" />
      </g>
      <g
         transform="matrix(0.35277777,0,0,-0.35277777,136.81162,24.725191)"
         id="g428">
        <path
           inkscape:connector-curvature="0"
           id="path430"
           style="fill:#ffdac6;fill-opacity:1;fill-rule:nonzero;stroke:none"
           d="m 0,0 c 0,0 2.416,-30.736 0.966,-36.026 0,0 3.866,-4.885 6.041,-5.813 0,0 4.591,6.804 6.04,7.529 1.45,0.725 6.766,2.658 9.182,3.141 2.416,0.484 9.665,-1.449 9.665,-1.449 0,0 16.642,6.976 17.879,5.786 0,0 8.699,-11.585 9.907,-12.069 1.208,-0.483 3.866,2.588 3.866,2.588 0,0 0.966,23.248 0,24.103 -0.967,0.854 -5.799,5.928 -5.799,5.928 0,0 -1.933,11.232 -3.141,13.348 -1.208,2.116 -21.988,5.015 -29.719,3.565 -7.732,-1.449 -13.773,0.391 -13.773,0.391 0,0 0.484,-2.565 1.692,-2.807 0,0 -7.732,-2.54 -11.356,-1.149 0,0 1.933,-3.037 4.349,-3.602 C 5.799,3.464 2.175,0.242 0,0" />
      </g>
      <g
         transform="matrix(0.35277777,0,0,-0.35277777,161.47368,31.036985)"
         id="g432">
        <path
           inkscape:connector-curvature="0"
           id="path434"
           style="fill:#ffdac6;fill-opacity:1;fill-rule:nonzero;stroke:none"
           d="M 0,0 C 0,0 5.805,5.328 10.231,4.039 14.658,2.75 16.43,-10.313 12.403,-16.346 8.376,-22.378 1.357,-21.406 1.357,-21.406 1.357,-21.406 -2.255,-6.133 0,0" />
      </g>
      <g
         transform="matrix(0.35277777,0,0,-0.35277777,146.10252,33.206321)"
         id="g436">
        <path
           inkscape:connector-curvature="0"
           id="path438"
           style="fill:#ffdac6;fill-opacity:1;fill-rule:nonzero;stroke:none"
           d="m 0,0 c 0,0 -8.577,-1.57 -9.181,-2.295 -0.605,-0.725 1.007,-5.578 2.336,-5.819 1.329,-0.242 10.926,-0.826 12.402,-0.463 1.477,0.362 7.128,2.367 8.215,3.479 C 14.86,-3.987 0,0 0,0" />
      </g>
      <g
         transform="matrix(0.35277777,0,0,-0.35277777,145.46321,29.370639)"
         id="g440">
        <path
           inkscape:connector-curvature="0"
           id="path442"
           style="fill:#cb926d;fill-opacity:1;fill-rule:nonzero;stroke:none"
           d="m 0,0 c 0,0 2.74,-10.698 1.812,-10.873 -0.928,-0.175 -8.062,-2.459 -8.32,-3.464 -0.257,-1.006 0.118,-3.583 0.716,-4.65 0,0 -2.544,3.04 -2.302,5.819 0.241,2.778 8.456,2.396 8.577,3.674 C 0.604,-8.215 0.483,-1.812 0,0" />
      </g>
      <g
         transform="matrix(0.35277777,0,0,-0.35277777,148.48916,30.478714)"
         id="g444">
        <path
           inkscape:connector-curvature="0"
           id="path446"
           style="fill:#422511;fill-opacity:1;fill-rule:nonzero;stroke:none"
           d="m 0,0 c 0,0 1.684,6.886 7.064,7.128 5.379,0.241 7.675,-3.877 7.916,-6.227 0,0 -4.001,4.266 -7.916,4.415 C 3.149,5.464 0,0 0,0" />
      </g>
      <g
         transform="matrix(0.35277777,0,0,-0.35277777,139.3307,31.930783)"
         id="g448">
        <path
           inkscape:connector-curvature="0"
           id="path450"
           style="fill:#422511;fill-opacity:1;fill-rule:nonzero;stroke:none"
           d="m 0,0 c 0,0 1.087,7.032 5.799,7.274 4.711,0.241 7.182,-2.191 7.457,-5.574 0,0 -3.104,3.972 -7.578,3.317 C 1.204,4.362 0,0 0,0" />
      </g>
      <g
         transform="matrix(0.35277777,0,0,-0.35277777,148.09613,24.249153)"
         id="g452">
        <path
           inkscape:connector-curvature="0"
           id="path454"
           style="fill:#925c03;fill-opacity:1;fill-rule:nonzero;stroke:none"
           d="m 0,0 c 0,0 7.759,1.492 10.658,0.565 2.899,-0.927 4.349,-3.464 4.349,-3.464 0,0 -2.564,1.834 -7.503,1.883 C 2.564,-0.966 0.577,-0.846 0,0" />
      </g>
      <g
         transform="matrix(0.35277777,0,0,-0.35277777,143.55158,25.036482)"
         id="g456">
        <path
           inkscape:connector-curvature="0"
           id="path458"
           style="fill:#925c03;fill-opacity:1;fill-rule:nonzero;stroke:none"
           d="m 0,0 c 0,0 -7.901,0.022 -10.577,-1.428 -2.676,-1.451 -3.629,-4.213 -3.629,-4.213 0,0 2.178,2.28 7.022,3.247 C -2.339,-1.427 -0.41,-0.938 0,0" />
      </g>
      <g
         transform="matrix(0.35277777,0,0,-0.35277777,148.51079,46.231123)"
         id="g460">
        <path
           inkscape:connector-curvature="0"
           id="path462"
           style="fill:#eca999;fill-opacity:1;fill-rule:nonzero;stroke:none"
           d="M 0,0 C 0.261,0.022 0.519,0.036 0.784,0.074 8.755,1.203 12.923,9.145 15.064,16.068 10.104,15.411 -1.61,12.523 0,0" />
      </g>
      <g
         transform="matrix(0.35277777,0,0,-0.35277777,149.17105,37.937001)"
         id="g464">
        <path
           inkscape:connector-curvature="0"
           id="path466"
           style="fill:#983e1f;fill-opacity:1;fill-rule:nonzero;stroke:none"
           d="m 0,0 c -0.242,-0.725 -2.416,-4.388 -2.416,-4.388 -2.054,0.324 -6.09,2.817 -6.09,2.817 -2.95,-1.449 -14.526,-2.817 -14.526,-2.817 0,0 7.182,-20.321 21.16,-19.123 -1.61,12.523 10.104,15.411 15.065,16.068 1.753,5.669 2.15,10.657 2.15,10.657 C 13.772,2.44 0.242,0.725 0,0" />
      </g>
    </g>
  </g>
</svg>
