<?xml version="1.0" encoding="UTF-8"?>
<!DOCTYPE svg PUBLIC "-//W3C//DTD SVG 1.1//EN" "http://www.w3.org/Graphics/SVG/1.1/DTD/svg11.dtd">
<!-- Creator: CorelDRAW 2017 -->
<svg xmlns="http://www.w3.org/2000/svg" xml:space="preserve" width="297mm" height="210mm" version="1.1" style="shape-rendering:geometricPrecision; text-rendering:geometricPrecision; image-rendering:optimizeQuality; fill-rule:evenodd; clip-rule:evenodd"
viewBox="0 0 29700 21000"
 xmlns:xlink="http://www.w3.org/1999/xlink">
 <defs>
  <style type="text/css">
   <![CDATA[
    .str7 {stroke:#4B515A;stroke-width:43.82;stroke-miterlimit:10}
    .str8 {stroke:#F16A6C;stroke-width:26.29;stroke-miterlimit:10}
    .str9 {stroke:#8D85BF;stroke-width:26.29;stroke-miterlimit:10}
    .str4 {stroke:#8D85BF;stroke-width:35.05;stroke-miterlimit:10}
    .str6 {stroke:#FEFEFE;stroke-width:27.81;stroke-miterlimit:10}
    .str5 {stroke:#F37769;stroke-width:27.81;stroke-miterlimit:10}
    .str1 {stroke:#FEFEFE;stroke-width:26.29;stroke-linecap:round;stroke-miterlimit:10}
    .str0 {stroke:#FEFEFE;stroke-width:42.44;stroke-linecap:round;stroke-linejoin:round;stroke-miterlimit:10}
    .str3 {stroke:#FEFEFE;stroke-width:26.29;stroke-linecap:round;stroke-miterlimit:10;stroke-dasharray:160.930000 237.160000}
    .str2 {stroke:#FEFEFE;stroke-width:26.29;stroke-linecap:round;stroke-miterlimit:10;stroke-dasharray:169.400000 254.100000}
    .fil28 {fill:none;fill-rule:nonzero}
    .fil74 {fill:#FEFEFE}
    .fil75 {fill:#E2404C}
    .fil73 {fill:#288EAA}
    .fil76 {fill:#2F2F52}
    .fil15 {fill:#FEFEFE;fill-rule:nonzero}
    .fil69 {fill:#FFDB97;fill-rule:nonzero}
    .fil18 {fill:#FEC135;fill-rule:nonzero}
    .fil72 {fill:#FBBE94;fill-rule:nonzero}
    .fil51 {fill:#FABDAC;fill-rule:nonzero}
    .fil67 {fill:#F8A369;fill-rule:nonzero}
    .fil48 {fill:#F16A6C;fill-rule:nonzero}
    .fil24 {fill:#F05B42;fill-rule:nonzero}
    .fil5 {fill:#F05749;fill-rule:nonzero}
    .fil26 {fill:#EF4866;fill-rule:nonzero}
    .fil8 {fill:#EE3B58;fill-rule:nonzero}
    .fil46 {fill:#F9F8F8;fill-rule:nonzero}
    .fil10 {fill:#FCD236;fill-rule:nonzero}
    .fil23 {fill:#F7F7F8;fill-rule:nonzero}
    .fil64 {fill:#F8BD30;fill-rule:nonzero}
    .fil2 {fill:#F3F4F4;fill-rule:nonzero}
    .fil65 {fill:#FAE624;fill-rule:nonzero}
    .fil14 {fill:#F2F3F2;fill-rule:nonzero}
    .fil55 {fill:#EBACCD;fill-rule:nonzero}
    .fil66 {fill:#EE983D;fill-rule:nonzero}
    .fil52 {fill:#EAA9A9;fill-rule:nonzero}
    .fil53 {fill:#E5D2E6;fill-rule:nonzero}
    .fil56 {fill:#DFA2C8;fill-rule:nonzero}
    .fil50 {fill:#D9D5EA;fill-rule:nonzero}
    .fil45 {fill:#D3D9E3;fill-rule:nonzero}
    .fil54 {fill:#CDB9DA;fill-rule:nonzero}
    .fil37 {fill:#C1CAD9;fill-rule:nonzero}
    .fil71 {fill:#C6B59A;fill-rule:nonzero}
    .fil38 {fill:#BBC4DD;fill-rule:nonzero}
    .fil30 {fill:#9F4341;fill-rule:nonzero}
    .fil42 {fill:#B9C3DC;fill-rule:nonzero}
    .fil17 {fill:#BBD540;fill-rule:nonzero}
    .fil49 {fill:#B05BA2;fill-rule:nonzero}
    .fil1 {fill:#A4B3D5;fill-rule:nonzero}
    .fil0 {fill:#9AD9E5;fill-rule:nonzero}
    .fil34 {fill:#A0AFD0;fill-rule:nonzero}
    .fil13 {fill:#9FADCF;fill-rule:nonzero}
    .fil21 {fill:#9CACCC;fill-rule:nonzero}
    .fil40 {fill:#95A2C6;fill-rule:nonzero}
    .fil3 {fill:#979DAD;fill-rule:nonzero}
    .fil57 {fill:#8D85BF;fill-rule:nonzero}
    .fil63 {fill:#889BC0;fill-rule:nonzero}
    .fil47 {fill:#79BEBB;fill-rule:nonzero}
    .fil19 {fill:#8D4799;fill-rule:nonzero}
    .fil7 {fill:#81C34D;fill-rule:nonzero}
    .fil60 {fill:#7F8FB6;fill-rule:nonzero}
    .fil43 {fill:#7D848B;fill-rule:nonzero}
    .fil44 {fill:#787B7F;fill-rule:nonzero}
    .fil39 {fill:#7B7E98;fill-rule:nonzero}
    .fil4 {fill:#5CBCE2;fill-rule:nonzero}
    .fil27 {fill:#814983;fill-rule:nonzero}
    .fil70 {fill:#6D6D74;fill-rule:nonzero}
    .fil12 {fill:#6D80B5;fill-rule:nonzero}
    .fil41 {fill:#6C728C;fill-rule:nonzero}
    .fil11 {fill:#733E74;fill-rule:nonzero}
    .fil31 {fill:#6A7CB0;fill-rule:nonzero}
    .fil68 {fill:#4D4C4E;fill-rule:nonzero}
    .fil25 {fill:#34BDD5;fill-rule:nonzero}
    .fil33 {fill:#647193;fill-rule:nonzero}
    .fil20 {fill:#363435;fill-rule:nonzero}
    .fil6 {fill:#626380;fill-rule:nonzero}
    .fil16 {fill:#3C9ACD;fill-rule:nonzero}
    .fil61 {fill:#586175;fill-rule:nonzero}
    .fil35 {fill:#4B515A;fill-rule:nonzero}
    .fil36 {fill:#45484E;fill-rule:nonzero}
    .fil62 {fill:#545B6E;fill-rule:nonzero}
    .fil29 {fill:#4386C0;fill-rule:nonzero}
    .fil9 {fill:#3F80B3;fill-rule:nonzero}
    .fil59 {fill:#373B44;fill-rule:nonzero}
    .fil58 {fill:#39414F;fill-rule:nonzero}
    .fil22 {fill:#474B6D;fill-rule:nonzero}
    .fil32 {fill:#373D5E;fill-rule:nonzero}
    .fil77 {fill:#2F2F52;fill-rule:nonzero}
   ]]>
  </style>
 </defs>
 <g id="Camada_x0020_1">
  <metadata id="CorelCorpID_0Corel-Layer"/>
  <polygon class="fil0" points="7911.8,19364.48 21860.12,19364.48 21860.12,7395.46 7911.8,7395.46 "/>
  <g id="_1063988560">
   <path class="fil1" d="M14850.29 16034.65l-927.64 -3388.77 92.68 8.47 877.39 3205.25 3779.9 -1034.7 364.29 63.72 -4186.62 1146.03zm-1069.17 -3905.83l-230.09 -840.55 84.06 -23.02 172.73 631.02 -26.7 232.55z"/>
   <polygon class="fil2" points="14892.72,15859.6 13593.47,11113.21 20076.15,9338.66 21375.4,14085.05 "/>
   <polygon class="fil3" points="19524.99,10078.01 17261.92,10697.49 17226.86,10569.4 19489.93,9949.91 "/>
   <polygon class="fil3" points="19588.47,10309.94 17666.62,10836.03 17649.2,10772.37 19571.03,10246.29 "/>
   <polygon class="fil3" points="19638.66,10493.34 17375.61,11112.82 17358.16,11049.15 19621.25,10429.67 "/>
   <polygon class="fil3" points="19688.88,10676.7 17425.79,11296.19 17408.36,11232.53 19671.45,10613.04 "/>
   <polygon class="fil3" points="19739.06,10860.08 17476,11479.56 17458.56,11415.89 19721.64,10796.41 "/>
   <polygon class="fil3" points="19789.28,11043.45 17526.18,11662.94 17508.78,11599.28 19771.84,10979.79 "/>
   <polygon class="fil3" points="19842.03,11236.24 17578.97,11855.73 17561.54,11792.04 19824.6,11172.57 "/>
   <polygon class="fil3" points="19892.23,11419.61 17629.15,12039.1 17611.75,11975.44 19874.81,11355.96 "/>
   <polygon class="fil3" points="19361,11762.14 17679.35,12222.47 17661.93,12158.82 19343.55,11698.5 "/>
   <polygon class="fil4" points="15802.02,14859.37 15635.6,14904.93 15590.04,14738.49 15756.44,14692.93 "/>
   <polygon class="fil3" points="16312.78,14664.31 15935.88,14767.5 15918.45,14703.83 16295.34,14600.66 "/>
   <polygon class="fil5" points="15875.79,15128.96 15709.4,15174.5 15663.84,15008.07 15830.24,14962.52 "/>
   <polygon class="fil3" points="16868.95,14801.86 16009.65,15037.09 15992.24,14973.43 16851.52,14738.21 "/>
   <polygon class="fil6" points="16692.22,14310.5 16334.45,14408.44 16317.02,14344.79 16674.78,14246.85 "/>
   <polygon class="fil4" points="15336.27,14450.97 15279.8,14466.43 14982.94,13382.01 15039.42,13366.56 "/>
   <polygon class="fil5" points="15392.75,14435.51 15336.27,14450.97 15160.01,13807.1 15216.53,13791.64 "/>
   <polygon class="fil4" points="15539.62,14395.3 15483.1,14410.77 15232.65,13495.79 15289.14,13480.34 "/>
   <polygon class="fil5" points="15596.09,14379.85 15539.62,14395.3 15326.28,13615.9 15382.73,13600.43 "/>
   <polygon class="fil4" points="15742.92,14339.66 15686.43,14355.11 15547.29,13846.78 15603.77,13831.33 "/>
   <polygon class="fil5" points="15799.41,14324.19 15742.92,14339.66 15573.71,13721.55 15630.21,13706.1 "/>
   <polygon class="fil4" points="15946.25,14284 15889.77,14299.45 15691.96,13576.87 15748.43,13561.4 "/>
   <polygon class="fil5" points="16002.71,14268.54 15946.25,14284 15892.61,14088.09 15949.07,14072.62 "/>
   <polygon class="fil4" points="16149.57,14228.34 16093.1,14243.8 15830.26,13283.64 15886.74,13268.19 "/>
   <polygon class="fil5" points="16206.06,14212.87 16149.57,14228.34 15855.84,13155.22 15912.3,13139.76 "/>
   <polygon class="fil4" points="16352.94,14172.67 16296.43,14188.12 16141.84,13623.33 16198.31,13607.88 "/>
   <polygon class="fil5" points="16409.39,14157.23 16352.94,14172.67 16077.71,13167.33 16134.18,13151.88 "/>
   <polygon class="fil4" points="16556.24,14117.01 16499.77,14132.49 16304.96,13420.84 16361.44,13405.37 "/>
   <polygon class="fil5" points="16612.72,14101.55 16556.24,14117.01 16374.68,13453.74 16431.16,13438.27 "/>
   <polygon class="fil4" points="16759.56,14061.35 16703.05,14076.82 16585.65,13647.92 16642.17,13632.46 "/>
   <polygon class="fil5" points="16816.06,14045.91 16759.56,14061.35 16671.92,13741.18 16728.42,13725.73 "/>
   <polygon class="fil7" points="16962.88,14005.71 16906.43,14021.17 16841.48,13783.95 16897.95,13768.5 "/>
   <polygon class="fil8" points="17019.35,13990.24 16962.88,14005.71 16749.54,13226.28 16806,13210.83 "/>
   <polygon class="fil7" points="17166.22,13950.03 17109.74,13965.5 16874.75,13107 16931.22,13091.56 "/>
   <polygon class="fil8" points="17222.69,13934.59 17166.22,13950.03 16857.03,12820.45 16913.49,12805 "/>
   <polygon class="fil7" points="17369.53,13894.39 17313.07,13909.85 17167.73,13378.95 17224.21,13363.48 "/>
   <polygon class="fil8" points="17426.02,13878.93 17369.53,13894.39 17246.73,13445.72 17303.23,13430.26 "/>
   <polygon class="fil7" points="17572.85,13838.73 17516.39,13854.19 17429.82,13537.91 17486.27,13522.44 "/>
   <polygon class="fil8" points="17629.36,13823.27 17572.85,13838.73 17523.68,13659.1 17580.17,13643.64 "/>
   <polygon class="fil9" points="15105.65,12537.13 14939.24,12582.66 14893.68,12416.25 15060.08,12370.68 "/>
   <polygon class="fil3" points="16311.96,12151.67 15239.47,12445.25 15222.04,12381.6 16294.53,12088.01 "/>
   <polygon class="fil8" points="15179.44,12806.7 15013.02,12852.26 14967.47,12685.83 15133.89,12640.28 "/>
   <polygon class="fil3" points="15690.2,12611.65 15313.27,12714.84 15295.86,12651.17 15672.79,12547.99 "/>
   <polygon class="fil10" points="15253.23,13076.29 15086.84,13121.84 15041.26,12955.44 15207.68,12909.87 "/>
   <polygon class="fil3" points="16246.35,12749.2 15387.05,12984.44 15369.63,12920.77 16228.92,12685.54 "/>
   <polygon class="fil3" points="16044.28,11943.43 15686.51,12041.36 15669.09,11977.7 16026.85,11879.77 "/>
   <polygon class="fil8" points="15221.5,11795.64 15474.26,11481.89 15834.08,11627.95 16291.65,10825.4 16799.86,11307.15 15248.54,11825.87 "/>
   <polygon class="fil10" points="16928.61,11159.02 16699.22,10939.61 16144.12,11317.32 15729.04,11228.33 15470.69,11748.33 14946.01,11682.91 14807.9,12002.95 16955.86,11396.14 "/>
   <polygon class="fil9" points="14562.06,12154.9 14767.87,11788.12 14981.25,11880.23 15181.48,11580.83 15496.72,11701.49 15969.38,11174.68 16397.8,11275.96 16933.2,10969.62 17069.75,11468.43 "/>
   <polygon class="fil11" points="18588.36,14096.64 18421.93,14142.19 18376.38,13975.77 18542.79,13930.21 "/>
   <polygon class="fil3" points="19794.68,13711.19 18722.22,14004.75 18704.78,13941.1 19777.27,13647.53 "/>
   <polygon class="fil8" points="18662.15,14366.23 18495.73,14411.79 18450.18,14245.35 18616.61,14199.79 "/>
   <polygon class="fil3" points="19172.96,14171.17 18796.03,14274.36 18778.58,14210.7 19155.51,14107.52 "/>
   <polygon class="fil3" points="19406.61,13535.91 19048.87,13633.84 19031.44,13570.16 19389.21,13472.25 "/>
   <path class="fil8" d="M20118.12 12768.63c6.18,22.56 -7.11,45.84 -29.64,52.02 -22.57,6.18 -45.85,-7.11 -52.05,-29.67 -6.16,-22.56 7.13,-45.85 29.69,-52.02 22.53,-6.17 45.81,7.11 52,29.67z"/>
   <path class="fil8" d="M19686.28 12610.37c6.18,22.57 -7.12,45.85 -29.65,52.02 -22.53,6.18 -45.88,-7.09 -52.06,-29.64 -6.17,-22.55 7.17,-45.88 29.72,-52.05 22.5,-6.17 45.82,7.13 51.99,29.67z"/>
   <path class="fil8" d="M19277.25 12989.48c6.17,22.55 -7.11,45.85 -29.67,52.01 -22.53,6.17 -45.85,-7.11 -52.03,-29.65 -6.15,-22.57 7.11,-45.87 29.68,-52.04 22.55,-6.17 45.84,7.12 52.02,29.68z"/>
   <path class="fil8" d="M18929.58 12951.08c6.16,22.57 -7.11,45.84 -29.7,52.01 -22.54,6.17 -45.85,-7.1 -52.02,-29.64 -6.18,-22.55 7.13,-45.87 29.68,-52.03 22.54,-6.17 45.85,7.1 52.04,29.66z"/>
   <path class="fil8" d="M18826.49 13257.37c6.16,22.55 -7.1,45.86 -29.67,52.04 -22.55,6.16 -45.86,-7.12 -52.04,-29.69 -6.18,-22.54 7.14,-45.82 29.7,-52 22.54,-6.16 45.84,7.1 52.01,29.65z"/>
   <path class="fil8" d="M18333.81 13275.17c6.16,22.56 -7.13,45.83 -29.7,52.01 -22.53,6.18 -45.83,-7.07 -51.99,-29.64 -6.19,-22.56 7.11,-45.86 29.64,-52.01 22.55,-6.19 45.88,7.1 52.05,29.64z"/>
   <path class="fil11" d="M18053.25 13564.57c6.17,22.56 -7.12,45.85 -29.68,52.01 -22.56,6.16 -45.84,-7.08 -52.02,-29.64 -6.18,-22.57 7.11,-45.86 29.65,-52.03 22.57,-6.17 45.89,7.11 52.05,29.66z"/>
   <path class="fil11" d="M18225.76 12730.9c6.18,22.57 -7.12,45.86 -29.69,52.02 -22.55,6.19 -45.85,-7.09 -52.04,-29.65 -6.15,-22.55 7.13,-45.87 29.68,-52.05 22.56,-6.16 45.87,7.14 52.05,29.68z"/>
   <path class="fil11" d="M18689.72 13016.73c6.18,22.57 -7.09,45.82 -29.62,52 -22.59,6.19 -45.85,-7.1 -52.03,-29.64 -6.18,-22.55 7.09,-45.86 29.67,-52.03 22.55,-6.18 45.79,7.12 51.98,29.67z"/>
   <path class="fil11" d="M18959.25 12527.29c6.2,22.57 -7.11,45.84 -29.63,52.02 -22.6,6.18 -45.86,-7.09 -52.05,-29.66 -6.17,-22.54 7.1,-45.84 29.71,-52.02 22.53,-6.18 45.81,7.12 51.97,29.66z"/>
   <path class="fil11" d="M19282.74 12732.97c6.18,22.58 -7.16,45.88 -29.72,52.06 -22.5,6.16 -45.82,-7.13 -52,-29.68 -6.16,-22.55 7.13,-45.86 29.64,-52.02 22.57,-6.18 45.89,7.11 52.08,29.64z"/>
   <path class="fil11" d="M19478.87 12217.88c6.17,22.56 -7.13,45.84 -29.66,52.02 -22.55,6.16 -45.86,-7.11 -52.04,-29.65 -6.19,-22.56 7.13,-45.86 29.69,-52.03 22.51,-6.17 45.83,7.1 52.01,29.66z"/>
   <path class="fil11" d="M19850.73 12368.27c6.17,22.55 -7.16,45.85 -29.68,52.03 -22.54,6.17 -45.86,-7.11 -52.06,-29.67 -6.16,-22.54 7.15,-45.84 29.71,-52.02 22.53,-6.17 45.83,7.11 52.03,29.66z"/>
   <path class="fil11" d="M20109.54 12215.25c6.17,22.54 -7.11,45.84 -29.68,52.01 -22.53,6.17 -45.85,-7.12 -52.02,-29.66 -6.18,-22.54 7.14,-45.86 29.68,-52.04 22.56,-6.16 45.84,7.13 52.02,29.69z"/>
   <polygon class="fil11" points="18022.3,13586.67 17994.71,13580.75 18178.87,12721.65 18641.75,13008.79 18918.69,12523.06 19235.76,12726.63 19414.97,12212.02 19815.82,12370.43 20059.71,12217.97 20074.7,12241.9 19818.71,12401.93 19431.94,12249.08 19250.64,12769.72 18928.5,12562.91 18651.79,13048.26 18198.06,12766.78 "/>
   <path class="fil8" d="M18096.48 13691.35c6.18,22.54 -7.08,45.84 -29.62,52.02 -22.55,6.17 -45.87,-7.11 -52.04,-29.67 -6.18,-22.56 7.1,-45.85 29.67,-52.04 22.55,-6.16 45.81,7.14 51.99,29.69z"/>
   <polygon class="fil8" points="18058.01,13726.85 18033.51,13712.87 18276.91,13272.15 18778.86,13255.36 18882.48,12945.64 19223.78,13000.51 19640.92,12592.57 20078.02,12771.46 20067.31,12797.6 19647.36,12625.74 19233.38,13030.65 18901.17,12977.24 18799.01,13282.89 18293.65,13299.8 "/>
   <polygon class="fil1" points="21430.55,15307.31 19036.91,14888.62 19273.73,14823.8 21328.32,15177.91 22395.58,8985.55 22426.42,8991.72 "/>
   <polygon class="fil12" points="19036.91,14888.62 18672.62,14824.9 18907.35,14760.64 19273.73,14823.8 "/>
   <polygon class="fil13" points="18672.62,14824.9 16591.37,14460.85 16606.62,14372.2 16791.37,14346.1 16783.03,14394.52 18907.35,14760.64 "/>
   <polygon class="fil14" points="21328.32,15177.91 16783.03,14394.52 17852.98,8186.51 22398.27,8969.9 "/>
   <polygon class="fil6" points="22174.05,10270.82 17628.77,9487.43 17741.4,8833.96 22286.69,9617.35 "/>
   <polygon class="fil6" points="21639.74,9270 18834.65,8786.54 18869.42,8584.9 21674.48,9068.36 "/>
   <polygon class="fil15" points="21499.48,10010.11 18719.08,9530.9 18738.66,9417.33 21519.04,9896.52 "/>
   <polygon class="fil15" points="21873.76,9851.31 18419.58,9255.97 18439.14,9142.39 21893.33,9737.72 "/>
   <polygon class="fil6" points="21397.09,14778.78 16851.83,13995.38 16866.5,13910.32 21411.77,14693.7 "/>
   <path class="fil11" d="M19093.96 11253.54l18.68 896.73c164.6,-9.3 321.37,-57.98 459.22,-138.06l-477.9 -758.67z"/>
   <path class="fil10" d="M19130.4 11170.1l505.19 801.95c213.35,-145.56 372.17,-370.42 428.85,-640.98l-934.04 -160.97z"/>
   <path class="fil7" d="M20077.24 11256.84c72.72,-536.04 -281.85,-1038.27 -811.32,-1149.2l-168.95 980.25 980.27 168.95z"/>
   <path class="fil8" d="M19017.36 11193.85l-759.54 583.71c151.74,183.39 367.23,315.55 620.17,359.16 53.48,9.21 106.7,14.1 159.34,15l-19.97 -957.87z"/>
   <path class="fil9" d="M18035.35 10943.14c-34.64,201.03 -8.68,398.48 64.69,573.66l31.59 68.36c23.45,46.2 50.31,90.56 80.28,132.66l804.6 -606.57 3.21 -18.55 69.2 -401.45 102.76 -596.41c-548.43,-74.39 -1061.58,298.45 -1156.33,848.3z"/>
   <polygon class="fil16" points="18248.25,12352 18023.17,12313.2 17802.05,13596.12 18027.16,13634.92 "/>
   <polygon class="fil17" points="18518.84,12846.71 18293.77,12807.89 18147.66,13655.7 18372.73,13694.47 "/>
   <polygon class="fil18" points="18821.2,13145.36 18596.16,13106.57 18491.29,13714.9 18716.37,13753.7 "/>
   <polygon class="fil19" points="19131.99,13388.85 18906.91,13350.06 18833.85,13773.95 19058.94,13812.77 "/>
   <polygon class="fil5" points="19526.4,13153.62 19301.28,13114.82 19177.49,13833.18 19402.56,13871.98 "/>
   <polygon class="fil9" points="20567.23,10961.41 20419.86,10936.01 20445.26,10788.64 20592.65,10814.04 "/>
   <polygon class="fil3" points="21655.88,11102.2 20706.07,10938.5 20715.8,10882.11 21665.59,11045.8 "/>
   <polygon class="fil7" points="20526.09,11200.16 20378.7,11174.76 20404.1,11027.39 20551.48,11052.79 "/>
   <polygon class="fil3" points="20998.74,11234.78 20664.94,11177.26 20674.66,11120.86 21008.46,11178.41 "/>
   <polygon class="fil10" points="20484.94,11438.93 20337.57,11413.52 20362.96,11266.14 20510.34,11291.54 "/>
   <polygon class="fil3" points="21384.77,11547.16 20623.79,11416 20633.51,11359.61 21394.49,11490.76 "/>
   <polygon class="fil11" points="20443.79,11677.68 20296.41,11652.28 20321.82,11504.88 20469.21,11530.28 "/>
   <polygon class="fil3" points="21150.22,11752.57 20582.65,11654.74 20592.35,11598.37 21159.94,11696.2 "/>
   <polygon class="fil8" points="20401.75,11921.62 20254.38,11896.22 20279.76,11748.83 20427.16,11774.24 "/>
   <polygon class="fil3" points="21401.61,12047.09 20540.58,11898.69 20550.3,11842.32 21411.32,11990.71 "/>
   <path class="fil20" d="M17776.2 10410.22c-6.76,39.15 -43.99,65.41 -83.14,58.67 -39.13,-6.74 -65.41,-43.96 -58.67,-83.11 6.75,-39.15 43.99,-65.42 83.13,-58.68 39.13,6.75 65.41,43.97 58.68,83.12z"/>
   <path class="fil20" d="M17455.09 12273.41c-6.78,39.15 -44,65.42 -83.15,58.67 -39.13,-6.75 -65.41,-43.96 -58.66,-83.09 6.75,-39.18 43.97,-65.42 83.1,-58.68 39.16,6.74 65.43,43.95 58.71,83.1z"/>
   <polygon class="fil6" points="21328.82,12999.74 19949.38,12761.97 19968.94,12648.55 21348.38,12886.3 "/>
   <polygon class="fil3" points="21293.43,13205.15 20121.98,13003.26 20131.7,12946.86 21303.16,13148.77 "/>
   <polygon class="fil3" points="21265.44,13367.56 19886,13129.8 19895.73,13073.41 21275.18,13311.15 "/>
   <polygon class="fil3" points="21237.47,13529.95 19858.02,13292.21 19867.72,13235.82 21247.17,13473.57 "/>
   <polygon class="fil3" points="21209.46,13692.36 19830.02,13454.61 19839.73,13398.22 21219.18,13635.96 "/>
   <polygon class="fil3" points="21181.48,13854.75 19802.03,13617 19811.74,13560.63 21191.18,13798.38 "/>
   <polygon class="fil3" points="20799.07,13956.07 19774.05,13779.41 19783.76,13723.01 20808.76,13899.68 "/>
   <polygon class="fil3" points="18995.48,12399.29 18678.65,12344.68 18688.36,12288.3 19005.2,12342.91 "/>
   <polygon class="fil6" points="18727.92,13951.77 18411.08,13897.17 18420.8,13840.78 18737.62,13895.39 "/>
   <path class="fil1" d="M13922.65 12645.88l-198.81 -18.2 57.28 -498.86 79.78 291.46 -8.5 96.74 35.84 3.15 34.41 125.71zm-15.05 -1618.66l321.88 -2803.45 -244.36 2782.23 -77.52 21.22zm7208.36 -2278.33l-28.71 -4.95 52.36 -596.13 12.79 1.17 -36.44 599.91z"/>
   <path class="fil12" d="M14015.33 12654.35l-92.68 -8.47 -34.41 -125.71 92.58 8.12 34.51 126.06zm-154.43 -234.07l-79.78 -291.46 26.7 -232.55 75.03 274.1 -21.95 249.91z"/>
   <path class="fil13" d="M14598.73 12707.72l-583.4 -53.37 -34.51 -126.06 600.02 52.71 17.89 126.72zm-715.88 -537.35l-75.03 -274.1 99.78 -869.05 77.52 -21.22 -102.27 1164.37z"/>
   <path class="fil21" d="M20988.6 10845.69l-51.52 -391.9 34.28 -390.26 64.08 11.05 -46.84 771.11zm87.29 -1437.04l-46.32 -7.97 20.41 -232.32 40.08 6.91 -14.17 233.38zm26.65 -438.86l-34.59 -5.96 19.3 -219.89 28.71 4.95 -13.42 220.9z"/>
   <path class="fil22" d="M21035.44 10074.58l-64.08 -11.05 12.49 -142.29 60.27 10.38 -8.68 142.96zm15.71 -258.7l-57.18 -9.85 9.2 -104.76 54.37 9.37 -6.39 105.24zm13.42 -221l-51.27 -8.84 16.27 -185.36 46.32 7.97 -11.32 186.23z"/>
   <polygon class="fil22" points="21090.06,9175.27 21049.98,9168.36 21067.95,8963.83 21102.54,8969.79 "/>
   <polygon class="fil1" points="21044.12,9931.62 20983.85,9921.24 20993.97,9806.03 21051.15,9815.88 "/>
   <polygon class="fil1" points="21057.54,9710.64 21003.17,9701.27 21013.3,9586.04 21064.57,9594.88 "/>
   <polygon class="fil23" points="13852.4,12517.02 14292.94,7501.25 21143.56,8102.93 20703.02,13118.71 "/>
   <polygon class="fil6" points="20351.94,8616.39 17960.41,8406.36 17972.3,8270.99 20363.81,8481.03 "/>
   <polygon class="fil3" points="20330.38,8861.5 18299.48,8683.12 18305.37,8615.85 20336.3,8794.23 "/>
   <polygon class="fil3" points="20313.37,9055.3 17921.86,8845.24 17927.78,8777.96 20319.28,8988 "/>
   <polygon class="fil3" points="20296.36,9249.08 17904.85,9039.03 17910.76,8971.75 20302.26,9181.79 "/>
   <polygon class="fil3" points="20279.34,9442.85 17887.83,9232.81 17893.75,9165.52 20285.24,9375.57 "/>
   <polygon class="fil3" points="20262.31,9636.64 17870.82,9426.59 17876.72,9359.32 20268.21,9569.36 "/>
   <polygon class="fil3" points="20244.42,9840.36 17852.93,9630.32 17858.84,9563.02 20250.33,9773.07 "/>
   <polygon class="fil3" points="20227.39,10034.14 17835.91,9824.1 17841.83,9756.82 20233.3,9966.87 "/>
   <polygon class="fil3" points="19595.97,10173.96 17818.86,10017.87 17824.8,9950.61 19601.86,10106.69 "/>
   <polygon class="fil7" points="15080.37,11880.53 14904.52,11865.1 14919.97,11689.23 15095.82,11704.69 "/>
   <polygon class="fil3" points="15639.75,11874.98 15241.45,11839.98 15247.35,11772.7 15645.66,11807.68 "/>
   <polygon class="fil8" points="15055.34,12165.44 14879.48,12150 14894.95,11974.11 15070.8,11989.56 "/>
   <polygon class="fil3" points="16124.49,12204.62 15216.42,12124.87 15222.32,12057.59 16130.4,12137.36 "/>
   <polygon class="fil6" points="16129.57,11670.37 15751.5,11637.16 15757.41,11569.88 16135.47,11603.09 "/>
   <polygon class="fil17" points="14778.67,11323.16 14719.01,11317.92 14819.67,10171.96 14879.34,10177.21 "/>
   <polygon class="fil24" points="14838.38,11328.41 14778.67,11323.16 14838.43,10642.75 14898.14,10647.99 "/>
   <polygon class="fil17" points="14993.55,11342.03 14933.83,11336.78 15018.77,10369.89 15078.48,10375.13 "/>
   <polygon class="fil24" points="15053.23,11347.29 14993.55,11342.03 15065.9,10518.38 15125.57,10523.63 "/>
   <polygon class="fil17" points="15208.39,11360.9 15148.71,11355.65 15195.89,10818.49 15255.56,10823.73 "/>
   <polygon class="fil24" points="15268.12,11366.14 15208.39,11360.9 15265.77,10707.73 15325.48,10712.97 "/>
   <polygon class="fil17" points="15423.27,11379.76 15363.58,11374.55 15430.64,10610.93 15490.33,10616.18 "/>
   <polygon class="fil24" points="15482.93,11385 15423.27,11379.76 15441.45,11172.75 15501.11,11177.99 "/>
   <polygon class="fil17" points="15638.13,11398.64 15578.46,11393.41 15667.56,10378.76 15727.25,10384.01 "/>
   <polygon class="fil24" points="15697.82,11403.88 15638.13,11398.64 15737.74,10264.62 15797.42,10269.87 "/>
   <polygon class="fil17" points="15853.02,11417.52 15793.34,11412.26 15845.77,10815.43 15905.44,10820.66 "/>
   <polygon class="fil24" points="15912.68,11422.76 15853.02,11417.52 15946.35,10355.11 16006.01,10360.36 "/>
   <polygon class="fil17" points="16067.88,11436.39 16008.18,11431.15 16074.25,10679.12 16133.94,10684.36 "/>
   <polygon class="fil24" points="16127.56,11441.64 16067.88,11436.39 16129.45,10735.47 16189.12,10740.71 "/>
   <polygon class="fil17" points="16282.75,11455.26 16223.04,11450.02 16262.84,10996.78 16322.56,11002.02 "/>
   <polygon class="fil24" points="16342.43,11460.51 16282.75,11455.26 16312.46,11116.91 16372.16,11122.17 "/>
   <polygon class="fil17" points="16497.59,11474.14 16437.94,11468.9 16459.96,11218.22 16519.62,11223.46 "/>
   <polygon class="fil24" points="16557.27,11479.38 16497.59,11474.14 16569.95,10650.48 16629.63,10655.72 "/>
   <polygon class="fil17" points="16712.49,11493.02 16652.79,11487.75 16732.49,10580.55 16792.17,10585.79 "/>
   <polygon class="fil24" points="16772.16,11498.25 16712.49,11493.02 16817.31,10299.32 16877,10304.55 "/>
   <polygon class="fil17" points="16927.35,11511.88 16867.65,11506.65 16916.92,10945.6 16976.62,10950.85 "/>
   <polygon class="fil24" points="16987.03,11517.12 16927.35,11511.88 16968.99,11037.75 17028.68,11042.99 "/>
   <polygon class="fil17" points="17142.2,11530.73 17082.53,11525.5 17111.88,11191.27 17171.53,11196.52 "/>
   <polygon class="fil24" points="17201.9,11535.99 17142.2,11530.73 17158.87,11340.93 17218.56,11346.16 "/>
   <polygon class="fil25" points="15237.68,9404.93 15061.82,9389.48 15077.28,9213.62 15253.13,9229.06 "/>
   <polygon class="fil3" points="16532.08,9463.9 15398.74,9364.36 15404.64,9297.09 16538,9396.64 "/>
   <polygon class="fil24" points="15212.67,9689.82 15036.81,9674.37 15052.25,9498.52 15228.1,9513.96 "/>
   <polygon class="fil3" points="15772.05,9684.24 15373.73,9649.26 15379.61,9581.98 15777.97,9616.96 "/>
   <polygon class="fil10" points="15187.63,9974.71 15011.78,9959.27 15027.23,9783.39 15203.09,9798.85 "/>
   <polygon class="fil3" points="16256.75,10013.9 15348.69,9934.15 15354.59,9866.87 16262.67,9946.63 "/>
   <polygon class="fil6" points="16349.28,9168.97 15971.21,9135.76 15977.12,9068.48 16355.2,9101.7 "/>
   <polygon class="fil11" points="18024.85,12139.15 17848.98,12123.71 17864.44,11947.84 18040.29,11963.29 "/>
   <polygon class="fil3" points="19319.26,12198.13 18185.96,12098.59 18191.86,12031.31 19325.17,12130.86 "/>
   <polygon class="fil8" points="17999.83,12424.04 17823.96,12408.61 17839.42,12232.73 18015.27,12248.16 "/>
   <polygon class="fil3" points="18559.24,12418.46 18160.92,12383.5 18166.82,12316.2 18565.15,12351.2 "/>
   <polygon class="fil6" points="19009.25,11892.02 18631.19,11858.82 18637.08,11791.53 19015.15,11824.75 "/>
   <path class="fil26" d="M19894.25 11423.78c-1.27,0 -2.56,-0.05 -3.86,-0.15 -13.3,-1.02 -25.41,-7.15 -34.08,-17.27 -8.68,-10.11 -12.89,-23.01 -11.87,-36.32 1.98,-25.82 23.81,-46.06 49.71,-46.06 1.28,0 2.57,0.04 3.86,0.14 27.43,2.11 48.04,26.13 45.93,53.55 -1.98,25.85 -23.8,46.11 -49.69,46.11z"/>
   <path class="fil26" d="M19894.15 11316.38c-29.84,0 -55.01,23.31 -57.28,53.09 -1.19,15.32 3.67,30.18 13.68,41.84 9.99,11.66 23.94,18.73 39.27,19.9 1.49,0.11 2.96,0.17 4.43,0.17 29.84,0 54.99,-23.35 57.27,-53.14 1.18,-15.31 -3.68,-30.14 -13.69,-41.8 -9.99,-11.65 -23.92,-18.72 -39.23,-19.89 -1.5,-0.11 -2.99,-0.17 -4.45,-0.17zm0 15.19c1.09,0 2.18,0.05 3.28,0.14 23.29,1.77 40.73,22.1 38.94,45.38 -1.7,22.21 -20.24,39.09 -42.12,39.09 -1.09,0 -2.17,-0.04 -3.27,-0.13 -23.33,-1.78 -40.75,-22.11 -38.96,-45.42 1.69,-22.19 20.21,-39.06 42.13,-39.06z"/>
   <path class="fil26" d="M19541.28 11129.56c-1.27,0 -2.55,-0.05 -3.84,-0.15 -27.46,-2.1 -48.09,-26.13 -45.98,-53.56 1.98,-25.85 23.83,-46.12 49.77,-46.12 1.26,0 2.55,0.05 3.83,0.16 27.4,2.09 47.99,26.14 45.89,53.59 -1.98,25.84 -23.8,46.08 -49.67,46.08z"/>
   <path class="fil26" d="M19541.21 11022.15c-29.86,0 -55.05,23.33 -57.34,53.13 -1.17,15.31 3.71,30.17 13.73,41.83 10.01,11.65 23.96,18.7 39.26,19.87 1.49,0.12 2.96,0.17 4.43,0.17 29.82,0 54.96,-23.32 57.24,-53.1 1.17,-15.3 -3.68,-30.15 -13.66,-41.81 -10,-11.68 -23.92,-18.75 -39.23,-19.92 -1.48,-0.12 -2.96,-0.17 -4.43,-0.17zm0 15.18c1.08,0 2.17,0.05 3.26,0.13 23.28,1.78 40.69,22.16 38.92,45.43 -1.71,22.21 -20.23,39.08 -42.1,39.08 -1.08,0 -2.17,-0.05 -3.27,-0.14 -23.29,-1.78 -40.78,-22.09 -38.99,-45.39 1.7,-22.19 20.29,-39.11 42.18,-39.11z"/>
   <path class="fil26" d="M19028.9 11348.49c-1.28,0 -2.56,-0.05 -3.87,-0.15 -13.27,-1.02 -25.38,-7.15 -34.05,-17.27 -8.69,-10.1 -12.9,-22.99 -11.88,-36.28 1.97,-25.85 23.8,-46.11 49.71,-46.11 1.27,0 2.55,0.05 3.85,0.15 27.44,2.1 48.06,26.14 45.95,53.59 -1.98,25.83 -23.81,46.07 -49.71,46.07z"/>
   <path class="fil26" d="M19028.81 11241.09c-29.84,0 -55.01,23.34 -57.28,53.13 -2.43,31.6 21.32,59.28 52.93,61.7 1.48,0.11 2.97,0.16 4.44,0.16 29.84,0 55.01,-23.32 57.29,-53.08 1.17,-15.31 -3.69,-30.18 -13.7,-41.84 -10,-11.66 -23.94,-18.73 -39.25,-19.9 -1.49,-0.12 -2.96,-0.17 -4.43,-0.17zm0 15.19c1.08,0 2.17,0.04 3.28,0.13 23.28,1.78 40.74,22.12 38.95,45.42 -1.7,22.19 -20.26,39.07 -42.14,39.07 -1.09,0 -2.18,-0.05 -3.27,-0.13 -23.3,-1.79 -40.75,-22.1 -38.96,-45.39 1.7,-22.21 20.25,-39.1 42.14,-39.1z"/>
   <path class="fil26" d="M18714.77 11195.35c-1.28,0 -2.57,-0.06 -3.86,-0.16 -13.3,-1.01 -25.41,-7.14 -34.07,-17.25 -8.66,-10.11 -12.88,-23 -11.87,-36.3 1.99,-25.85 23.82,-46.11 49.7,-46.11 1.27,0 2.56,0.05 3.86,0.16 13.29,1.01 25.38,7.15 34.05,17.28 8.67,10.11 12.88,23 11.87,36.29 -1.98,25.84 -23.8,46.09 -49.68,46.09z"/>
   <path class="fil26" d="M18714.67 11087.93l0 0c-29.83,0.02 -54.98,23.35 -57.27,53.14 -1.17,15.32 3.69,30.17 13.67,41.81 9.99,11.66 23.93,18.71 39.26,19.89 1.48,0.11 2.96,0.17 4.43,0.17 29.83,0 54.98,-23.32 57.26,-53.1 1.17,-15.31 -3.68,-30.16 -13.66,-41.83 -9.99,-11.66 -23.94,-18.72 -39.26,-19.91 -1.48,-0.11 -2.95,-0.17 -4.43,-0.17zm0 15.2c1.08,0 2.17,0.05 3.28,0.13 23.29,1.78 40.71,22.14 38.93,45.42 -1.71,22.21 -20.21,39.06 -42.12,39.06 -1.09,0 -2.18,-0.03 -3.27,-0.12 -23.31,-1.79 -40.73,-22.09 -38.94,-45.4 1.7,-22.19 20.21,-39.09 42.12,-39.09z"/>
   <path class="fil26" d="M18514.69 11448.78c-1.28,0 -2.56,-0.05 -3.84,-0.15 -27.45,-2.1 -48.08,-26.14 -45.98,-53.57 1.98,-25.83 23.83,-46.06 49.75,-46.06 1.27,0 2.55,0.05 3.84,0.14 27.45,2.1 48.07,26.14 45.96,53.55 -1.98,25.84 -23.83,46.09 -49.73,46.09z"/>
   <path class="fil26" d="M18514.61 11341.4c-29.86,0 -55.02,23.32 -57.31,53.09 -1.17,15.3 3.7,30.15 13.71,41.83 10.02,11.65 23.96,18.72 39.26,19.89 1.48,0.11 2.97,0.17 4.44,0.17 29.83,0 55.01,-23.34 57.28,-53.12 1.18,-15.31 -3.69,-30.16 -13.7,-41.81 -10,-11.64 -23.94,-18.7 -39.25,-19.87 -1.48,-0.12 -2.96,-0.18 -4.43,-0.18zm0 15.2c1.08,0 2.18,0.05 3.27,0.13 23.29,1.77 40.75,22.09 38.97,45.38 -1.7,22.18 -20.26,39.07 -42.14,39.07 -1.09,0 -2.18,-0.04 -3.29,-0.13 -23.26,-1.78 -40.75,-22.13 -38.98,-45.4 1.71,-22.2 20.29,-39.05 42.17,-39.05z"/>
   <path class="fil26" d="M18045.26 11299.69c-1.28,0 -2.57,-0.06 -3.86,-0.16 -13.3,-1.01 -25.39,-7.14 -34.08,-17.26 -8.67,-10.1 -12.89,-22.99 -11.88,-36.3 1.98,-25.83 23.82,-46.08 49.73,-46.08 1.27,0 2.56,0.05 3.86,0.15 13.27,1.01 25.37,7.14 34.06,17.27 8.71,10.12 12.94,23.01 11.91,36.3 -1.97,25.83 -23.82,46.08 -49.74,46.08z"/>
   <path class="fil26" d="M18045.17 11192.3c-29.85,0 -55.01,23.32 -57.3,53.1 -1.17,15.32 3.69,30.17 13.69,41.82 9.99,11.66 23.94,18.72 39.27,19.89 1.48,0.11 2.95,0.17 4.43,0.17 29.87,0 55.04,-23.33 57.32,-53.1 1.18,-15.31 -3.69,-30.16 -13.73,-41.82 -10.01,-11.66 -23.95,-18.72 -39.25,-19.89 -1.48,-0.12 -2.96,-0.17 -4.43,-0.17zm0 15.18c1.08,0 2.17,0.05 3.27,0.13 23.27,1.79 40.78,22.13 38.99,45.41 -1.7,22.21 -20.3,39.06 -42.17,39.06 -1.09,0 -2.17,-0.03 -3.28,-0.12 -23.3,-1.79 -40.74,-22.09 -38.95,-45.4 1.68,-22.19 20.22,-39.06 42.14,-39.08z"/>
   <polygon class="fil27" points="17656.06,11298.52 18128.2,10536.76 18468.8,10964.93 18892.85,10601.18 19121.63,10898.07 19462.31,10475.65 19789.11,10762.28 20073.55,10700.16 20082.81,10742.54 19777.01,10809.33 19467.67,10538.09 19120.82,10968.15 18886.45,10663.91 18462.87,11027.22 18132.62,10612.02 17692.96,11321.39 "/>
   <path class="fil27" d="M19461.38 10464.72l-9.95 12.33 -329.66 408.76 -218.02 -282.93 -9.78 -12.68 -12.15 10.43 -411.98 353.41 -328.96 -413.56 -13.44 -16.89 -11.37 18.34 -462.46 746.14 -8 12.91 12.91 8.01 23.99 14.85 12.92 8 7.99 -12.92 429.98 -693.72 318.61 400.58 9.83 12.34 11.96 -10.26 411.52 -352.97 223.6 290.25 11.77 15.28 12.09 -15.01 335.84 -416.38 300.49 263.49 5.77 5.05 7.49 -1.63 294.64 -64.35 14.84 -3.24 -3.24 -14.85 -6.01 -27.55 -3.24 -14.84 -14.84 3.24 -273.28 59.68 -317.95 -278.86 -11.91 -10.45zm1.88 21.87l323.73 283.92 280.77 -61.32 6.01 27.55 -294.65 64.36 -312.39 -273.94 -345.77 428.71 -233.38 -302.94 -423.67 363.39 -332.06 -417.47 -441.34 712.08 -23.98 -14.86 462.46 -746.13 338.78 425.89 423.94 -363.67 229.79 298.19 341.76 -423.76z"/>
   <path class="fil26" d="M17681.96 11611.3c-1.27,0 -2.56,-0.04 -3.86,-0.14 -13.28,-1.01 -25.37,-7.14 -34.04,-17.27 -8.66,-10.11 -12.87,-23 -11.85,-36.31 1.98,-25.84 23.79,-46.08 49.67,-46.08 1.27,0 2.55,0.04 3.86,0.15 13.27,1.02 25.37,7.14 34.04,17.26 8.67,10.12 12.89,23.01 11.88,36.29 -1.98,25.86 -23.82,46.1 -49.7,46.1z"/>
   <path class="fil26" d="M17681.88 11503.9c-29.82,0 -54.95,23.33 -57.24,53.1 -2.43,31.62 21.3,59.31 52.89,61.74 1.48,0.1 2.97,0.16 4.43,0.16 29.83,0 54.99,-23.33 57.27,-53.12 1.17,-15.31 -3.68,-30.15 -13.68,-41.82 -10,-11.65 -23.93,-18.72 -39.24,-19.9 -1.49,-0.1 -2.97,-0.16 -4.43,-0.16zm0 15.19c1.08,0 2.17,0.05 3.27,0.13 23.29,1.78 40.72,22.11 38.94,45.4 -1.71,22.22 -20.24,39.09 -42.13,39.09 -1.08,0 -2.17,-0.04 -3.26,-0.12 -23.31,-1.79 -40.69,-22.11 -38.92,-45.43 1.7,-22.18 20.21,-39.07 42.1,-39.07z"/>
   <path class="fil26" d="M17675.42 11592.67c-2.02,-0.15 -3.91,-1.1 -5.23,-2.64l-18.35 -21.42c-2.7,-3.15 -2.37,-7.89 0.75,-10.64l377.29 -332.61c1.4,-1.24 3.19,-1.9 5.03,-1.9l2.32 0.36 472.8 151.54 198.43 -252.33c1.49,-1.87 3.71,-2.9 5.98,-2.9 1.25,0 2.51,0.32 3.66,0.95l299.25 164.64 526.24 -241.76c1.01,-0.46 2.09,-0.69 3.17,-0.69 1.83,0 3.64,0.68 5.07,1.95l350.9 315.37c3.13,2.82 3.39,7.61 0.59,10.74l-18.82 20.99c-1.35,1.51 -3.24,2.4 -5.25,2.52l-0.41 0.01c-1.87,0 -3.68,-0.7 -5.07,-1.95l-333.47 -299.69 -521.2 239.47c-1,0.46 -2.09,0.69 -3.17,0.69 -1.26,0 -2.52,-0.32 -3.66,-0.93l-288.93 -158.94 -194.95 248.06c-1.47,1.86 -3.68,2.9 -5.97,2.9l-2.32 -0.36 -476.98 -152.88 -362.14 319.55c-1.38,1.24 -3.18,1.91 -5.03,1.91l-0.53 -0.01z"/>
   <path class="fil26" d="M19546.76 11035.68c-2.15,0 -4.31,0.45 -6.34,1.38l-522.77 240.16 -295.89 -162.79c-2.3,-1.27 -4.83,-1.89 -7.32,-1.89 -4.53,0 -8.98,2.03 -11.95,5.8l-195.16 248.17 -467.79 -149.92c-1.51,-0.49 -3.08,-0.72 -4.63,-0.72 -3.65,0 -7.24,1.3 -10.05,3.79l-377.3 332.62c-6.22,5.49 -6.89,14.97 -1.49,21.27l18.35 21.41c2.64,3.09 6.42,5 10.49,5.28l1.04 0.04c3.7,0 7.27,-1.35 10.06,-3.8l358.9 -316.72 472.87 151.58c1.53,0.49 3.08,0.72 4.64,0.72 4.57,0 9,-2.08 11.94,-5.8l190.97 -242.99 283.28 155.81c2.28,1.26 4.8,1.9 7.33,1.9 2.16,0 4.32,-0.47 6.33,-1.4l516.67 -237.38 329.74 296.35c2.8,2.51 6.41,3.89 10.16,3.89l0.82 -0.02c4.02,-0.21 7.8,-2.03 10.48,-5.03l18.84 -20.99c5.59,-6.24 5.07,-15.84 -1.16,-21.44l-350.92 -315.39c-2.83,-2.56 -6.47,-3.89 -10.14,-3.89zm0 15.19l350.9 315.38 -18.82 21.01 -337.17 -303.03 -525.73 241.55 -294.58 -162.05 -198.94 253.13 -481.1 -154.19 -365.37 322.41 -18.33 -21.4 377.29 -332.63 477.84 153.16 201.69 -256.47 302.6 166.49 529.72 -243.36z"/>
   <polygon class="fil24" points="15615.38,8712.88 15950.57,8431.89 16262.47,8771.76 16917.87,8075.11 17397.83,8809.21 15629.9,8758.13 "/>
   <polygon class="fil10" points="17486.15,8640.05 17152.6,8242.3 16669.43,8601.36 16310.9,8287.54 15872.61,8740.85 15399.16,8425.62 15144.16,8769.85 17420.39,8952.48 "/>
   <polyline class="fil28 str0" points="17486.15,8640.05 17152.6,8242.3 16669.43,8601.36 16310.9,8287.54 15872.61,8740.85 15399.16,8425.62 15144.16,8769.85 "/>
   <polygon class="fil25" points="14854.19,8827.34 15182.8,8549.66 15354.29,8714.41 15653.45,8499.28 15912.26,8727.86 16488.97,8381.85 16917.18,8764.52 17551.05,8541.51 17503.09,9068.43 "/>
   <polyline class="fil28 str0" points="15182.8,8549.66 15354.29,8714.41 15653.45,8499.28 15912.26,8727.86 16488.97,8381.85 16917.18,8764.52 17551.05,8541.51 "/>
   <path class="fil23" d="M17727.08 11300.54c-1.79,23.31 -22.13,40.74 -45.42,38.96 -23.29,-1.79 -40.81,-22.12 -39.02,-45.43 1.78,-23.28 22.19,-40.71 45.47,-38.93 23.3,1.79 40.75,22.11 38.97,45.4z"/>
   <path class="fil27" d="M17727.08 11300.54l-15.87 -1.21c-1.04,13.84 -12.67,24.37 -26.28,24.36l-2.16 -0.07 0.1 0.01c-13.86,-1.04 -24.48,-12.72 -24.46,-26.3l0.07 -1.73 0.02 -0.32c1,-13.78 12.7,-24.37 26.33,-24.36l1.86 0.07 0.21 0.02c13.84,1.02 24.39,12.66 24.38,26.26l-0.08 2.25 15.88 1.02 -15.87 -1.21 15.87 1.21 15.87 1.03c0.1,-1.36 0.16,-2.79 0.16,-4.3 -0.01,-30.18 -23.23,-55.64 -53.79,-58l-1.21 15.87 1.41 -15.85c-1.71,-0.15 -3.3,-0.19 -4.69,-0.19 -30.17,0.01 -55.69,23.17 -58.07,53.76l15.88 1.21 -15.85 -1.52c-0.17,1.77 -0.21,3.37 -0.21,4.78 0.02,30.25 23.32,55.66 53.85,58.03l0.1 0.01c1.42,0.11 2.87,0.16 4.4,0.16 30.17,-0.01 55.64,-23.21 58.01,-53.77l0.05 -0.64 -0.04 0.45 -15.87 -1.03z"/>
   <path class="fil23" d="M18169.97 10574.42c-1.79,23.3 -22.15,40.73 -45.47,38.96 -23.24,-1.79 -40.75,-22.12 -38.97,-45.43 1.79,-23.28 22.2,-40.75 45.44,-38.96 23.31,1.78 40.78,22.14 39,45.43z"/>
   <path class="fil27" d="M18169.97 10574.42l-15.87 -1.23c-1.03,13.83 -12.68,24.38 -26.33,24.38l-2.23 -0.09 -1.04 15.9 1.22 -15.88c-13.79,-1.02 -24.43,-12.7 -24.4,-26.29l0.06 -1.82 0.03 -0.23c1.01,-13.79 12.74,-24.43 26.3,-24.4l1.75 0.07 0.29 0.02c13.85,1.03 24.44,12.71 24.42,26.29l-0.08 2.24 15.88 1.04 -15.87 -1.23 15.87 1.23 15.89 1.02c0.08,-1.36 0.14,-2.79 0.14,-4.3 -0.02,-30.19 -23.25,-55.66 -53.83,-58.02l-1.2 15.87 1.49 -15.85c-1.76,-0.17 -3.36,-0.21 -4.75,-0.21 -30.19,0.03 -55.66,23.23 -58.04,53.8l15.86 1.22 -15.85 -1.44c-0.14,1.72 -0.19,3.29 -0.19,4.7 0.02,30.23 23.29,55.65 53.8,58.03l0.16 0.01c1.36,0.09 2.81,0.14 4.32,0.14 30.2,0 55.69,-23.18 58.06,-53.76l0.05 -0.64 -0.02 0.45 -15.89 -1.02z"/>
   <path class="fil23" d="M18510.15 10999.43c-1.79,23.32 -22.06,40.74 -45.33,38.95 -23.31,-1.78 -40.75,-22.09 -38.96,-45.39 1.79,-23.29 22.11,-40.75 45.41,-38.97 23.29,1.79 40.67,22.14 38.88,45.41z"/>
   <path class="fil27" d="M18510.15 10999.43l-15.87 -1.21c-1.05,13.88 -12.6,24.36 -26.2,24.36l-2.15 -0.09 0.09 0.02c-13.86,-1.05 -24.39,-12.64 -24.38,-26.26l0.06 -1.75 0.02 -0.31c1.03,-13.84 12.67,-24.4 26.27,-24.39l1.87 0.07 0.2 0.02c13.79,1.02 24.3,12.63 24.3,26.25l-0.08 2.2 0 -0.12 15.87 1.21 15.88 1.09c0.1,-1.4 0.17,-2.86 0.17,-4.38 0,-30.14 -23.16,-55.63 -53.72,-58l-1.21 15.88 1.41 -15.85c-1.72,-0.16 -3.29,-0.19 -4.69,-0.19 -30.21,0.01 -55.64,23.25 -58,53.79l15.87 1.22 -15.85 -1.54c-0.17,1.8 -0.2,3.39 -0.2,4.8 0,30.2 23.24,55.64 53.79,57.99l0.08 0.01c1.42,0.1 2.88,0.16 4.4,0.16 30.18,0 55.58,-23.22 57.93,-53.76l0.02 -0.13 -15.88 -1.09z"/>
   <path class="fil23" d="M18928.51 10629.77c-1.79,23.33 -22.18,40.76 -45.43,38.97 -23.34,-1.79 -40.79,-22.11 -39,-45.44 1.79,-23.28 22.12,-40.72 45.46,-38.93 23.26,1.78 40.75,22.12 38.97,45.4z"/>
   <path class="fil27" d="M18928.51 10629.77l-15.87 -1.22c-1.03,13.85 -12.71,24.4 -26.3,24.39l-2.21 -0.09 -1.05 15.89 1.22 -15.87c-13.92,-1.05 -24.44,-12.66 -24.44,-26.3l0.07 -1.83 0.01 -0.23c1.04,-13.81 12.65,-24.36 26.3,-24.36l1.83 0.06 0.27 0.03c13.78,1.01 24.38,12.68 24.36,26.25l-0.08 2.25 15.89 1.03 -15.87 -1.22 15.87 1.22 15.87 1.02c0.09,-1.36 0.15,-2.79 0.15,-4.3 -0.01,-30.19 -23.26,-55.61 -53.78,-57.99l-1.21 15.87 1.47 -15.85c-1.76,-0.15 -3.36,-0.2 -4.77,-0.2 -30.21,0 -55.67,23.22 -58.03,53.76l15.87 1.22 -15.85 -1.44c-0.16,1.73 -0.21,3.31 -0.21,4.71 0,30.22 23.26,55.68 53.85,58.04l0.16 0.01c1.35,0.09 2.8,0.15 4.31,0.15 30.15,-0.02 55.65,-23.19 58.03,-53.79l0.09 -1.27 -0.08 1.08 -15.87 -1.02z"/>
   <path class="fil23" d="M19163.52 10932.14c-1.78,23.29 -22.19,40.72 -45.47,38.93 -23.26,-1.78 -40.69,-22.09 -38.9,-45.4 1.78,-23.29 22.11,-40.75 45.36,-38.97 23.28,1.78 40.79,22.15 39.01,45.44z"/>
   <path class="fil27" d="M19163.52 10932.14l-15.87 -1.23c-1.02,13.8 -12.71,24.38 -26.35,24.37l-2.2 -0.09 -1.05 15.88 1.22 -15.86c-13.8,-1.04 -24.36,-12.66 -24.34,-26.27l0.06 -1.75 0.03 -0.31c1.02,-13.85 12.68,-24.42 26.22,-24.4l1.85 0.07 0.21 0.02c13.8,1 24.44,12.73 24.42,26.29l-0.09 2.24 15.89 1.04 -15.87 -1.23 15.87 1.23 15.88 1.01c0.09,-1.35 0.15,-2.79 0.15,-4.29 -0.03,-30.23 -23.28,-55.66 -53.84,-58.03l-1.2 15.87 1.42 -15.85c-1.72,-0.16 -3.29,-0.21 -4.69,-0.21 -30.19,0.03 -55.6,23.28 -57.96,53.82l15.87 1.21 -15.85 -1.52c-0.17,1.79 -0.21,3.38 -0.21,4.79 0.02,30.18 23.22,55.63 53.74,58l0.18 0.02c1.35,0.09 2.79,0.14 4.29,0.14 30.17,-0.01 55.7,-23.15 58.08,-53.75l0.02 -0.2 -15.88 -1.01z"/>
   <path class="fil23" d="M19521.37 10513.59c-1.79,23.32 -22.11,40.73 -45.37,38.96 -23.34,-1.79 -40.76,-22.1 -38.97,-45.4 1.79,-23.29 22.09,-40.76 45.43,-38.97 23.26,1.78 40.7,22.13 38.91,45.41z"/>
   <path class="fil27" d="M19521.37 10513.59l-15.87 -1.22c-1.04,13.86 -12.66,24.38 -26.25,24.38l-2.13 -0.09 0.09 0.01c-13.9,-1.04 -24.4,-12.63 -24.4,-26.25l0.07 -1.85 0.01 -0.21c1.04,-13.85 12.65,-24.41 26.27,-24.4l1.89 0.07 0.19 0.02c13.78,1.01 24.33,12.64 24.32,26.27l-0.08 2.25 15.89 1.02 -15.87 -1.22 15.87 1.22 15.87 1.02c0.09,-1.36 0.16,-2.79 0.16,-4.29 -0.01,-30.18 -23.18,-55.64 -53.74,-58.02l-1.2 15.88 1.4 -15.86c-1.72,-0.15 -3.29,-0.19 -4.7,-0.19 -30.23,0 -55.64,23.27 -58,53.79l15.87 1.23 -15.85 -1.45c-0.16,1.74 -0.21,3.31 -0.21,4.72 0,30.19 23.24,55.63 53.8,57.99l0.09 0.01c1.42,0.1 2.88,0.16 4.39,0.16 30.16,0 55.62,-23.21 57.98,-53.78l0.01 -0.19 -15.87 -1.02z"/>
   <path class="fil23" d="M19820.57 10780.22c-1.79,23.29 -22.12,40.75 -45.38,38.97 -23.34,-1.8 -40.84,-22.15 -39.05,-45.44 1.77,-23.29 22.17,-40.74 45.52,-38.95 23.26,1.78 40.68,22.13 38.91,45.42z"/>
   <path class="fil27" d="M19820.57 10780.22l-15.88 -1.21c-1.03,13.82 -12.68,24.38 -26.24,24.37l-2.2 -0.09 -1.06 15.9 1.22 -15.87c-13.91,-1.04 -24.51,-12.74 -24.49,-26.3l0.06 -1.83 0.02 -0.22c1.02,-13.81 12.69,-24.39 26.37,-24.38l1.89 0.07 0.19 0.01c13.77,1.02 24.32,12.64 24.31,26.27l-0.08 2.18 0.01 -0.11 15.88 1.21 15.87 1.1c0.1,-1.42 0.16,-2.88 0.16,-4.38 -0.01,-30.18 -23.19,-55.64 -53.73,-58.01l-1.21 15.87 1.4 -15.86c-1.72,-0.14 -3.3,-0.19 -4.69,-0.19 -30.22,0.01 -55.73,23.21 -58.11,53.8l15.88 1.2 -15.85 -1.44c-0.16,1.73 -0.21,3.3 -0.21,4.71 0.03,30.22 23.31,55.65 53.9,58.03l0.17 0.01c1.35,0.09 2.78,0.15 4.3,0.15 30.17,-0.01 55.61,-23.23 57.98,-53.77l0.01 -0.12 -15.87 -1.1z"/>
   <path class="fil23" d="M20115.58 10723.39c-1.78,23.27 -22.15,40.74 -45.44,38.95 -23.25,-1.77 -40.73,-22.13 -38.94,-45.41 1.78,-23.28 22.16,-40.75 45.4,-38.97 23.3,1.79 40.77,22.15 38.98,45.43z"/>
   <path class="fil27" d="M20115.58 10723.39l-15.87 -1.22c-1.02,13.79 -12.7,24.39 -26.31,24.37l-2.21 -0.08 -1.05 15.88 1.22 -15.86c-13.79,-1.02 -24.4,-12.71 -24.38,-26.29l0.07 -1.82 0.02 -0.24c1,-13.8 12.72,-24.42 26.27,-24.39l1.76 0.07 0.28 0.01c13.82,1.03 24.42,12.71 24.39,26.31l-0.08 2.23 15.89 1.03 -15.87 -1.22 15.87 1.22 15.88 1.03c0.09,-1.36 0.15,-2.79 0.15,-4.29 -0.01,-30.2 -23.23,-55.66 -53.8,-58.03l-1.21 15.86 1.5 -15.84c-1.77,-0.17 -3.37,-0.21 -4.76,-0.21 -30.19,0.02 -55.65,23.25 -58.02,53.81l15.88 1.21 -15.86 -1.45c-0.15,1.73 -0.19,3.29 -0.19,4.71 0.03,30.19 23.23,55.64 53.78,58.02l0.17 0.02c1.35,0.09 2.79,0.14 4.3,0.14 30.19,-0.01 55.66,-23.2 58.04,-53.77l0.02 -0.18 -15.88 -1.03z"/>
   <path class="fil13" d="M15048.77 14590.14c-104.09,-0.01 -194.96,-76.61 -209.93,-182.6l-240.11 -1699.82 98.67 9.02 199.01 1513.8c8.11,61.92 38.77,115.71 82.48,153.71 43.68,38.05 100.68,60.66 161.65,60.66 10.71,0 21.51,-0.7 32.38,-2.11l96.93 -12.75 9.95 36.38 56.47 -15.46 56.48 -15.46 -5.7 -20.86 93.74 -12.33 2.31 8.45 56.52 -15.47 4.99 -1.36 174.58 -22.96 -1.37 6.47 869.72 -106.72 -270.52 74.06 17.43 63.65 279.08 -76.4 -6.91 40.16 -1527.88 215.83c-10.07,1.42 -20.07,2.11 -29.97,2.11zm490.85 -194.84l-0.18 -0.69 0.18 0.69z"/>
   <polygon class="fil22" points="16334.45,14408.44 16317.02,14344.79 16587.54,14270.73 16624.86,14266.15 16613.53,14332.04 "/>
   <polygon class="fil29" points="15279.8,14466.43 15269.85,14430.05 15328.43,14422.36 15336.27,14450.97 "/>
   <polygon class="fil30" points="15336.27,14450.97 15336.27,14450.97 15328.43,14422.36 15387.05,14414.65 15392.75,14435.51 "/>
   <polygon class="fil29" points="15483.1,14410.77 15480.79,14402.32 15539.44,14394.61 15539.62,14395.3 "/>
   <polygon class="fil30" points="15539.62,14395.3 15539.62,14395.3 15539.44,14394.61 15544.61,14393.94 "/>
   <polygon class="fil31" points="16606.62,14372.2 16613.53,14332.04 16692.22,14310.5 16678.28,14259.59 16809.05,14243.55 16791.37,14346.1 "/>
   <polygon class="fil32" points="16613.53,14332.04 16624.86,14266.15 16678.28,14259.59 16692.22,14310.5 "/>
   <path class="fil21" d="M16791.37 14346.1l17.68 -102.55 586.5 -71.96 4.59 -21.58 197.86 -26.02 344.91 59.44 -1151.54 162.67zm1430.86 -202.12l-335.9 -57.89 2080.34 -273.48 270.89 46.68 -2015.33 284.69zm2200.48 -310.83l-264.93 -45.66 359.35 -47.24 253.7 43.72 -348.12 49.18zm532.02 -75.52l-246.56 -42.5 359.32 -47.24 19.2 3.32c-30.33,43.34 -76.7,75.32 -131.96,86.42z"/>
   <polygon class="fil22" points="17942.91,14183.43 17598,14123.99 17886.33,14086.09 18222.23,14143.98 "/>
   <path class="fil33" d="M21086.69 13671.21l-19.2 -3.32 23.52 -3.09c-1.41,2.17 -2.84,4.3 -4.32,6.41z"/>
   <path class="fil33" d="M20770.83 13783.97l-253.7 -43.72 191.04 -25.12 246.56 42.5c-4.06,0.81 -8.16,1.52 -12.31,2.1l-171.59 24.24z"/>
   <polygon class="fil33" points="20237.56,13859.29 19966.67,13812.61 20157.78,13787.49 20422.71,13833.15 "/>
   <polygon class="fil31" points="14697.4,12716.74 14598.73,12707.72 14580.84,12581 14680.72,12589.77 "/>
   <path class="fil34" d="M14680.72 12589.77l-99.88 -8.77 -279.63 -1979.55c-11.71,-82.91 26.19,-161.41 91.12,-205.46l288.39 2193.78z"/>
   <path class="fil35" d="M21290.96 13389.93c15.45,117.52 -67.32,225.33 -184.87,240.78l-5937.29 780.53c-117.57,15.43 -225.36,-67.31 -240.83,-184.86l-506.62 -3853.86c-15.44,-117.54 67.32,-225.36 184.88,-240.8l5937.28 -780.52c117.57,-15.45 225.37,67.32 240.82,184.85l506.63 3853.88z"/>
   <path class="fil36" d="M15140.54 14381.25c-45.14,0 -87.34,-16.72 -119.86,-45.01 -32.49,-28.33 -55.07,-67.88 -61.14,-114.01l-506.63 -3853.87c-1.07,-8.13 -1.6,-16.16 -1.6,-24.08 0,-45.14 16.73,-87.34 45.02,-119.85 28.33,-32.5 67.9,-55.08 114.04,-61.16l2061.35 -270.98 -9.37 44.04 -2046.45 269.03c-76.75,10.09 -130.99,80.73 -120.91,157.48l506.62 3853.86c9.16,69.62 68.89,122.11 138.95,122.11 6.17,0 12.41,-0.4 18.57,-1.21l583.48 -76.7 -9.36 44.03 -568.6 74.74c-8.1,1.06 -16.15,1.58 -24.11,1.58zm2273.65 -297.3l9.36 -44.03 3672.87 -482.85c37.18,-4.88 70.23,-23.95 93.07,-53.7 22.82,-29.74 32.71,-66.59 27.83,-103.76l-324.54 -2468.84 45.09 17.46 321.52 2445.84 10.53 -1.38 0 0.01 -10.53 1.37c1.07,8.1 1.59,16.14 1.59,24.09 0,45.12 -16.73,87.31 -45.02,119.83 -28.33,32.5 -67.9,55.08 -114.02,61.17l-3687.75 484.79zm3506.78 -3264.23l-45.12 -17.75 -165.15 -1256.24c-9.16,-69.61 -68.89,-122.12 -138.94,-122.12 -6.15,0 -12.4,0.42 -18.59,1.23l-2209.86 290.51 9.37 -44.04 2194.97 -288.54c8.14,-1.08 16.18,-1.61 24.11,-1.61 45.14,0 87.33,16.73 119.85,45.01 32.49,28.34 55.07,67.9 61.15,114.03l168.21 1279.52z"/>
   <path class="fil37" d="M21290.96 13389.93l-31.57 4.14c1.07,8.1 1.59,16.14 1.59,24.09 0,45.12 -16.73,87.31 -45.02,119.83 -28.33,32.5 -67.9,55.08 -114.02,61.17l-5937.29 780.51c-8.1,1.06 -16.15,1.58 -24.11,1.58 -45.14,0 -87.34,-16.72 -119.86,-45.01 -32.49,-28.33 -55.07,-67.88 -61.14,-114.01l-506.63 -3853.87c-1.07,-8.13 -1.6,-16.16 -1.6,-24.08 0,-45.14 16.73,-87.34 45.02,-119.85 28.33,-32.5 67.9,-55.08 114.04,-61.16l5937.28 -780.5c8.14,-1.08 16.18,-1.61 24.11,-1.61 45.14,0 87.33,16.73 119.85,45.01 32.49,28.34 55.07,67.9 61.15,114.03l506.63 3853.87 31.57 -4.14 31.56 -4.16 -506.63 -3853.88c-8.13,-61.94 -38.78,-115.72 -82.49,-153.73 -43.68,-38.05 -100.66,-60.65 -161.64,-60.65 -10.74,0 -21.56,0.71 -32.43,2.14l-5937.25 780.5c-61.95,8.11 -115.75,38.76 -153.77,82.47 -38.05,43.69 -60.65,100.68 -60.65,161.66 0,10.71 0.7,21.53 2.12,32.38l506.63 3853.88c8.11,61.92 38.77,115.71 82.48,153.71 43.68,38.05 100.68,60.66 161.65,60.66 10.71,0 21.51,-0.7 32.38,-2.11l5937.33 -780.52c61.93,-8.15 115.71,-38.79 153.72,-82.49 38.05,-43.69 60.66,-100.67 60.66,-161.63 0,-10.7 -0.68,-21.51 -2.11,-32.39l-31.56 4.16z"/>
   <polygon class="fil38" points="15717.82,14377.45 15719.19,14370.98 16627.36,14251.6 16625.88,14260.23 16587.54,14270.73 "/>
   <polygon class="fil39" points="16587.54,14270.73 16625.88,14260.23 16624.86,14266.15 "/>
   <polygon class="fil40" points="16625.88,14260.23 16627.36,14251.6 16811.85,14227.34 16809.05,14243.55 16678.28,14259.59 16674.78,14246.85 "/>
   <polygon class="fil41" points="16624.86,14266.15 16625.88,14260.23 16674.78,14246.85 16678.28,14259.59 "/>
   <polygon class="fil42" points="16809.05,14243.55 16811.85,14227.34 17400.14,14150.01 17395.55,14171.59 "/>
   <polygon class="fil43" points="15742.61,14260.9 15834.84,13827.23 17515.79,13606.26 17423.55,14039.92 "/>
   <polygon class="fil44" points="15733.25,14304.93 15742.61,14260.9 17423.55,14039.92 17414.19,14083.95 "/>
   <polygon class="fil45" points="15719.19,14370.98 15733.25,14304.93 17414.19,14083.95 17400.14,14150.01 16811.85,14227.34 16627.36,14251.6 "/>
   <path class="fil43" d="M16572.22 10360.17l90.13 -423.84 1241.17 -163.16 394.96 152.95 -45.32 213.07 -1680.94 220.98zm1753.3 -561.2l-154.91 -60.91 172.7 -22.71 -17.79 83.62z"/>
   <path class="fil44" d="M16662.35 9936.33l9.37 -44.04 1149.28 -151.08 82.52 31.96 -1241.17 163.16zm1508.26 -198.27l-81.57 -32.09 263.64 -34.66 -9.37 44.04 -172.7 22.71z"/>
   <polygon class="fil46" points="16685.77,9826.23 16686.27,9823.87 16947.6,9791.81 "/>
   <path class="fil45" d="M16671.72 9892.29l14.05 -66.06 261.83 -34.42 762.48 -93.55 110.92 42.95 -1149.28 151.08zm1417.32 -186.32l-105.07 -41.32 380.04 -46.64 -11.33 53.3 -263.64 34.66z"/>
   <path class="fil35" d="M17659.18 9983.37c3.73,28.5 -16.31,54.66 -44.84,58.42 -28.49,3.73 -54.66,-16.35 -58.4,-44.84 -3.75,-28.51 16.33,-54.67 44.83,-58.4 28.52,-3.76 54.66,16.31 58.41,44.82z"/>
   <polygon class="fil15" points="20715.15,13185.66 15431.45,13880.26 14995.93,10567.39 20279.63,9872.78 "/>
   <path class="fil47" d="M19764.18 11592.25c-2.38,0 -4.74,-0.53 -6.94,-1.59 -3.88,-1.89 -6.84,-5.27 -8.18,-9.37l-144.05 -440.21c-2.23,-6.8 0.36,-14.25 6.31,-18.2 2.69,-1.79 5.76,-2.67 8.81,-2.67 3.74,0 7.45,1.31 10.42,3.88l350.19 302.94c3.26,2.83 5.24,6.87 5.48,11.18 0.24,4.32 -1.31,8.53 -4.24,11.7 -58.63,63.02 -132.04,111.9 -212.31,141.37 -1.77,0.64 -3.63,0.97 -5.49,0.97z"/>
   <path class="fil15" d="M19620.13 11104.29c-6.11,0 -12.25,1.77 -17.62,5.33 -11.91,7.92 -17.07,22.81 -12.62,36.41l144.04 440.21c2.69,8.21 8.6,14.98 16.38,18.74 4.37,2.12 9.12,3.19 13.87,3.19 3.72,0 7.43,-0.64 10.98,-1.95 82.6,-30.32 158.15,-80.63 218.47,-145.47 5.88,-6.32 8.95,-14.77 8.48,-23.4 -0.47,-8.63 -4.42,-16.69 -10.95,-22.35l-350.2 -302.95c-5.94,-5.14 -13.36,-7.76 -20.83,-7.76zm0.01 31.84l350.19 302.94c-56.09,60.29 -126.24,107.93 -206.15,137.27l-144.04 -440.21z"/>
   <path class="fil10" d="M19995.75 11425.57c-3.81,0 -7.5,-1.36 -10.41,-3.88l-370.14 -320.25c-4.76,-4.1 -6.65,-10.63 -4.81,-16.64 1.82,-6.01 7.01,-10.39 13.24,-11.18l485.65 -60.92 1.98 -0.13c3.61,0 7.14,1.24 9.99,3.52 3.36,2.73 5.48,6.68 5.86,10.98 12.66,141.83 -29.59,281.24 -118.95,392.55 -2.7,3.36 -6.67,5.49 -10.97,5.9l-1.44 0.05z"/>
   <path class="fil15" d="M20111.26 10996.65c-1.32,0 -2.63,0.09 -3.96,0.26l-485.65 60.92c-12.47,1.56 -22.85,10.33 -26.49,22.35 -3.65,12.04 0.13,25.08 9.63,33.3l370.14 320.25c5.8,5.03 13.2,7.76 20.82,7.76l2.88 -0.13c8.6,-0.78 16.53,-5.03 21.94,-11.77 91.96,-114.53 135.43,-257.98 122.39,-403.92 -0.76,-8.62 -4.99,-16.54 -11.72,-21.96 -5.69,-4.58 -12.75,-7.06 -19.98,-7.06zm0 31.84c12.69,142.18 -32.01,277.17 -115.51,381.16l-370.13 -320.23 485.64 -60.93z"/>
   <path class="fil48" d="M19596.71 11069.74c-3.52,0 -6.97,-1.17 -9.77,-3.35 -3.34,-2.59 -5.5,-6.4 -6.03,-10.59l-63.89 -509.71c-0.54,-4.28 0.68,-8.61 3.39,-11.97 2.71,-3.36 6.67,-5.48 10.98,-5.86 16.3,-1.46 32.84,-2.2 49.14,-2.2 270.57,0 498.35,194 541.6,461.28 0.69,4.26 -0.38,8.62 -2.97,12.08 -2.59,3.46 -6.47,5.72 -10.76,6.26l-509.71 63.94 -1.98 0.12z"/>
   <path class="fil15" d="M19580.54 10510.15c-16.77,0 -33.78,0.76 -50.56,2.26 -8.61,0.77 -16.53,4.99 -21.95,11.72 -5.43,6.73 -7.88,15.37 -6.81,23.94l63.91 509.72c1.05,8.38 5.38,15.99 12.05,21.17 5.61,4.36 12.48,6.7 19.53,6.7 1.31,0 2.64,-0.09 3.96,-0.25l509.71 -63.95c8.57,-1.07 16.34,-5.58 21.52,-12.5 5.18,-6.92 7.33,-15.63 5.94,-24.16 -21.47,-132.71 -89.86,-253.67 -192.55,-340.62 -102.07,-86.43 -231.61,-134.03 -364.75,-134.03zm0 31.83c258.71,0 483.82,187.99 525.88,447.9l-509.71 63.94 -63.9 -509.71c16.02,-1.43 31.93,-2.13 47.73,-2.13z"/>
   <path class="fil1" d="M19579.16 11625.04c-107.59,0 -212.05,-31.49 -302.09,-91.02 -3.61,-2.39 -6.09,-6.13 -6.87,-10.38 -0.79,-4.25 0.18,-8.63 2.7,-12.15l287.45 -402.6c3.01,-4.22 7.86,-6.66 12.95,-6.66l2.4 0.18c5.94,0.9 10.86,5.08 12.73,10.78l153.88 470.24c1.35,4.1 0.96,8.59 -1.06,12.41 -2.03,3.82 -5.53,6.64 -9.68,7.84 -27.1,7.76 -55.15,13.49 -83.37,17.03 -22.9,2.87 -46.13,4.33 -69.03,4.33l-0.01 0z"/>
   <path class="fil15" d="M19573.3 11086.31c-10.18,0 -19.87,4.9 -25.9,13.34l-287.46 402.59c-5.02,7.03 -6.97,15.81 -5.39,24.3 1.57,8.49 6.53,15.98 13.73,20.75 92.66,61.27 200.15,93.66 310.88,93.66 23.58,0 47.47,-1.49 71.02,-4.45 29.01,-3.63 57.87,-9.53 85.77,-17.52 8.31,-2.38 15.31,-8.05 19.36,-15.69 4.05,-7.62 4.82,-16.59 2.12,-24.81l-153.87 -470.24c-3.74,-11.41 -13.57,-19.74 -25.44,-21.57 -1.62,-0.24 -3.23,-0.36 -4.82,-0.36zm0.01 31.83l153.87 470.24c-26.14,7.49 -53.18,13.06 -80.96,16.53 -22.55,2.84 -44.92,4.21 -67.06,4.21 -107.06,0 -208.37,-32.2 -293.31,-88.39l287.46 -402.59z"/>
   <path class="fil49" d="M19254.18 11514.06c-3.5,0 -6.92,-1.15 -9.72,-3.3 -21.9,-16.89 -42.55,-35.42 -61.38,-55.07l-26.26 -29.48c-66.99,-80.77 -109.1,-178.24 -122.14,-282.27 -36.97,-294.94 163.76,-563.19 457.01,-610.7l2.54 -0.21c3.43,0 6.76,1.1 9.54,3.19 3.46,2.58 5.72,6.46 6.26,10.75l66.25 528.52c0.5,4.03 -0.54,8.08 -2.93,11.35l-306.3 420.68c-2.54,3.47 -6.36,5.77 -10.61,6.37l-2.26 0.17z"/>
   <path class="fil15" d="M19494.23 10517.11c-1.69,0 -3.39,0.15 -5.08,0.42 -144.86,23.47 -273.25,101.16 -361.5,218.74 -88.47,117.88 -127.1,263.37 -108.76,409.64 13.42,107.06 56.75,207.35 125.31,290.05l0.74 0.85 25.85 29.04 0.79 0.85c19.4,20.23 40.63,39.3 63.16,56.66 5.6,4.32 12.45,6.62 19.44,6.62 1.5,0 3.01,-0.11 4.51,-0.32 8.51,-1.22 16.16,-5.83 21.23,-12.78l306.3 -420.67c4.77,-6.55 6.87,-14.66 5.85,-22.7l-1.2 -9.65 -26.18 -208.75 -38.87 -310.12c-1.08,-8.57 -5.59,-16.34 -12.51,-21.52 -5.54,-4.15 -12.24,-6.36 -19.08,-6.36zm0 31.84l38.88 310.12 26.17 208.75 1.22 9.65 -306.32 420.67c-21.15,-16.31 -41.12,-34.17 -59.6,-53.46l-25.88 -29.04c-62.6,-75.51 -105.12,-169.16 -118.22,-273.68 -35.86,-285.93 161.62,-547.29 443.75,-593.01z"/>
   <polygon class="fil47" points="19205.5,12005.73 19363.55,11984.81 19384.46,12142.88 19226.41,12163.79 "/>
   <path class="fil15" d="M19381.81 11960.99l-42.08 5.57 -115.97 15.35 -42.08 5.56 5.57 42.08 15.35 115.98 5.56 42.09 42.08 -5.57 115.96 -15.36 42.09 -5.56 -5.57 -42.08 -15.35 -115.99 -5.56 -42.07zm-36.51 47.65l15.34 115.98 -115.97 15.34 -15.34 -115.98 115.97 -15.34z"/>
   <polygon class="fil6" points="20206.46,11976.27 19458.99,12075.19 19453.12,12030.82 20200.59,11931.91 "/>
   <polygon class="fil48" points="19230.36,12193.64 19388.41,12172.72 19409.31,12330.78 19251.27,12351.71 "/>
   <path class="fil15" d="M19406.67 12148.9l-42.09 5.56 -115.96 15.36 -42.08 5.57 5.57 42.06 15.35 116 5.57 42.07 42.07 -5.57 115.96 -15.35 42.09 -5.56 -5.57 -42.07 -15.35 -116 -5.56 -42.07zm-36.51 47.65l15.34 115.98 -115.97 15.35 -15.34 -115.98 115.97 -15.35z"/>
   <polygon class="fil6" points="19746.56,12228.32 19483.84,12263.08 19477.98,12218.7 19740.68,12183.94 "/>
   <polygon class="fil10" points="19255.22,12381.52 19413.27,12360.6 19434.18,12518.67 19276.14,12539.59 "/>
   <path class="fil15" d="M19431.53 12336.79l-42.09 5.57 -115.96 15.34 -42.07 5.57 5.57 42.07 15.33 116 5.58 42.07 42.06 -5.56 115.97 -15.35 42.08 -5.57 -5.57 -42.07 -15.34 -116 -5.56 -42.07zm-36.52 47.64l15.35 116 -115.97 15.34 -15.35 -115.98 115.97 -15.36z"/>
   <polygon class="fil6" points="20107.6,12371.72 19508.7,12450.97 19502.83,12406.6 20101.73,12327.35 "/>
   <polygon class="fil49" points="19278.44,12575.32 19436.49,12554.39 19457.39,12712.46 19299.36,12733.38 "/>
   <path class="fil15" d="M19454.75 12530.58l-42.09 5.57 -115.96 15.34 -42.07 5.57 5.56 42.07 15.34 115.99 5.58 42.08 42.07 -5.58 115.97 -15.34 42.08 -5.57 -5.58 -42.07 -15.33 -115.99 -5.57 -42.07zm-36.52 47.64l15.36 115.98 -115.98 15.36 -15.34 -115.99 115.96 -15.35z"/>
   <polygon class="fil6" points="20130.83,12565.51 19531.92,12644.76 19526.05,12600.39 20124.96,12521.14 "/>
   <path class="fil50" d="M15785.85 13205.04l-3.41 -22.63 3046.19 -398.62 -0.25 -2.51 3.17 -0.42 -17.97 -169.72c3.22,-0.64 6.43,-1.28 9.64,-1.92l20.83 187.29 -3058.2 408.53zm940.48 -595.96c-146.05,0 -289.56,-62.6 -391.18,-161.09 -77.41,-75.01 -182.5,-173.86 -319.98,-238.11 109.51,-372.46 156.79,-877.91 625.81,-915.86 15.7,-1.27 31.05,-1.89 46.02,-1.89 351.25,0 508.26,342.09 712.98,684.2 11.07,18.49 22.28,36.97 33.66,55.42 -93.44,74.41 -184.48,179.73 -271.58,319.51 -20.53,32.96 -42.6,62.39 -65.94,88.51 -96.06,107.5 -213.44,158.8 -331.33,167.85 -12.83,0.98 -25.65,1.46 -38.46,1.46z"/>
   <path class="fil51" d="M15771.7 13183.82l-138.18 -1033.63c31.5,-4.11 62.07,-6.03 91.63,-6.03 109.54,0 205.82,26.37 290.02,65.72 -0.02,0.04 -0.02,0.05 -0.03,0.08 -5.96,-2.79 -11.99,-5.51 -18.06,-8.17 -58.85,195.62 -136.91,351.77 -305.94,379.42l80.56 602.61zm2613.37 -544.52c-459.41,0.03 -710.7,-245.64 -901.31,-528.82 -17.15,-26.03 -33.82,-52.31 -50.12,-78.73 121.51,-96.77 247.15,-141.28 373.4,-141.28 167.68,0 336.51,78.43 498.6,217.08 131.63,112.6 276.13,172.38 415.95,172.38 18.97,0 37.82,-1.09 56.58,-3.31l35.41 334.52c-0.72,0.13 -1.43,0.28 -2.15,0.42l-2.36 -23.57c-73.46,14.72 -151.47,27.65 -234.31,38.45 -66.92,8.72 -130.09,12.86 -189.69,12.86z"/>
   <path class="fil52" d="M18828.38 12781.28l-16.95 -169.72c0.72,-0.14 1.43,-0.29 2.15,-0.42l17.97 169.72 -3.17 0.42zm-2102.05 -172.2c-146.07,0.01 -289.54,-62.59 -391.19,-161.09 -77.38,-75 -182.54,-173.78 -320,-238.03 0.01,-0.03 0.01,-0.04 0.03,-0.08 137.48,64.25 242.57,163.1 319.98,238.11 101.62,98.49 245.13,161.09 391.18,161.09 12.81,0 25.63,-0.48 38.46,-1.46 -12.83,0.98 -25.65,1.46 -38.46,1.46zm369.79 -169.31c23.34,-26.12 45.41,-55.55 65.94,-88.51 87.1,-139.78 178.14,-245.1 271.58,-319.51 16.3,26.42 32.97,52.7 50.12,78.73 -17.37,-25.81 -34.26,-51.94 -50.72,-78.21 -93.24,74.38 -184.07,179.51 -270.96,318.99 -20.55,32.96 -42.62,62.39 -65.96,88.51z"/>
   <polygon class="fil53" points="15771.7,13183.82 15771.7,13183.82 15782.44,13182.41 15782.44,13182.41 "/>
   <path class="fil54" d="M15782.44 13182.41l0 0 3045.94 -401.13 0.25 2.51 -3046.19 398.62zm982.35 -574.79c117.89,-9.05 235.27,-60.35 331.33,-167.85 -96.07,107.52 -213.42,158.81 -331.33,167.85z"/>
   <path class="fil55" d="M15771.7 13183.82l0 0 -80.56 -602.61c169.03,-27.65 247.09,-183.8 305.94,-379.42 6.07,2.66 12.1,5.38 18.06,8.17 -60.48,205.63 -139.94,370.69 -319.88,394.17l87.18 578.28 -10.74 1.41zm2627.51 -523.3c-470.75,0 -723.12,-258.08 -915.45,-550.04 190.61,283.18 441.9,528.85 901.31,528.82 59.6,0 122.77,-4.14 189.69,-12.86 82.84,-10.8 160.85,-23.73 234.31,-38.45l2.36 23.57c-70.01,13.75 -144.11,25.87 -222.52,36.09 -66.97,8.74 -130.05,12.87 -189.7,12.87z"/>
   <path class="fil56" d="M15782.44 13182.41l-87.18 -578.28c179.94,-23.48 259.4,-188.54 319.88,-394.17 137.46,64.25 242.62,163.03 320,238.03 101.65,98.5 245.12,161.1 391.19,161.09 12.81,0 25.63,-0.48 38.46,-1.46 117.91,-9.04 235.26,-60.33 331.33,-167.85 23.34,-26.12 45.41,-55.55 65.96,-88.51 86.89,-139.48 177.72,-244.61 270.96,-318.99 16.46,26.27 33.35,52.4 50.72,78.21 192.33,291.96 444.7,550.04 915.45,550.04 59.65,0 122.73,-4.13 189.7,-12.87 78.41,-10.22 152.51,-22.34 222.52,-36.09l16.95 169.72 -3045.94 401.13z"/>
   <path class="fil10" d="M17559.9 12946.83l-123.85 -909.76c-165.46,-262.91 -290.83,-542.19 -487.99,-679.55l209.09 1642.69 402.75 -53.38z"/>
   <line class="fil28 str1" x1="17436.29" y1="12037.16" x2="17439.69" y2= "12063.23" />
   <line class="fil28 str2" x1="17450.1" y1="12143.01" x2="17548.96" y2= "12900.96" />
   <line class="fil28 str1" x1="17554.16" y1="12940.86" x2="17557.56" y2= "12966.92" />
   <line class="fil28 str1" x1="17949.22" y1="11881.87" x2="17952.62" y2= "11907.95" />
   <line class="fil28 str3" x1="17962.55" y1="11984.09" x2="18073.46" y2= "12834.4" />
   <line class="fil28 str1" x1="18078.43" y1="12872.48" x2="18081.83" y2= "12898.55" />
   <line class="fil28 str1" x1="16949.11" y1="11384.84" x2="16952.51" y2= "11410.91" />
   <line class="fil28 str2" x1="16963.03" y1="11491.59" x2="17150.7" y2= "12930.36" />
   <line class="fil28 str1" x1="17155.97" y1="12970.7" x2="17159.36" y2= "12996.77" />
   <line class="fil28 str1" x1="16002.54" y1="12224.17" x2="16005.94" y2= "12250.23" />
   <line class="fil28 str2" x1="16016.35" y1="12330.02" x2="16115.22" y2= "13087.97" />
   <line class="fil28 str1" x1="16120.42" y1="13127.86" x2="16123.82" y2= "13153.93" />
   <path class="fil28 str4" d="M18041.13 12584.8c146.01,50.67 320.43,69.44 533.64,41.64 82.83,-10.8 160.84,-23.72 234.31,-38.45"/>
   <path class="fil28 str4" d="M15681.12 12582.9c505.84,-65.97 217.68,-1251.19 945.72,-1310.11 663.72,-53.71 662.98,1051.3 1414.29,1312.01"/>
   <path class="fil28 str5" d="M17433.83 12031.58c282.86,-225.1 587.73,-167.01 871.81,75.97 149.49,127.88 315.54,187.63 472.53,169.07"/>
   <path class="fil28 str6" d="M17085.32 12451.53c27.35,-28.96 53.08,-62.27 76.74,-100.27 87.16,-139.88 178.27,-245.26 271.77,-319.68"/>
   <path class="fil28 str5" d="M15633.52 12150.19c338.89,-44.19 564.04,164.46 701.63,297.8 189.48,183.63 524.52,242.47 750.17,3.54"/>
   <polyline class="fil28 str7" points="15515.7,11221.17 15771.7,13183.82 18855.23,12781.64 "/>
   <polygon class="fil35" points="15499.69,11098.48 15451.59,11280.6 15516.89,11230.34 15592.87,11262.16 "/>
   <polygon class="fil35" points="18977.93,12765.63 18814.23,12858.83 18846.05,12782.83 18795.81,12717.55 "/>
   <path class="fil15" d="M15953.89 12206.94c-3.29,-25.2 14.48,-48.29 39.67,-51.57 25.21,-3.29 48.3,14.47 51.59,39.67 3.28,25.2 -14.48,48.29 -39.68,51.57 -25.2,3.3 -48.28,-14.46 -51.58,-39.67z"/>
   <path class="fil28 str8" d="M15953.89 12206.94c-3.29,-25.2 14.48,-48.29 39.67,-51.57 25.21,-3.29 48.3,14.47 51.59,39.67 3.28,25.2 -14.48,48.29 -39.68,51.57 -25.2,3.3 -48.28,-14.46 -51.58,-39.67z"/>
   <path class="fil15" d="M15594.23 12159.58c-3.29,-25.18 14.47,-48.28 39.67,-51.57 25.2,-3.28 48.28,14.48 51.58,39.68 3.29,25.2 -14.48,48.29 -39.68,51.57 -25.2,3.29 -48.28,-14.47 -51.57,-39.68z"/>
   <path class="fil28 str8" d="M15594.23 12159.58c-3.29,-25.18 14.47,-48.28 39.67,-51.57 25.2,-3.28 48.28,14.48 51.58,39.68 3.29,25.2 -14.48,48.29 -39.68,51.57 -25.2,3.29 -48.28,-14.47 -51.57,-39.68z"/>
   <path class="fil15" d="M17390.67 12043.1c-3.29,-25.18 14.48,-48.28 39.67,-51.57 25.19,-3.29 48.29,14.48 51.58,39.67 3.28,25.21 -14.48,48.3 -39.67,51.58 -25.21,3.29 -48.3,-14.48 -51.58,-39.68z"/>
   <path class="fil28 str8" d="M17390.67 12043.1c-3.29,-25.18 14.48,-48.28 39.67,-51.57 25.19,-3.29 48.29,14.48 51.58,39.67 3.28,25.21 -14.48,48.3 -39.67,51.58 -25.21,3.29 -48.3,-14.48 -51.58,-39.68z"/>
   <path class="fil57" d="M16901.88 11359.13c-3.28,-25.2 14.47,-48.29 39.67,-51.58 25.2,-3.29 48.29,14.48 51.58,39.68 3.28,25.2 -14.47,48.28 -39.68,51.57 -25.19,3.28 -48.28,-14.48 -51.57,-39.67z"/>
   <path class="fil48" d="M17911.34 11913.34c-3.28,-25.2 14.47,-48.3 39.68,-51.58 25.19,-3.29 48.28,14.48 51.57,39.68 3.28,25.2 -14.48,48.28 -39.68,51.57 -25.2,3.29 -48.29,-14.47 -51.57,-39.67z"/>
   <path class="fil57" d="M16081.84 11742.5c-3.28,-25.2 14.48,-48.28 39.68,-51.57 25.19,-3.3 48.29,14.47 51.57,39.67 3.29,25.2 -14.48,48.29 -39.67,51.58 -25.21,3.28 -48.29,-14.48 -51.58,-39.68z"/>
   <path class="fil35" d="M16079.2 13145.02c-3.29,-25.21 14.48,-48.29 39.68,-51.58 25.2,-3.28 48.28,14.47 51.57,39.68 3.29,25.19 -14.47,48.29 -39.67,51.57 -25.2,3.29 -48.3,-14.48 -51.58,-39.67z"/>
   <path class="fil35" d="M17512.95 12958.01c-3.28,-25.2 14.47,-48.28 39.68,-51.57 25.19,-3.28 48.29,14.47 51.57,39.67 3.29,25.2 -14.48,48.29 -39.68,51.58 -25.2,3.28 -48.28,-14.48 -51.57,-39.68z"/>
   <path class="fil35" d="M18040.1 12889.25c-3.28,-25.19 14.48,-48.28 39.68,-51.57 25.2,-3.29 48.29,14.47 51.57,39.67 3.3,25.2 -14.47,48.3 -39.66,51.58 -25.2,3.28 -48.29,-14.48 -51.59,-39.68z"/>
   <path class="fil35" d="M17117.58 13009.58c-3.28,-25.2 14.48,-48.28 39.67,-51.57 25.21,-3.29 48.29,14.47 51.58,39.67 3.28,25.2 -14.48,48.28 -39.67,51.58 -25.2,3.28 -48.29,-14.48 -51.58,-39.68z"/>
   <path class="fil15" d="M15652.66 12584.99c-3.29,-25.2 14.47,-48.29 39.67,-51.58 25.2,-3.28 48.3,14.48 51.58,39.68 3.29,25.2 -14.48,48.3 -39.68,51.58 -25.18,3.28 -48.28,-14.48 -51.57,-39.68z"/>
   <path class="fil28 str9" d="M15652.66 12584.99c-3.29,-25.2 14.47,-48.29 39.67,-51.58 25.2,-3.28 48.3,14.48 51.58,39.68 3.29,25.2 -14.48,48.3 -39.68,51.58 -25.18,3.28 -48.28,-14.48 -51.57,-39.68z"/>
   <polygon class="fil57" points="16987.1,11079.4 17002.94,11261.27 17181.61,11245.47 17128.37,11145.16 "/>
   <path class="fil15" d="M17160.52 11230.97c-78.78,0 -145.9,-59 -156.1,-137.23 -11.22,-86.16 49.72,-165.4 135.89,-176.65 6.81,-0.88 13.72,-1.33 20.55,-1.33 78.79,0 145.9,58.99 156.1,137.22 11.23,86.16 -49.72,165.4 -135.88,176.65 -6.82,0.88 -13.74,1.34 -20.56,1.34z"/>
   <path class="fil57" d="M17160.87 10900l0 0c-7.5,0 -15.11,0.49 -22.6,1.47 -45.91,5.98 -86.75,29.5 -114.98,66.19 -28.23,36.71 -40.48,82.2 -34.5,128.11 11.23,86.07 85.05,150.95 171.72,150.95 7.52,0 15.12,-0.49 22.6,-1.47 94.79,-12.36 161.84,-99.52 149.48,-194.3 -11.23,-86.07 -85.05,-150.95 -171.72,-150.95zm0 31.51c70.18,0 131.14,52.06 140.47,123.51 10.13,77.67 -44.63,148.84 -122.3,158.98 -6.23,0.81 -12.41,1.21 -18.53,1.21 -70.16,0 -131.14,-52.06 -140.45,-123.51 -10.14,-77.67 44.61,-148.84 122.28,-158.98 6.23,-0.81 12.42,-1.21 18.53,-1.21z"/>
   <polygon class="fil48" points="17995.06,11659.33 18010.91,11841.21 18189.57,11825.41 18136.35,11725.08 "/>
   <path class="fil15" d="M18168.49 11810.9c-78.79,0 -145.89,-59 -156.09,-137.23 -5.45,-41.73 5.69,-83.1 31.35,-116.46 25.67,-33.37 62.79,-54.75 104.53,-60.19 6.81,-0.89 13.73,-1.34 20.56,-1.34 78.78,0 145.89,58.99 156.08,137.22 5.45,41.74 -5.67,83.11 -31.35,116.47 -25.66,33.36 -62.78,54.73 -104.53,60.19 -6.81,0.89 -13.72,1.34 -20.55,1.34z"/>
   <path class="fil48" d="M18168.85 11479.92l-0.01 0c-7.52,0 -15.11,0.49 -22.59,1.47 -94.78,12.37 -161.84,99.53 -149.48,194.32 11.23,86.05 85.05,150.94 171.72,150.94 7.5,0 15.11,-0.5 22.6,-1.48 45.91,-5.98 86.74,-29.49 114.98,-66.19 28.23,-36.71 40.48,-82.2 34.49,-128.11 -11.23,-86.06 -85.05,-150.95 -171.71,-150.95zm-0.01 31.52c70.17,-0.01 131.14,52.05 140.46,123.5 10.14,77.67 -44.62,148.86 -122.29,158.99 -6.23,0.81 -12.41,1.21 -18.52,1.21 -70.18,0 -131.15,-52.05 -140.47,-123.51 -10.13,-77.67 44.63,-148.85 122.3,-158.98 6.22,-0.81 12.41,-1.21 18.52,-1.21z"/>
   <path class="fil57" d="M17115.05 11089.03c0.26,1.94 0.86,3.75 1.78,5.42 0.92,1.68 2.09,3.05 3.51,4.13 1.42,1.09 2.95,1.91 4.63,2.45 1.66,0.53 3.43,0.67 5.29,0.43 1.77,-0.22 3.4,-0.81 4.93,-1.77 1.53,-0.96 2.83,-2.14 3.92,-3.56 1.07,-1.4 1.87,-3.02 2.33,-4.82 0.48,-1.8 0.58,-3.72 0.31,-5.77 -0.53,-4.07 -2.26,-7.31 -5.22,-9.71 -2.95,-2.4 -6.29,-3.35 -9.98,-2.87 -1.88,0.25 -3.53,0.83 -5.01,1.79 -1.48,0.94 -2.75,2.15 -3.84,3.61 -1.08,1.45 -1.87,3.09 -2.33,4.9 -0.48,1.81 -0.58,3.72 -0.32,5.77zm-2.06 -40.74c0.18,1.4 0.64,2.68 1.36,3.86 0.73,1.17 1.6,2.19 2.66,3.04 1.06,0.85 2.21,1.48 3.5,1.87 1.27,0.4 2.61,0.52 4,0.33 2.88,-0.37 5.18,-1.71 6.89,-4 1.73,-2.3 2.42,-4.9 2.04,-7.78 -0.38,-2.94 -1.72,-5.33 -3.98,-7.1 -2.26,-1.78 -4.81,-2.49 -7.69,-2.12 -2.78,0.36 -5.03,1.71 -6.77,4 -1.71,2.3 -2.39,4.94 -2.01,7.9zm-10.2 19.29c-6.7,-4.5 -10.59,-10.69 -11.62,-18.57 -0.51,-3.88 -0.19,-7.63 0.94,-11.22 1.14,-3.58 2.96,-6.81 5.46,-9.68 2.5,-2.88 5.6,-5.29 9.3,-7.24 3.72,-1.94 7.83,-3.21 12.38,-3.81 4.53,-0.57 8.84,-0.41 12.92,0.52 4.1,0.93 7.71,2.46 10.86,4.59 3.15,2.13 5.74,4.79 7.75,7.96 2.03,3.19 3.3,6.72 3.8,10.61 1.03,7.89 -1.13,14.85 -6.46,20.93 9.56,4.58 15.02,12.27 16.42,23.02 0.58,4.46 0.28,8.74 -0.92,12.92 -1.2,4.17 -3.2,7.91 -5.95,11.24 -2.78,3.33 -6.26,6.12 -10.43,8.37 -4.21,2.24 -8.98,3.71 -14.36,4.39 -5.37,0.72 -10.37,0.51 -14.99,-0.57 -4.62,-1.1 -8.69,-2.9 -12.22,-5.41 -3.55,-2.51 -6.41,-5.62 -8.64,-9.34 -2.24,-3.71 -3.65,-7.79 -4.23,-12.25 -0.69,-5.28 -0.21,-10.17 1.41,-14.67 1.63,-4.5 4.5,-8.45 8.58,-11.79z"/>
   <path class="fil57" d="M17192.84 11110.83c-8.99,1.18 -13.94,-1.71 -14.84,-8.69 -0.37,-2.77 0.81,-6.21 3.53,-10.3 2.72,-4.08 6.45,-9.55 11.21,-16.4 6.83,-9.86 12.05,-17.98 15.65,-24.35 3.59,-6.38 5.14,-11.51 4.64,-15.4 -0.37,-2.88 -1.5,-5.08 -3.35,-6.58 -1.84,-1.51 -3.97,-2.1 -6.39,-1.79 -2.13,0.28 -4.02,1.37 -5.64,3.27 -1.65,1.92 -2.88,4.68 -3.73,8.27 -0.87,4.07 -1.94,7.15 -3.18,9.18 -1.25,2.06 -3.35,3.27 -6.32,3.65 -3.25,0.43 -6.03,-0.27 -8.41,-2.07 -2.34,-1.83 -3.75,-4.49 -4.21,-8.01 -0.33,-2.59 -0.14,-5.66 0.64,-9.19 0.76,-3.54 2.07,-6.83 3.93,-9.88 2.81,-4.58 6.34,-8.25 10.59,-11 4.28,-2.76 9.03,-4.48 14.32,-5.17 4.82,-0.63 9.27,-0.45 13.37,0.52 4.08,0.98 7.67,2.61 10.81,4.9 3.12,2.27 5.64,5.09 7.6,8.48 1.96,3.35 3.2,7.13 3.74,11.3 0.52,4 0.28,8 -0.76,12.05 -1.03,4.05 -2.73,8.3 -5.12,12.76 -2.39,4.45 -5.42,9.23 -9.1,14.33 -3.66,5.1 -7.83,10.69 -12.51,16.76l20.72 -2.7c10.65,-1.38 16.43,1.4 17.34,8.35 0.9,6.95 -3.97,11.11 -14.61,12.5l-39.92 5.21z"/>
   <path class="fil48" d="M18132.89 11660.96l-4.93 -37.82 -18.29 40.85 23.22 -3.03zm2.59 19.88l-34.89 4.57c-4.54,0.58 -8.04,0.33 -10.48,-0.77 -2.46,-1.09 -3.88,-3.17 -4.29,-6.23 -0.32,-2.59 -0.08,-4.94 0.77,-7.03 0.88,-2.08 1.81,-4.28 2.82,-6.58l23.41 -50.42c1.91,-4.21 4.01,-7.29 6.29,-9.24 2.29,-1.94 5.3,-3.16 9,-3.64 5.2,-0.68 9.68,0.64 13.46,3.97 3.78,3.33 6.16,8.83 7.16,16.52l4.74 36.28 1.79 -0.44 1.52 -0.25c3.89,-0.52 7.02,0.02 9.4,1.59 2.37,1.57 3.75,3.76 4.11,6.54 0.9,6.95 -3.14,11.01 -12.13,12.18l-2.1 0.27 1.36 10.43c0.51,3.88 -0.07,7.01 -1.73,9.35 -1.69,2.33 -4.24,3.74 -7.67,4.17 -6.39,0.83 -10.15,-3.01 -11.27,-11.53l-1.27 -9.74z"/>
   <path class="fil48" d="M18204.8 11661.48c0.26,1.94 0.83,3.76 1.77,5.42 0.91,1.68 2.1,3.06 3.51,4.14 1.42,1.09 2.96,1.9 4.62,2.44 1.66,0.54 3.44,0.69 5.29,0.44 1.76,-0.22 3.41,-0.82 4.93,-1.76 1.52,-0.96 2.83,-2.15 3.92,-3.57 1.09,-1.41 1.87,-3.02 2.35,-4.81 0.45,-1.81 0.56,-3.74 0.3,-5.79 -0.55,-4.07 -2.28,-7.3 -5.22,-9.7 -2.95,-2.39 -6.28,-3.36 -9.99,-2.88 -1.85,0.24 -3.54,0.85 -5.01,1.79 -1.46,0.95 -2.74,2.15 -3.82,3.62 -1.09,1.46 -1.87,3.1 -2.33,4.9 -0.49,1.8 -0.58,3.72 -0.32,5.76zm-2.07 -40.74c0.18,1.4 0.63,2.68 1.36,3.85 0.71,1.18 1.6,2.22 2.66,3.06 1.04,0.86 2.2,1.47 3.5,1.88 1.27,0.39 2.59,0.51 3.99,0.32 2.88,-0.38 5.17,-1.7 6.91,-4.01 1.72,-2.3 2.39,-4.88 2.02,-7.76 -0.38,-2.96 -1.71,-5.33 -3.97,-7.12 -2.26,-1.78 -4.81,-2.48 -7.7,-2.11 -2.76,0.36 -5.02,1.7 -6.76,4 -1.73,2.29 -2.4,4.93 -2.01,7.89zm-10.2 19.29c-6.72,-4.49 -10.59,-10.68 -11.62,-18.56 -0.51,-3.89 -0.19,-7.63 0.94,-11.22 1.15,-3.58 2.96,-6.83 5.46,-9.69 2.49,-2.87 5.6,-5.27 9.31,-7.22 3.7,-1.96 7.82,-3.22 12.36,-3.82 4.55,-0.59 8.86,-0.42 12.94,0.51 4.09,0.94 7.69,2.47 10.85,4.59 3.16,2.14 5.74,4.81 7.76,7.98 2.03,3.17 3.28,6.72 3.78,10.61 1.04,7.87 -1.14,14.85 -6.46,20.91 9.56,4.6 15.04,12.29 16.45,23.03 0.57,4.44 0.25,8.75 -0.93,12.91 -1.22,4.17 -3.2,7.91 -5.98,11.24 -2.77,3.33 -6.23,6.12 -10.42,8.36 -4.2,2.26 -8.97,3.72 -14.35,4.42 -5.35,0.71 -10.37,0.51 -14.98,-0.59 -4.64,-1.08 -8.7,-2.9 -12.24,-5.41 -3.54,-2.5 -6.41,-5.61 -8.63,-9.32 -2.25,-3.71 -3.66,-7.81 -4.22,-12.25 -0.7,-5.29 -0.23,-10.17 1.41,-14.68 1.62,-4.5 4.47,-8.44 8.57,-11.8z"/>
   <path class="fil15" d="M17090.99 12509.56c-29.58,0 -54.78,-22.14 -58.6,-51.51 -2.05,-15.66 2.14,-31.18 11.76,-43.72 9.63,-12.52 23.57,-20.54 39.24,-22.59 2.59,-0.33 5.17,-0.49 7.72,-0.49 29.58,0 54.77,22.14 58.6,51.5 4.21,32.34 -18.67,62.09 -51.02,66.32 -2.58,0.33 -5.16,0.49 -7.7,0.49z"/>
   <path class="fil48" d="M17091.1 12378.1l0 0c-3.13,0 -6.29,0.2 -9.4,0.6 -39.54,5.17 -67.5,41.53 -62.35,81.06 4.68,35.89 35.48,62.95 71.64,62.95 3.12,0 6.29,-0.2 9.4,-0.6 39.53,-5.17 67.5,-41.53 62.35,-81.06 -4.68,-35.88 -35.48,-62.95 -71.64,-62.95zm0 26.29c22.77,0 42.55,16.89 45.57,40.07 3.29,25.19 -14.47,48.29 -39.68,51.57 -2.01,0.27 -4.01,0.39 -6,0.39 -22.77,0 -42.55,-16.88 -45.56,-40.07 -3.29,-25.19 14.46,-48.28 39.66,-51.57 2.03,-0.27 4.03,-0.39 6.01,-0.39z"/>
   <path class="fil15" d="M18040.59 12641.98c-29.58,0 -54.78,-22.14 -58.6,-51.5 -4.22,-32.35 18.66,-62.1 51.01,-66.31 2.58,-0.34 5.16,-0.5 7.7,-0.5 29.59,0 54.78,22.14 58.6,51.51 2.05,15.66 -2.14,31.19 -11.77,43.72 -9.62,12.52 -23.56,20.54 -39.24,22.59 -2.58,0.34 -5.16,0.49 -7.7,0.49z"/>
   <path class="fil57" d="M18040.71 12510.52l-0.01 0c-3.13,0 -6.29,0.21 -9.4,0.62 -39.54,5.15 -67.5,41.51 -62.35,81.04 4.68,35.89 35.48,62.95 71.64,62.95 3.13,0 6.3,-0.2 9.4,-0.6 39.55,-5.17 67.5,-41.52 62.35,-81.06 -4.68,-35.89 -35.47,-62.95 -71.63,-62.95zm-0.01 26.29c22.77,0 42.55,16.88 45.57,40.07 3.29,25.19 -14.47,48.28 -39.67,51.57 -2.03,0.27 -4.03,0.39 -6.01,0.39 -22.76,0 -42.55,-16.88 -45.56,-40.06 -3.3,-25.2 14.46,-48.29 39.66,-51.58 2.03,-0.27 4.03,-0.39 6.01,-0.39z"/>
   <path class="fil21" d="M21912.21 11412.93l-892.29 -328.99 -12.29 -93.46 618.61 106.61 341.71 134.38 -55.74 181.46zm-548.76 -419.2l-363.63 -62.66 -11.14 -84.72 374.77 147.38z"/>
   <polygon class="fil33" points="21626.24,11097.09 21007.63,10990.48 20999.82,10931.07 21363.45,10993.73 "/>
   <polygon class="fil34" points="17618.53,9703.61 17042.73,9436.93 17052.83,9395.31 17650.39,9549.86 17764.61,9612.68 17775.3,9582.58 17854.4,9613.69 17852.93,9630.32 17909.25,9635.26 17966.67,9657.85 "/>
   <polygon class="fil33" points="17909.25,9635.26 17852.93,9630.32 17854.4,9613.69 "/>
   <path class="fil58" d="M20892.78 10930.77l-499.49 -193.43 -17.35 -131.97 499.91 196.6 16.93 128.8zm-2195 -850.03l-399.3 -154.62 27.04 -127.15 630.22 247.86 -257.96 33.91z"/>
   <polygon class="fil59" points="20937.87,10948.23 20892.78,10930.77 20875.85,10801.97 20920.97,10819.72 "/>
   <path class="fil60" d="M21019.92 11083.94l-1.54 -0.56 -12.96 -108.99 -67.55 -26.16 -16.9 -128.51 67.71 26.63 11.14 84.72 7.81 59.41 12.29 93.46zm-3394.08 -1376.94l-7.31 -3.39 348.14 -45.76 17.3 6.8 -273.89 33.61 -9.21 -3.57 -75.03 12.31z"/>
   <polygon class="fil61" points="18298.48,9926.12 17903.52,9773.17 18170.61,9738.06 18325.52,9798.97 "/>
   <polygon class="fil62" points="17903.52,9773.17 17821,9741.21 18089.04,9705.97 18170.61,9738.06 "/>
   <polygon class="fil63" points="17821,9741.21 17710.08,9698.26 17983.97,9664.65 18089.04,9705.97 "/>
   <polygon class="fil1" points="20393.29,10737.34 18697.78,10080.74 18955.74,10046.83 20375.94,10605.37 "/>
   <polygon class="fil64" points="21967.95,11231.47 17764.61,9612.68 17856.36,9373.53 22061.83,10993.21 22068.81,11080.72 22033.37,11173.11 "/>
   <polygon class="fil65" points="22068.84,11080.72 17820.17,9453.99 17856.36,9373.53 22061.83,10993.21 "/>
   <polygon class="fil66" points="21967.95,11231.47 17764.61,9612.7 17797.51,9526.94 22033.39,11173.1 "/>
   <path class="fil67" d="M17856.36 9373.53c0,0 20.97,12.49 14.49,28.72 -9.49,23.77 -34.56,23.5 -34.56,23.5 0,0 27.44,32.93 9.71,75.98 -21.71,52.73 -59.81,53.15 -59.81,53.15 0,0 22.61,18.39 13.59,38.92 -9.49,21.59 -35.17,18.88 -35.17,18.88l-50.71 -154.17 142.46 -84.98z"/>
   <polygon class="fil68" points="17106.76,9198.2 17090.1,9241.68 17301.21,9357.81 17341.37,9253.09 "/>
   <polygon class="fil67" points="17842.7,9392.79 17341.37,9253.09 17301.21,9357.81 17764.61,9612.68 "/>
   <path class="fil69" d="M17856.36 9373.53l-514.99 -120.44 -22.37 58.32 493.31 176.95 24.02 -62.61c0.14,0 25.05,0.21 34.52,-23.5 6.47,-16.23 -14.47,-28.71 -14.49,-28.72z"/>
   <polygon class="fil70" points="17315.21,9321.27 17096.82,9224.16 17100.23,9215.26 17328.66,9286.22 17320.99,9306.22 "/>
   <polygon class="fil71" points="17320.99,9306.22 17328.66,9286.22 17328.68,9286.22 "/>
   <path class="fil72" d="M17836.29 9425.75l-507.61 -139.53 -13.47 35.05 470.98 233.61c0,0 38.22,-2.07 58.92,-51.09 20.42,-48.32 -8.82,-78.04 -8.82,-78.04z"/>
  </g>
  <g id="_1063992336">
   <polygon class="fil73" points="8567.45,13675.68 8877.44,13675.68 8877.44,12715.42 8567.45,12715.42 "/>
   <polygon class="fil73" points="10281.14,13668.83 10591.13,13668.83 10591.13,12708.58 10281.14,12708.58 "/>
   <polygon class="fil74" points="9023.55,13675.68 9333.54,13675.68 9333.54,12559.75 9023.55,12559.75 "/>
   <polygon class="fil75" points="9431.83,13675.68 9736.32,13675.68 9736.32,11734.54 9431.83,11734.54 "/>
   <polygon class="fil76" points="9879.72,13675.68 10189.7,13675.68 10189.7,12928.35 9879.72,12928.35 "/>
   <path class="fil15" d="M8577.06 12627.3l295.26 0c6.05,0 10.93,-4.9 10.93,-10.94 0,-6.04 -4.88,-10.93 -10.93,-10.93l-295.26 0c-6.03,0 -10.93,4.89 -10.93,10.93 0,6.04 4.9,10.94 10.93,10.94z"/>
   <path class="fil15" d="M9029.07 12481.48l302.55 0c6.03,0 10.94,-4.89 10.94,-10.94 0,-6.03 -4.91,-10.93 -10.94,-10.93l-302.55 0c-6.04,0 -10.93,4.9 -10.93,10.93 0,6.05 4.89,10.94 10.93,10.94z"/>
   <path class="fil15" d="M9433.69 11673.17l291.6 0c6.05,0 10.94,-4.9 10.94,-10.94 0,-6.04 -4.89,-10.93 -10.94,-10.93l-291.6 0c-6.05,0 -10.93,4.89 -10.93,10.93 0,6.04 4.88,10.94 10.93,10.94z"/>
   <path class="fil15" d="M9882.5 12881.99l295.27 0c6.03,0 10.93,-4.89 10.93,-10.93 0,-6.04 -4.9,-10.94 -10.93,-10.94l-295.27 0c-6.05,0 -10.94,4.9 -10.94,10.94 0,6.04 4.89,10.93 10.94,10.93z"/>
   <path class="fil15" d="M10286.66 12649.92l304.38 0c6.21,0 11.23,-5.03 11.23,-11.24 0,-6.21 -5.02,-11.24 -11.23,-11.24l-304.38 0c-6.2,0 -11.24,5.03 -11.24,11.24 0,6.21 5.04,11.24 11.24,11.24z"/>
   <path class="fil15" d="M8449.49 13691.69l2230.86 0c6.04,0 10.93,-4.89 10.93,-10.94 0,-6.03 -4.89,-10.93 -10.93,-10.93l-2230.86 0c-6.04,0 -10.94,4.9 -10.94,10.93 0,6.05 4.9,10.94 10.94,10.94z"/>
  </g>
  <g id="_1063961424">
   <path class="fil75" d="M11720.28 9965.58l299.32 -472.56c206.51,130.82 348.6,325.12 416.87,541.36l-533.29 168.66c-30.01,-94.89 -92.28,-180.05 -182.9,-237.46z"/>
   <path class="fil73" d="M11902.92 10204.03l533.29 -168.67c25.98,82.2 41.27,167.6 45.44,253.84 6.34,133.9 -14.12,269.96 -63.41,399.73 -23.49,61.79 -53.49,122.29 -90.32,180.4 -182.38,287.88 -487.81,450.38 -804.39,462.61l-21.06 -559.03c138.89,-5.35 272.94,-76.63 352.95,-202.96 71.81,-113.4 84.99,-247.2 47.5,-365.92z"/>
   <path class="fil77" d="M11720.02 9966.56l299.33 -472.56c-406.89,-257.72 -929.15,-184.11 -1250.69,149.85l402.57 388.41c141.07,-146.56 370.25,-178.84 548.79,-65.7z"/>
   <path class="fil15" d="M10770.33 9647.9c-9.02,9.48 -17.89,19.16 -26.58,29.06 -2.14,2.41 -4.26,4.84 -6.36,7.29 -9.04,10.49 -17.9,21.19 -26.56,32.14 -1.54,1.92 -3.07,3.88 -4.6,5.83 -9.16,11.77 -18.12,23.76 -26.83,36.03 -0.82,1.16 -1.63,2.3 -2.45,3.46 -9.39,13.36 -18.53,26.98 -27.36,40.92 -5.2,8.19 -10.22,16.46 -15.15,24.75 -1.69,2.84 -3.32,5.71 -4.99,8.58 -3.2,5.51 -6.36,11.04 -9.45,16.59 -1.83,3.3 -3.64,6.6 -5.43,9.92 -2.89,5.32 -5.71,10.66 -8.48,16.02 -1.69,3.26 -3.39,6.51 -5.04,9.77 -3.19,6.32 -6.27,12.68 -9.32,19.05 -1.06,2.22 -2.18,4.43 -3.22,6.65 -3.89,8.29 -7.62,16.6 -11.26,24.95 -1.43,3.28 -2.78,6.57 -4.17,9.84 -2.3,5.43 -4.56,10.85 -6.75,16.31 -1.48,3.65 -2.91,7.31 -4.33,10.98 -2.04,5.24 -4.02,10.47 -5.96,15.73 -1.33,3.62 -2.67,7.24 -3.96,10.86 -2.11,5.91 -4.13,11.85 -6.11,17.8 -0.97,2.88 -1.98,5.75 -2.93,8.64 -2.76,8.53 -5.4,17.09 -7.92,25.66 -0.91,3.07 -1.74,6.14 -2.61,9.22 -1.67,5.88 -3.32,11.79 -4.89,17.71 -0.93,3.56 -1.83,7.12 -2.73,10.68 -1.41,5.57 -2.76,11.15 -4.07,16.74 -0.82,3.52 -1.65,7.03 -2.43,10.56 -1.38,6.21 -2.68,12.41 -3.92,18.62 -0.57,2.8 -1.17,5.6 -1.72,8.39 -1.71,8.89 -3.32,17.8 -4.79,26.71 -0.36,2.17 -0.65,4.32 -0.99,6.48 -1.1,6.97 -2.15,13.93 -3.1,20.91 -0.42,3.12 -0.81,6.25 -1.2,9.37 -0.79,6.18 -1.52,12.36 -2.18,18.54 -0.33,3.14 -0.67,6.27 -0.98,9.41 -0.65,6.71 -1.22,13.4 -1.75,20.11 -0.18,2.45 -0.41,4.88 -0.58,7.32 -0.65,9.26 -1.19,18.51 -1.57,27.76l-0.04 1.45c-0.35,8.7 -0.58,17.38 -0.7,26.06 -0.04,2.51 -0.04,5 -0.05,7.5 -0.05,6.83 -0.03,13.65 0.06,20.46 0.04,2.71 0.08,5.43 0.14,8.14 0.16,7.09 0.39,14.19 0.7,21.27 0.09,2.1 0.16,4.23 0.26,6.33 0.92,18.62 2.37,37.2 4.33,55.72 0.19,1.84 0.43,3.69 0.63,5.54 0.82,7.39 1.72,14.75 2.7,22.1 0.31,2.34 0.64,4.66 0.97,7.01 1.03,7.25 2.13,14.48 3.31,21.71 0.32,1.95 0.62,3.89 0.96,5.85 3.13,18.48 6.77,36.87 10.94,55.15 0.31,1.36 0.64,2.7 0.96,4.05 1.77,7.63 3.64,15.24 5.58,22.82 0.57,2.2 1.15,4.37 1.72,6.57 1.86,7 3.78,14 5.8,20.95 0.59,2.06 1.16,4.13 1.77,6.19 2.43,8.26 4.97,16.5 7.62,24.71l0.5 1.62c2.94,9.05 6.02,18.05 9.22,27.02 0.42,1.18 0.87,2.34 1.3,3.52 2.67,7.43 5.44,14.82 8.29,22.18 0.92,2.34 1.84,4.67 2.76,6.99 2.52,6.35 5.1,12.66 7.74,18.96 0.96,2.26 1.91,4.53 2.88,6.79 4.37,10.17 8.87,20.28 13.58,30.32l1.09 2.27c4.53,9.57 9.23,19.09 14.06,28.53 0.74,1.45 1.48,2.89 2.22,4.34 5.23,10.09 10.62,20.1 16.2,30.03l1.17 2.03c5.38,9.51 10.93,18.95 16.63,28.3l1.88 3.07c6.05,9.85 12.28,19.61 18.7,29.26l1.47 2.19c6.2,9.26 12.55,18.44 19.07,27.51l1.5 2.11c6.84,9.47 13.87,18.84 21.07,28.09l1.99 2.52c6.95,8.89 14.07,17.68 21.34,26.35l1.17 1.4c7.56,8.98 15.3,17.81 23.22,26.55l2.77 3.02c7.67,8.4 15.49,16.7 23.48,24.88l0.84 0.86c8.22,8.38 16.63,16.61 25.18,24.74 1.25,1.18 2.51,2.35 3.77,3.51 8.33,7.83 16.77,15.55 25.42,23.12l0.64 0.58c8.79,7.68 17.79,15.21 26.89,22.63 1.66,1.34 3.32,2.68 4.99,4.01 8.99,7.23 18.09,14.35 27.37,21.29l0.32 0.26c9.31,6.96 18.81,13.73 28.43,20.4 2.12,1.48 4.26,2.95 6.41,4.42 9.62,6.57 19.35,13.06 29.28,19.35 177.09,112.2 376.06,161.55 570.89,154.08l-21.07 -559.03c-85.45,3.31 -172.75,-18.27 -250.51,-67.5 -8.8,-5.58 -17.25,-11.52 -25.53,-17.63 -1.64,-1.2 -3.27,-2.41 -4.89,-3.64 -16.48,-12.5 -31.85,-25.99 -46.08,-40.34 -1.18,-1.18 -2.34,-2.34 -3.5,-3.52 -7.1,-7.34 -13.98,-14.83 -20.51,-22.59l-0.36 -0.45c-6.32,-7.53 -12.3,-15.28 -18.07,-23.16 -0.95,-1.31 -1.91,-2.61 -2.85,-3.91 -5.78,-8.11 -11.31,-16.35 -16.49,-24.78l-1.11 -1.88c-4.81,-7.91 -9.32,-15.95 -13.59,-24.11 -0.74,-1.42 -1.51,-2.85 -2.24,-4.28 -4.44,-8.7 -8.62,-17.52 -12.45,-26.48l-0.4 -0.84 -1.16 -2.98c-2.6,-6.22 -5.06,-12.48 -7.37,-18.81 -0.68,-1.88 -1.34,-3.76 -1.99,-5.64 -2.13,-6.07 -4.11,-12.19 -5.96,-18.34 -0.51,-1.71 -1.04,-3.42 -1.54,-5.14 -2.15,-7.49 -4.13,-15.02 -5.89,-22.61l-0.2 -0.78c-1.87,-8.2 -3.51,-16.46 -4.91,-24.77l-0.43 -2.84c-1.13,-6.97 -2.09,-13.96 -2.89,-20.98 -0.23,-2.1 -0.43,-4.21 -0.63,-6.32 -0.61,-6.05 -1.08,-12.1 -1.42,-18.16 -0.13,-2.26 -0.27,-4.49 -0.36,-6.74 -0.27,-6.6 -0.38,-13.19 -0.36,-19.81 0,-1.5 -0.05,-2.99 -0.02,-4.48 0.11,-8.17 0.43,-16.34 1,-24.5 0.11,-1.3 0.27,-2.6 0.37,-3.9 0.53,-6.7 1.2,-13.38 2.04,-20.06 0.33,-2.57 0.72,-5.15 1.09,-7.71 0.8,-5.52 1.69,-11.02 2.71,-16.53 0.5,-2.74 1.02,-5.5 1.57,-8.22 1.16,-5.69 2.46,-11.35 3.85,-17.01 0.58,-2.31 1.08,-4.63 1.7,-6.95 2.07,-7.84 4.32,-15.64 6.84,-23.41 0.38,-1.19 0.84,-2.36 1.25,-3.54 2.2,-6.6 4.56,-13.17 7.1,-19.68 1,-2.6 2.1,-5.17 3.16,-7.75 2.13,-5.18 4.35,-10.33 6.68,-15.46 1.25,-2.73 2.54,-5.46 3.84,-8.19 2.52,-5.2 5.17,-10.36 7.9,-15.5 1.27,-2.37 2.47,-4.75 3.79,-7.12 4.11,-7.39 8.39,-14.74 12.98,-21.98 13.51,-21.36 28.64,-41.03 45.03,-59.17 3.17,-3.51 6.31,-7.06 9.57,-10.46l-402.57 -388.41c-1.28,1.34 -2.52,2.72 -3.79,4.05z"/>
  </g>
 </g>
</svg>
