<?xml version="1.0" encoding="UTF-8"?>
<!DOCTYPE svg PUBLIC "-//W3C//DTD SVG 1.1//EN" "http://www.w3.org/Graphics/SVG/1.1/DTD/svg11.dtd">
<!-- Creator: CorelDRAW 2017 -->
<svg xmlns="http://www.w3.org/2000/svg" xml:space="preserve" width="297mm" height="210mm" version="1.1" style="shape-rendering:geometricPrecision; text-rendering:geometricPrecision; image-rendering:optimizeQuality; fill-rule:evenodd; clip-rule:evenodd"
viewBox="0 0 29700 21000"
 xmlns:xlink="http://www.w3.org/1999/xlink">
 <defs>
  <style type="text/css">
   <![CDATA[
    .fil1 {fill:#FEFEFE;fill-rule:nonzero}
    .fil15 {fill:#FEFAFC;fill-rule:nonzero}
    .fil46 {fill:#FEF3E7;fill-rule:nonzero}
    .fil22 {fill:#FFDB95;fill-rule:nonzero}
    .fil23 {fill:#FFCE62;fill-rule:nonzero}
    .fil20 {fill:#F7F7F6;fill-rule:nonzero}
    .fil27 {fill:#F7F5F5;fill-rule:nonzero}
    .fil21 {fill:#F3BB3B;fill-rule:nonzero}
    .fil4 {fill:#ECEDEE;fill-rule:nonzero}
    .fil45 {fill:#EDC088;fill-rule:nonzero}
    .fil37 {fill:#EAEAEA;fill-rule:nonzero}
    .fil13 {fill:#E8E8E9;fill-rule:nonzero}
    .fil7 {fill:#E07838;fill-rule:nonzero}
    .fil48 {fill:#E2E3E3;fill-rule:nonzero}
    .fil3 {fill:#E0E1E0;fill-rule:nonzero}
    .fil29 {fill:#DDDEDE;fill-rule:nonzero}
    .fil8 {fill:#DBDBDB;fill-rule:nonzero}
    .fil30 {fill:#D7D4D4;fill-rule:nonzero}
    .fil25 {fill:#D0D0D2;fill-rule:nonzero}
    .fil2 {fill:#D0CFCF;fill-rule:nonzero}
    .fil28 {fill:#CECACA;fill-rule:nonzero}
    .fil41 {fill:#B86639;fill-rule:nonzero}
    .fil12 {fill:#C1C0C1;fill-rule:nonzero}
    .fil44 {fill:#BFC0BF;fill-rule:nonzero}
    .fil14 {fill:#BBBBBD;fill-rule:nonzero}
    .fil26 {fill:#B6B6B8;fill-rule:nonzero}
    .fil38 {fill:#B4B4B4;fill-rule:nonzero}
    .fil43 {fill:#B0B1B0;fill-rule:nonzero}
    .fil35 {fill:#92674C;fill-rule:nonzero}
    .fil0 {fill:#9AD9E5;fill-rule:nonzero}
    .fil17 {fill:#714A34;fill-rule:nonzero}
    .fil6 {fill:#9E9F9E;fill-rule:nonzero}
    .fil36 {fill:#593E2F;fill-rule:nonzero}
    .fil5 {fill:#959697;fill-rule:nonzero}
    .fil10 {fill:#969695;fill-rule:nonzero}
    .fil16 {fill:#4C372E;fill-rule:nonzero}
    .fil9 {fill:#8B8B8B;fill-rule:nonzero}
    .fil39 {fill:#878889;fill-rule:nonzero}
    .fil11 {fill:#7C7D7D;fill-rule:nonzero}
    .fil19 {fill:#515A61;fill-rule:nonzero}
    .fil33 {fill:#4D545A;fill-rule:nonzero}
    .fil40 {fill:#4A575A;fill-rule:nonzero}
    .fil31 {fill:#484E53;fill-rule:nonzero}
    .fil49 {fill:#404447;fill-rule:nonzero}
    .fil34 {fill:#41484A;fill-rule:nonzero}
    .fil47 {fill:#43494E;fill-rule:nonzero}
    .fil24 {fill:#3E4446;fill-rule:nonzero}
    .fil32 {fill:#393D3E;fill-rule:nonzero}
    .fil42 {fill:#3C4145;fill-rule:nonzero}
    .fil18 {fill:#323536;fill-rule:nonzero}
   ]]>
  </style>
 </defs>
 <g id="Camada_x0020_1">
  <metadata id="CorelCorpID_0Corel-Layer"/>
  <polygon class="fil0" points="7911.8,19364.48 21860.12,19364.48 21860.12,7395.46 7911.8,7395.46 "/>
  <g id="_1069623600">
   <polygon class="fil1" points="10025.18,13379.89 10033.64,13358.61 9777.23,13256.63 9768.77,13277.91 "/>
   <polygon class="fil2" points="9776.5,13256.34 9768.03,13277.62 9781.68,13283.03 9790.13,13261.75 "/>
   <path class="fil1" d="M9766.47 13299.71l23.96 -60.27c0.64,-1.58 -0.14,-3.38 -1.74,-4.02l-71.62 -28.49c-1.6,-0.64 -3.41,0.15 -4.04,1.73l-23.96 60.27c-0.64,1.59 0.15,3.39 1.73,4.02l71.64 28.5c1.58,0.64 3.39,-0.15 4.03,-1.74z"/>
   <path class="fil1" d="M9692.44 13283.5l32.71 -82.26c3.5,-8.79 -0.83,-18.83 -9.61,-22.33l-144.13 -57.3c-8.78,-3.51 -18.83,0.83 -22.32,9.61l-32.73 82.25c-3.48,8.8 0.85,18.85 9.63,22.33l144.13 57.32c8.77,3.5 18.82,-0.83 22.32,-9.62z"/>
   <path class="fil3" d="M9565.09 13123.65c-1.87,0 -3.75,0.39 -5.53,1.16 -3.43,1.47 -6.07,4.19 -7.44,7.62l-32.71 82.26c-1.37,3.42 -1.31,7.2 0.17,10.64 1.47,3.44 4.18,6.07 7.62,7.42l144.12 57.33c7.13,2.83 15.25,-0.65 18.08,-7.78l32.71 -82.28c2.85,-7.12 -0.66,-15.22 -7.79,-18.06l-144.12 -57.32c-1.65,-0.67 -3.38,-0.99 -5.11,-0.99zm111.35 173.96c-2.52,0 -5.07,-0.46 -7.54,-1.45l-144.12 -57.32c-5.06,-2.01 -9.04,-5.89 -11.21,-10.92 -2.17,-5.03 -2.26,-10.59 -0.24,-15.66l32.71 -82.25c2.02,-5.06 5.9,-9.04 10.93,-11.21 5.02,-2.17 10.59,-2.25 15.65,-0.24l144.13 57.31c10.48,4.17 15.61,16.09 11.44,26.58l-32.71 82.26c-3.19,8 -10.9,12.9 -19.04,12.9z"/>
   <path class="fil4" d="M8453.14 12428.67l-215.86 542.79c-15.83,39.79 3.6,84.89 43.39,100.7l1068.25 424.85c39.78,15.83 84.87,-3.6 100.69,-43.39l215.88 -542.79c15.82,-39.8 -3.6,-84.88 -43.39,-100.7l-1068.25 -424.85c-39.8,-15.82 -84.88,3.6 -100.71,43.39z"/>
   <polygon class="fil5" points="8610.38,12430.17 8352.76,13077.95 9296.53,13453.29 9554.15,12805.52 "/>
   <path class="fil6" d="M9515.4 13060.17l-71.8 180.52c-2.24,5.62 0.5,11.98 6.13,14.23 5.62,2.24 11.99,-0.51 14.22,-6.14l71.79 -180.51c2.24,-5.63 -0.5,-11.99 -6.12,-14.23 -5.62,-2.24 -11.99,0.5 -14.22,6.13z"/>
   <path class="fil7" d="M9670.59 12874.23c-2.9,-27.79 -20.74,-53.06 -48.49,-64.1l-425.84 -169.36 0.74 0.02 425.34 169.15c27.77,11.05 45.46,36.42 48.25,64.29zm-476.3 -234.25l-640.44 -254.7c-9.4,-3.73 -19.1,-5.51 -28.64,-5.51 -8.36,0 -16.6,1.37 -24.41,3.96 7.94,-2.68 16.32,-4.11 24.83,-4.11 9.48,0 19.12,1.77 28.46,5.48l640.21 254.61 -0.01 0.27z"/>
   <path class="fil8" d="M9538.18 13230.94l-53.28 -34.82 50.84 -127.85c2.24,-5.63 -0.5,-11.99 -6.12,-14.23 -1.33,-0.53 -2.7,-0.78 -4.05,-0.78 -4.35,0 -8.47,2.61 -10.17,6.91l-49.21 123.71 -49.62 -32.43 137.58 -345.93 -943.77 -375.35 -61.34 154.24 -125.09 -81.77 29.39 -73.89c8.78,-22.06 26.56,-37.94 47.46,-45.02 7.81,-2.59 16.05,-3.96 24.41,-3.96 9.54,0 19.24,1.78 28.64,5.51l640.44 254.7 0 0.74 1.97 0.05 425.84 169.36c27.75,11.04 45.59,36.31 48.49,64.1 1.19,12.03 -0.4,24.55 -5.19,36.57l-127.22 320.14z"/>
   <polygon class="fil9" points="9416.57,13151.45 8549.04,12584.41 8610.38,12430.17 9554.15,12805.52 "/>
   <path class="fil10" d="M9484.9 13196.12l-18.71 -12.24 49.21 -123.71c1.7,-4.3 5.82,-6.91 10.17,-6.91 1.35,0 2.72,0.25 4.05,0.78 5.62,2.24 8.36,8.6 6.12,14.23l-50.84 127.85z"/>
   <polygon class="fil3" points="9597.57,13184.84 9589.08,13206.23 9666.84,13237.16 9675.34,13215.76 "/>
   <path class="fil1" d="M10328.12 13307.91c-9.78,-27.35 -36.93,-47.42 -64.53,-47.74 -20.48,-0.23 -42.11,8.88 -68.05,28.65 -35.63,27.13 -66.43,61.99 -96.23,95.69 -0.16,0.2 -0.34,0.4 -0.51,0.58l40.57 16.41c28.85,11.66 61.56,24.88 93.84,24.45 30.96,-0.43 60.47,-13.89 78.92,-36.02 6.02,-7.21 10.78,-15.33 14.18,-23.88 7.47,-18.82 8.39,-39.78 1.81,-58.14zm-1051.98 464.16c-11.81,-34.52 -45.56,-62.52 -85.99,-71.34 -45.58,-9.92 -89.21,3.77 -117.78,17.01 -10.28,4.76 -20.26,10.18 -29.93,16.06 -0.07,16.9 1.77,33.22 5.52,48.72 11.76,48.5 44.29,89.35 84.9,106.65 43.64,18.57 97.76,7.6 125.9,-25.51 6.52,-7.66 11.67,-16.38 15.37,-25.69 8.29,-20.83 9.29,-44.58 2.01,-65.9zm-423.17 111.74c25.46,-44.97 63.81,-80.77 101.46,-112.77 20.35,-17.28 41.99,-34.8 65.5,-50.12 1.56,-28.75 7.97,-58.72 19.14,-88.91 18.66,-50.39 48.57,-96.47 75.36,-134.89 24.43,-35.03 54,-74.22 95.84,-95.83 41.26,-21.32 94.25,-24.93 149.2,-10.15 29.6,7.95 59.17,21.82 87.77,35.21 18.02,8.46 35.04,16.44 51.98,23 73.7,28.57 149.91,58.13 228.99,69.8 61.13,9.03 150.29,10.39 227.83,-34.36 39.99,-23.08 72.16,-55.35 104.05,-90.65l-50.24 -20.32 8.58 -21.23 57.87 23.4c1.95,-2.2 3.9,-4.41 5.86,-6.63 30.52,-34.55 62.08,-70.25 99.48,-98.76 19.02,-14.49 48.23,-33.71 82.21,-33.31 37.43,0.4 72.73,26.28 85.83,62.9 12.25,34.2 4.4,75.17 -19.97,104.41 -22.67,27.19 -58.63,43.72 -96.18,44.25 -36.9,0.5 -71.89,-13.65 -102.75,-26.13l-48.1 -19.46c-34.04,38.02 -70.17,75.38 -115.19,101.35 -83.25,48.05 -177.9,46.75 -242.64,37.2 -81.59,-12.06 -159.03,-42.07 -233.91,-71.1 -17.66,-6.85 -35.85,-15.37 -53.42,-23.61 -27.7,-12.99 -56.34,-26.42 -83.99,-33.85 -49.43,-13.29 -96.57,-10.32 -132.76,8.37 -37.19,19.24 -63.65,54.32 -87.56,88.61 -27.26,39.1 -54.95,81.87 -72.66,129.73 -8.34,22.5 -13.81,44.79 -16.39,66.4 6.07,-3.32 12.26,-6.48 18.59,-9.4 31.76,-14.71 80.49,-29.88 132.28,-18.6 48.09,10.48 88.43,44.35 102.78,86.31 13.09,38.3 4.62,82.99 -21.6,113.81 -34.93,41.11 -98.99,54.45 -152.31,31.77 -47.14,-20.07 -84.77,-66.95 -98.19,-122.33 -3.07,-12.69 -4.99,-25.84 -5.77,-39.35 -17.83,12.56 -34.66,26.32 -50.69,39.92 -36.04,30.63 -72.65,64.74 -96.35,106.61 -25.45,44.98 -31.72,93.5 -17.18,133.15 2.29,6.23 5.09,12.3 8.05,18.73 4.62,10.03 9.39,20.37 12.28,31.73 4.88,19.17 3.57,45.23 -14.76,60.86l-14.87 -17.42c10.35,-8.82 10.48,-25.88 7.44,-37.78 -2.37,-9.33 -6.51,-18.3 -10.89,-27.81 -3.02,-6.55 -6.15,-13.33 -8.74,-20.42 -13.79,-37.59 -11.73,-81.54 5.19,-124.11 3.78,-9.5 8.31,-18.94 13.55,-28.22z"/>
   <path class="fil1" d="M9030.13 14412.52c-70.14,-15.09 -119.99,-38.24 -156.9,-72.86 -45.83,-42.99 -66.36,-105.62 -52.42,-158.07 -4.87,3.73 -9.81,7.34 -14.69,10.85 -93.19,66.9 -201.45,116.16 -313.09,142.48l-5.25 -22.28c108.75,-25.64 214.21,-73.63 304.98,-138.79 30.13,-21.64 62.3,-47.28 62.4,-77.96l22.82 -1.22c2.81,25.29 -7.72,41.71 -17.9,57.57 -5.79,9.03 -11.78,18.36 -15.53,29.81 -17.22,52.46 9.87,108.58 44.34,140.91 33.75,31.65 80.15,52.99 146.05,67.17l-4.81 22.39z"/>
   <path class="fil11" d="M8303.33 14250.04c51.53,-20.48 96.76,-28.42 101.02,-17.7 4.26,10.7 -34.05,36.01 -85.58,56.5 -51.53,20.52 -96.76,28.45 -101.02,17.73 -4.26,-10.71 34.06,-36.02 85.58,-56.53z"/>
   <path class="fil1" d="M8230.43 14291.98c-20.86,6.58 -33.42,43.33 -11.93,57.95 29.04,19.74 60.44,34.51 67.43,37.44l-38.72 15.4c-10.63,4.24 -15.33,16.82 -10.89,27.97l0.86 2.16c4.44,11.16 16.39,16.8 27.02,12.56l273.29 -108.73 -16.99 -42.7 -113.41 45.14c2.64,-8.67 16.47,-54.48 20.65,-66.49 5.61,-16.12 -1.79,-28.68 -1.79,-28.68 -2.66,-4.6 -5.81,-7.97 -9.08,-10.5 -8.48,-6.55 -20.49,-9.73 -29.18,-4.09 -27.65,17.94 -134.08,55.26 -157.26,62.57z"/>
   <path class="fil12" d="M8631.51 14260.73l9.53 23.94c2.11,5.28 -0.48,11.29 -5.76,13.39l-127.81 50.86 -17.16 -43.11 127.81 -50.86c5.3,-2.1 11.29,0.48 13.39,5.78z"/>
   <path class="fil11" d="M9282.22 14351.97c-51.52,-20.49 -96.76,-28.44 -101.02,-17.73 -4.26,10.72 34.06,36.02 85.58,56.53 51.54,20.51 96.76,28.44 101.02,17.73 4.26,-10.71 -34.05,-36.02 -85.58,-56.53z"/>
   <path class="fil1" d="M9355.13 14393.91c20.85,6.56 33.42,43.33 11.93,57.93 -29.05,19.76 -60.44,34.53 -67.44,37.46l38.73 15.4c10.63,4.22 15.32,16.82 10.89,27.95l-0.87 2.18c-4.43,11.14 -16.38,16.8 -27.01,12.56l-273.29 -108.73 16.98 -42.7 113.41 45.12c-2.63,-8.65 -16.47,-54.47 -20.65,-66.47 -5.61,-16.13 1.8,-28.7 1.8,-28.7 2.65,-4.59 5.8,-7.97 9.08,-10.49 8.48,-6.54 20.49,-9.73 29.17,-4.09 27.66,17.95 134.09,55.27 157.27,62.58z"/>
   <path class="fil12" d="M8954.04 14362.64l-9.52 23.96c-2.11,5.28 0.47,11.29 5.76,13.38l127.81 50.86 17.16 -43.11 -127.82 -50.85c-5.28,-2.11 -11.29,0.48 -13.39,5.76z"/>
   <path class="fil13" d="M11919.92 13637.39c0,31.35 -2.31,62.24 -6.69,92.39 -44.73,307.6 -309.53,543.7 -629.41,543.7 -9.24,0 -18.36,-0.24 -27.47,-0.62 -338.61,-14.34 -608.75,-293.37 -608.75,-635.47 0,-351.36 284.86,-636.09 636.22,-636.09 351.24,0 636.1,284.73 636.1,636.09z"/>
   <path class="fil1" d="M11283.82 12983.06c-360.84,0 -654.46,293.48 -654.46,654.33 0,351.73 275.02,638.89 626.25,653.73 6.8,0.22 13.62,0.47 20.43,0.47l-18.6 -18.73 -19.22 -19.31c-322.54,-23.23 -572.39,-290.46 -572.39,-616.16 0,-340.67 277.21,-617.86 617.99,-617.86 340.67,0 617.86,277.19 617.86,617.86 0,24.68 -1.45,49.72 -4.49,74.29l16.28 16.27 15.93 15.93c0.72,-3.76 1.21,-7.54 1.82,-11.41 4.63,-31.51 6.94,-63.48 6.94,-95.08 0,-360.85 -293.5,-654.33 -654.34,-654.33z"/>
   <path class="fil6" d="M11929.4 13743.88c-51.18,313.08 -326.81,547.84 -645.58,547.84 -2.68,0 -5.23,0 -7.78,-0.13l-18.6 -18.73 -19.22 -19.31c6.21,0.47 12.53,0.85 18.85,1.08 8.88,0.37 17.76,0.62 26.75,0.62 304.8,0 567.53,-227 611.42,-528.14 0.74,-5.12 1.46,-10.33 1.95,-15.43l16.28 16.27 15.93 15.93z"/>
   <path class="fil14" d="M11897.19 13711.68c-0.49,5.1 -1.21,10.31 -1.95,15.43 -43.89,301.14 -306.62,528.14 -611.42,528.14 -8.99,0 -17.87,-0.25 -26.75,-0.62 -6.32,-0.23 -12.64,-0.61 -18.85,-1.08l-559.86 -565.23 904.18 -290.44 314.65 313.8z"/>
   <path class="fil15" d="M10698.51 13688.37l220.8 0c0.34,0 0.62,-0.28 0.62,-0.62l0 -89.8c0,-4.72 -3.86,-8.6 -8.58,-8.6l-211.6 0c-27.57,0 -50.13,22.57 -50.13,50.13 0,26.88 22.01,48.89 48.89,48.89z"/>
   <path class="fil15" d="M11664.87 13637.39c0,210.46 -170.62,381.08 -381.1,381.08 -210.45,0 -381.08,-170.62 -381.08,-381.08 0,-210.48 170.63,-381.1 381.08,-381.1 210.48,0 381.1,170.62 381.1,381.1z"/>
   <path class="fil16" d="M11598.22 13637.39c0,173.73 -140.78,314.52 -314.4,314.52 -98.61,0 -186.5,-45.36 -244.13,-116.36 -44.13,-53.97 -70.4,-123.02 -70.4,-198.16 0,-173.75 140.79,-314.54 314.53,-314.54 122.31,0 228.33,69.91 280.24,172.05 21.89,42.78 34.16,91.18 34.16,142.49z"/>
   <path class="fil17" d="M11598.22 13637.39c0,173.73 -140.78,314.52 -314.4,314.52 -98.61,0 -186.5,-45.36 -244.13,-116.36 -21.88,-42.79 -34.15,-91.18 -34.15,-142.49 0,-173.61 140.79,-314.52 314.38,-314.52 98.61,0 186.52,45.35 244.14,116.36 21.89,42.78 34.16,91.18 34.16,142.49z"/>
   <path class="fil15" d="M12573.57 10268.77l-779.88 677.86 -1134.97 -1305.79 779.89 -677.86c46.86,-40.73 117.84,-35.76 158.57,11.1l61.27 70.49 2.51 2.9 58.02 66.74 2.52 2.9 55.49 63.84 2.52 2.9 55.49 63.84 2.52 2.9 55.48 63.83 2.52 2.92 689.15 792.86c4.97,5.73 9.27,11.81 12.87,18.16 0.66,1.13 1.3,2.29 1.9,3.44 23.65,45.09 14.23,102.11 -25.87,136.97z"/>
   <path class="fil18" d="M10786.31 9638.19c10.57,12.15 11.33,28.78 1.72,37.13 -9.62,8.36 -25.98,5.29 -36.54,-6.86 -10.57,-12.16 -11.34,-28.79 -1.72,-37.14 9.61,-8.36 25.97,-5.29 36.54,6.87z"/>
   <path class="fil18" d="M10905.42 9775.23c10.57,12.15 11.34,28.79 1.72,37.14 -9.61,8.36 -25.97,5.28 -36.54,-6.87 -10.56,-12.15 -11.33,-28.78 -1.72,-37.14 9.62,-8.36 25.98,-5.28 36.54,6.87z"/>
   <path class="fil18" d="M11017.46 9908.55c10.56,12.15 11.33,28.78 1.71,37.14 -9.61,8.35 -25.96,5.28 -36.53,-6.87 -10.55,-12.16 -11.32,-28.78 -1.7,-37.14 9.6,-8.36 25.97,-5.29 36.52,6.87z"/>
   <path class="fil18" d="M11141.67 10041.17c10.56,12.15 11.33,28.78 1.71,37.14 -9.6,8.36 -25.97,5.28 -36.54,-6.87 -10.55,-12.16 -11.32,-28.78 -1.7,-37.14 9.6,-8.36 25.98,-5.28 36.53,6.87z"/>
   <path class="fil18" d="M11255.89 10172.59c10.57,12.16 11.33,28.78 1.72,37.14 -9.62,8.36 -25.98,5.28 -36.54,-6.87 -10.55,-12.16 -11.32,-28.78 -1.7,-37.14 9.6,-8.36 25.97,-5.29 36.52,6.87z"/>
   <path class="fil18" d="M11370.11 10304.02c10.57,12.15 11.34,28.76 1.72,37.12 -9.62,8.36 -25.97,5.29 -36.53,-6.87 -10.57,-12.15 -11.33,-28.79 -1.73,-37.14 9.63,-8.35 25.98,-5.29 36.54,6.89z"/>
   <path class="fil18" d="M11484.34 10435.43c10.57,12.15 11.33,28.77 1.72,37.13 -9.61,8.36 -25.97,5.28 -36.54,-6.87 -10.57,-12.15 -11.33,-28.79 -1.72,-37.15 9.62,-8.35 25.98,-5.26 36.54,6.89z"/>
   <path class="fil18" d="M11608.66 10578.45c10.56,12.15 11.34,28.78 1.71,37.14 -9.61,8.35 -25.97,5.28 -36.53,-6.87 -10.56,-12.15 -11.34,-28.79 -1.72,-37.15 9.62,-8.35 25.98,-5.28 36.54,6.88z"/>
   <path class="fil18" d="M11725.4 10712.77c10.57,12.15 11.34,28.78 1.73,37.14 -9.63,8.36 -25.98,5.27 -36.54,-6.88 -10.57,-12.15 -11.34,-28.77 -1.72,-37.13 9.61,-8.35 25.97,-5.28 36.53,6.87z"/>
   <path class="fil19" d="M10774.74 9638.07l-119.68 104.03c-2.3,2 -5.81,1.76 -7.81,-0.54 -2,-2.3 -1.75,-5.8 0.54,-7.8l119.71 -104.04c2.29,-1.99 5.81,-1.74 7.8,0.55 1.99,2.29 1.74,5.81 -0.56,7.8z"/>
   <path class="fil19" d="M10792.59 9660.78l-119.69 104.04c-2.31,2 -5.81,1.76 -7.8,-0.54 -2,-2.3 -1.76,-5.8 0.54,-7.8l119.7 -104.04c2.3,-1.99 5.81,-1.75 7.8,0.55 2,2.29 1.74,5.8 -0.55,7.79z"/>
   <path class="fil19" d="M10893.08 9774.74l-119.71 104.04c-2.29,1.99 -5.81,1.75 -7.8,-0.55 -2,-2.29 -1.75,-5.8 0.56,-7.79l119.68 -104.04c2.3,-2 5.81,-1.75 7.81,0.55 1.99,2.29 1.75,5.8 -0.54,7.79z"/>
   <path class="fil19" d="M10911.43 9795.83l-119.71 104.04c-2.29,2 -5.79,1.75 -7.78,-0.55 -2,-2.29 -1.75,-5.8 0.53,-7.8l119.71 -104.03c2.29,-1.99 5.79,-1.75 7.78,0.55 2,2.29 1.76,5.8 -0.53,7.79z"/>
   <path class="fil19" d="M11005.11 9908.26l-119.69 104.04c-2.3,1.99 -5.8,1.75 -7.8,-0.54 -2,-2.31 -1.75,-5.81 0.54,-7.8l119.71 -104.05c2.28,-1.99 5.8,-1.74 7.8,0.55 1.97,2.3 1.73,5.81 -0.56,7.8z"/>
   <path class="fil19" d="M11023.39 9929.3l-119.68 104.03c-2.31,2 -5.81,1.75 -7.81,-0.54 -1.99,-2.3 -1.74,-5.8 0.54,-7.8l119.71 -104.04c2.29,-1.99 5.81,-1.74 7.81,0.55l0 0c1.97,2.29 1.73,5.81 -0.57,7.8z"/>
   <path class="fil19" d="M11129.23 10040.77l-119.7 104.04c-2.29,2 -5.81,1.75 -7.79,-0.55 -1.99,-2.29 -1.75,-5.8 0.54,-7.79l119.69 -104.04c2.31,-1.99 5.81,-1.75 7.8,0.55 1.99,2.29 1.75,5.79 -0.54,7.79z"/>
   <path class="fil19" d="M11147.52 10061.81l-119.71 104.04c-2.29,1.99 -5.81,1.75 -7.79,-0.55l0 0c-1.99,-2.29 -1.75,-5.8 0.55,-7.79l119.68 -104.04c2.31,-2 5.81,-1.75 7.81,0.55 1.99,2.29 1.75,5.8 -0.54,7.79z"/>
   <path class="fil19" d="M11243.5 10172.16l-119.68 104.04c-2.29,1.99 -5.81,1.74 -7.81,-0.54 -1.99,-2.3 -1.74,-5.81 0.55,-7.81l119.7 -104.03c2.29,-1.99 5.81,-1.75 7.81,0.55 1.99,2.29 1.74,5.8 -0.57,7.79z"/>
   <path class="fil19" d="M11261.79 10193.2l-119.69 104.04c-2.28,2 -5.8,1.75 -7.8,-0.55 -1.99,-2.3 -1.75,-5.79 0.55,-7.79l119.7 -104.04c2.29,-2 5.8,-1.75 7.8,0.55 1.99,2.29 1.75,5.8 -0.56,7.79z"/>
   <path class="fil19" d="M11357.91 10303.64l-119.7 104.04c-2.29,1.99 -5.79,1.75 -7.79,-0.55 -1.99,-2.28 -1.74,-5.8 0.54,-7.8l119.71 -104.03c2.29,-2 5.79,-1.76 7.78,0.54 2,2.3 1.75,5.81 -0.54,7.8z"/>
   <path class="fil19" d="M11376.2 10324.68l-119.71 104.04c-2.29,1.98 -5.78,1.74 -7.78,-0.55 -2,-2.29 -1.75,-5.81 0.54,-7.8l119.71 -104.04c2.28,-2 5.78,-1.75 7.78,0.56 2,2.28 1.75,5.8 -0.54,7.79z"/>
   <path class="fil19" d="M11472.01 10435.02l-119.69 104.04c-2.29,2 -5.81,1.75 -7.81,-0.56 -1.99,-2.29 -1.74,-5.8 0.57,-7.78l119.68 -104.04c2.3,-1.99 5.81,-1.74 7.81,0.54 1.99,2.29 1.74,5.81 -0.56,7.8z"/>
   <path class="fil19" d="M11490.3 10456.05l-119.7 104.04c-2.28,2 -5.8,1.75 -7.79,-0.54 -2,-2.3 -1.76,-5.8 0.55,-7.79l119.69 -104.04c2.29,-2 5.8,-1.76 7.8,0.54 2,2.28 1.75,5.8 -0.55,7.79z"/>
   <path class="fil19" d="M11596.31 10578.03l-119.69 104.04c-2.29,2 -5.8,1.76 -7.8,-0.55 -2,-2.3 -1.75,-5.79 0.55,-7.79l119.7 -104.04c2.28,-1.99 5.8,-1.75 7.8,0.55 1.99,2.28 1.75,5.8 -0.56,7.79z"/>
   <path class="fil19" d="M11614.6 10599.06l-119.69 104.04c-2.29,2 -5.81,1.75 -7.8,-0.54 -2,-2.3 -1.75,-5.8 0.55,-7.79l119.69 -104.04c2.29,-2 5.81,-1.76 7.81,0.54 1.99,2.28 1.75,5.8 -0.56,7.79z"/>
   <path class="fil19" d="M11712.89 10712.46l-119.69 104.05c-2.31,1.98 -5.8,1.74 -7.8,-0.55 -1.99,-2.29 -1.75,-5.81 0.55,-7.8l119.7 -104.04c2.28,-2 5.8,-1.75 7.78,0.55 2,2.3 1.75,5.82 -0.54,7.79z"/>
   <path class="fil19" d="M11731.18 10733.51l-119.69 104.04c-2.31,1.99 -5.81,1.74 -7.8,-0.56 -1.99,-2.29 -1.75,-5.79 0.54,-7.79l119.7 -104.03c2.29,-1.99 5.81,-1.75 7.78,0.53 2,2.3 1.76,5.81 -0.53,7.81z"/>
   <polygon class="fil18" points="11721.5,9117.11 10857.62,9867.97 10855.1,9865.07 11718.98,9114.21 "/>
   <polygon class="fil18" points="11660.96,9047.47 10797.1,9798.32 10794.58,9795.42 11658.45,9044.57 "/>
   <polygon class="fil18" points="11608,8986.53 10744.13,9737.39 10741.61,9734.49 11605.47,8983.63 "/>
   <polygon class="fil18" points="11779.51,9183.85 10915.63,9934.71 10913.11,9931.8 11776.99,9180.95 "/>
   <polygon class="fil18" points="11837.52,9250.59 10973.64,10001.44 10971.12,9998.54 11835,9247.69 "/>
   <polygon class="fil18" points="11895.52,9317.34 11031.66,10068.19 11029.14,10065.29 11893,9314.42 "/>
   <polygon class="fil18" points="11954.38,9383.33 11089.67,10134.93 11087.15,10132.03 11951.86,9380.43 "/>
   <polygon class="fil18" points="12012.39,9450.07 11147.68,10201.66 11145.15,10198.76 12009.87,9447.17 "/>
   <polygon class="fil18" points="12067.89,9513.91 11203.16,10265.52 11200.64,10262.61 12065.35,9511 "/>
   <polygon class="fil18" points="12128.42,9583.55 11263.69,10335.16 11261.17,10332.25 12125.88,9580.65 "/>
   <polygon class="fil18" points="12183.9,9647.39 11319.18,10398.99 11316.65,10396.08 12181.38,9644.49 "/>
   <polygon class="fil18" points="12239.4,9711.23 11374.66,10462.83 11372.14,10459.93 12236.87,9708.33 "/>
   <polygon class="fil18" points="12299.93,9780.88 11435.19,10532.47 11432.67,10529.58 12297.4,9777.96 "/>
   <polygon class="fil18" points="12362.98,9853.42 11498.24,10605 11495.72,10602.11 12360.46,9850.51 "/>
   <polygon class="fil18" points="12423.51,9923.05 11558.77,10674.65 11556.26,10671.75 12420.98,9920.15 "/>
   <polygon class="fil18" points="12481.52,9989.8 11616.79,10741.4 11614.27,10738.5 12478.99,9986.89 "/>
   <polygon class="fil18" points="12542.04,10059.44 11677.32,10811.04 11674.8,10808.14 12539.52,10056.54 "/>
   <path class="fil18" d="M12599.44 10131.8l-861.59 748.87 -2.51 -2.88 862.2 -749.43c0.66,1.13 1.3,2.29 1.9,3.44z"/>
   <polygon class="fil20" points="8970.07,8785.27 9745.14,9493.92 8901.24,10416.92 8126.17,9708.27 "/>
   <polygon class="fil20" points="14003.25,11930.42 13591.87,10964.14 14742.57,10474.24 15153.95,11440.53 "/>
   <path class="fil21" d="M9530.18 8958.13l-125.74 716.14c-0.77,4.41 4.37,8.97 11.47,10.22l68.59 12.05c7.09,1.24 13.48,-1.3 14.26,-5.71l125.74 -716.14c0.09,-0.61 0.09,-1.23 -0.04,-1.85l-93.62 -16.44c-0.34,0.54 -0.55,1.12 -0.66,1.73z"/>
   <path class="fil22" d="M9456.63 9691.64l27.87 4.9c7.09,1.24 13.48,-1.3 14.26,-5.71l125.74 -716.14c0.09,-0.61 0.09,-1.23 -0.04,-1.85l-27.87 -4.9c0.1,0.47 0.13,0.94 0.09,1.4 0,0.15 -0.03,0.31 -0.05,0.46l-125.74 716.14c-0.77,4.41 -7.17,6.95 -14.26,5.7z"/>
   <path class="fil23" d="M9563.4 8963.97l-125.73 716.13c-0.78,4.41 0.64,8.32 3.12,8.76l24.18 4.24c2.48,0.45 5.15,-2.75 5.92,-7.16l125.74 -716.14c0.02,-0.15 0.05,-0.31 0.05,-0.46 0.08,-0.46 0.13,-0.91 0.16,-1.35l-33.02 -5.8c-0.16,0.58 -0.31,1.16 -0.42,1.78z"/>
   <path class="fil4" d="M9624.5 8972.85c0,0 -14.33,-161.99 -19.66,-163.12 -5.31,-1.11 -74.05,146.67 -74.05,146.67l93.71 16.45z"/>
   <path class="fil24" d="M9613.85 8865.8c0,0 -5.9,-57.25 -8.72,-57.29 -3.53,-0.06 -27.83,50.65 -27.83,50.65l36.55 6.64z"/>
   <path class="fil25" d="M12426.3 11442.06c-47.32,-23.13 -104.97,-3.34 -128.09,43.98l-289.62 592.56c-23.15,47.32 -3.34,104.95 43.97,128.1l822.27 401.9c47.34,23.14 104.97,3.35 128.1,-43.98l289.64 -592.55c23.12,-47.33 3.33,-104.96 -44,-128.09l-822.27 -401.92z"/>
   <path class="fil26" d="M12430.49 12390.66l-86.49 -41.53 -0.13 -0.06 -222.39 -158.58c9.18,-3.58 18.26,-7.16 27.3,-10.79l281.71 210.96z"/>
   <path class="fil27" d="M12569.92 11431.82c-42.17,-31.56 -102.48,-22.89 -134.07,19.27l-395.31 527.92c-31.58,42.17 -22.91,102.49 19.25,134.06l732.61 548.6c42.17,31.57 102.48,22.9 134.05,-19.27l395.33 -527.92c31.59,-42.16 22.91,-102.48 -19.25,-134.06l-732.61 -548.6z"/>
   <path class="fil28" d="M12693.84 12587.86l-1.04 -0.77c5.82,-12.8 63.81,-139.94 81.74,-161.74 6.99,-8.49 14.22,-11.15 20.55,-11.15 10.79,0 18.99,7.76 18.99,7.76l176.32 114.22 -296.56 51.68z"/>
   <path class="fil29" d="M12999.89 12543.06l-156.48 -113.57c0,0 -20.63,-19.58 -39.53,3.38 -18.87,22.95 -112.29,154.71 -112.29,154.71l308.3 -44.52z"/>
   <path class="fil30" d="M12561.28 12285.38c-2.78,0 -5.58,-0.86 -7.96,-2.67 -5.86,-4.41 -7.02,-12.72 -2.62,-18.57l303.54 -405.77c2.6,-3.46 6.58,-5.3 10.6,-5.3 2.78,0 5.58,0.89 7.96,2.69 5.86,4.4 7.04,12.72 2.63,18.57l-303.53 405.77c-2.62,3.45 -6.59,5.28 -10.62,5.28z"/>
   <path class="fil30" d="M12606.52 12134.55c-2.76,0 -5.58,-0.88 -7.97,-2.68 -5.85,-4.4 -7.01,-12.73 -2.59,-18.58l215.46 -286.04c2.62,-3.47 6.6,-5.28 10.62,-5.28 2.78,0 5.58,0.86 7.96,2.66 5.86,4.41 7.04,12.73 2.62,18.58l-215.48 286.04c-2.6,3.47 -6.57,5.3 -10.62,5.3z"/>
   <path class="fil30" d="M12470.99 12219.76c-2.79,0 -5.58,-0.88 -7.97,-2.68 -5.85,-4.4 -7.02,-12.72 -2.62,-18.58l254.59 -340.34c19.56,-11.5 39.34,-23.16 59.34,-35.02l-292.73 391.32c-2.6,3.47 -6.59,5.3 -10.61,5.3z"/>
   <path class="fil30" d="M12537.77 12024.27c-2.79,0 -5.58,-0.88 -7.97,-2.69 -5.85,-4.41 -7.02,-12.72 -2.6,-18.57l47.53 -63.11c19.27,-11.13 38.93,-22.52 58.96,-34.18l-85.31 113.25c-2.62,3.46 -6.59,5.3 -10.61,5.3z"/>
   <path class="fil30" d="M12455.04 12036.5c-2.77,0 -5.56,-0.87 -7.95,-2.66 -5.85,-4.42 -7.03,-12.73 -2.61,-18.59l0.86 -1.16c18.79,-10.69 38.26,-21.8 58.29,-33.28l-37.96 50.4c-2.62,3.46 -6.61,5.29 -10.63,5.29z"/>
   <path class="fil30" d="M12321.61 12111.17c-2.77,0 -5.58,-0.85 -7.97,-2.66 -5.85,-4.41 -7.01,-12.74 -2.61,-18.58l0.02 -0.01c17.84,-10 36.97,-20.74 57.15,-32.13l-35.97 48.11c-2.62,3.45 -6.6,5.27 -10.62,5.27z"/>
   <path class="fil24" d="M13482.56 12265.54l-148.27 711.83c-0.91,4.38 4.08,9.11 11.14,10.57l68.17 14.21c7.05,1.46 13.52,-0.89 14.44,-5.26l148.26 -711.82c0.13,-0.6 0.15,-1.23 0.03,-1.85l-93.06 -19.38c-0.35,0.52 -0.59,1.09 -0.71,1.7z"/>
   <path class="fil19" d="M13385.91 12996.37l27.69 5.78c7.05,1.46 13.52,-0.89 14.44,-5.26l148.26 -711.82c0.13,-0.6 0.15,-1.23 0.03,-1.85l-27.7 -5.77c0.08,0.47 0.1,0.95 0.05,1.39 -0.01,0.17 -0.05,0.31 -0.08,0.45l-148.27 711.83c-0.91,4.38 -7.37,6.72 -14.42,5.25z"/>
   <path class="fil31" d="M13515.58 12272.43l-148.27 711.81c-0.91,4.37 0.38,8.33 2.85,8.86l24.03 5c2.48,0.51 5.23,-2.6 6.14,-6.98l148.27 -711.83c0.03,-0.14 0.07,-0.28 0.08,-0.45 0.1,-0.44 0.14,-0.9 0.18,-1.34l-32.81 -6.84c-0.18,0.57 -0.34,1.16 -0.47,1.77z"/>
   <path class="fil17" d="M13576.37 12283.24c0,0 -9.21,-162.36 -14.51,-163.65 -5.28,-1.3 -78.63,144.24 -78.63,144.24l93.14 19.41z"/>
   <path class="fil27" d="M13569.11 12175.9c0,0 -4.11,-57.39 -6.93,-57.55 -3.51,-0.15 -29.4,49.76 -29.4,49.76l36.33 7.79z"/>
   <path class="fil32" d="M13064.61 12173.15l419.01 594.21c2.58,3.65 9.45,3.23 15.34,-0.92l56.9 -40.13c5.89,-4.16 8.6,-10.49 6.02,-14.14l-419.03 -594.21c-0.36,-0.5 -0.78,-0.94 -1.32,-1.28l-77.69 54.77c0.14,0.64 0.41,1.19 0.77,1.7z"/>
   <path class="fil33" d="M13532.75 12742.62l23.11 -16.31c5.89,-4.16 8.6,-10.49 6.02,-14.14l-419.03 -594.21c-0.36,-0.5 -0.78,-0.94 -1.32,-1.28l-23.13 16.3c0.41,0.26 0.75,0.57 1.05,0.91l0.3 0.38 419 594.21c2.59,3.65 -0.11,9.98 -6,14.14z"/>
   <path class="fil34" d="M13092.17 12153.7l419.02 594.22c2.58,3.66 6.35,5.41 8.41,3.95l20.07 -14.15c2.06,-1.43 1.67,-5.59 -0.92,-9.24l-419 -594.21 -0.3 -0.38c-0.27,-0.37 -0.56,-0.71 -0.85,-1.06l-27.4 19.32c0.29,0.52 0.61,1.04 0.97,1.55z"/>
   <path class="fil35" d="M13141.56 12116.65c0,0 -124.94,-104.08 -129.51,-101.1 -4.54,2.99 51.75,155.93 51.75,155.93l77.76 -54.83z"/>
   <path class="fil34" d="M13058.16 12048.7c0,0 -44.75,-36.18 -46.78,-34.21 -2.52,2.45 16.28,55.44 16.28,55.44l30.5 -21.23z"/>
   <path class="fil31" d="M14725.42 10269.82c-12.77,40.49 -485.57,490.63 -936.1,874.82 -467.07,398.28 -1640.54,1035.06 -1640.54,1035.06 -810.02,324.01 -2122.42,478.75 -2122.42,478.75l-832.07 -17.73 16.08 -1410.6 2158.39 50.41c351.43,-228.74 1260.84,-466.34 1508.4,-563.33 40.46,-15.86 63.34,-24.64 63.34,-24.64 122.41,-104.91 279.83,-111.11 366.07,-159.14 117.25,-65.33 231.3,-111.91 330.53,-202.27 94.45,-86.02 237.99,-134.03 340.58,-197.9 151.7,-94.45 255.25,-189.59 314.79,-216.85 19.76,-9.04 30.84,-13.77 30.84,-13.77 419.46,11.58 402.11,367.19 402.11,367.19z"/>
   <path class="fil18" d="M14292.47 9916.4c-421.15,422.98 -1932.34,1723.73 -1932.34,1723.73l-16.65 -561.53c40.46,-15.85 626.95,-410.59 626.95,-410.59 158.41,-83.35 396.06,-214.03 483.88,-264.89 170.19,-98.58 452.9,-258.66 574.07,-330.39 121.18,-71.72 264.09,-156.33 264.09,-156.33z"/>
   <path class="fil19" d="M15321.81 11975.2l-466.38 -81.14c0,0 -1166.9,-282.79 -1621.61,-333.85 0,0 -1101.59,-138.46 -1483.44,-171.45 0,0 -2117.05,-97.16 -2425.63,-120.29l-180.96 -876.23 823.46 -410.97c0,0 917.63,157.96 1857.6,339.53 747.29,144.35 1508.71,303.64 1834.32,410.32l850.2 282.49c91.62,30.44 488.94,176.3 591.31,238.32 65.96,39.96 145.5,32.99 230.56,157.07 0,0 168.35,95.46 276.35,272.9 0,0 90.93,-22.68 94.79,39.02 3.85,61.71 -160.72,254.28 -380.57,254.28z"/>
   <path class="fil18" d="M15808.39 9415.26c0,354.28 -364.98,506.17 -553.13,560.92 -82.99,24.16 -162.42,59.25 -235.83,104.83l-232.35 144.27c0,0 -17.37,-338.48 -390.54,-373.18l643.31 -538.07 141.66 -118.47c103.53,-90.76 273.83,-176.63 404.72,-133.86 61.47,20.09 120.22,56.45 162.75,119.87l0 0.02c36,55.12 59.41,130.65 59.41,233.67z"/>
   <path class="fil36" d="M8848.52 12731.13c0,0 439.04,84.35 458.5,-17.2 218.7,-1141.48 23.53,-2801.12 23.53,-2801.12l-570.97 43.79 88.94 2774.53z"/>
   <path class="fil24" d="M15331.24 11409c-1007.26,-535.34 -3544.39,-947.81 -3544.39,-947.81l38 -140.39c747.29,144.35 1508.71,303.64 1834.32,410.32l850.2 282.49c91.62,30.44 480.29,157.59 587.07,211.66 95.75,48.48 212.08,135.73 234.8,183.73z"/>
   <path class="fil37" d="M9538.22 12460.13l0 -2280.87c0,-66.74 54.09,-120.83 120.82,-120.83l1521.01 0c66.73,0 120.82,54.09 120.82,120.83l0 2280.87c0,66.72 -54.09,120.81 -120.82,120.81l-1521.01 0c-66.73,0 -120.82,-54.09 -120.82,-120.81z"/>
   <path class="fil38" d="M10287.13 12372.72l0 -2117.02c0,-25.22 20.44,-45.66 45.66,-45.66l812.81 0c25.24,0 45.69,20.44 45.69,45.66l0 2117.02c0,25.22 -20.45,45.66 -45.69,45.66l-812.81 0c-25.22,0 -45.66,-20.44 -45.66,-45.66z"/>
   <path class="fil12" d="M9613.11 11702.06l0 -759.87c0,-17.31 14.03,-31.35 31.36,-31.35l534.58 0c17.31,0 31.35,14.04 31.35,31.35l0 759.87c0,17.3 -14.04,31.36 -31.35,31.36l-534.58 0c-17.33,0 -31.36,-14.06 -31.36,-31.36z"/>
   <path class="fil1" d="M11062.5 10365.76l0 -91.02c0,-12.71 10.29,-23 22.98,-23l37.75 0c12.71,0 22.99,10.29 22.99,23l0 91.02c0,12.69 -10.28,22.98 -22.99,22.98l-37.75 0c-12.69,0 -22.98,-10.29 -22.98,-22.98z"/>
   <path class="fil1" d="M11062.5 10519.27l0 -91.03c0,-12.7 10.29,-22.99 22.98,-22.99l37.75 0c12.71,0 22.99,10.29 22.99,22.99l0 91.03c0,12.69 -10.28,22.98 -22.99,22.98l-37.75 0c-12.69,0 -22.98,-10.29 -22.98,-22.98z"/>
   <path class="fil1" d="M11062.5 10672.78l0 -91.03c0,-12.69 10.29,-22.98 22.98,-22.98l37.75 0c12.71,0 22.99,10.29 22.99,22.98l0 91.03c0,12.69 -10.28,22.98 -22.99,22.98l-37.75 0c-12.69,0 -22.98,-10.29 -22.98,-22.98z"/>
   <path class="fil1" d="M11062.5 10826.28l0 -91.02c0,-12.69 10.29,-22.98 22.98,-22.98l37.75 0c12.71,0 22.99,10.29 22.99,22.98l0 91.02c0,12.71 -10.28,23 -22.99,23l-37.75 0c-12.69,0 -22.98,-10.29 -22.98,-23z"/>
   <path class="fil1" d="M11062.5 10979.79l0 -91.02c0,-12.69 10.29,-22.98 22.98,-22.98l37.75 0c12.71,0 22.99,10.29 22.99,22.98l0 91.02c0,12.69 -10.28,23 -22.99,23l-37.75 0c-12.69,0 -22.98,-10.31 -22.98,-23z"/>
   <path class="fil1" d="M11062.5 11133.3l0 -91.02c0,-12.69 10.29,-22.99 22.98,-22.99l37.75 0c12.71,0 22.99,10.3 22.99,22.99l0 91.02c0,12.69 -10.28,22.98 -22.99,22.98l-37.75 0c-12.69,0 -22.98,-10.29 -22.98,-22.98z"/>
   <path class="fil1" d="M11062.5 11286.81l0 -91.03c0,-12.69 10.29,-22.98 22.98,-22.98l37.75 0c12.71,0 22.99,10.29 22.99,22.98l0 91.03c0,12.7 -10.28,22.99 -22.99,22.99l-37.75 0c-12.69,0 -22.98,-10.29 -22.98,-22.99z"/>
   <path class="fil1" d="M11062.5 11440.33l0 -91.04c0,-12.69 10.29,-22.98 22.98,-22.98l37.75 0c12.71,0 22.99,10.29 22.99,22.98l0 91.04c0,12.69 -10.28,22.98 -22.99,22.98l-37.75 0c-12.69,0 -22.98,-10.29 -22.98,-22.98z"/>
   <path class="fil1" d="M11062.5 11593.82l0 -91.02c0,-12.69 10.29,-22.97 22.98,-22.97l37.75 0c12.71,0 22.99,10.28 22.99,22.97l0 91.02c0,12.71 -10.28,23 -22.99,23l-37.75 0c-12.69,0 -22.98,-10.29 -22.98,-23z"/>
   <path class="fil1" d="M11062.5 11747.33l0 -91.02c0,-12.69 10.29,-22.97 22.98,-22.97l37.75 0c12.71,0 22.99,10.28 22.99,22.97l0 91.02c0,12.7 -10.28,23 -22.99,23l-37.75 0c-12.69,0 -22.98,-10.3 -22.98,-23z"/>
   <path class="fil1" d="M11062.5 11900.85l0 -91.02c0,-12.69 10.29,-23 22.98,-23l37.75 0c12.71,0 22.99,10.31 22.99,23l0 91.02c0,12.69 -10.28,22.98 -22.99,22.98l-37.75 0c-12.69,0 -22.98,-10.29 -22.98,-22.98z"/>
   <path class="fil1" d="M11062.5 12054.36l0 -91.01c0,-12.72 10.29,-23 22.98,-23l37.75 0c12.71,0 22.99,10.28 22.99,23l0 91.01c0,12.69 -10.28,22.98 -22.99,22.98l-37.75 0c-12.69,0 -22.98,-10.29 -22.98,-22.98z"/>
   <path class="fil1" d="M11062.5 12207.87l0 -91.04c0,-12.69 10.29,-22.97 22.98,-22.97l37.75 0c12.71,0 22.99,10.28 22.99,22.97l0 91.04c0,12.69 -10.28,22.98 -22.99,22.98l-37.75 0c-12.69,0 -22.98,-10.29 -22.98,-22.98z"/>
   <path class="fil1" d="M11062.5 12361.39l0 -91.04c0,-12.69 10.29,-22.98 22.98,-22.98l37.75 0c12.71,0 22.99,10.29 22.99,22.98l0 91.04c0,12.69 -10.28,22.97 -22.99,22.97l-37.75 0c-12.69,0 -22.98,-10.28 -22.98,-22.97z"/>
   <path class="fil1" d="M10925.74 10375.68l0 -113.92c0,-2.84 2.3,-5.15 5.13,-5.15l113.93 0c2.85,0 5.14,2.31 5.14,5.15l0 113.92c0,2.85 -2.29,5.14 -5.14,5.14l-113.93 0c-2.83,0 -5.13,-2.29 -5.13,-5.14z"/>
   <path class="fil1" d="M10781.91 10600.96l0 -113.93c0,-2.83 2.29,-5.13 5.13,-5.13l113.94 0c2.82,0 5.13,2.3 5.13,5.13l0 113.93c0,2.85 -2.31,5.14 -5.13,5.14l-113.94 0c-2.84,0 -5.13,-2.29 -5.13,-5.14z"/>
   <path class="fil1" d="M10638.06 10634.15l0 -113.93c0,-2.85 2.31,-5.14 5.13,-5.14l113.94 0c2.85,0 5.13,2.29 5.13,5.14l0 113.93c0,2.83 -2.28,5.14 -5.13,5.14l-113.94 0c-2.82,0 -5.13,-2.31 -5.13,-5.14z"/>
   <path class="fil1" d="M10494.23 10711.48l0 -113.94c0,-2.84 2.29,-5.13 5.14,-5.13l113.93 0c2.83,0 5.13,2.29 5.13,5.13l0 113.94c0,2.83 -2.3,5.14 -5.13,5.14l-113.93 0c-2.85,0 -5.14,-2.31 -5.14,-5.14z"/>
   <path class="fil1" d="M10334.61 10375.38l0 -113.3c0,-3.03 2.45,-5.47 5.46,-5.47l129.12 0c3.01,0 5.46,2.44 5.46,5.47l0 113.3c0,3 -2.45,5.44 -5.46,5.44l-129.12 0c-3.01,0 -5.46,-2.44 -5.46,-5.44z"/>
   <path class="fil1" d="M10334.61 10526.68l0 -113.31c0,-3.01 2.45,-5.45 5.46,-5.45l129.12 0c3.01,0 5.46,2.44 5.46,5.45l0 113.31c0,3.01 -2.45,5.45 -5.46,5.45l-129.12 0c-3.01,0 -5.46,-2.44 -5.46,-5.45z"/>
   <path class="fil1" d="M10334.61 10673.4l0 -113.29c0,-3.01 2.45,-5.44 5.46,-5.44l129.12 0c3.01,0 5.46,2.43 5.46,5.44l0 113.29c0,3.03 -2.45,5.46 -5.46,5.46l-129.12 0c-3.01,0 -5.46,-2.43 -5.46,-5.46z"/>
   <path class="fil1" d="M10334.61 10858.33l0 -149.48c0,-3.45 2.79,-6.24 6.22,-6.24l127.59 0c3.44,0 6.23,2.79 6.23,6.24l0 149.48c0,3.46 -2.79,6.23 -6.23,6.23l-127.59 0c-3.43,0 -6.22,-2.77 -6.22,-6.23z"/>
   <path class="fil1" d="M10334.61 11778.02l0 -149.49c0,-3.45 2.79,-6.23 6.22,-6.23l127.59 0c3.44,0 6.23,2.78 6.23,6.23l0 149.49c0,3.45 -2.79,6.23 -6.23,6.23l-127.59 0c-3.43,0 -6.22,-2.78 -6.22,-6.23z"/>
   <path class="fil1" d="M10334.61 11929.37l0 -111.69c0,-3 2.43,-5.42 5.42,-5.42l129.19 0c3,0 5.43,2.42 5.43,5.42l0 111.69c0,2.99 -2.43,5.43 -5.43,5.43l-129.19 0c-2.99,0 -5.42,-2.44 -5.42,-5.43z"/>
   <path class="fil1" d="M10334.61 11591.24l0 -689.82c0,-7.25 5.87,-13.11 13.09,-13.11l113.85 0c7.23,0 13.1,5.86 13.1,13.11l0 689.82c0,7.23 -5.87,13.1 -13.1,13.1l-113.85 0c-7.22,0 -13.09,-5.87 -13.09,-13.1z"/>
   <path class="fil1" d="M10494.23 10859.43l0 -113.93c0,-2.85 2.29,-5.14 5.14,-5.14l113.93 0c2.83,0 5.13,2.29 5.13,5.14l0 113.93c0,2.83 -2.3,5.13 -5.13,5.13l-113.93 0c-2.85,0 -5.14,-2.3 -5.14,-5.13z"/>
   <path class="fil1" d="M10494.23 11007.38l0 -113.93c0,-2.83 2.29,-5.14 5.14,-5.14l113.93 0c2.83,0 5.13,2.31 5.13,5.14l0 113.93c0,2.84 -2.3,5.14 -5.13,5.14l-113.93 0c-2.85,0 -5.14,-2.3 -5.14,-5.14z"/>
   <path class="fil1" d="M10494.23 11155.34l0 -113.94c0,-2.83 2.29,-5.13 5.14,-5.13l113.93 0c2.83,0 5.13,2.3 5.13,5.13l0 113.94c0,2.84 -2.3,5.13 -5.13,5.13l-113.93 0c-2.85,0 -5.14,-2.29 -5.14,-5.13z"/>
   <path class="fil1" d="M10494.23 11303.29l0 -113.94c0,-2.83 2.29,-5.13 5.14,-5.13l113.93 0c2.83,0 5.13,2.3 5.13,5.13l0 113.94c0,2.84 -2.3,5.13 -5.13,5.13l-113.93 0c-2.85,0 -5.14,-2.29 -5.14,-5.13z"/>
   <path class="fil1" d="M10494.23 11451.23l0 -113.92c0,-2.84 2.29,-5.14 5.14,-5.14l113.93 0c2.83,0 5.13,2.3 5.13,5.14l0 113.92c0,2.85 -2.3,5.16 -5.13,5.16l-113.93 0c-2.85,0 -5.14,-2.31 -5.14,-5.16z"/>
   <path class="fil1" d="M10494.23 11599.21l0 -113.96c0,-2.82 2.29,-5.13 5.14,-5.13l113.93 0c2.83,0 5.13,2.31 5.13,5.13l0 113.96c0,2.82 -2.3,5.13 -5.13,5.13l-113.93 0c-2.85,0 -5.14,-2.31 -5.14,-5.13z"/>
   <path class="fil1" d="M10494.23 11747.15l0 -113.92c0,-2.85 2.29,-5.15 5.14,-5.15l113.93 0c2.83,0 5.13,2.3 5.13,5.15l0 113.92c0,2.84 -2.3,5.14 -5.13,5.14l-113.93 0c-2.85,0 -5.14,-2.3 -5.14,-5.14z"/>
   <path class="fil1" d="M10494.23 11895.11l0 -113.94c0,-2.85 2.29,-5.13 5.14,-5.13l113.93 0c2.83,0 5.13,2.28 5.13,5.13l0 113.94c0,2.83 -2.3,5.13 -5.13,5.13l-113.93 0c-2.85,0 -5.14,-2.3 -5.14,-5.13z"/>
   <path class="fil1" d="M10332.48 12062.96l0 -86.61c0,-11.01 8.92,-19.94 19.94,-19.94l32.26 0c11.03,0 19.95,8.93 19.95,19.94l0 86.61c0,11.01 -8.92,19.94 -19.95,19.94l-32.26 0c-11.02,0 -19.94,-8.93 -19.94,-19.94z"/>
   <path class="fil1" d="M10332.48 12211.37l0 -86.62c0,-11.01 8.92,-19.94 19.94,-19.94l32.26 0c11.03,0 19.95,8.93 19.95,19.94l0 86.62c0,11.01 -8.92,19.94 -19.95,19.94l-32.26 0c-11.02,0 -19.94,-8.93 -19.94,-19.94z"/>
   <path class="fil1" d="M10413.35 12211.37l0 -86.62c0,-11.01 8.94,-19.94 19.94,-19.94l32.27 0c11.02,0 19.93,8.93 19.93,19.94l0 86.62c0,11.01 -8.91,19.94 -19.93,19.94l-32.27 0c-11,0 -19.94,-8.93 -19.94,-19.94z"/>
   <path class="fil1" d="M10332.48 12359.79l0 -86.63c0,-11 8.92,-19.93 19.94,-19.93l32.26 0c11.03,0 19.95,8.93 19.95,19.93l0 86.63c0,11 -8.92,19.93 -19.95,19.93l-32.26 0c-11.02,0 -19.94,-8.93 -19.94,-19.93z"/>
   <path class="fil1" d="M10638.06 10783.48l0 -113.94c0,-2.84 2.31,-5.13 5.13,-5.13l113.94 0c2.85,0 5.13,2.29 5.13,5.13l0 113.94c0,2.82 -2.28,5.13 -5.13,5.13l-113.94 0c-2.82,0 -5.13,-2.31 -5.13,-5.13z"/>
   <path class="fil1" d="M10638.06 10932.8l0 -113.93c0,-2.85 2.31,-5.13 5.13,-5.13l113.94 0c2.85,0 5.13,2.28 5.13,5.13l0 113.93c0,2.83 -2.28,5.13 -5.13,5.13l-113.94 0c-2.82,0 -5.13,-2.3 -5.13,-5.13z"/>
   <path class="fil1" d="M10638.06 11082.12l0 -113.93c0,-2.84 2.31,-5.15 5.13,-5.15l113.94 0c2.85,0 5.13,2.31 5.13,5.15l0 113.93c0,2.84 -2.28,5.14 -5.13,5.14l-113.94 0c-2.82,0 -5.13,-2.3 -5.13,-5.14z"/>
   <path class="fil1" d="M10638.06 11230.54l0 -113.94c0,-2.85 2.31,-5.13 5.13,-5.13l113.94 0c2.85,0 5.13,2.28 5.13,5.13l0 113.94c0,2.83 -2.28,5.13 -5.13,5.13l-113.94 0c-2.82,0 -5.13,-2.3 -5.13,-5.13z"/>
   <path class="fil1" d="M10638.06 11379.86l0 -113.93c0,-2.85 2.31,-5.15 5.13,-5.15l113.94 0c2.85,0 5.13,2.3 5.13,5.15l0 113.93c0,2.83 -2.28,5.14 -5.13,5.14l-113.94 0c-2.82,0 -5.13,-2.31 -5.13,-5.14z"/>
   <path class="fil1" d="M10638.06 11522.79l0 -113.93c0,-2.84 2.31,-5.16 5.13,-5.16l113.94 0c2.85,0 5.13,2.32 5.13,5.16l0 113.93c0,2.83 -2.28,5.14 -5.13,5.14l-113.94 0c-2.82,0 -5.13,-2.31 -5.13,-5.14z"/>
   <path class="fil1" d="M10638.06 11670.74l0 -113.93c0,-2.84 2.31,-5.14 5.13,-5.14l113.94 0c2.85,0 5.13,2.3 5.13,5.14l0 113.93c0,2.83 -2.28,5.14 -5.13,5.14l-113.94 0c-2.82,0 -5.13,-2.31 -5.13,-5.14z"/>
   <path class="fil1" d="M10638.06 11818.7l0 -113.94c0,-2.85 2.31,-5.13 5.13,-5.13l113.94 0c2.85,0 5.13,2.28 5.13,5.13l0 113.94c0,2.82 -2.28,5.13 -5.13,5.13l-113.94 0c-2.82,0 -5.13,-2.31 -5.13,-5.13z"/>
   <path class="fil1" d="M10638.06 11965.73l0 -113.93c0,-2.83 2.31,-5.14 5.13,-5.14l113.94 0c2.85,0 5.13,2.31 5.13,5.14l0 113.93c0,2.85 -2.28,5.13 -5.13,5.13l-113.94 0c-2.82,0 -5.13,-2.28 -5.13,-5.13z"/>
   <path class="fil1" d="M10638.06 12112.77l0 -113.94c0,-2.83 2.31,-5.13 5.13,-5.13l113.94 0c2.85,0 5.13,2.3 5.13,5.13l0 113.94c0,2.84 -2.28,5.13 -5.13,5.13l-113.94 0c-2.82,0 -5.13,-2.29 -5.13,-5.13z"/>
   <path class="fil1" d="M10494.23 12041.6l0 -113.93c0,-2.83 2.29,-5.13 5.14,-5.13l113.93 0c2.83,0 5.13,2.3 5.13,5.13l0 113.93c0,2.85 -2.3,5.15 -5.13,5.15l-113.93 0c-2.85,0 -5.14,-2.3 -5.14,-5.15z"/>
   <path class="fil1" d="M10638.06 12373.27l0 -219.99c0,-3.9 3.16,-7.06 7.05,-7.06l110.11 0c3.89,0 7.04,3.16 7.04,7.06l0 219.99c0,3.9 -3.15,7.06 -7.04,7.06l-110.11 0c-3.89,0 -7.05,-3.16 -7.05,-7.06z"/>
   <path class="fil1" d="M10494.23 12372.2l0 -295.03c0,-4.48 3.63,-8.12 8.13,-8.12l107.95 0c4.48,0 8.12,3.64 8.12,8.12l0 295.03c0,4.49 -3.64,8.13 -8.12,8.13l-107.95 0c-4.5,0 -8.13,-3.64 -8.13,-8.13z"/>
   <path class="fil1" d="M10638.06 10486.07l0 -222.37c0,-3.91 3.18,-7.09 7.1,-7.09l110.03 0c3.91,0 7.07,3.18 7.07,7.09l0 222.37c0,3.92 -3.16,7.1 -7.07,7.1l-110.03 0c-3.92,0 -7.1,-3.18 -7.1,-7.1z"/>
   <path class="fil1" d="M10494.23 10561.7l0 -299.33c0,-4.53 3.67,-8.19 8.19,-8.19l107.82 0c4.53,0 8.19,3.66 8.19,8.19l0 299.33c0,4.51 -3.66,8.17 -8.19,8.17l-107.82 0c-4.52,0 -8.19,-3.66 -8.19,-8.17z"/>
   <path class="fil1" d="M10781.91 10749.54l0 -113.95c0,-2.83 2.29,-5.14 5.13,-5.14l113.94 0c2.82,0 5.13,2.31 5.13,5.14l0 113.95c0,2.83 -2.31,5.13 -5.13,5.13l-113.94 0c-2.84,0 -5.13,-2.3 -5.13,-5.13z"/>
   <path class="fil1" d="M10781.91 10897.18l0 -113.94c0,-2.84 2.29,-5.13 5.13,-5.13l113.94 0c2.82,0 5.13,2.29 5.13,5.13l0 113.94c0,2.83 -2.31,5.13 -5.13,5.13l-113.94 0c-2.84,0 -5.13,-2.3 -5.13,-5.13z"/>
   <path class="fil1" d="M10781.91 11045.73l0 -113.92c0,-2.84 2.29,-5.14 5.13,-5.14l113.94 0c2.82,0 5.13,2.3 5.13,5.14l0 113.92c0,2.85 -2.31,5.15 -5.13,5.15l-113.94 0c-2.84,0 -5.13,-2.3 -5.13,-5.15z"/>
   <path class="fil1" d="M10781.91 11194.31l0 -113.93c0,-2.85 2.29,-5.14 5.13,-5.14l113.94 0c2.82,0 5.13,2.29 5.13,5.14l0 113.93c0,2.82 -2.31,5.13 -5.13,5.13l-113.94 0c-2.84,0 -5.13,-2.31 -5.13,-5.13z"/>
   <path class="fil1" d="M10781.91 11341.95l0 -113.93c0,-2.83 2.29,-5.14 5.13,-5.14l113.94 0c2.82,0 5.13,2.31 5.13,5.14l0 113.93c0,2.85 -2.31,5.14 -5.13,5.14l-113.94 0c-2.84,0 -5.13,-2.29 -5.13,-5.14z"/>
   <path class="fil1" d="M10781.91 11486.25l0 -113.93c0,-2.84 2.29,-5.14 5.13,-5.14l113.94 0c2.82,0 5.13,2.3 5.13,5.14l0 113.93c0,2.83 -2.31,5.14 -5.13,5.14l-113.94 0c-2.84,0 -5.13,-2.31 -5.13,-5.14z"/>
   <path class="fil1" d="M10781.91 11636.04l0 -113.94c0,-2.85 2.29,-5.13 5.13,-5.13l113.94 0c2.82,0 5.13,2.28 5.13,5.13l0 113.94c0,2.83 -2.31,5.13 -5.13,5.13l-113.94 0c-2.84,0 -5.13,-2.3 -5.13,-5.13z"/>
   <path class="fil1" d="M10781.91 11783.99l0 -113.93c0,-2.85 2.29,-5.14 5.13,-5.14l113.94 0c2.82,0 5.13,2.29 5.13,5.14l0 113.93c0,2.83 -2.31,5.14 -5.13,5.14l-113.94 0c-2.84,0 -5.13,-2.31 -5.13,-5.14z"/>
   <path class="fil1" d="M10781.91 11929.5l0 -113.93c0,-2.83 2.29,-5.13 5.13,-5.13l113.94 0c2.82,0 5.13,2.3 5.13,5.13l0 113.93c0,2.85 -2.31,5.14 -5.13,5.14l-113.94 0c-2.84,0 -5.13,-2.29 -5.13,-5.14z"/>
   <path class="fil1" d="M10781.91 12081.12l0 -113.93c0,-2.85 2.29,-5.15 5.13,-5.15l113.94 0c2.82,0 5.13,2.3 5.13,5.15l0 113.93c0,2.83 -2.31,5.14 -5.13,5.14l-113.94 0c-2.84,0 -5.13,-2.31 -5.13,-5.14z"/>
   <path class="fil1" d="M10781.91 12226.02l0 -113.94c0,-2.83 2.29,-5.13 5.13,-5.13l113.94 0c2.82,0 5.13,2.3 5.13,5.13l0 113.94c0,2.84 -2.31,5.15 -5.13,5.15l-113.94 0c-2.84,0 -5.13,-2.31 -5.13,-5.15z"/>
   <path class="fil1" d="M10781.91 12375.18l0 -113.92c0,-2.83 2.29,-5.14 5.13,-5.14l113.94 0c2.82,0 5.13,2.31 5.13,5.14l0 113.92c0,2.85 -2.31,5.15 -5.13,5.15l-113.94 0c-2.84,0 -5.13,-2.3 -5.13,-5.15z"/>
   <path class="fil1" d="M10925.74 10526.38l0 -113.93c0,-2.84 2.3,-5.14 5.13,-5.14l113.93 0c2.85,0 5.14,2.3 5.14,5.14l0 113.93c0,2.84 -2.29,5.14 -5.14,5.14l-113.93 0c-2.83,0 -5.13,-2.3 -5.13,-5.14z"/>
   <path class="fil1" d="M10925.74 10672.5l0 -113.93c0,-2.83 2.3,-5.13 5.13,-5.13l113.93 0c2.85,0 5.14,2.3 5.14,5.13l0 113.93c0,2.85 -2.29,5.14 -5.14,5.14l-113.93 0c-2.83,0 -5.13,-2.29 -5.13,-5.14z"/>
   <path class="fil1" d="M10925.74 10822.29l0 -113.93c0,-2.84 2.3,-5.14 5.13,-5.14l113.93 0c2.85,0 5.14,2.3 5.14,5.14l0 113.93c0,2.85 -2.29,5.13 -5.14,5.13l-113.93 0c-2.83,0 -5.13,-2.28 -5.13,-5.13z"/>
   <path class="fil1" d="M10925.74 10968.35l0 -113.94c0,-2.85 2.3,-5.13 5.13,-5.13l113.93 0c2.85,0 5.14,2.28 5.14,5.13l0 113.94c0,2.82 -2.29,5.12 -5.14,5.12l-113.93 0c-2.83,0 -5.13,-2.3 -5.13,-5.12z"/>
   <path class="fil1" d="M10925.74 11118.96l0 -113.93c0,-2.85 2.3,-5.14 5.13,-5.14l113.93 0c2.85,0 5.14,2.29 5.14,5.14l0 113.93c0,2.82 -2.29,5.14 -5.14,5.14l-113.93 0c-2.83,0 -5.13,-2.32 -5.13,-5.14z"/>
   <path class="fil1" d="M10925.74 11263.72l0 -113.93c0,-2.84 2.3,-5.15 5.13,-5.15l113.93 0c2.85,0 5.14,2.31 5.14,5.15l0 113.93c0,2.83 -2.29,5.14 -5.14,5.14l-113.93 0c-2.83,0 -5.13,-2.31 -5.13,-5.14z"/>
   <path class="fil1" d="M10925.74 11414.11l0 -113.93c0,-2.85 2.3,-5.16 5.13,-5.16l113.93 0c2.85,0 5.14,2.31 5.14,5.16l0 113.93c0,2.83 -2.29,5.13 -5.14,5.13l-113.93 0c-2.83,0 -5.13,-2.3 -5.13,-5.13z"/>
   <path class="fil1" d="M10925.74 11560.23l0 -113.93c0,-2.85 2.3,-5.14 5.13,-5.14l113.93 0c2.85,0 5.14,2.29 5.14,5.14l0 113.93c0,2.85 -2.29,5.13 -5.14,5.13l-113.93 0c-2.83,0 -5.13,-2.28 -5.13,-5.13z"/>
   <path class="fil1" d="M10925.74 11710.3l0 -113.92c0,-2.84 2.3,-5.14 5.13,-5.14l113.93 0c2.85,0 5.14,2.3 5.14,5.14l0 113.92c0,2.85 -2.29,5.16 -5.14,5.16l-113.93 0c-2.83,0 -5.13,-2.31 -5.13,-5.16z"/>
   <path class="fil1" d="M10925.74 11860.09l0 -113.93c0,-2.83 2.3,-5.14 5.13,-5.14l113.93 0c2.85,0 5.14,2.31 5.14,5.14l0 113.93c0,2.85 -2.29,5.13 -5.14,5.13l-113.93 0c-2.83,0 -5.13,-2.28 -5.13,-5.13z"/>
   <path class="fil1" d="M10925.74 12008.35l0 -113.93c0,-2.85 2.3,-5.14 5.13,-5.14l113.93 0c2.85,0 5.14,2.29 5.14,5.14l0 113.93c0,2.83 -2.29,5.14 -5.14,5.14l-113.93 0c-2.83,0 -5.13,-2.31 -5.13,-5.14z"/>
   <path class="fil1" d="M10925.74 12150.83l0 -113.94c0,-2.83 2.3,-5.13 5.13,-5.13l113.93 0c2.85,0 5.14,2.3 5.14,5.13l0 113.94c0,2.84 -2.29,5.13 -5.14,5.13l-113.93 0c-2.83,0 -5.13,-2.29 -5.13,-5.13z"/>
   <path class="fil1" d="M10925.74 12364.38l0 -170.39c0,-7.89 6.39,-14.29 14.26,-14.29l95.68 0c7.88,0 14.26,6.4 14.26,14.29l0 170.39c0,7.88 -6.38,14.28 -14.26,14.28l-95.68 0c-7.87,0 -14.26,-6.4 -14.26,-14.28z"/>
   <path class="fil1" d="M10781.91 10441.29l0 -170.39c0,-7.89 6.37,-14.29 14.26,-14.29l95.66 0c7.88,0 14.28,6.4 14.28,14.29l0 170.39c0,7.88 -6.4,14.28 -14.28,14.28l-95.66 0c-7.89,0 -14.26,-6.4 -14.26,-14.28z"/>
   <path class="fil39" d="M11264.15 12302.29l0 -1972.7c0,-6.75 5.48,-12.21 12.23,-12.21l28.61 0c6.75,0 12.23,5.46 12.23,12.21l0 1972.7c0,6.75 -5.48,12.22 -12.23,12.22l-28.61 0c-6.75,0 -12.23,-5.47 -12.23,-12.22z"/>
   <path class="fil37" d="M11317.22 12510.97l0 -2389.99c0,-21.96 13.62,-42.55 33.19,-50.1l973.41 -375.55c9.96,-3.84 19.69,2.5 19.69,12.86l0 3210.22c0,11.96 -11.19,19.3 -22.68,14.91l-968.5 -369.54c-20.68,-7.88 -35.11,-29.61 -35.11,-52.81z"/>
   <path class="fil39" d="M12344.8 12939.78l-1.32 -3247.44c0,0 22.18,17.32 32.32,28.4 10.15,11.09 25.82,39.21 25.82,39.21l0 3104.14c0,0 -20.03,31.63 -25.82,39.05 -5.79,7.43 -31,36.64 -31,36.64z"/>
   <polygon class="fil40" points="11422.89,12506.42 11422.89,10133.97 12286.45,9823.55 12286.45,12815.07 "/>
   <path class="fil12" d="M11264.15 12302.39l0 -1972.94c0,-6.67 5.41,-12.07 12.07,-12.07l7.54 0 0 1997.13 -7.48 0c-6.7,0 -12.13,-5.43 -12.13,-12.12z"/>
   <path class="fil17" d="M7953.97 13114.01l0 -3691.09 395.28 58.93 515.26 205.28c0,5.98 102.69,172.35 193.51,478.96 82.88,279.82 155.79,676.48 131.61,1174.63 0,0 34.08,518.18 -261.57,1463.08l-974.09 310.21z"/>
   <path class="fil41" d="M9988.46 12657.64l0 0 -502.95 -10.7 11.83 42.81 41.67 -13.18c3.97,11.43 47.26,28.21 47.26,28.21 21.47,9.31 44.82,13.92 66.01,16 9.46,0.93 18.93,1.39 28.4,1.39 20.93,0 41.85,-2.23 62.41,-6.46l112.38 -23.19 132.99 -34.88z"/>
   <path class="fil42" d="M9988.46 12657.64l-502.95 -10.7 -96.35 -348.31 32.33 -8.39c0,0 -2.78,-90.43 35.14,-127.87 0,0 34.09,-35.47 81.59,-84.57l0 382.33c0,66.72 54.09,120.81 120.82,120.81l621.9 0 -292.48 76.7z"/>
   <path class="fil43" d="M10280.94 12580.94l-621.9 0c-66.73,0 -120.82,-54.09 -120.82,-120.81l0 -382.33c94.95,-98.12 243.46,-250.64 280.24,-282.74 0,0 9.82,-2.24 23.06,-2.24 30.16,0 78.03,11.65 67.89,88.04 0,0 4.76,19.9 -18.38,48.45l-114.75 127.91 510.85 -151.19 0 155.15 -353.22 120.54 353.22 -97.74 0 170.77 -268.59 83.67 268.59 -67.65 0 101.95c0,20 12.85,37 30.74,43.18l-280.02 91.86 275.1 -71.32c10.65,-3.09 22.11,-5.03 33.23,-5.03 18.75,0 36.52,5.51 47.89,20.33 5.98,7.81 10.56,17.15 12.07,28.12 0,0 14.64,59.88 -59.83,83.94l-65.37 17.14z"/>
   <path class="fil39" d="M10317.87 12415.9c-17.89,-6.18 -30.74,-23.18 -30.74,-43.18l0 -101.95 53.08 -13.37c-4.71,3.66 -7.73,9.35 -7.73,15.76l0 86.63c0,11 8.92,19.93 19.94,19.93l32.26 0c11.03,0 19.95,-8.93 19.95,-19.93l0 -86.63c0,-11 -8.92,-19.93 -19.95,-19.93l-27.9 0 30.97 -7.81c16.63,-4.54 46.42,-11.51 73.2,-11.51 12.24,0 23.84,1.45 33.28,5.27l0 112.21c-2.29,1.7 -4.72,3.4 -7.35,5.09 -9.27,6 -37.2,16.45 -47.78,19.64l-121.23 39.78zm-30.74 -161.15l0 -170.77 47.02 -13.02c3.09,7.03 10.1,11.94 18.27,11.94l32.26 0c11.03,0 19.95,-8.93 19.95,-19.94l0 -11.54c15.72,-4.32 37.59,-8.82 57.22,-8.82 13.55,0 26.06,2.15 34.73,7.98 6.63,4.44 12.88,10.8 18.23,18.47l-12.45 0c-4.5,0 -8.13,3.64 -8.13,8.12l0 106.09c-2.71,2.04 -5.61,4.02 -8.74,5.92l0 -64.43c0,-11.01 -8.91,-19.94 -19.93,-19.94l-32.27 0c-11,0 -19.94,8.93 -19.94,19.94l0 86.62c0,1.35 0.13,2.65 0.38,3.91l-10.44 3.26c0.87,-2.23 1.34,-4.65 1.34,-7.17l0 -86.62c0,-11.01 -8.92,-19.94 -19.95,-19.94l-32.26 0c-11.02,0 -19.94,8.93 -19.94,19.94l0 86.62c0,11.01 8.92,19.94 19.94,19.94l9.89 0 -75.18 23.44zm0 -193.57l0 -155.15 11.91 -3.53c9.38,-2.77 19.08,-4.22 28.78,-4.22 2.27,0 4.52,0.08 6.79,0.25l0 30.84c0,2.99 2.43,5.43 5.42,5.43l58.39 0c4.17,6.82 7.63,14.87 10.08,24.39 0,0 4.48,15.57 -3.87,36.79l0 -19.63c0,-11.01 -8.92,-19.94 -19.95,-19.94l-32.26 0c-11.02,0 -19.94,8.93 -19.94,19.94l0 69.36 -45.35 15.47z"/>
   <path class="fil44" d="M10398.42 11934.8l-58.39 0c-2.99,0 -5.42,-2.44 -5.42,-5.43l0 -30.84c5.51,0.37 10.97,1.24 16.36,2.59 16.7,4.21 35.15,13.58 47.45,33.68z"/>
   <path class="fil44" d="M10384.68 12082.9l-32.26 0c-8.17,0 -15.18,-4.91 -18.27,-11.94l66.3 -18.35c1.34,-0.4 2.73,-0.79 4.18,-1.19l0 11.54c0,11.01 -8.92,19.94 -19.95,19.94zm-52.2 -37.19l0 -69.36c0,-11.01 8.92,-19.94 19.94,-19.94l32.26 0c11.03,0 19.95,8.93 19.95,19.94l0 19.63c-1.19,3 -2.63,6.12 -4.36,9.33 -12.1,22.2 -33.24,29.59 -57.46,36.87l-10.33 3.53z"/>
   <path class="fil44" d="M10362.31 12231.31l-9.89 0c-11.02,0 -19.94,-8.93 -19.94,-19.94l0 -86.62c0,-11.01 8.92,-19.94 19.94,-19.94l32.26 0c11.03,0 19.95,8.93 19.95,19.94l0 86.62c0,2.52 -0.47,4.94 -1.34,7.17l-40.98 12.77z"/>
   <path class="fil44" d="M10413.73 12215.28c-0.25,-1.26 -0.38,-2.56 -0.38,-3.91l0 -86.62c0,-11.01 8.94,-19.94 19.94,-19.94l32.27 0c11.02,0 19.93,8.93 19.93,19.94l0 64.43c-6.01,3.69 -12.83,7.13 -20.52,10.14l-51.24 15.96z"/>
   <path class="fil44" d="M10384.68 12379.72l-32.26 0c-11.02,0 -19.94,-8.93 -19.94,-19.93l0 -86.63c0,-6.41 3.02,-12.1 7.73,-15.76l16.57 -4.17 27.9 0c11.03,0 19.95,8.93 19.95,19.93l0 86.63c0,11 -8.92,19.93 -19.95,19.93z"/>
   <path class="fil44" d="M10494.23 12351.39l0 -112.21c6.76,2.71 12.41,6.65 16.37,12.14 5.79,7.99 9.15,19.78 11.36,31.21 0,0 16.76,35.56 -27.73,68.86zm0 -168.13l0 -106.09c0,-4.48 3.63,-8.12 8.13,-8.12l12.45 0c10.1,14.51 16.96,33.67 16.89,53.42 0,0 -2.62,34.65 -37.47,60.79z"/>
   <path class="fil45" d="M9391.65 12315.22l32.33 -8.4c0,0 -2.78,-90.43 35.14,-127.86 0,0 306.65,-319.15 361.83,-367.31 0,0 105.55,-24.15 90.96,85.8 0,0 4.75,19.9 -18.38,48.44l-114.77 127.92 522.79 -154.73c16.88,-5 34.84,-5.67 51.91,-1.37 22.36,5.64 47.89,20.52 57.52,58.05 0,0 5.86,20.29 -8.23,46.12 -12.09,22.21 -33.23,29.6 -57.44,36.88l-408.91 139.55 466.53 -129.11c25.91,-7.59 73.75,-17.1 96.16,-2.03 19.12,12.83 35.21,41.7 35.09,71.88 0,0 -3.94,52.29 -66.72,76.85l-446.44 139.1 369.21 -92.99c29.7,-8.13 101.25,-23.95 122.86,5.89 5.81,7.98 9.16,19.78 11.35,31.22 0,0 18.55,39.28 -35.05,73.94 -9.27,6 -37.2,16.45 -47.79,19.65l-401.25 131.62 275.08 -71.31c28.58,-8.29 63.02,-8.32 81.14,15.3 5.99,7.81 10.55,17.14 12.08,28.13 0,0 14.61,59.88 -59.83,83.93l-490.86 128.72 -112.38 23.18c-29.85,6.16 -60.47,8.06 -90.81,5.08 -21.19,-2.07 -44.54,-6.7 -66.01,-15.99 0,0 -43.29,-16.78 -47.26,-28.22l-41.67 13.17 -108.18 -391.1z"/>
   <polygon class="fil1" points="9493.95,12766.64 9548.92,12749.86 9396.44,12250.35 9341.49,12267.13 "/>
   <path class="fil17" d="M9504.79 12767.74l-70.95 17.87c0,0 -600.89,169.59 -1102.6,295.02 -162.91,40.73 -301.77,72.77 -378.1,87.25l0.18 -665.53c250.44,-10.92 1054.45,-180.35 1054.45,-180.35l333.26 -84.82 36.04 115.13 127.72 415.43z"/>
   <path class="fil1" d="M9296.84 12757.61c7.91,9.43 6.68,23.49 -2.75,31.4 -9.43,7.91 -23.49,6.68 -31.4,-2.74 -7.92,-9.44 -6.68,-23.51 2.74,-31.41 9.43,-7.91 23.49,-6.69 31.41,2.75z"/>
   <path class="fil1" d="M9227.43 12778.04c7.92,9.42 6.69,23.48 -2.74,31.4 -9.43,7.9 -23.48,6.68 -31.4,-2.74 -7.91,-9.45 -6.68,-23.51 2.75,-31.41 9.43,-7.91 23.49,-6.69 31.39,2.75z"/>
   <path class="fil1" d="M9156.87 12797.06c7.9,9.43 6.68,23.49 -2.75,31.4 -9.43,7.92 -23.49,6.69 -31.4,-2.74 -7.92,-9.42 -6.68,-23.49 2.74,-31.41 9.44,-7.91 23.5,-6.67 31.41,2.75z"/>
   <path class="fil46" d="M10268.67 11964.1l24.77 83.77c2.12,7.16 9.69,11.19 16.81,8.91l45.55 -14.49c0,0 35.44,-13.65 27.62,-61.22 0,0 -8.04,-39.57 -46.97,-46.91 0,0 -15.8,-1.78 -44.01,9.1l-14.71 4.27c-7.09,2.06 -11.15,9.48 -9.06,16.57z"/>
   <path class="fil46" d="M10392.06 12111.83l23.7 80.19c2.02,6.86 9.29,10.7 16.09,8.53l43.59 -13.86c0,0 33.93,-13.08 26.44,-58.6 0,0 -7.7,-37.89 -44.96,-44.89 0,0 -15.12,-1.72 -42.11,8.7l-14.09 4.09c-6.78,1.96 -10.67,9.07 -8.66,15.84z"/>
   <path class="fil46" d="M10406.71 12291.5l17.28 69.89c1.47,5.96 7.55,9.56 13.49,7.96l38.02 -10.22c0,0 29.71,-9.93 25.02,-49.36 0,0 -5.13,-32.9 -36.91,-40.37 0,0 -12.93,-2.06 -36.55,5.84l-12.26 2.96c-5.93,1.44 -9.54,7.39 -8.09,13.3z"/>
   <path class="fil46" d="M10293.29 12490.45l16.9 68.34c1.43,5.84 7.39,9.35 13.19,7.79l37.19 -10.01c0,0 29.03,-9.7 24.47,-48.27 0,0 -5.02,-32.17 -36.1,-39.48 0,0 -12.66,-2.01 -35.75,5.71l-12 2.91c-5.78,1.39 -9.33,7.23 -7.9,13.01z"/>
   <path class="fil46" d="M9789.38 11872.15l39.54 35.62c3.37,3.04 9.13,1.84 12.76,-2.67l23.24 -28.85c0,0 17.37,-23.82 -1.31,-46.88 0,0 -16.46,-18.49 -42.11,-4.85 0,0 -10.06,6.19 -23.9,25.13l-7.62 9.1c-3.68,4.38 -3.94,10.38 -0.6,13.4z"/>
   <path class="fil41" d="M10578.61 10058.43l-172.24 0c-268.88,-47.86 -439.12,-77.16 -439.12,-77.16l-154.63 77.16 -109.81 0 37.89 -136.98 39.45 12.47c3.77,-10.83 44.77,-26.72 44.77,-26.72 20.33,-8.8 42.44,-13.18 62.53,-15.15 8.94,-0.88 17.92,-1.31 26.88,-1.31 19.84,0 39.65,2.1 59.11,6.12l106.44 21.96 464.91 121.91c14.6,4.72 25.57,10.88 33.82,17.7z"/>
   <path class="fil47" d="M10406.37 10058.43l-593.75 0 154.63 -77.16c0,0 170.24,29.3 439.12,77.16z"/>
   <path class="fil43" d="M10066.68 10770.97c-12.54,0 -21.85,-2.13 -21.85,-2.13 -52.25,-45.62 -342.69,-347.9 -342.69,-347.9 -35.94,-35.46 -33.29,-121.11 -33.29,-121.11l-30.62 -7.93 64.58 -233.47 875.8 0c31.56,26.13 22.85,61.8 22.85,61.8 -1.44,10.4 -5.76,19.24 -11.44,26.64 -10.76,14.04 -27.6,19.26 -45.36,19.26 -10.54,0 -21.4,-1.85 -31.48,-4.77l-260.55 -67.55 354.26 116.23 -274.1 0c-25.22,0 -45.66,20.44 -45.66,45.66l0 11.79 -52.8 -13.3 52.8 16.44 0 168.78 -132.94 -36.8 132.94 45.36 0 156.1 -282.25 -83.54 108.7 121.15c21.91,27.05 17.4,45.88 17.4,45.88 9.6,72.37 -35.74,83.41 -64.3,83.41z"/>
   <path class="fil39" d="M10494.23 10665.36l-19.58 -5.8 0 -99.45c0,-3.01 -2.45,-5.44 -5.46,-5.44l-129.12 0c-3.01,0 -5.46,2.43 -5.46,5.44l0 58.01 -47.48 -14.05 0 -156.1 47.48 16.21 0 62.5c0,3.01 2.45,5.45 5.46,5.45l129.12 0c3.01,0 5.46,-2.44 5.46,-5.45l0 -14.7 19.58 6.69 0 43.03c0,4.51 3.67,8.17 8.19,8.17l93.56 0c4.49,8.31 6.82,16 7.93,22.54l-104.54 0c-2.85,0 -5.14,2.29 -5.14,5.13l0 67.82zm143.83 -131.89c-6.67,-0.73 -13.33,-1.8 -19.63,-3.06l0 -156.53 19.63 6.11 0 106.08c0,3.92 3.18,7.1 7.1,7.1l68.1 0c-3.48,8.22 -8.06,15.7 -13.29,21.91l-56.78 0c-2.82,0 -5.13,2.29 -5.13,5.14l0 13.25zm-143.83 -36.75l-19.58 -5.42 0 -77.93c0,-3.01 -2.45,-5.45 -5.46,-5.45l-129.12 0c-3.01,0 -5.46,2.44 -5.46,5.45l0 39.17 -47.48 -13.13 0 -168.78 47.48 14.81 0 89.94c0,3 2.45,5.44 5.46,5.44l129.12 0c3.01,0 5.46,-2.44 5.46,-5.44l0 -46.31 19.58 6.1 0 161.55zm143.83 -144.24c-6.64,-0.58 -13.26,-1.47 -19.63,-2.55l0 -87.56c0,-4.53 -3.66,-8.19 -8.19,-8.19l-107.82 0c-4.52,0 -8.19,3.66 -8.19,8.19l0 57.28 -19.58 -4.93 0 -52.64c0,-3.03 -2.45,-5.47 -5.46,-5.47l-129.12 0c-3.01,0 -5.46,2.44 -5.46,5.47l0 17.37 -47.48 -11.96 0 -11.79c0,-25.22 20.44,-45.66 45.66,-45.66l274.1 0 25.79 8.46c10.01,3.02 36.47,12.91 45.25,18.59 9.97,6.44 17.31,13.07 22.66,19.52l-55.43 0c-3.92,0 -7.1,3.18 -7.1,7.09l0 88.78z"/>
   <path class="fil44" d="M10654.22 10534.38c-5.28,0 -10.73,-0.34 -16.16,-0.91l0 -13.25c0,-2.85 2.31,-5.14 5.13,-5.14l56.78 0c-3.98,4.72 -8.33,8.7 -12.85,11.75 -8.22,5.52 -20.06,7.55 -32.9,7.55z"/>
   <path class="fil44" d="M10527.27 10671.07c-9.19,0 -18.39,-1.36 -27.24,-4l-5.8 -1.71 0 -67.82c0,-2.84 2.29,-5.13 5.14,-5.13l104.54 0c2.18,12.66 -0.23,20.98 -0.23,20.98 -9.12,35.54 -33.3,49.65 -54.48,54.99 -7.21,1.82 -14.57,2.69 -21.93,2.69z"/>
   <path class="fil44" d="M10469.19 10380.82l-129.12 0c-3.01,0 -5.46,-2.44 -5.46,-5.44l0 -89.94 140.04 43.63 0 46.31c0,3 -2.45,5.44 -5.46,5.44zm5.46 -66.1l-140.04 -35.27 0 -17.37c0,-3.03 2.45,-5.47 5.46,-5.47l129.12 0c3.01,0 5.46,2.44 5.46,5.47l0 52.64z"/>
   <path class="fil44" d="M10469.19 10532.13l-129.12 0c-3.01,0 -5.46,-2.44 -5.46,-5.45l0 -62.5 140.04 47.8 0 14.7c0,3.01 -2.45,5.45 -5.46,5.45zm5.46 -40.83l-140.04 -38.76 0 -39.17c0,-3.01 2.45,-5.45 5.46,-5.45l129.12 0c3.01,0 5.46,2.44 5.46,5.45l0 77.93z"/>
   <path class="fil44" d="M10474.65 10659.56l-140.04 -41.44 0 -58.01c0,-3.01 2.45,-5.44 5.46,-5.44l129.12 0c3.01,0 5.46,2.43 5.46,5.44l0 99.45z"/>
   <path class="fil44" d="M10713.26 10493.17l-68.1 0c-3.92,0 -7.1,-3.18 -7.1,-7.1l0 -106.08 19.1 5.95c59.47,23.27 63.2,72.8 63.2,72.8 0.05,12.04 -2.61,23.86 -7.1,34.43zm-59.9 -139.97c-5.02,0 -10.17,-0.27 -15.3,-0.72l0 -88.78c0,-3.91 3.18,-7.09 7.1,-7.09l55.43 0c21.9,26.48 10.55,50.51 10.55,50.51 -2.08,10.83 -5.27,22.02 -10.75,29.59 -9,12.42 -27.13,16.49 -47.03,16.49z"/>
   <path class="fil44" d="M10595.98 10569.87l-93.56 0c-4.52,0 -8.19,-3.66 -8.19,-8.17l0 -43.03 47.25 16.12c22.93,6.88 42.95,13.88 54.4,34.92 0.04,0.05 0.07,0.11 0.1,0.16zm22.45 -39.46c-8.32,-1.67 -16.04,-3.65 -22.37,-5.5l-101.83 -28.19 0 -161.55 124.2 38.71 0 156.53zm0 -180.48c-13.51,-2.28 -25.82,-5.31 -34.41,-7.66l-89.79 -22.62 0 -57.28c0,-4.53 3.67,-8.19 8.19,-8.19l107.82 0c4.53,0 8.19,3.66 8.19,8.19l0 87.56z"/>
   <path class="fil45" d="M9651.89 10284.21l30.62 7.94c0,0 -2.63,85.66 33.28,121.12 0,0 290.46,302.26 342.69,347.88 0,0 99.99,22.87 86.17,-81.26 0,0 4.5,-18.85 -17.42,-45.89l-108.68 -121.14 495.12 146.55c16,4.72 33.02,5.37 49.19,1.28 21.18,-5.33 45.36,-19.44 54.49,-54.96 0,0 5.54,-19.24 -7.8,-43.69 -11.46,-21.03 -31.48,-28.05 -54.41,-34.94l-387.29 -132.16 441.86 122.28c24.54,7.2 69.86,16.18 91.07,1.94 18.12,-12.17 33.37,-39.52 33.26,-68.09 0,0 -3.73,-49.52 -63.2,-72.8l-422.84 -131.76 349.68 88.09c28.13,7.7 95.91,22.69 116.38,-5.58 5.48,-7.55 8.66,-18.74 10.74,-29.57 0,0 17.56,-37.21 -33.2,-70.03 -8.79,-5.69 -35.24,-15.58 -45.26,-18.6l-380.04 -124.68 260.54 67.54c27.07,7.86 59.7,7.89 76.84,-14.48 5.68,-7.4 10,-16.24 11.43,-26.64 0,0 13.87,-56.73 -56.65,-79.51l-464.9 -121.91 -106.44 -21.96c-28.29,-5.83 -57.28,-7.63 -86.02,-4.8 -20.07,1.97 -42.18,6.34 -62.51,15.14 0,0 -41.02,15.9 -44.76,26.73l-39.47 -12.48 -102.47 370.44z"/>
   <polygon class="fil1" points="9731.69,9847.09 9787.04,9862.56 9646.43,10365.55 9591.08,10350.07 "/>
   <path class="fil17" d="M9586.79 10355.5l-117.07 -29.72 -400.31 -101.58 0 -1c-19.63,-4.58 -40.75,-9.19 -61.54,-13.84 -359.04,-80.34 -804.07,-169.44 -1054.49,-180.36l-0.21 -693.01c76.32,14.48 219.26,44.39 381.72,86.93 301.6,78.98 675.75,207.1 960.13,288.29l454.71 115.34 -162.94 528.95z"/>
   <path class="fil1" d="M9566.68 9896.52c7.91,-9.44 6.68,-23.49 -2.75,-31.41 -9.43,-7.91 -23.49,-6.68 -31.4,2.75 -7.91,9.44 -6.68,23.49 2.75,31.41 9.43,7.91 23.48,6.68 31.4,-2.75z"/>
   <path class="fil1" d="M9497.28 9876.09c7.92,-9.43 6.68,-23.49 -2.75,-31.4 -9.42,-7.91 -23.49,-6.69 -31.4,2.75 -7.91,9.43 -6.68,23.49 2.75,31.39 9.43,7.92 23.49,6.69 31.4,-2.74z"/>
   <path class="fil1" d="M9426.71 9857.06c7.91,-9.43 6.69,-23.49 -2.75,-31.4 -9.43,-7.91 -23.48,-6.68 -31.39,2.75 -7.92,9.43 -6.69,23.48 2.74,31.4 9.43,7.91 23.49,6.68 31.4,-2.75z"/>
   <path class="fil46" d="M10482.55 10616.78l23.45 -79.35c2.02,-6.79 9.2,-10.59 15.94,-8.45l43.13 13.73c0,0 33.58,12.93 26.16,57.98 0,0 -7.6,37.48 -44.48,44.42 0,0 -14.97,1.7 -41.69,-8.6l-13.92 -4.04c-6.72,-1.95 -10.56,-8.99 -8.59,-15.69z"/>
   <path class="fil46" d="M10599.41 10476.84l22.46 -75.95c1.92,-6.48 8.78,-10.13 15.25,-8.08l41.27 13.13c0,0 32.14,12.39 25.05,55.5 0,0 -7.29,35.88 -42.59,42.52 0,0 -14.32,1.62 -39.9,-8.22l-13.33 -3.88c-6.42,-1.87 -10.1,-8.6 -8.21,-15.02z"/>
   <path class="fil46" d="M10613.3 10306.66l16.35 -66.18c1.39,-5.66 7.17,-9.07 12.8,-7.54l36.01 9.68c0,0 28.11,9.41 23.7,46.74 0,0 -4.87,31.16 -34.97,38.24 0,0 -12.25,1.95 -34.62,-5.53l-11.63 -2.81c-5.6,-1.36 -9.03,-7 -7.64,-12.6z"/>
   <path class="fil46" d="M10505.88 10118.25l15.99 -64.74c1.36,-5.53 7,-8.86 12.49,-7.38l35.23 9.48c0,0 27.5,9.19 23.18,45.72 0,0 -4.76,30.46 -34.2,37.39 0,0 -11.97,1.9 -33.85,-5.41l-11.37 -2.75c-5.48,-1.33 -8.83,-6.84 -7.47,-12.31z"/>
   <path class="fil46" d="M10028.59 10703.86l37.46 -33.75c3.2,-2.87 8.64,-1.74 12.09,2.53l22 27.34c0,0 16.46,22.54 -1.24,44.38 0,0 -15.58,17.52 -39.88,4.61 0,0 -9.53,-5.88 -22.63,-23.82l-7.23 -8.6c-3.48,-4.16 -3.73,-9.85 -0.57,-12.69z"/>
   <path class="fil16" d="M9586.79 10355.5c-24.22,-8.46 -64.53,-18.49 -117.07,-29.72l-400.31 -101.58 0 -1c-19.63,-4.58 -40.43,-9.19 -61.22,-13.84 -359.04,-80.34 -803.99,-169.44 -1054.22,-180.36l0 -227.34 1201.7 296.99c0,0 117.57,33.42 268.22,56.25 149.97,22.72 257.08,-104.89 257.08,-104.89l-94.18 305.49z"/>
   <path class="fil16" d="M9415.6 12475.35c0,0 -67.02,-47.74 -162.74,-59.37 -95.73,-11.63 -208.98,14.18 -208.98,14.18l-1089.91 254.53 0 -182.34c250.23,-10.92 1054.12,-180.35 1054.12,-180.35l333.11 -84.82 74.4 238.17z"/>
   <path class="fil48" d="M14292.47 9916.4l86.53 -84.46c34.62,-33.8 86.87,-41.96 130.12,-20.25 90.41,45.39 239.28,138.77 314.92,289.25 26.84,53.38 9.77,118.4 -39.74,151.85l-84.8 57.29c0,0 -62.85,-243.41 -407.03,-393.68z"/>
   <path class="fil18" d="M16876.32 11541.33c-2.96,43.48 -15.76,83.84 -33.87,120.31 -0.54,1.1 -1.01,2.16 -1.56,3.19 -62.35,122.79 -243.33,182.41 -380.77,191.44l-56.89 5.06 -14.59 1.3 -947.8 84.45c239.35,-288.43 12.29,-540.03 12.29,-540.03l266.28 -62.27c84.14,-19.68 165.07,-51.01 240.85,-92.61 171.77,-94.32 537.25,-244.95 787.76,5.55 6.01,6.03 11.79,12.03 17.33,18.02 47.76,51.6 77.88,101.59 94.58,149.16 14.29,40.73 18.89,79.69 16.39,116.43z"/>
   <path class="fil48" d="M15321.81 11975.19l120.9 -1.46c48.38,-0.59 91.1,-31.77 106.32,-77.69 31.83,-96.03 71.07,-267.32 18.16,-427.22 -18.77,-56.72 -76.83,-90.63 -135.48,-79.26l-101.99 16.44c0,0 124.53,215.86 -7.91,569.19z"/>
   <path class="fil48" d="M15359.48 9756.8c0,0 -55.29,-76.67 -121.28,-149.3 -45.99,-50.63 -137.03,-135.01 -137.03,-135.01 -8.61,-9.47 -10.24,-22.16 -3.6,-28.19l6.04 -5.48c6.62,-6.03 17.98,-1.92 27.7,6.27 0,0 60.23,50.8 136.88,135.15 82.08,90.35 121.44,149.16 121.44,149.16 8.7,13.28 10.23,22.16 3.6,28.19l-6.03 5.48c-6.64,6.03 -19.11,3.2 -27.72,-6.27z"/>
   <path class="fil48" d="M15436.74 9688.93c0,0 -55.3,-76.67 -121.3,-149.3 -45.97,-50.62 -137.02,-135 -137.02,-135 -8.6,-9.48 -10.23,-22.16 -3.6,-28.19l6.03 -5.48c6.64,-6.03 18,-1.92 27.72,6.26 0,0 60.23,50.8 136.87,135.16 82.09,90.34 121.45,149.15 121.45,149.15 8.71,13.29 10.23,22.17 3.59,28.19l-6.02 5.49c-6.64,6.02 -19.12,3.21 -27.72,-6.28z"/>
   <path class="fil48" d="M15516.72 9624.41c0,0 -55.29,-76.68 -121.28,-149.31 -45.99,-50.62 -137.04,-135 -137.04,-135 -8.6,-9.48 -10.23,-22.16 -3.59,-28.19l6.04 -5.49c6.62,-6.02 17.98,-1.91 27.71,6.28 0,0 60.22,50.79 136.86,135.15 82.09,90.34 121.45,149.15 121.45,149.15 8.7,13.29 10.23,22.16 3.6,28.2l-6.03 5.48c-6.64,6.03 -19.12,3.2 -27.72,-6.27z"/>
   <path class="fil48" d="M16267.2 11735.12c0,0 -0.47,-94.52 -12.09,-191.98 -8.04,-67.91 -33.25,-189.46 -33.25,-189.46 -1.48,-12.71 4.61,-23.98 13.5,-25.04l8.04 -0.97c8.9,-1.05 15.76,8.88 18.96,21.19 0,0 19.52,76.32 33.02,189.5 14.36,121.22 12.33,191.95 12.33,191.95 -0.63,15.88 -4.53,23.99 -13.43,25.04l-8.11 0.97c-8.9,1.06 -17.41,-8.48 -18.97,-21.2z"/>
   <path class="fil48" d="M16369.52 11724.7c0,0 -0.47,-94.53 -12.1,-191.98 -8.04,-67.91 -33.25,-189.47 -33.25,-189.47 -1.48,-12.72 4.53,-23.99 13.43,-25.03l8.11 -0.97c8.9,-1.06 15.77,8.87 18.97,21.2 0,0 19.51,76.31 33.01,189.49 14.36,121.22 12.33,191.95 12.33,191.95 -0.62,15.86 -4.53,23.98 -13.5,25.04l-8.04 0.97c-8.9,1.04 -17.4,-8.49 -18.96,-21.2z"/>
   <path class="fil48" d="M16472.14 11718.57c0,0 -0.54,-94.52 -12.09,-191.99 -8.12,-67.9 -33.25,-189.46 -33.25,-189.46 -1.56,-12.71 4.53,-23.98 13.42,-25.04l8.12 -0.96c8.9,-1.07 15.76,8.88 18.89,21.19 0,0 19.58,76.32 33.01,189.5 14.44,121.21 12.33,191.95 12.33,191.95 -0.63,15.86 -4.53,23.99 -13.42,25.04l-8.12 0.96c-8.9,1.06 -17.4,-8.46 -18.89,-21.19z"/>
   <path class="fil49" d="M15748.98 9181.57l0 0.02c-224.07,-106.08 -708.99,132.44 -708.99,132.44l141.59 -118.47c103.52,-90.76 273.79,-176.63 404.68,-133.86 61.48,20.09 120.19,56.45 162.72,119.87z"/>
   <path class="fil49" d="M16388.64 11862.63l14.59 -1.3c-4.84,0.56 -9.68,0.98 -14.59,1.3z"/>
   <path class="fil49" d="M16876.32 11541.33c-4.13,55.33 -21.93,95.57 -33.87,120.31 -0.54,1.1 -1.01,2.16 -1.56,3.19 -62.35,122.79 -243.33,182.41 -380.77,191.44l-56.89 5.06c310.53,-35.67 357.28,-574.28 362.12,-585.59 47.76,51.6 77.88,101.59 94.58,149.16 14.29,40.73 18.89,79.69 16.39,116.43z"/>
  </g>
 </g>
</svg>
