<?xml version="1.0" encoding="UTF-8" standalone="no"?>
<!-- Created with Inkscape (http://www.inkscape.org/) -->

<svg
   xmlns:dc="http://purl.org/dc/elements/1.1/"
   xmlns:cc="http://creativecommons.org/ns#"
   xmlns:rdf="http://www.w3.org/1999/02/22-rdf-syntax-ns#"
   xmlns:svg="http://www.w3.org/2000/svg"
   xmlns="http://www.w3.org/2000/svg"
   xmlns:sodipodi="http://sodipodi.sourceforge.net/DTD/sodipodi-0.dtd"
   xmlns:inkscape="http://www.inkscape.org/namespaces/inkscape"
   width="210mm"
   height="165mm"
   viewBox="0 0 210 165"
   version="1.1"
   id="svg8"
   inkscape:version="0.92.1 r15371"
   sodipodi:docname="classificadoresFelizes.svg">
  <defs
     id="defs2">
    <radialGradient
       id="radialGradient38"
       spreadMethod="pad"
       gradientTransform="matrix(399.875,0,0,-399.875,399.75,400)"
       gradientUnits="userSpaceOnUse"
       r="1"
       cy="0"
       cx="0"
       fy="0"
       fx="0">
      <stop
         id="stop32"
         offset="0"
         style="stop-opacity:1;stop-color:#ffffff" />
      <stop
         id="stop34"
         offset="0.10616922"
         style="stop-opacity:1;stop-color:#ffffff" />
      <stop
         id="stop36"
         offset="1"
         style="stop-opacity:1;stop-color:#dcdddd" />
    </radialGradient>
    <clipPath
       id="clipPath48"
       clipPathUnits="userSpaceOnUse">
      <path
         inkscape:connector-curvature="0"
         id="path46"
         d="M 0,800 H 800 V 0 H 0 Z" />
    </clipPath>
    <clipPath
       id="clipPath184"
       clipPathUnits="userSpaceOnUse">
      <path
         inkscape:connector-curvature="0"
         id="path182"
         d="M 0,800 H 800 V 0 H 0 Z" />
    </clipPath>
    <clipPath
       id="clipPath456"
       clipPathUnits="userSpaceOnUse">
      <path
         inkscape:connector-curvature="0"
         id="path454"
         d="m 340.954,628.915 c 0.39,-4.492 -0.984,-5.922 -0.246,-9.878 v 0 c 0.206,-1.103 2.459,-2.2 2.69,-3.261 v 0 c 13.703,-63.236 70.12,-59.392 70.12,-59.392 v 0 l 24.073,29.448 -24.694,2.455 c 0,0 -13.746,-13.692 -31.571,-7.823 v 0 c -11.105,3.657 -23.603,22.625 -30.133,35.875 v 0 c -0.332,0.673 0.851,3.851 0.542,4.496 v 0 c -3.377,7.035 -5.153,9 -5.153,9 v 0 z" />
    </clipPath>
    <clipPath
       id="clipPath476"
       clipPathUnits="userSpaceOnUse">
      <path
         inkscape:connector-curvature="0"
         id="path474"
         d="M 0,800 H 800 V 0 H 0 Z" />
    </clipPath>
  </defs>
  <sodipodi:namedview
     id="base"
     pagecolor="#ffffff"
     bordercolor="#666666"
     borderopacity="1.0"
     inkscape:pageopacity="0.0"
     inkscape:pageshadow="2"
     inkscape:zoom="0.49497475"
     inkscape:cx="662.19262"
     inkscape:cy="551.54064"
     inkscape:document-units="mm"
     inkscape:current-layer="layer1"
     showgrid="false"
     inkscape:window-width="1366"
     inkscape:window-height="705"
     inkscape:window-x="-8"
     inkscape:window-y="-8"
     inkscape:window-maximized="1" />
  <metadata
     id="metadata5">
    <rdf:RDF>
      <cc:Work
         rdf:about="">
        <dc:format>image/svg+xml</dc:format>
        <dc:type
           rdf:resource="http://purl.org/dc/dcmitype/StillImage" />
        <dc:title></dc:title>
      </cc:Work>
    </rdf:RDF>
  </metadata>
  <g
     inkscape:label="Layer 1"
     inkscape:groupmode="layer"
     id="layer1"
     transform="translate(0,-132)">
    <g
       id="g482"
       transform="matrix(0.35277777,0,0,-0.35277777,-171.1068,69.143225)" />
    <g
       id="g1987"
       transform="translate(0,125.92572)">
      <g
         inkscape:export-ydpi="96"
         inkscape:export-xdpi="96"
         transform="matrix(0.27847669,0,0,-0.27847669,12.853653,77.174607)"
         id="g186">
        <path
           inkscape:connector-curvature="0"
           id="path188"
           style="fill:#ffc8ac;fill-opacity:1;fill-rule:nonzero;stroke:none"
           d="m 0,0 10.102,24.243 c 0,0 12.098,13.309 27.524,-2.722 l -7.258,-9.679 2.419,-4.537 c 0,0 -8.771,-6.268 -15.123,-4.495 -6.352,1.773 -4.841,-5.33 -4.841,-5.33 z" />
      </g>
      <g
         inkscape:export-ydpi="96"
         inkscape:export-xdpi="96"
         transform="matrix(0.27847669,0,0,-0.27847669,12.028164,79.091166)"
         id="g190">
        <path
           inkscape:connector-curvature="0"
           id="path192"
           style="fill:#c5be9e;fill-opacity:1;fill-rule:nonzero;stroke:none"
           d="m 0,0 2.964,9.692 c 0,0 6.419,4.495 15.802,-2.833 l -3.357,-8.237 z" />
      </g>
      <g
         inkscape:export-ydpi="96"
         inkscape:export-xdpi="96"
         transform="matrix(0.27847669,0,0,-0.27847669,19.993289,72.747805)"
         id="g194">
        <path
           inkscape:connector-curvature="0"
           id="path196"
           style="fill:#ffb48d;fill-opacity:1;fill-rule:nonzero;stroke:none"
           d="m 0,0 c -2.19,0.227 -6.101,-1.63 -3.633,-4.16 0.099,-0.102 0.426,-0.026 0.413,0.142 -0.078,0.945 -0.369,2.098 0.583,2.724 0.885,0.579 2.172,0.38 3.126,0.138 2.71,-0.685 4.338,-3.1 4.746,-5.757 0.057,-0.364 0.764,-0.065 0.81,0.203 C 6.69,-2.917 3.559,-0.369 0,0" />
      </g>
      <g
         inkscape:export-ydpi="96"
         inkscape:export-xdpi="96"
         transform="matrix(0.27847669,0,0,-0.27847669,56.063376,58.946329)"
         id="g198">
        <path
           inkscape:connector-curvature="0"
           id="path200"
           style="fill:#ffc8ac;fill-opacity:1;fill-rule:nonzero;stroke:none"
           d="m 0,0 -4.054,25.948 c 0,0 -8.591,15.802 -27.383,3.894 l 4.752,-11.126 -3.429,-3.833 c 0,0 7.032,-8.172 13.624,-7.959 6.591,0.213 3.435,-6.326 3.435,-6.326 z" />
      </g>
      <g
         inkscape:export-ydpi="96"
         inkscape:export-xdpi="96"
         transform="matrix(0.27847669,0,0,-0.27847669,50.179579,52.95039)"
         id="g202">
        <path
           inkscape:connector-curvature="0"
           id="path204"
           style="fill:#ffb48d;fill-opacity:1;fill-rule:nonzero;stroke:none"
           d="m 0,0 c 2.182,-0.3 5.539,-3.032 2.541,-4.904 -0.12,-0.075 -0.42,0.076 -0.368,0.236 0.301,0.899 0.857,1.95 0.081,2.784 -0.722,0.773 -2.019,0.885 -3.003,0.877 -2.795,-0.022 -4.95,-1.98 -5.978,-4.465 -0.141,-0.34 -0.757,0.119 -0.738,0.389 C -7.191,-1.244 -3.544,0.487 0,0" />
      </g>
      <g
         inkscape:export-ydpi="96"
         inkscape:export-xdpi="96"
         transform="matrix(0.27847669,0,0,-0.27847669,51.686196,57.669543)"
         id="g206">
        <path
           inkscape:connector-curvature="0"
           id="path208"
           style="fill:#c5be9e;fill-opacity:1;fill-rule:nonzero;stroke:none"
           d="M 0,0 C 0,0 9.125,4.639 15.718,3.662 L 17.525,-4.585 3.365,-5.616 Z" />
      </g>
      <g
         inkscape:export-ydpi="96"
         inkscape:export-xdpi="96"
         transform="matrix(0.27847669,0,0,-0.27847669,16.16533,144.84581)"
         id="g210">
        <path
           inkscape:connector-curvature="0"
           id="path212"
           style="fill:#262014;fill-opacity:1;fill-rule:nonzero;stroke:none"
           d="m 0,0 c 0,0 -1.61,1.551 -8.582,0 -6.972,-1.551 -38.614,-31.166 -26.279,-57.328 0,0 20.382,-25.321 34.861,57.328" />
      </g>
      <g
         inkscape:export-ydpi="96"
         inkscape:export-xdpi="96"
         transform="matrix(0.27847669,0,0,-0.27847669,48.047226,149.38912)"
         id="g214">
        <path
           inkscape:connector-curvature="0"
           id="path216"
           style="fill:#262014;fill-opacity:1;fill-rule:nonzero;stroke:none"
           d="m 0,0 c 0,0 -3.427,5.067 -8.963,0.554 -5.536,-4.513 -17.388,-41.567 -0.409,-57.12 0,0 33.493,-23.801 9.372,56.566" />
      </g>
      <g
         inkscape:export-ydpi="96"
         inkscape:export-xdpi="96"
         transform="matrix(0.27847669,0,0,-0.27847669,58.878863,126.31037)"
         id="g218">
        <path
           inkscape:connector-curvature="0"
           id="path220"
           style="fill:#5c5246;fill-opacity:1;fill-rule:nonzero;stroke:none"
           d="m 0,0 c 0,0 67.127,-99.031 21.095,-119.954 -31.463,-14.301 -67.216,13.586 -67.216,13.586 0,0 -10.727,10.726 4.29,25.028 0,0 23.859,-13.587 35.527,-6.435 11.668,7.15 -14.918,43.62 -14.918,43.62 l -19.895,-1.431 c 0,0 -14.582,-80.596 -46.315,-86.525 -45.929,-8.58 -80.253,48.626 -80.253,48.626 0,0 -1.429,16.688 14.302,16.925 0,0 33.633,-31.881 47.91,-25.506 14.277,6.375 24.507,82.949 24.507,82.949 0,0 51.29,23.954 80.966,9.117" />
      </g>
      <g
         inkscape:export-ydpi="96"
         inkscape:export-xdpi="96"
         transform="matrix(0.27847669,0,0,-0.27847669,56.588776,58.256959)"
         id="g222">
        <path
           inkscape:connector-curvature="0"
           id="path224"
           style="fill:#8a786b;fill-opacity:1;fill-rule:nonzero;stroke:none"
           d="m 0,0 h -18.234 c 24.658,-56.823 -15.75,-118.32 -15.787,-118.376 -4.47,-0.361 -8.538,-0.988 -9.382,-1.07 -14.474,-1.402 -23.241,-4.744 -45.588,-9.625 -4.691,-1.025 -17.205,-7.486 -21.845,-8.581 -16.822,0.776 -53.295,5.742 -31.465,59.351 0,0 -6.296,13.643 -19.167,7.923 0,0 -55.585,-93.194 59.57,-110.179 12.439,-20.436 25.009,-44.688 26.426,-46.123 2.65,-2.681 0,-32.178 0,-32.178 36.974,22.525 83.696,14.481 83.696,14.481 -5.152,29.28 -10.123,67.556 -16.805,92.065 C 40.325,-56.803 0,0 0,0" />
      </g>
      <g
         inkscape:export-ydpi="96"
         inkscape:export-xdpi="96"
         transform="matrix(0.27847669,0,0,-0.27847669,44.093356,82.849794)"
         id="g226">
        <path
           inkscape:connector-curvature="0"
           id="path228"
           style="fill:#ffc8ac;fill-opacity:1;fill-rule:nonzero;stroke:none"
           d="m 0,0 c -4.827,5.899 -23.062,20.379 -23.062,20.379 -27.887,0 -38.789,-8.26 -38.789,-8.26 -18.585,-29.786 16.04,-41.271 18.722,-43.416 2.682,-2.145 2.028,-9.968 2.028,-9.968 28.229,0.506 35.852,8.536 36.81,10.159 C 0.181,-23.536 4.827,-5.899 0,0" />
      </g>
      <g
         inkscape:export-ydpi="96"
         inkscape:export-xdpi="96"
         transform="matrix(0.27847669,0,0,-0.27847669,41.106399,84.532886)"
         id="g238">
        <path
           inkscape:connector-curvature="0"
           id="path240"
           style="fill:#b22323;fill-opacity:1;fill-rule:nonzero;stroke:none"
           d="m 0,0 h 4.324 0.001 l -6.471,13.552 c 0,0 -0.054,-0.013 -0.135,-0.033 -2.122,-8.41 -23.068,-12.302 -28.021,-12.302 -3.193,0 -5.997,1.139 -7.751,2.063 -0.187,-0.062 -0.375,-0.124 -0.561,-0.186 0,0 6.876,-9.956 17.951,-14.935 l 0.548,2.6 C -9.392,-8.705 0,0 0,0" />
      </g>
      <g
         inkscape:export-ydpi="96"
         inkscape:export-xdpi="96"
         transform="matrix(0.27847669,0,0,-0.27847669,30.509603,83.619528)"
         id="g242">
        <path
           inkscape:connector-curvature="0"
           id="path244"
           style="fill:#ffffff;fill-opacity:1;fill-rule:nonzero;stroke:none"
           d="m 0,0 c 1.753,-0.924 4.558,-2.063 7.751,-2.063 4.953,0 25.899,3.892 28.021,12.302" />
      </g>
      <g
         inkscape:export-ydpi="96"
         inkscape:export-xdpi="96"
         transform="matrix(0.27847669,0,0,-0.27847669,42.505293,84.940679)"
         id="g246">
        <path
           inkscape:connector-curvature="0"
           id="path248"
           style="fill:#ffffff;fill-opacity:1;fill-rule:nonzero;stroke:none"
           d="M 0,0 -0.699,1.464 H -0.7 -5.023 c 0,0 -9.393,-8.704 -20.115,-9.24 l -0.548,-2.6 c 0.704,-0.317 1.423,-0.614 2.16,-0.887 C -11.191,-15.821 0,0 0,0" />
      </g>
      <g
         inkscape:export-ydpi="96"
         inkscape:export-xdpi="96"
         transform="matrix(0.27847669,0,0,-0.27847669,28.731032,92.828454)"
         id="g254">
        <path
           inkscape:connector-curvature="0"
           id="path256"
           style="fill:#ff8200;fill-opacity:1;fill-rule:nonzero;stroke:none"
           d="m 0,0 -0.031,-0.021 c 0,0 0.011,0.007 0.031,0.021" />
      </g>
      <g
         inkscape:export-ydpi="96"
         inkscape:export-xdpi="96"
         transform="matrix(0.27847669,0,0,-0.27847669,40.471247,74.634979)"
         id="g258">
        <path
           inkscape:connector-curvature="0"
           id="path260"
           style="fill:#ff8200;fill-opacity:1;fill-rule:nonzero;stroke:none"
           d="m 0,0 c -8.927,11.796 -43.4,6.957 -53.079,0 -9.678,-6.957 0,-17.38 0,-17.38 -19.358,-8.912 -0.302,-30.712 6.655,-38.577 6.51,-7.359 4.545,-9.172 4.265,-9.375 l 9.406,6.336 c 0,0 -4.597,8.483 -6.412,7.878 -1.815,-0.604 -9.377,5.142 -8.808,8.799 0.569,3.656 6.691,-2.144 6.691,-2.144 l -0.302,4.522 c -12.705,5.429 -7.562,17.95 -7.562,17.95 0,0 5.308,13.819 31.261,10.352 0.411,-0.055 0.807,-0.097 1.212,-0.145 -0.578,-0.677 -0.91,-1.502 -0.819,-2.494 0.036,-0.382 0.699,-0.226 0.792,0.054 0.316,0.947 0.703,1.693 1.273,2.292 24.103,-2.528 33.126,6.986 33.126,6.986 0,0 -8.771,-6.85 -17.699,4.946" />
      </g>
      <g
         inkscape:export-ydpi="96"
         inkscape:export-xdpi="96"
         transform="matrix(0.27847669,0,0,-0.27847669,32.512633,80.758911)"
         id="g262">
        <path
           inkscape:connector-curvature="0"
           id="path264"
           style="fill:#342717;fill-opacity:1;fill-rule:nonzero;stroke:none"
           d="M 0,0 C 0,0 -11.795,3.239 -12.098,-3.113 Z" />
      </g>
      <g
         inkscape:export-ydpi="96"
         inkscape:export-xdpi="96"
         transform="matrix(0.27847669,0,0,-0.27847669,38.89462,78.761982)"
         id="g266">
        <path
           inkscape:connector-curvature="0"
           id="path268"
           style="fill:#342717;fill-opacity:1;fill-rule:nonzero;stroke:none"
           d="M 0,0 C 0,0 -2.651,3.63 -5.676,0 L -8.701,-3.63 Z" />
      </g>
      <g
         inkscape:export-ydpi="96"
         inkscape:export-xdpi="96"
         transform="matrix(0.27847669,0,0,-0.27847669,41.870317,87.248724)"
         id="g270">
        <path
           inkscape:connector-curvature="0"
           id="path272"
           style="fill:#ffb48d;fill-opacity:1;fill-rule:nonzero;stroke:none"
           d="m 0,0 c -1.798,0.718 -2.503,-0.884 -2.246,-2.352 0.021,-0.118 0.24,-0.018 0.257,0.064 0.123,0.604 0.466,2.364 1.684,1.375 0.385,-0.311 0.586,-0.756 0.705,-1.223 0.25,-0.97 -0.218,-2.061 -0.741,-2.854 -0.614,-0.928 -1.563,-1.654 -2.658,-1.887 -1.325,-0.282 -2.604,0.498 -3.67,1.177 -0.227,0.145 -0.875,-0.132 -0.637,-0.431 2.583,-3.254 7.283,-1.224 8.611,2.128 C 1.887,-2.534 1.597,-0.638 0,0" />
      </g>
      <g
         inkscape:export-ydpi="96"
         inkscape:export-xdpi="96"
         transform="matrix(0.27847669,0,0,-0.27847669,32.141031,79.361348)"
         id="g274">
        <path
           inkscape:connector-curvature="0"
           id="path276"
           style="fill:#ff8200;fill-opacity:1;fill-rule:nonzero;stroke:none"
           d="m 0,0 c -2.596,2.896 -10.277,1.788 -10.427,-2.729 -0.008,-0.255 0.404,-0.124 0.493,-0.012 1.216,1.515 2.128,2.677 4.191,3.016 1.791,0.295 3.331,-0.316 4.97,-0.911 C -0.487,-0.741 0.33,-0.369 0,0" />
      </g>
      <g
         inkscape:export-ydpi="96"
         inkscape:export-xdpi="96"
         transform="matrix(0.27847669,0,0,-0.27847669,200.72835,31.826152)"
         id="g278">
        <path
           inkscape:connector-curvature="0"
           id="path280"
           style="fill:#ffc8ac;fill-opacity:1;fill-rule:nonzero;stroke:none"
           d="m 0,0 -10.102,24.243 c 0,0 -12.098,13.309 -27.525,-2.722 l 7.26,-9.679 -2.42,-4.537 c 0,0 8.771,-6.268 15.123,-4.495 6.351,1.773 4.841,-5.33 4.841,-5.33 z" />
      </g>
      <g
         inkscape:export-ydpi="96"
         inkscape:export-xdpi="96"
         transform="matrix(0.27847669,0,0,-0.27847669,201.55397,33.742713)"
         id="g282">
        <path
           inkscape:connector-curvature="0"
           id="path284"
           style="fill:#c5be9e;fill-opacity:1;fill-rule:nonzero;stroke:none"
           d="m 0,0 -2.965,9.692 c 0,0 -6.419,4.495 -15.801,-2.833 l 3.357,-8.237 z" />
      </g>
      <g
         inkscape:export-ydpi="96"
         inkscape:export-xdpi="96"
         transform="matrix(0.27847669,0,0,-0.27847669,193.58857,27.399347)"
         id="g286">
        <path
           inkscape:connector-curvature="0"
           id="path288"
           style="fill:#ffb48d;fill-opacity:1;fill-rule:nonzero;stroke:none"
           d="m 0,0 c 2.191,0.227 6.102,-1.63 3.633,-4.16 -0.098,-0.102 -0.426,-0.026 -0.412,0.142 0.078,0.945 0.369,2.098 -0.584,2.724 -0.884,0.579 -2.171,0.38 -3.125,0.138 -2.71,-0.685 -4.338,-3.1 -4.746,-5.757 C -5.291,-7.277 -5.998,-6.978 -6.045,-6.71 -6.689,-2.917 -3.559,-0.369 0,0" />
      </g>
      <g
         inkscape:export-ydpi="96"
         inkscape:export-xdpi="96"
         transform="matrix(0.27847669,0,0,-0.27847669,190.2417,93.377524)"
         id="g290">
        <path
           inkscape:connector-curvature="0"
           id="path292"
           style="fill:#262014;fill-opacity:1;fill-rule:nonzero;stroke:none"
           d="M 0,0 C 0,0 1.61,1.551 8.582,0 15.555,-1.551 47.197,-31.166 34.861,-57.328 34.861,-57.328 14.479,-82.649 0,0" />
      </g>
      <g
         inkscape:export-ydpi="96"
         inkscape:export-xdpi="96"
         transform="matrix(0.27847669,0,0,-0.27847669,165.53476,104.04067)"
         id="g294">
        <path
           inkscape:connector-curvature="0"
           id="path296"
           style="fill:#262014;fill-opacity:1;fill-rule:nonzero;stroke:none"
           d="m 0,0 c 0,0 3.428,5.067 8.963,0.554 5.536,-4.513 17.389,-41.567 0.408,-57.12 0,0 -33.492,-23.801 -9.371,56.566" />
      </g>
      <g
         inkscape:export-ydpi="96"
         inkscape:export-xdpi="96"
         transform="matrix(0.27847669,0,0,-0.27847669,154.703,80.961921)"
         id="g298">
        <path
           inkscape:connector-curvature="0"
           id="path300"
           style="fill:#354004;fill-opacity:1;fill-rule:nonzero;stroke:none"
           d="m 0,0 c 0,0 -67.127,-99.031 -21.095,-119.954 31.463,-14.301 67.216,13.586 67.216,13.586 0,0 10.727,10.726 -4.289,25.028 0,0 -23.859,-13.587 -35.527,-6.435 -11.668,7.15 21.326,44.749 21.326,44.749 l 6.343,-0.961 c 0,0 5.259,-72.121 36.992,-78.05 45.93,-8.58 70.955,60.528 70.955,60.528 0,0 1.429,16.688 -14.303,16.925 0,0 -25.33,-50.725 -39.607,-44.35 -14.277,6.375 -7.044,79.817 -7.044,79.817 0,0 -51.291,23.954 -80.967,9.117" />
      </g>
      <g
         inkscape:export-ydpi="96"
         inkscape:export-xdpi="96"
         transform="matrix(0.27847669,0,0,-0.27847669,162.39754,21.731483)"
         id="g302">
        <path
           inkscape:connector-curvature="0"
           id="path304"
           style="fill:#ffc8ac;fill-opacity:1;fill-rule:nonzero;stroke:none"
           d="m 0,0 21.159,15.558 c 0,0 17.23,5.16 22.176,-16.531 L 32.123,-5.52 31.855,-10.655 c 0,0 -10.747,-0.845 -15.274,3.95 -4.526,4.795 -6.895,-2.068 -6.895,-2.068 z" />
      </g>
      <g
         inkscape:export-ydpi="96"
         inkscape:export-xdpi="96"
         transform="matrix(0.27847669,0,0,-0.27847669,160.70139,22.947368)"
         id="g306">
        <path
           inkscape:connector-curvature="0"
           id="path308"
           style="fill:#c5be9e;fill-opacity:1;fill-rule:nonzero;stroke:none"
           d="m 0,0 7.54,6.773 c 0,0 7.817,0.54 12.074,-10.577 L 12.49,-9.13 Z" />
      </g>
      <g
         inkscape:export-ydpi="96"
         inkscape:export-xdpi="96"
         transform="matrix(0.27847669,0,0,-0.27847669,170.79753,21.622042)"
         id="g310">
        <path
           inkscape:connector-curvature="0"
           id="path312"
           style="fill:#ffb48d;fill-opacity:1;fill-rule:nonzero;stroke:none"
           d="m 0,0 c -1.761,1.325 -6.068,1.751 -5.258,-1.689 0.03,-0.139 0.351,-0.243 0.426,-0.092 0.42,0.85 0.766,1.988 1.905,2.032 1.056,0.041 2.056,-0.794 2.749,-1.493 1.968,-1.986 2.116,-4.894 1.096,-7.38 -0.14,-0.342 0.621,-0.45 0.799,-0.245 C 4.226,-5.95 2.858,-2.152 0,0" />
      </g>
      <g
         inkscape:export-ydpi="96"
         inkscape:export-xdpi="96"
         transform="matrix(0.27847669,0,0,-0.27847669,166.72781,45.756087)"
         id="g314">
        <path
           inkscape:connector-curvature="0"
           id="path316"
           style="fill:#222a02;fill-opacity:1;fill-rule:nonzero;stroke:none"
           d="m 0,0 c -0.22,-0.043 -0.437,-0.103 -0.652,-0.163 -0.088,0.338 -0.177,0.677 -0.277,1.016 -4.453,0.579 -8.817,1.154 -10.994,1.852 -14.011,9.341 -42.695,32.411 3.66,67.076 0,0 1.645,14.935 -12.333,16.674 0,0 -92.918,-49.684 -9.614,-121.896 -0.352,-1.247 -0.643,-2.442 -0.856,-3.556 -1.413,-7.349 0.071,-15.148 -1.335,-22.77 -1.142,-6.194 -7.469,-64.086 -10.78,-64.656 10e-4,0 5.853,1.006 15.046,1.31 4.254,43.81 12.585,82.899 36.948,124.303 C 5.585,-0.092 2.322,0.45 0,0" />
      </g>
      <g
         inkscape:export-ydpi="96"
         inkscape:export-xdpi="96"
         transform="matrix(0.27847669,0,0,-0.27847669,185.97913,50.541318)"
         id="g318">
        <path
           inkscape:connector-curvature="0"
           id="path320"
           style="fill:#c5be9e;fill-opacity:1;fill-rule:nonzero;stroke:none"
           d="m 0,0 c -1.173,0.5 -2.392,1.031 -3.625,1.571 -4.453,1.95 -8.999,3.949 -11.447,4.491 -12.481,2.759 -24.839,6.475 -37.458,8.56 -2.119,0.35 -4.941,1.119 -7.788,1.752 -24.363,-41.404 -32.694,-80.493 -36.948,-124.304 16.795,0.555 44.756,-1.233 68.65,-15.79 0,0 -2.65,29.497 0,32.178 1.235,1.25 10.931,19.811 21.634,38.083 C -14.522,-35.633 -12.961,-14.282 0,0" />
      </g>
      <g
         inkscape:export-ydpi="96"
         inkscape:export-xdpi="96"
         transform="matrix(0.27847669,0,0,-0.27847669,169.48863,37.501313)"
         id="g322">
        <path
           inkscape:connector-curvature="0"
           id="path324"
           style="fill:#ffc8ac;fill-opacity:1;fill-rule:nonzero;stroke:none"
           d="m 0,0 c 23.02,18.465 27.871,29.011 27.871,29.011 27.888,0 36.4,-11.151 36.4,-11.151 6.521,-10.352 6.41,-30.503 0,-38.344 -7.846,-9.599 -19.667,-9.633 -21.142,-10.813 -2.682,-2.145 -2.028,-9.968 -2.028,-9.968 C 12.872,-40.759 5.249,-32.729 4.29,-31.106 -0.181,-23.536 -5.946,-4.77 0,0" />
      </g>
      <g
         inkscape:export-ydpi="96"
         inkscape:export-xdpi="96"
         transform="matrix(0.27847669,0,0,-0.27847669,172.47546,39.184426)"
         id="g334">
        <path
           inkscape:connector-curvature="0"
           id="path336"
           style="fill:#b22323;fill-opacity:1;fill-rule:nonzero;stroke:none"
           d="m 0,0 h -4.323 -10e-4 l 6.47,13.552 c 0,0 0.054,-0.013 0.135,-0.033 C 4.403,5.109 25.35,1.217 30.303,1.217 c 3.193,0 5.997,1.139 7.75,2.063 0.187,-0.062 0.375,-0.124 0.562,-0.186 0,0 -6.877,-9.956 -17.952,-14.935 l -0.548,2.6 C 9.393,-8.705 0,0 0,0" />
      </g>
      <g
         inkscape:export-ydpi="96"
         inkscape:export-xdpi="96"
         transform="matrix(0.27847669,0,0,-0.27847669,183.07225,38.271078)"
         id="g338">
        <path
           inkscape:connector-curvature="0"
           id="path340"
           style="fill:#ffffff;fill-opacity:1;fill-rule:nonzero;stroke:none"
           d="m 0,0 c -1.753,-0.924 -4.557,-2.063 -7.75,-2.063 -4.953,0 -25.899,3.892 -28.021,12.302" />
      </g>
      <g
         inkscape:export-ydpi="96"
         inkscape:export-xdpi="96"
         transform="matrix(0.27847669,0,0,-0.27847669,171.07656,39.592199)"
         id="g342">
        <path
           inkscape:connector-curvature="0"
           id="path344"
           style="fill:#ffffff;fill-opacity:1;fill-rule:nonzero;stroke:none"
           d="M 0,0 0.699,1.464 H 0.7 5.023 c 0,0 9.393,-8.704 20.116,-9.24 l 0.548,-2.6 c -0.705,-0.317 -1.423,-0.614 -2.16,-0.887 C 11.191,-15.821 0,0 0,0" />
      </g>
      <g
         inkscape:export-ydpi="96"
         inkscape:export-xdpi="96"
         transform="matrix(0.27847669,0,0,-0.27847669,184.85083,47.479995)"
         id="g346">
        <path
           inkscape:connector-curvature="0"
           id="path348"
           style="fill:#ff8200;fill-opacity:1;fill-rule:nonzero;stroke:none"
           d="m 0,0 0.031,-0.021 c 0,0 -0.01,0.007 -0.031,0.021" />
      </g>
      <g
         inkscape:export-ydpi="96"
         inkscape:export-xdpi="96"
         transform="matrix(0.27847669,0,0,-0.27847669,181.06937,35.410426)"
         id="g350">
        <path
           inkscape:connector-curvature="0"
           id="path352"
           style="fill:#342717;fill-opacity:1;fill-rule:nonzero;stroke:none"
           d="M 0,0 C 0,0 11.796,3.239 12.099,-3.113 Z" />
      </g>
      <g
         inkscape:export-ydpi="96"
         inkscape:export-xdpi="96"
         transform="matrix(0.27847669,0,0,-0.27847669,174.68752,33.413498)"
         id="g354">
        <path
           inkscape:connector-curvature="0"
           id="path356"
           style="fill:#342717;fill-opacity:1;fill-rule:nonzero;stroke:none"
           d="M 0,0 C 0,0 2.65,3.63 5.676,0 L 8.701,-3.63 Z" />
      </g>
      <g
         inkscape:export-ydpi="96"
         inkscape:export-xdpi="96"
         transform="matrix(0.27847669,0,0,-0.27847669,171.71183,41.900242)"
         id="g358">
        <path
           inkscape:connector-curvature="0"
           id="path360"
           style="fill:#ffb48d;fill-opacity:1;fill-rule:nonzero;stroke:none"
           d="M 0,0 C 1.798,0.718 2.503,-0.884 2.245,-2.352 2.225,-2.47 2.006,-2.37 1.988,-2.288 1.865,-1.684 1.522,0.076 0.305,-0.913 -0.08,-1.224 -0.281,-1.669 -0.4,-2.136 -0.65,-3.106 -0.183,-4.197 0.341,-4.99 0.955,-5.918 1.904,-6.644 2.998,-6.877 4.324,-7.159 5.603,-6.379 6.669,-5.7 6.895,-5.555 7.543,-5.832 7.306,-6.131 4.723,-9.385 0.022,-7.355 -1.306,-4.003 -1.887,-2.534 -1.598,-0.638 0,0" />
      </g>
      <g
         inkscape:export-ydpi="96"
         inkscape:export-xdpi="96"
         transform="matrix(0.27847669,0,0,-0.27847669,201.95837,32.507251)"
         id="g362">
        <path
           inkscape:connector-curvature="0"
           id="path364"
           style="fill:#222a02;fill-opacity:1;fill-rule:nonzero;stroke:none"
           d="m 0,0 c -12.871,5.721 -19.167,-7.922 -19.167,-7.922 21.83,-53.609 -14.644,-58.576 -31.465,-59.352 l -20.084,8.075 c 0,0 -35.441,-59.875 -47.349,-118.072 0,0 19.216,-11.237 34.098,-13.19 0,0 6.59,46.753 19.881,72.713 0.357,0.609 0.714,1.218 1.073,1.826 1.143,1.933 2.294,3.855 3.444,5.743 C 55.585,-93.193 0,0 0,0" />
      </g>
      <g
         inkscape:export-ydpi="96"
         inkscape:export-xdpi="96"
         transform="matrix(0.27847669,0,0,-0.27847669,181.44111,34.012892)"
         id="g366">
        <path
           inkscape:connector-curvature="0"
           id="path368"
           style="fill:#c5be9e;fill-opacity:1;fill-rule:nonzero;stroke:none"
           d="M 0,0 C 2.596,2.896 10.276,1.788 10.426,-2.729 10.435,-2.984 10.023,-2.853 9.934,-2.741 8.718,-1.226 7.805,-0.064 5.742,0.275 3.951,0.57 2.412,-0.041 0.772,-0.636 0.486,-0.741 -0.33,-0.369 0,0" />
      </g>
      <g
         inkscape:export-ydpi="96"
         inkscape:export-xdpi="96"
         transform="matrix(0.27847669,0,0,-0.27847669,181.9464,49.379958)"
         id="g370">
        <path
           inkscape:connector-curvature="0"
           id="path372"
           style="fill:#354004;fill-opacity:1;fill-rule:nonzero;stroke:none"
           d="m 0,0 c 0,0 -35.524,-43.108 -46.203,-116.681 l 33.041,58.341 -0.681,21.847 24.273,7.995 z" />
      </g>
      <g
         inkscape:export-ydpi="96"
         inkscape:export-xdpi="96"
         transform="matrix(0.27847669,0,0,-0.27847669,169.07988,46.171349)"
         id="g374">
        <path
           inkscape:connector-curvature="0"
           id="path376"
           style="fill:#354004;fill-opacity:1;fill-rule:nonzero;stroke:none"
           d="m 0,0 c 0,0 -28.31,-54.773 -36.581,-123.622 l 3.595,74.377 15.333,14.535 -6.343,20.16 z" />
      </g>
      <g
         inkscape:export-ydpi="96"
         inkscape:export-xdpi="96"
         transform="matrix(0.27847669,0,0,-0.27847669,190.2417,34.424341)"
         id="g382">
        <path
           inkscape:connector-curvature="0"
           id="path384"
           style="fill:#c5be9e;fill-opacity:1;fill-rule:nonzero;stroke:none"
           d="m 0,0 c -0.667,12.088 -41.893,37.002 -41.893,37.002 l -4.759,-14.218 -3.019,6.498 V 11.609 c -0.359,-0.091 -0.917,-0.464 -0.471,-0.635 0.159,-0.06 0.315,-0.116 0.471,-0.173 v -0.558 c 0.07,0.171 0.142,0.318 0.213,0.48 0.75,-0.27 1.479,-0.535 2.165,-0.998 0.972,-0.658 1.699,-1.784 2.14,-2.852 0.112,-0.272 0.652,-0.062 0.613,0.21 -0.338,2.33 -2.284,3.959 -4.55,4.456 5.532,11.366 12.239,-3.253 12.239,-3.253 0,0 12.916,4.842 20.501,-1.475 7.585,-6.318 6.097,-18.999 6.097,-18.999 l -5.054,-11.681 c 0,0 2.443,3.785 4.712,-2.799 2.27,-6.585 -10.244,-6.816 -10.244,-6.816 l -3.966,-7.062 C -9.068,-40.712 0,-20.906 0,-20.906 l -5.403,5.814 c 0,0 6.07,3.004 5.403,15.092" />
      </g>
      <g
         inkscape:export-ydpi="96"
         inkscape:export-xdpi="96"
         transform="matrix(0.27847669,0,0,-0.27847669,93.80363,34.62437)"
         id="g386">
        <path
           inkscape:connector-curvature="0"
           id="path388"
           style="fill:#ecb89e;fill-opacity:1;fill-rule:nonzero;stroke:none"
           d="m 0,0 c -0.001,2.229 -1.795,3.666 -4.052,3.422 -0.15,0.039 -0.301,0.077 -0.455,0.103 -2.452,6.66 -3.835,15.304 -18.18,22.087 C -50.476,38.753 -62.969,2.778 -63.185,1.27 c -0.215,-1.508 0,-5.816 0,-5.816 0,0 -2.154,0.555 -3.878,-1.554 -1.723,-2.108 -1.509,-10.509 2.8,-12.017 4.31,-1.508 5.54,-0.239 5.54,-0.239 0,0 5.448,-8.854 16.869,-8.529 l 2.312,-1.245 c 0,0 21.126,-7.742 31.269,0.92 v 1.968 c 0,0 3.772,14.449 4.696,16.603 0.012,0.028 0.025,0.077 0.038,0.109 0.026,0.018 0.052,0.04 0.08,0.058 10e-4,-0.001 10e-4,-0.003 0.003,-0.004 0.021,0.017 0.04,0.036 0.062,0.052 0.754,0.531 1.48,1.252 2.084,2.079 0.001,10e-4 0.002,0.002 0.003,0.003 0.14,0.193 0.275,0.388 0.4,0.59 0.762,1.184 1.238,2.525 1.242,4.032 C 0.337,-1.107 0.207,-0.535 0,0" />
      </g>
      <g
         inkscape:export-ydpi="96"
         inkscape:export-xdpi="96"
         transform="matrix(0.27847669,0,0,-0.27847669,69.09275,111.71181)"
         id="g390">
        <path
           inkscape:connector-curvature="0"
           id="path392"
           style="fill:#342717;fill-opacity:1;fill-rule:nonzero;stroke:none"
           d="m 0,0 -21.079,-21.868 c 0,0 -1.567,-19.81 0.227,-25.051 1.794,-5.241 9.745,4.856 9.745,4.856 L 6.226,-7.439 0,0" />
      </g>
      <g
         inkscape:export-ydpi="96"
         inkscape:export-xdpi="96"
         transform="matrix(0.27847669,0,0,-0.27847669,98.66744,99.786689)"
         id="g394">
        <path
           inkscape:connector-curvature="0"
           id="path396"
           style="fill:#342717;fill-opacity:1;fill-rule:nonzero;stroke:none"
           d="m 0,0 -12.081,-5.551 v -11.388 c 0,0 3.708,-0.216 2.622,-5.023 -1.086,-4.809 -2.622,-11.29 -2.622,-11.29 0,0 6.143,-16.203 16.833,-28.675 0,0 -0.471,31.072 1.905,42.895 2.375,11.823 7.537,13.53 7.537,13.53 L 7.285,3.407 Z" />
      </g>
      <g
         inkscape:export-ydpi="96"
         inkscape:export-xdpi="96"
         transform="matrix(0.27847669,0,0,-0.27847669,58.900607,16.025023)"
         id="g398">
        <path
           inkscape:connector-curvature="0"
           id="path400"
           style="fill:#ecb89e;fill-opacity:1;fill-rule:nonzero;stroke:none"
           d="m 0,0 -16.205,10.05 c 0,0 2.49,1.547 3.238,1.152 0.748,-0.396 1.993,0.378 6.275,-1.409 l 3.263,-1.487 c 0,0 -6.367,17.047 -9.92,23.614 0,0 1.861,3.31 5.093,-1.499 3.23,-4.809 5.606,-10.916 5.606,-10.916 0,0 0.206,11.661 -0.151,13.519 -0.356,1.859 1.145,4.38 3.549,-1.055 2.406,-5.433 1.59,-11.681 1.59,-11.681 l 3.598,15.513 c 0,0 4.847,-1.663 1.828,-17.098 l 4.622,11.779 c 0,0 3.02,-1.651 0.502,-9.956 L 11.26,14.855 c 0,0 3.187,-3.833 4.111,-8.139 0.923,-4.304 -2.73,-14.542 -2.73,-14.542 l -8.682,-6.112 z" />
      </g>
      <g
         inkscape:export-ydpi="96"
         inkscape:export-xdpi="96"
         transform="matrix(0.27847669,0,0,-0.27847669,65.999593,73.53386)"
         id="g402">
        <path
           inkscape:connector-curvature="0"
           id="path404"
           style="fill:#233e5d;fill-opacity:1;fill-rule:nonzero;stroke:none"
           d="m 0,0 c 0,0 89.669,46.646 135.048,1.217 0,0 -4.091,56.832 -12.986,84.225 -8.896,27.394 -69.093,34.849 -77.266,14.769 C 36.624,80.132 0,0 0,0" />
      </g>
      <g
         inkscape:export-ydpi="96"
         inkscape:export-xdpi="96"
         transform="matrix(0.27847669,0,0,-0.27847669,79.295237,43.05929)"
         id="g406">
        <path
           inkscape:connector-curvature="0"
           id="path408"
           style="fill:#ffffff;fill-opacity:1;fill-rule:nonzero;stroke:none"
           d="m 0,0 c 0,0 24.856,0 43.826,3.08 0,0 42.516,-15.374 33.359,-108.259 0,0 -52.655,8.175 -78.82,-4.254 l -21.912,85.442 z" />
      </g>
      <g
         inkscape:export-ydpi="96"
         inkscape:export-xdpi="96"
         transform="matrix(0.27847669,0,0,-0.27847669,78.839849,73.53386)"
         id="g410">
        <path
           inkscape:connector-curvature="0"
           id="path412"
           style="fill:#1b334d;fill-opacity:1;fill-rule:nonzero;stroke:none"
           d="m 0,0 c 0,0 50.04,19.63 83.4,7.202 0,0 65.411,-19.3 39.247,-59.201 -33.1,-50.479 -42.534,-55.6 -42.534,-55.6 l -7.856,14.386 c 0,0 29.458,28.786 17.03,51.68 -12.429,22.893 -41.872,17.11 -60.187,-8.504 -18.315,-25.614 -44.794,-87.059 -57.875,-98.638 l -8.837,10.333 z" />
      </g>
      <g
         inkscape:export-ydpi="96"
         inkscape:export-xdpi="96"
         transform="matrix(0.27847669,0,0,-0.27847669,82.847851,42.20172)"
         id="g414">
        <path
           inkscape:connector-curvature="0"
           id="path416"
           style="fill:#1b334d;fill-opacity:1;fill-rule:nonzero;stroke:none"
           d="m 0,0 c 0,0 -53.312,-123.957 -57.236,-142.272 l -13.083,45.314 c 0,0 23.548,17.44 24.856,35.122 1.309,17.681 -45.133,94.867 -40.555,140.198 l 16.353,3.675 c 0,0 24.86,-89.557 69.665,-82.037" />
      </g>
      <g
         inkscape:export-ydpi="96"
         inkscape:export-xdpi="96"
         transform="matrix(0.27847669,0,0,-0.27847669,115.90389,25.275963)"
         id="g418">
        <path
           inkscape:connector-curvature="0"
           id="path420"
           style="fill:#ecb89e;fill-opacity:1;fill-rule:nonzero;stroke:none"
           d="m 0,0 9.552,22.136 c 0,0 1.062,16.477 -19.361,16.427 l -1.755,-10.967 -4.539,-1.298 c 0,0 1.461,-9.789 6.685,-12.849 5.223,-3.061 -0.429,-6.595 -0.429,-6.595 z" />
      </g>
      <g
         inkscape:export-ydpi="96"
         inkscape:export-xdpi="96"
         transform="matrix(0.27847669,0,0,-0.27847669,114.2688,17.739548)"
         id="g422">
        <path
           inkscape:connector-curvature="0"
           id="path424"
           style="fill:#ca9d86;fill-opacity:1;fill-rule:nonzero;stroke:none"
           d="m 0,0 c 1.548,-1.301 2.818,-5.066 -0.426,-5.052 -0.131,10e-4 -0.289,0.264 -0.171,0.363 0.675,0.551 1.621,1.095 1.426,2.123 -0.182,0.953 -1.135,1.676 -1.902,2.151 -2.183,1.351 -4.815,0.884 -6.829,-0.542 -0.276,-0.194 -0.53,0.463 -0.383,0.664 C -6.192,2.553 -2.514,2.113 0,0" />
      </g>
      <g
         inkscape:export-ydpi="96"
         inkscape:export-xdpi="96"
         transform="matrix(0.27847669,0,0,-0.27847669,113.12919,22.141874)"
         id="g426">
        <path
           inkscape:connector-curvature="0"
           id="path428"
           style="fill:#ffffff;fill-opacity:1;fill-rule:nonzero;stroke:none"
           d="m 0,0 c 0,0 9.357,-0.864 13.999,-4.85 l -2.633,-7.289 -11.502,6.13 z" />
      </g>
      <g
         inkscape:export-ydpi="96"
         inkscape:export-xdpi="96"
         transform="matrix(0.27847669,0,0,-0.27847669,116.64904,24.997625)"
         id="g430">
        <path
           inkscape:connector-curvature="0"
           id="path432"
           style="fill:#1b334d;fill-opacity:1;fill-rule:nonzero;stroke:none"
           d="m 0,0 -14.162,8.925 c -6.08,-39.453 -33.265,-62.437 -57.814,-71.685 -6.224,0.135 -13.548,0.413 -18.334,0.981 0,0 30.09,-19.945 37.938,-105.311 v -4.199 l 5.539,-1.786 c 0,0 -1.229,43.68 -6.313,78.528 C 2.671,-48.732 0,0 0,0" />
      </g>
      <g
         inkscape:export-ydpi="96"
         inkscape:export-xdpi="96"
         transform="matrix(0.27847669,0,0,-0.27847669,63.285946,19.90643)"
         id="g434">
        <path
           inkscape:connector-curvature="0"
           id="path436"
           style="fill:#dfdfdf;fill-opacity:1;fill-rule:nonzero;stroke:none"
           d="m 0,0 -1.474,6.112 c 0,0 -7.367,0.284 -12.525,-3.383 v -4.03 z" />
      </g>
      <g
         inkscape:export-ydpi="96"
         inkscape:export-xdpi="96"
         transform="matrix(0.27847669,0,0,-0.27847669,81.487826,42.273901)"
         id="g438">
        <path
           inkscape:connector-curvature="0"
           id="path440"
           style="fill:#2e4f75;fill-opacity:1;fill-rule:nonzero;stroke:none"
           d="m 0,0 -20.993,-6.291 4.352,-31.213 -13.301,4.924 c 0,0 3.998,-39.816 -3.935,-59.72 0,0 35.866,77.421 38.761,92.559 z" />
      </g>
      <g
         inkscape:export-ydpi="96"
         inkscape:export-xdpi="96"
         transform="matrix(0.27847669,0,0,-0.27847669,92.80746,43.402651)"
         id="g442">
        <path
           inkscape:connector-curvature="0"
           id="path444"
           style="fill:#2e4f75;fill-opacity:1;fill-rule:nonzero;stroke:none"
           d="m 0,0 c 0,0 30.693,-37.606 32.381,-92.646 l -4.947,64.328 -6.138,1.584 V -0.289 L 0.935,3.393 Z" />
      </g>
      <g
         inkscape:export-ydpi="96"
         inkscape:export-xdpi="96"
         transform="matrix(0.27847669,0,0,-0.27847669,90.2453,31.151292)"
         id="g486">
        <path
           inkscape:connector-curvature="0"
           id="path488"
           style="fill:#b22323;fill-opacity:1;fill-rule:nonzero;stroke:none"
           d="m 0,0 c 0,0 -15.415,3.008 -32.958,-5.385 0,0 -4.524,-2.154 -6.894,-1.077 0,0 6.938,-23.696 27.996,-19.172 C 9.201,-21.11 0.861,-10.34 0,0" />
      </g>
      <g
         inkscape:export-ydpi="96"
         inkscape:export-xdpi="96"
         transform="matrix(0.27847669,0,0,-0.27847669,79.408354,33.022043)"
         id="g490">
        <path
           inkscape:connector-curvature="0"
           id="path492"
           style="fill:#ffffff;fill-opacity:1;fill-rule:nonzero;stroke:none"
           d="m 0,0 c 0,0 29.006,-6.207 38.915,6.718 0,0 -11.041,2.343 -24.37,-2.06 C 1.217,0.255 0.937,-0.255 0,0" />
      </g>
      <g
         inkscape:export-ydpi="96"
         inkscape:export-xdpi="96"
         transform="matrix(0.27847669,0,0,-0.27847669,82.54612,26.782271)"
         id="g494">
        <path
           inkscape:connector-curvature="0"
           id="path496"
           style="fill:#ca9d86;fill-opacity:1;fill-rule:nonzero;stroke:none"
           d="m 0,0 c -5.278,0.865 -11.859,-4.621 -12.18,-9.903 -0.01,-0.184 0.33,-0.096 0.372,0.026 1.851,5.362 5.742,9.119 11.586,9.511 C -0.066,-0.355 0.329,-0.054 0,0" />
      </g>
      <g
         inkscape:export-ydpi="96"
         inkscape:export-xdpi="96"
         transform="matrix(0.27847669,0,0,-0.27847669,80.831617,26.655815)"
         id="g498">
        <path
           inkscape:connector-curvature="0"
           id="path500"
           style="fill:#ca9d86;fill-opacity:1;fill-rule:nonzero;stroke:none"
           d="m 0,0 c -2.516,-0.626 -12.336,-9.351 -8.034,-11.658 0.033,-0.019 0.131,0.009 0.111,0.061 C -9.659,-7 -2.956,-2.555 0.182,-0.31 0.387,-0.164 0.206,0.051 0,0" />
      </g>
      <g
         inkscape:export-ydpi="96"
         inkscape:export-xdpi="96"
         transform="matrix(0.27847669,0,0,-0.27847669,79.25553,26.553029)"
         id="g502">
        <path
           inkscape:connector-curvature="0"
           id="path504"
           style="fill:#ca9d86;fill-opacity:1;fill-rule:nonzero;stroke:none"
           d="m 0,0 c -2.782,-2.2 -4.682,-4.818 -5.605,-8.27 -0.411,-1.539 -1.161,-5.959 0.571,-7.05 0.086,-0.055 0.333,0.028 0.285,0.156 -1.998,5.359 1.424,11.421 5.267,14.882 C 0.909,0.071 0.271,0.215 0,0" />
      </g>
      <g
         inkscape:export-ydpi="96"
         inkscape:export-xdpi="96"
         transform="matrix(0.27847669,0,0,-0.27847669,77.4578,31.543443)"
         id="g506">
        <path
           inkscape:connector-curvature="0"
           id="path508"
           style="fill:#ca9d86;fill-opacity:1;fill-rule:nonzero;stroke:none"
           d="m 0,0 c -3.601,4.048 -1.591,11.086 -0.031,15.616 0.139,0.406 -0.61,0.303 -0.727,0.019 C -2.491,11.404 -4.955,3.013 -0.328,-0.223 -0.214,-0.302 0.129,-0.145 0,0" />
      </g>
      <g
         inkscape:export-ydpi="96"
         inkscape:export-xdpi="96"
         transform="matrix(0.27847669,0,0,-0.27847669,76.603734,34.963749)"
         id="g510">
        <path
           inkscape:connector-curvature="0"
           id="path512"
           style="fill:#ca9d86;fill-opacity:1;fill-rule:nonzero;stroke:none"
           d="m 0,0 c -0.69,-0.31 -1.254,-0.822 -1.76,-1.375 -0.373,-0.408 -1.051,-1.206 -0.912,-1.797 0.032,-0.143 0.269,-0.035 0.324,0.024 0.443,0.468 0.664,1.142 1.082,1.652 0.426,0.52 0.971,0.903 1.479,1.331 C 0.401,-0.007 0.129,0.058 0,0" />
      </g>
      <g
         inkscape:export-ydpi="96"
         inkscape:export-xdpi="96"
         transform="matrix(0.27847669,0,0,-0.27847669,77.188566,35.067371)"
         id="g514">
        <path
           inkscape:connector-curvature="0"
           id="path516"
           style="fill:#ca9d86;fill-opacity:1;fill-rule:nonzero;stroke:none"
           d="m 0,0 c -0.776,-0.478 -1.496,-1.064 -2.331,-1.42 0.638,0.573 1.388,0.945 2.116,1.441 0.081,0.055 0.007,0.13 -0.069,0.116 -1.179,-0.233 -2.316,-1.031 -3.064,-1.952 -0.147,-0.181 0.074,-0.308 0.242,-0.275 0.893,0.174 1.621,0.617 2.343,1.097 -0.397,-0.559 -0.778,-1.127 -1.093,-1.739 -0.143,-0.278 0.365,-0.192 0.47,-0.114 0.197,0.147 0.447,0.2 0.685,0.277 0.139,-0.457 0.154,-0.966 0.483,-1.327 0.074,-0.082 0.309,-0.016 0.306,0.105 -0.016,0.523 -0.145,1.084 -0.345,1.567 -0.07,0.168 -0.316,0.081 -0.42,0.009 -0.119,-0.084 -0.259,-0.125 -0.402,-0.16 0.44,0.753 0.95,1.461 1.475,2.158 C 0.594,0.046 0.164,0.101 0,0" />
      </g>
      <g
         inkscape:export-ydpi="96"
         inkscape:export-xdpi="96"
         transform="matrix(0.27847669,0,0,-0.27847669,88.916804,38.666348)"
         id="g518">
        <path
           inkscape:connector-curvature="0"
           id="path520"
           style="fill:#ca9d86;fill-opacity:1;fill-rule:nonzero;stroke:none"
           d="m 0,0 c -1.432,0.173 -2.345,-1.432 -2.216,-2.695 0.175,-1.717 2.419,-1.021 2.532,0.396 0.006,0.063 -0.107,0.034 -0.128,0.003 -0.305,-0.455 -0.893,-1.349 -1.427,-0.666 -0.377,0.483 -0.094,1.249 0.127,1.73 0.362,0.795 0.965,0.693 1.52,0.153 C 0.981,-1.637 1.247,-2.473 1.192,-3.257 1.115,-4.404 0.148,-5.078 -0.776,-5.58 -1.149,-5.782 -0.862,-6.058 -0.541,-5.973 1.012,-5.56 2.323,-4.3 2.16,-2.594 2.051,-1.459 1.217,-0.147 0,0" />
      </g>
      <g
         inkscape:export-ydpi="96"
         inkscape:export-xdpi="96"
         transform="matrix(0.27847669,0,0,-0.27847669,85.088027,29.508976)"
         id="g522">
        <path
           inkscape:connector-curvature="0"
           id="path524"
           style="fill:#ca9d86;fill-opacity:1;fill-rule:nonzero;stroke:none"
           d="m 0,0 c -3.893,-0.691 -7.7,-2.621 -10.817,-5.014 -0.067,-0.05 0.037,-0.076 0.081,-0.045 3.211,2.317 6.876,3.98 10.723,4.896 C 0.108,-0.134 0.162,0.029 0,0" />
      </g>
      <g
         inkscape:export-ydpi="96"
         inkscape:export-xdpi="96"
         transform="matrix(0.27847669,0,0,-0.27847669,85.388815,29.7955)"
         id="g526">
        <path
           inkscape:connector-curvature="0"
           id="path528"
           style="fill:#ca9d86;fill-opacity:1;fill-rule:nonzero;stroke:none"
           d="m 0,0 c -3.701,-0.408 -6.442,-3.387 -10.129,-3.948 -0.068,-0.01 -0.137,-0.125 -0.031,-0.119 3.705,0.189 6.558,3.069 10.141,3.808 C 0.176,-0.218 0.258,0.028 0,0" />
      </g>
      <g
         inkscape:export-ydpi="96"
         inkscape:export-xdpi="96"
         transform="matrix(0.27847669,0,0,-0.27847669,81.432217,29.915551)"
         id="g530">
        <path
           inkscape:connector-curvature="0"
           id="path532"
           style="fill:#342717;fill-opacity:1;fill-rule:nonzero;stroke:none"
           d="M 0,0 C -0.882,0.963 -3.171,0.117 -4.071,-0.446 -4.654,-0.81 -5.14,-1.323 -5.49,-1.913 -5.875,-2.56 -6.502,-3.666 -6.158,-4.408 c 0.179,-0.388 0.799,-0.176 1.003,0.073 0.783,0.955 0.727,2.252 1.755,3.116 0.926,0.779 2.249,0.478 3.29,0.954 C -0.022,-0.225 0.084,-0.093 0,0" />
      </g>
      <g
         inkscape:export-ydpi="96"
         inkscape:export-xdpi="96"
         transform="matrix(0.27847669,0,0,-0.27847669,87.812174,28.9205)"
         id="g534">
        <path
           inkscape:connector-curvature="0"
           id="path536"
           style="fill:#342717;fill-opacity:1;fill-rule:nonzero;stroke:none"
           d="m 0,0 c -1.27,0.747 -3.015,1.031 -4.456,1.263 -1.252,0.202 -2.452,0.116 -3.595,-0.437 -0.394,-0.19 -0.201,-0.553 0.179,-0.518 1.467,0.135 2.733,0.056 4.16,-0.3 1.153,-0.288 2.183,-0.648 3.38,-0.555 C -0.113,-0.531 0.326,-0.192 0,0" />
      </g>
      <g
         inkscape:export-ydpi="96"
         inkscape:export-xdpi="96"
         transform="matrix(0.27847669,0,0,-0.27847669,76.511281,37.524175)"
         id="g538">
        <path
           inkscape:connector-curvature="0"
           id="path540"
           style="fill:#ca9d86;fill-opacity:1;fill-rule:nonzero;stroke:none"
           d="M 0,0 C -0.653,1.051 -1.882,2.185 -3.153,1.325 -3.48,1.104 -3.415,0.712 -2.97,0.792 c 1.045,0.188 1.74,-1.377 2.083,-2.124 0.022,-0.047 0.037,-0.098 0.059,-0.147 -0.13,-0.125 -0.255,-0.254 -0.376,-0.409 -0.259,-0.334 -0.749,-0.88 -0.721,-1.322 0.01,-0.157 0.239,-0.11 0.319,-0.041 0.377,0.329 0.576,0.839 0.848,1.255 0.028,0.044 0.055,0.092 0.082,0.137 0.134,-0.349 0.256,-0.702 0.36,-1.06 0.122,-0.425 0.147,-0.99 0.587,-1.207 0.256,-0.127 0.604,-0.014 0.78,0.198 C 1.806,-3.018 0.502,-0.81 0,0" />
      </g>
      <g
         inkscape:export-ydpi="96"
         inkscape:export-xdpi="96"
         transform="matrix(0.27847669,0,0,-0.27847669,93.168613,35.266175)"
         id="g542">
        <path
           inkscape:connector-curvature="0"
           id="path544"
           style="fill:#ca9d86;fill-opacity:1;fill-rule:nonzero;stroke:none"
           d="m 0,0 c -0.231,0.294 -0.613,0.426 -0.909,0.65 -0.021,0.016 -0.051,0.02 -0.084,0.017 -0.001,0.117 -0.004,0.234 -0.003,0.351 0.012,1.124 0.351,2.146 0.443,3.243 0.019,0.234 -0.385,0.121 -0.463,0.011 -1.199,-1.692 -0.793,-4.862 -0.338,-6.77 0.026,-0.109 0.225,-0.018 0.241,0.06 0.176,0.894 0.141,1.804 0.124,2.712 0.192,-0.24 0.388,-0.419 0.735,-0.483 C -0.16,-0.226 0.107,-0.136 0,0" />
      </g>
      <g
         inkscape:export-ydpi="96"
         inkscape:export-xdpi="96"
         transform="matrix(0.27847669,0,0,-0.27847669,87.961604,27.427613)"
         id="g546">
        <path
           inkscape:connector-curvature="0"
           id="path548"
           style="fill:#6e5747;fill-opacity:1;fill-rule:nonzero;stroke:none"
           d="m 0,0 c -1.096,1.729 -3.943,2.503 -5.863,2.043 -1.447,-0.346 -4.412,-2.066 -4.151,-3.853 0.013,-0.082 0.133,-0.148 0.203,-0.159 0.085,-0.013 0.323,-0.107 0.423,-0.004 1.255,1.291 1.913,2.706 3.916,3.143 1.725,0.375 3.215,-1.38 4.803,-1.721 C -0.387,-0.611 0.234,-0.37 0,0" />
      </g>
      <g
         inkscape:export-ydpi="96"
         inkscape:export-xdpi="96"
         transform="matrix(0.27847669,0,0,-0.27847669,81.057052,28.388831)"
         id="g550">
        <path
           inkscape:connector-curvature="0"
           id="path552"
           style="fill:#6e5747;fill-opacity:1;fill-rule:nonzero;stroke:none"
           d="m 0,0 c -3.604,1.248 -9.109,-3.159 -9.238,-6.759 -0.014,-0.406 0.675,-0.226 0.815,-0.019 1.039,1.535 1.756,3.139 3.199,4.369 1.537,1.311 3.301,1.388 5.116,1.975 C 0.099,-0.368 0.285,-0.099 0,0" />
      </g>
      <g
         inkscape:export-ydpi="96"
         inkscape:export-xdpi="96"
         transform="matrix(0.27847669,0,0,-0.27847669,135.05706,152.45524)"
         id="g554">
        <path
           inkscape:connector-curvature="0"
           id="path556"
           style="fill:#2a51a2;fill-opacity:1;fill-rule:nonzero;stroke:none"
           d="M 0,0 C 0.873,5.496 7.018,5.632 11.845,1.833 16.672,-1.965 24.13,-10.253 24.13,-10.253 l 2.442,-15.783 c 0,0 -18.76,6.349 -21.538,10.211 C 2.257,-11.966 0,0 0,0" />
      </g>
      <g
         inkscape:export-ydpi="96"
         inkscape:export-xdpi="96"
         transform="matrix(0.27847669,0,0,-0.27847669,135.74673,161.38769)"
         id="g558">
        <path
           inkscape:connector-curvature="0"
           id="path560"
           style="fill:#fdc9b5;fill-opacity:1;fill-rule:nonzero;stroke:none"
           d="M 0,0 C 2.707,-4.938 7.187,-9.069 12.352,-11.365 12.349,2.594 6.56,28.067 6.56,28.067 c 0,0 -3.467,4.202 -7.797,-1.207 0,0 3.629,-20.737 1.237,-26.86" />
      </g>
      <g
         inkscape:export-ydpi="96"
         inkscape:export-xdpi="96"
         transform="matrix(0.27847669,0,0,-0.27847669,139.99868,149.37267)"
         id="g562">
        <path
           inkscape:connector-curvature="0"
           id="path564"
           style="fill:#2a51a2;fill-opacity:1;fill-rule:nonzero;stroke:none"
           d="m 0,0 c 2.129,6.621 9.743,5.615 14.979,0 5.237,-5.614 12.862,-17.276 12.862,-17.276 v -19.961 c 0,0 -21.956,11.427 -24.649,16.728 C 0.499,-15.21 0,0 0,0" />
      </g>
      <g
         inkscape:export-ydpi="96"
         inkscape:export-xdpi="96"
         transform="matrix(0.27847669,0,0,-0.27847669,115.62108,153.89983)"
         id="g566">
        <path
           inkscape:connector-curvature="0"
           id="path568"
           style="fill:#ffdac8;fill-opacity:1;fill-rule:nonzero;stroke:none"
           d="m 0,0 c 0,0 3.021,-34.043 48.948,-55.854 17.288,-8.209 19.973,2.127 19.973,2.127 0,0 22.757,-6.412 27.338,7.7 4.58,14.111 1.673,55.605 1.673,55.605 0,0 -3.477,5.853 -9.861,0 0,0 0.871,-44.152 -8.607,-33.514 C 69.984,-13.295 70.588,7.016 70.588,7.016 70.588,7.016 18.322,50.002 0,0" />
      </g>
      <g
         inkscape:export-ydpi="96"
         inkscape:export-xdpi="96"
         transform="matrix(0.27847669,0,0,-0.27847669,111.85184,133.89966)"
         id="g570">
        <path
           inkscape:connector-curvature="0"
           id="path572"
           style="fill:#7086c3;fill-opacity:1;fill-rule:nonzero;stroke:none"
           d="m 0,0 c 0,0 -7.981,-9.576 -9.044,-26.067 -1.063,-16.491 25.6,-69.688 25.6,-69.688 0,0 49.348,2.541 69.154,26.978 0.463,0.57 0.909,1.154 1.339,1.748 0,0 0,56.922 -34.883,70.22 C 32.907,10.534 0,0 0,0" />
      </g>
      <g
         inkscape:export-ydpi="96"
         inkscape:export-xdpi="96"
         transform="matrix(0.27847669,0,0,-0.27847669,119.38485,75.80573)"
         id="g574">
        <path
           inkscape:connector-curvature="0"
           id="path576"
           style="fill:#ffdac8;fill-opacity:1;fill-rule:nonzero;stroke:none"
           d="m 0,0 15.028,15.672 c 0,0 13.3,6.646 20.405,-10.318 L 26.946,0.06 27.457,-4.161 c 0,0 -8.634,-2.212 -13.001,1.052 -4.368,3.263 -5.323,-2.662 -5.323,-2.662 z" />
      </g>
      <g
         inkscape:export-ydpi="96"
         inkscape:export-xdpi="96"
         transform="matrix(0.27847669,0,0,-0.27847669,118.17605,77.036732)"
         id="g578">
        <path
           inkscape:connector-curvature="0"
           id="path580"
           style="fill:#ffffff;fill-opacity:1;fill-rule:nonzero;stroke:none"
           d="m 0,0 5.18,6.586 c 0,0 6.291,1.548 11.336,-6.902 l -5.049,-5.349 z" />
      </g>
      <g
         inkscape:export-ydpi="96"
         inkscape:export-xdpi="96"
         transform="matrix(0.27847669,0,0,-0.27847669,126.2108,74.525406)"
         id="g582">
        <path
           inkscape:connector-curvature="0"
           id="path584"
           style="fill:#ffb48d;fill-opacity:1;fill-rule:nonzero;stroke:none"
           d="m 0,0 c -1.62,0.829 -5.189,0.566 -4.043,-2.122 0.045,-0.108 0.32,-0.148 0.36,-0.014 0.222,0.752 0.342,1.728 1.263,1.926 0.856,0.183 1.787,-0.355 2.451,-0.827 C 1.916,-2.375 2.45,-4.722 1.971,-6.892 1.905,-7.19 2.54,-7.17 2.655,-6.978 4.286,-4.247 2.634,-1.347 0,0" />
      </g>
      <g
         inkscape:export-ydpi="96"
         inkscape:export-xdpi="96"
         transform="matrix(0.27847669,0,0,-0.27847669,147.14061,92.842854)"
         id="g586">
        <path
           inkscape:connector-curvature="0"
           id="path588"
           style="fill:#ffdac8;fill-opacity:1;fill-rule:nonzero;stroke:none"
           d="m 0,0 6.443,20.734 c 0,0 -0.618,14.856 -18.902,12.865 l -0.527,-9.989 -3.941,-1.594 c 0,0 2.241,-8.627 7.211,-10.869 4.969,-2.244 0.246,-5.948 0.246,-5.948 z" />
      </g>
      <g
         inkscape:export-ydpi="96"
         inkscape:export-xdpi="96"
         transform="matrix(0.27847669,0,0,-0.27847669,146.64839,94.496441)"
         id="g590">
        <path
           inkscape:connector-curvature="0"
           id="path592"
           style="fill:#ffffff;fill-opacity:1;fill-rule:nonzero;stroke:none"
           d="m 0,0 3.258,7.72 c 0,0 -1.692,6.254 -11.527,6.581 l -2.238,-7.007 z" />
      </g>
      <g
         inkscape:export-ydpi="96"
         inkscape:export-xdpi="96"
         transform="matrix(0.27847669,0,0,-0.27847669,144.9582,86.249724)"
         id="g594">
        <path
           inkscape:connector-curvature="0"
           id="path596"
           style="fill:#ffb48d;fill-opacity:1;fill-rule:nonzero;stroke:none"
           d="m 0,0 c 1.511,-1.017 3.005,-4.268 0.1,-4.565 -0.118,-0.013 -0.285,0.209 -0.188,0.309 0.551,0.558 1.347,1.135 1.074,2.036 -0.253,0.837 -1.175,1.392 -1.909,1.745 -2.082,1.002 -4.395,0.333 -6.061,-1.135 -0.231,-0.202 -0.52,0.363 -0.408,0.558 C -5.791,1.696 -2.453,1.653 0,0" />
      </g>
      <g
         inkscape:export-ydpi="96"
         inkscape:export-xdpi="96"
         transform="matrix(0.27847669,0,0,-0.27847669,120.32202,87.078879)"
         id="g598">
        <path
           inkscape:connector-curvature="0"
           id="path600"
           style="fill:#4c3b2b;fill-opacity:1;fill-rule:nonzero;stroke:none"
           d="m 0,0 c 0,0 -18.524,-14.217 -16.881,-68.092 0,0 8.718,-11.972 16.881,-13.605 l 3.265,14.149 2.176,-14.149 c 0,0 1.634,-3.809 15.239,-3.265 l 13.604,0.544 -3.265,12.154 c 0,0 1.397,-6.167 10.222,-9.977 l 15.392,3.441 c 0,0 -21.495,9.633 -15.392,36.292 C 47.345,-15.849 41.255,6.3 22.312,6.776 3.37,7.253 0,0 0,0" />
      </g>
      <g
         inkscape:export-ydpi="96"
         inkscape:export-xdpi="96"
         transform="matrix(0.27847669,0,0,-0.27847669,147.75169,93.487527)"
         id="g602">
        <path
           inkscape:connector-curvature="0"
           id="path604"
           style="fill:#a1bddc;fill-opacity:1;fill-rule:nonzero;stroke:none"
           d="m 0,0 -15.237,9.052 c 0,0 -25.356,-74.524 -57.685,-66.061 0,0 -0.005,-0.008 -0.005,-0.009 -9.225,6.235 -22.971,11.939 -42.453,11.939 0,0 -8.696,61.317 26.132,97.52 l -14.148,11.977 c -49.269,-53.264 -36.462,-113.669 -36.462,-113.669 0,0 -9.796,-24.126 -10.34,-36.643 -0.544,-12.516 13.605,-21.223 19.048,-34.828 5.441,-13.606 -11.973,-39.727 -11.973,-39.727 0,0 51.697,-22.856 79.996,14.149 0,0 -16.324,9.796 -19.046,19.592 -1.495,5.381 6.174,21.113 13.389,34.196 C -54.947,-87 -10.528,-64.519 0,0" />
      </g>
      <g
         inkscape:export-ydpi="96"
         inkscape:export-xdpi="96"
         transform="matrix(0.27847669,0,0,-0.27847669,120.92818,88.965671)"
         id="g606">
        <path
           inkscape:connector-curvature="0"
           id="path608"
           style="fill:#ffdac8;fill-opacity:1;fill-rule:nonzero;stroke:none"
           d="m 0,0 c 0,0 -15.781,-26.488 -18.503,-31.93 -2.721,-5.442 5.442,-16.326 5.442,-16.326 l 0.544,-15.782 c 0,0 11.972,-3.265 21.768,0 v 9.443 c 0,0 18.503,9.604 23.401,17.223 4.898,7.619 9.795,24.887 3.265,33.395 C 29.387,4.531 8.652,14.642 0,0" />
      </g>
      <g
         inkscape:export-ydpi="96"
         inkscape:export-xdpi="96"
         transform="matrix(0.27847669,0,0,-0.27847669,118.95818,87.078879)"
         id="g610">
        <path
           inkscape:connector-curvature="0"
           id="path612"
           style="fill:#342717;fill-opacity:1;fill-rule:nonzero;stroke:none"
           d="m 0,0 c 0,0 5.987,-21.993 33.196,-28.445 l 7.618,5.432 c 0,0 -10.339,-55.419 26.666,-56.507 0,0 -17.958,5.442 -18.502,22.312 -0.545,16.87 8.706,23.921 6.53,40.531 C 53.331,-0.067 22.856,26.655 0,0" />
      </g>
      <g
         inkscape:export-ydpi="96"
         inkscape:export-xdpi="96"
         transform="matrix(0.27847669,0,0,-0.27847669,128.35403,90.073177)"
         id="g614">
        <path
           inkscape:connector-curvature="0"
           id="path616"
           style="fill:#4c3b2b;fill-opacity:1;fill-rule:nonzero;stroke:none"
           d="m 0,0 -9.019,-13.433 -7.644,2.554 c 0,0 4.69,7.269 16.663,10.879" />
      </g>
      <g
         inkscape:export-ydpi="96"
         inkscape:export-xdpi="96"
         transform="matrix(0.27847669,0,0,-0.27847669,127.44464,87.078879)"
         id="g618">
        <path
           inkscape:connector-curvature="0"
           id="path620"
           style="fill:#4c3b2b;fill-opacity:1;fill-rule:nonzero;stroke:none"
           d="m 0,0 c 0,0 -14.314,6.542 -23.483,-12.544 l -4.541,6.814 c 0,0 7.341,11.833 28.024,5.73" />
      </g>
      <g
         inkscape:export-ydpi="96"
         inkscape:export-xdpi="96"
         transform="matrix(0.27847669,0,0,-0.27847669,123.50436,106.79865)"
         id="g622">
        <path
           inkscape:connector-curvature="0"
           id="path624"
           style="fill:#677ec0;fill-opacity:1;fill-rule:nonzero;stroke:none"
           d="M 0,0 17.415,-9.782 0,-14.203 3.266,-34.285 c 0,0 -24.51,-6.53 -31.575,-23.944 -7.064,-17.415 7.085,-61.4 7.085,-61.4 l -9.06,0.495 c 0,0 -2.367,44.578 -5.633,57.095 -3.265,12.517 -17.414,33.145 -17.414,33.145 l 16.326,14.691 -8.163,10.497 23.314,6.207 -6.455,-31.395 z" />
      </g>
      <g
         inkscape:export-ydpi="96"
         inkscape:export-xdpi="96"
         transform="matrix(0.27847669,0,0,-0.27847669,123.50436,106.79865)"
         id="g626">
        <path
           inkscape:connector-curvature="0"
           id="path628"
           style="fill:#ffffff;fill-opacity:1;fill-rule:nonzero;stroke:none"
           d="M 0,0 H -13.875 V -14.203 Z" />
      </g>
      <g
         inkscape:export-ydpi="96"
         inkscape:export-xdpi="96"
         transform="matrix(0.27847669,0,0,-0.27847669,117.41868,106.10204)"
         id="g630">
        <path
           inkscape:connector-curvature="0"
           id="path632"
           style="fill:#ffffff;fill-opacity:1;fill-rule:nonzero;stroke:none"
           d="M 0,0 7.979,-2.501 -3.435,-16.704 -0.514,-2.501" />
      </g>
      <g
         inkscape:export-ydpi="96"
         inkscape:export-xdpi="96"
         transform="matrix(0.27847669,0,0,-0.27847669,118.5032,96.578644)"
         id="g634">
        <path
           inkscape:connector-curvature="0"
           id="path636"
           style="fill:#b22323;fill-opacity:1;fill-rule:nonzero;stroke:none"
           d="m 0,0 c 0,0 11.332,-9.822 23.411,-10.276 0,0 -5.452,-10.278 -16.328,-10.17 C -1.555,-20.36 0,0 0,0" />
      </g>
      <g
         inkscape:export-ydpi="96"
         inkscape:export-xdpi="96"
         transform="matrix(0.27847669,0,0,-0.27847669,118.5032,96.578644)"
         id="g638">
        <path
           inkscape:connector-curvature="0"
           id="path640"
           style="fill:#ffffff;fill-opacity:1;fill-rule:nonzero;stroke:none"
           d="M 0,0 C 0,0 3.442,-14.509 23.411,-10.276 23.411,-10.276 11.47,-8.664 0,0" />
      </g>
      <g
         inkscape:export-ydpi="96"
         inkscape:export-xdpi="96"
         transform="matrix(0.27847669,0,0,-0.27847669,124.31858,96.230543)"
         id="g642">
        <path
           inkscape:connector-curvature="0"
           id="path644"
           style="fill:#342717;fill-opacity:1;fill-rule:nonzero;stroke:none"
           d="M 0,0 C 0,0 8.534,2.662 11.226,-3.389 Z" />
      </g>
      <g
         inkscape:export-ydpi="96"
         inkscape:export-xdpi="96"
         transform="matrix(0.27847669,0,0,-0.27847669,121.19713,94.496441)"
         id="g646">
        <path
           inkscape:connector-curvature="0"
           id="path648"
           style="fill:#342717;fill-opacity:1;fill-rule:nonzero;stroke:none"
           d="M 0,0 C 0,0 -0.303,5.757 -3.983,7.15 -3.983,7.15 -5.516,4.941 0,0" />
      </g>
      <g
         inkscape:export-ydpi="96"
         inkscape:export-xdpi="96"
         transform="matrix(0.27847669,0,0,-0.27847669,119.26194,94.529084)"
         id="g650">
        <path
           inkscape:connector-curvature="0"
           id="path652"
           style="fill:#ffb48d;fill-opacity:1;fill-rule:nonzero;stroke:none"
           d="M 0,0 C -1.736,0.083 -3.533,0.224 -5.268,0.174 -5.328,0.172 -5.538,0.06 -5.407,-0.002 -3.911,-0.707 -1.809,-0.528 -0.196,-0.455 0.083,-0.442 0.449,-0.021 0,0" />
      </g>
      <g
         inkscape:export-ydpi="96"
         inkscape:export-xdpi="96"
         transform="matrix(0.27847669,0,0,-0.27847669,119.93911,94.968685)"
         id="g654">
        <path
           inkscape:connector-curvature="0"
           id="path656"
           style="fill:#ffb48d;fill-opacity:1;fill-rule:nonzero;stroke:none"
           d="m 0,0 c -1.524,0.19 -3.081,0.073 -4.614,0.266 -0.145,0.018 -0.395,-0.22 -0.168,-0.276 1.5,-0.374 3.151,-0.523 4.689,-0.348 C 0.131,-0.333 0.309,-0.038 0,0" />
      </g>
      <g
         inkscape:export-ydpi="96"
         inkscape:export-xdpi="96"
         transform="matrix(0.27847669,0,0,-0.27847669,126.35111,97.194886)"
         id="g658">
        <path
           inkscape:connector-curvature="0"
           id="path660"
           style="fill:#ffb48d;fill-opacity:1;fill-rule:nonzero;stroke:none"
           d="m 0,0 c -0.866,0.265 -1.963,0.037 -2.861,0.01 -1.034,-0.031 -2.027,0.114 -3.05,0.219 -0.068,0.008 -0.201,-0.079 -0.114,-0.144 0.713,-0.528 1.742,-0.52 2.593,-0.55 1.077,-0.037 2.312,-0.107 3.359,0.169 C 0.068,-0.259 0.194,-0.06 0,0" />
      </g>
      <g
         inkscape:export-ydpi="96"
         inkscape:export-xdpi="96"
         transform="matrix(0.27847669,0,0,-0.27847669,126.77728,97.536853)"
         id="g662">
        <path
           inkscape:connector-curvature="0"
           id="path664"
           style="fill:#ffb48d;fill-opacity:1;fill-rule:nonzero;stroke:none"
           d="M 0,0 C -1.727,0.531 -3.853,0.398 -5.631,0.228 -5.723,0.219 -5.797,0.093 -5.669,0.08 -3.876,-0.107 -1.989,-0.267 -0.188,-0.31 -0.035,-0.313 0.261,-0.081 0,0" />
      </g>
      <g
         inkscape:export-ydpi="96"
         inkscape:export-xdpi="96"
         transform="matrix(0.27847669,0,0,-0.27847669,127.81015,98.122763)"
         id="g666">
        <path
           inkscape:connector-curvature="0"
           id="path668"
           style="fill:#ffb48d;fill-opacity:1;fill-rule:nonzero;stroke:none"
           d="M 0,0 C -2.124,0.319 -4.424,0.951 -6.583,0.777 -6.628,0.774 -6.705,0.689 -6.626,0.677 -4.509,0.358 -2.323,-0.562 -0.167,-0.39 0.007,-0.376 0.305,-0.046 0,0" />
      </g>
      <g
         inkscape:export-ydpi="96"
         inkscape:export-xdpi="96"
         transform="matrix(0.27847669,0,0,-0.27847669,139.17628,169.03003)"
         id="g670">
        <path
           inkscape:connector-curvature="0"
           id="path672"
           style="fill:#ffb48d;fill-opacity:1;fill-rule:nonzero;stroke:none"
           d="m 0,0 c -10.831,-2.627 -21.307,3.801 -29.555,10.191 -8.178,6.34 -15.289,14.116 -20.388,23.131 -0.036,0.063 -0.181,0.018 -0.16,-0.054 1.311,-4.34 4.535,-8.202 7.41,-11.604 3.992,-4.727 8.57,-9.053 13.497,-12.793 C -21.738,3.207 -9.762,-4.439 0.051,-0.416 0.331,-0.301 0.377,0.092 0,0" />
      </g>
    </g>
  </g>
</svg>
