<?xml version="1.0" encoding="UTF-8" standalone="no"?>
<!-- Created with Inkscape (http://www.inkscape.org/) -->

<svg
   xmlns:dc="http://purl.org/dc/elements/1.1/"
   xmlns:cc="http://creativecommons.org/ns#"
   xmlns:rdf="http://www.w3.org/1999/02/22-rdf-syntax-ns#"
   xmlns:svg="http://www.w3.org/2000/svg"
   xmlns="http://www.w3.org/2000/svg"
   xmlns:sodipodi="http://sodipodi.sourceforge.net/DTD/sodipodi-0.dtd"
   xmlns:inkscape="http://www.inkscape.org/namespaces/inkscape"
   width="310mm"
   height="80mm"
   viewBox="0 0 310 80"
   version="1.1"
   id="svg8"
   inkscape:version="0.92.1 r15371"
   sodipodi:docname="uux-posts (novo).svg">
  <defs
     id="defs2" />
  <sodipodi:namedview
     id="base"
     pagecolor="#ffffff"
     bordercolor="#666666"
     borderopacity="1.0"
     inkscape:pageopacity="0.0"
     inkscape:pageshadow="2"
     inkscape:zoom="0.49497475"
     inkscape:cx="458.10778"
     inkscape:cy="162.68439"
     inkscape:document-units="mm"
     inkscape:current-layer="layer1"
     showgrid="false"
     inkscape:window-width="1366"
     inkscape:window-height="705"
     inkscape:window-x="-8"
     inkscape:window-y="-8"
     inkscape:window-maximized="1" />
  <metadata
     id="metadata5">
    <rdf:RDF>
      <cc:Work
         rdf:about="">
        <dc:format>image/svg+xml</dc:format>
        <dc:type
           rdf:resource="http://purl.org/dc/dcmitype/StillImage" />
        <dc:title></dc:title>
      </cc:Work>
    </rdf:RDF>
  </metadata>
  <g
     inkscape:label="Layer 1"
     inkscape:groupmode="layer"
     id="layer1"
     transform="translate(0,-217)">
    <text
       xml:space="preserve"
       style="font-style:normal;font-variant:normal;font-weight:normal;font-stretch:normal;font-size:54.07910919px;line-height:1.25;font-family:TrashHand;-inkscape-font-specification:TrashHand;letter-spacing:0px;word-spacing:0px;fill:#000000;fill-opacity:1;stroke:none;stroke-width:1.35197771"
       x="-201.2561"
       y="149.60913"
       id="text1013"><tspan
         sodipodi:role="line"
         id="tspan1011"
         x="-201.2561"
         y="198.94714"
         style="font-style:normal;font-variant:normal;font-weight:normal;font-stretch:normal;font-family:TrashHand;-inkscape-font-specification:TrashHand;stroke-width:1.35197771" /></text>
    <g
       id="g168"
       transform="translate(1.5875,214.88471)">
      <g
         transform="translate(471.44424,14.345976)"
         inkscape:export-ydpi="96"
         inkscape:export-xdpi="96"
         aria-label="U"
         style="font-style:normal;font-weight:normal;font-size:100.77248383px;line-height:1.25;font-family:sans-serif;letter-spacing:0px;word-spacing:0px;fill:#d3d3d3;fill-opacity:1;stroke:none;stroke-width:2.51931214"
         id="text836">
        <path
           d="m -410.68506,29.370008 q 0,8.968751 -2.11622,15.216645 -2.01545,6.247894 -5.84481,10.278793 -3.72858,4.030899 -9.06952,5.844804 -5.34094,1.813905 -11.79038,1.813905 -6.55021,0 -11.89116,-1.813905 -5.24016,-1.813905 -8.96875,-5.844804 -3.72858,-4.030899 -5.8448,-10.278793 -2.01545,-6.247894 -2.01545,-15.216645 l 0.30232,-26.7047087 q 0,-6.046349 3.22472,-8.5656611 3.22472,-2.6200846 9.47261,-2.6200846 -0.10077,0.6046349 -0.20154,1.8139048 -0.10078,1.1084973 -0.20155,3.0231745 0,1.9146772 0,4.9378517 V 29.370008 q -0.20154,6.751756 0.80618,11.286518 1.00772,4.433989 3.12395,7.054074 2.11622,2.620084 5.13939,3.728582 3.12395,1.108497 7.05408,1.108497 3.93012,0 6.9533,-1.108497 3.12395,-1.108498 5.24017,-3.728582 2.11622,-2.620085 3.12395,-7.054074 1.00772,-4.534762 0.90695,-11.286518 l 0.30232,-26.7047087 q 0,-6.046349 3.22471,-8.5656611 3.22472,-2.6200846 9.47262,-2.6200846 -0.10077,0.6046349 -0.20155,1.8139048 -0.10077,1.1084973 -0.20154,3.0231745 0,1.9146772 0,4.9378517 z"
           style="font-style:normal;font-variant:normal;font-weight:normal;font-stretch:normal;font-family:Fontastique;-inkscape-font-specification:Fontastique;fill:#d3d3d3;fill-opacity:1;stroke-width:2.51931214"
           id="path842"
           inkscape:connector-curvature="0" />
      </g>
      <g
         inkscape:export-ydpi="96"
         inkscape:export-xdpi="96"
         transform="translate(507.25836,14.345976)"
         aria-label="U"
         style="font-style:normal;font-weight:normal;font-size:100.77248383px;line-height:1.25;font-family:sans-serif;letter-spacing:0px;word-spacing:0px;fill:#20b2aa;fill-opacity:1;stroke:none;stroke-width:2.51931214"
         id="text836-9">
        <path
           d="m -386.7984,29.975476 q 0,8.968751 -2.11623,15.216645 -2.01545,6.247894 -5.8448,10.278794 -3.72858,4.030899 -9.06952,5.844804 -5.34095,1.813904 -11.79038,1.813904 -6.55022,0 -11.89116,-1.813904 -5.24017,-1.813905 -8.96875,-5.844804 -3.72858,-4.0309 -5.8448,-10.278794 -2.01545,-6.247894 -2.01545,-15.216645 l 0.30231,-26.7047079 q 0,-6.046349 3.22472,-8.5656611 3.22472,-2.6200846 9.47262,-2.6200846 -0.10077,0.6046349 -0.20155,1.8139047 -0.10077,1.1084973 -0.20154,3.0231745 0,1.9146772 0,4.9378517 V 29.975476 q -0.20155,6.751757 0.80618,11.286518 1.00772,4.43399 3.12394,7.054074 2.11623,2.620085 5.1394,3.728582 3.12395,1.108498 7.05408,1.108498 3.93012,0 6.9533,-1.108498 3.12394,-1.108497 5.24017,-3.728582 2.11622,-2.620084 3.12394,-7.054074 1.00773,-4.534761 0.90696,-11.286518 l 0.30231,-26.7047079 q 0,-6.046349 3.22472,-8.5656611 3.22472,-2.6200846 9.47262,-2.6200846 -0.10078,0.6046349 -0.20155,1.8139047 -0.10077,1.1084973 -0.20154,3.0231745 0,1.9146772 0,4.9378517 z"
           style="font-style:normal;font-variant:normal;font-weight:normal;font-stretch:normal;font-family:Fontastique;-inkscape-font-specification:Fontastique;fill:#20b2aa;stroke-width:2.51931214"
           id="path845"
           inkscape:connector-curvature="0" />
      </g>
      <g
         inkscape:export-ydpi="96"
         inkscape:export-xdpi="96"
         transform="translate(507.25836,14.345976)"
         aria-label="X"
         style="font-style:normal;font-weight:normal;font-size:100.77248383px;line-height:1.25;font-family:sans-serif;letter-spacing:0px;word-spacing:0px;fill:#20b2aa;fill-opacity:1;stroke:none;stroke-width:2.51931214"
         id="text836-9-2">
        <path
           d="m -322.53969,56.065508 q -2.11622,2.620084 -4.63553,3.728582 -1.1085,0.503862 -2.31777,0.80618 -1.20927,0.201545 -2.51931,0 -1.31005,-0.302318 -2.72086,-1.007725 -1.41082,-0.80618 -2.82163,-2.41854 l -20.65836,-23.076899 -25.69698,26.603936 q -2.72086,-1.511587 -3.82936,-3.829354 -1.00772,-2.01545 -0.60463,-4.937852 0.40309,-3.023174 3.93012,-7.255619 0.50387,-0.503862 1.91468,-2.015449 1.41082,-1.511588 3.22472,-3.426265 1.91468,-1.914677 4.0309,-4.030899 2.11622,-2.216995 3.93013,-4.131672 1.91467,-1.914677 3.32549,-3.325492 1.41081,-1.410815 1.91468,-1.813905 L -380.88696,8.2993506 q -1.91468,-2.1162222 -2.9224,-3.9301269 -0.90695,-1.9146772 -1.20927,-3.52703692 -0.30232,-1.71313222 -0.10077,-3.12394698 0.30231,-1.4108148 0.90695,-2.5193121 1.31004,-2.6200846 4.23244,-4.5347618 l 23.17767,27.1077981 26.30162,-27.1077981 q 2.217,1.8139047 3.22472,4.1316719 0.80618,2.0154496 0.40309,4.93785166 -0.30231,2.82162954 -3.32549,6.44943894 -0.50386,0.5038624 -1.91468,2.1162222 -1.31004,1.5115872 -3.12394,3.5270374 -1.81391,1.914677 -3.93013,4.232444 -2.01545,2.216994 -3.93013,4.333217 -1.8139,2.015449 -3.42626,3.627809 -1.51159,1.61236 -2.217,2.317767 z"
           style="font-style:normal;font-variant:normal;font-weight:normal;font-stretch:normal;font-family:Fontastique;-inkscape-font-specification:Fontastique;fill:#20b2aa;stroke-width:2.51931214"
           id="path848"
           inkscape:connector-curvature="0" />
      </g>
      <path
         inkscape:export-ydpi="96"
         inkscape:export-xdpi="96"
         inkscape:connector-curvature="0"
         id="path851"
         style="font-style:normal;font-variant:normal;font-weight:normal;font-stretch:normal;font-size:medium;line-height:1.25;font-family:Fontastique;-inkscape-font-specification:Fontastique;letter-spacing:0px;word-spacing:0px;fill:#c0c0c0;fill-opacity:1;stroke:none;stroke-width:1.06368685"
         d="m 181.32406,38.592536 q 0,1.91464 -1.06369,3.06342 -1.06368,1.14878 -3.02087,1.14878 h -9.19025 q 0,-1.91464 1.06368,-3.06342 1.06369,-1.14878 3.02088,-1.14878 z" />
      <path
         inkscape:export-ydpi="96"
         inkscape:export-xdpi="96"
         inkscape:connector-curvature="0"
         id="path853"
         style="font-style:normal;font-variant:normal;font-weight:normal;font-stretch:normal;font-size:medium;line-height:1.25;font-family:Fontastique;-inkscape-font-specification:Fontastique;letter-spacing:0px;word-spacing:0px;fill:#c0c0c0;fill-opacity:1;stroke:none;stroke-width:1.06368685"
         d="m 192.27206,48.208266 q 0,1.31897 0,2.12737 0.0425,0.76586 0.0851,1.23388 0.0426,0.51057 0.0851,0.76585 -2.5954,0 -4.04201,-1.06368 -1.40407,-1.10624 -1.40407,-3.65908 l 0.0851,-17.99759 q 0,-2.04228 0.72331,-3.40379 0.72331,-1.36152 1.99973,-2.16993 1.27643,-0.85094 2.97833,-1.19132 1.74444,-0.38293 3.78672,-0.51057 1.99973,-0.12765 4.2122,0.29783 2.21247,0.42547 4.12711,1.57425 1.91463,1.10624 3.19106,3.02088 1.31897,1.91463 1.44661,4.85041 0.0851,1.78699 -0.46802,3.70163 -0.51057,1.87209 -1.74445,3.4038 -1.23387,1.5317 -3.27615,2.55284 -2.04228,0.9786 -4.97806,0.9786 -1.44661,0 -2.68049,-0.17019 -1.19133,-0.17019 -2.12737,-0.38293 -1.10624,-0.25529 -1.99973,-0.59567 z m 5.87155,-9.65828 q 2.72304,0 4.42494,-1.6168 1.74444,-1.6168 1.6168,-4.85041 -0.0851,-1.7019 -0.76586,-2.85068 -0.63821,-1.14879 -1.70189,-1.787 -1.02114,-0.63821 -2.38266,-0.85095 -1.36152,-0.21273 -2.76559,-0.0851 -1.27642,0.12765 -2.08482,0.46803 -0.80841,0.29783 -1.31898,0.76585 -0.46802,0.42547 -0.68076,0.97859 -0.17019,0.55312 -0.17019,1.10624 v 7.48835 q 0.76586,0.34038 1.7019,0.59567 0.80841,0.21273 1.82954,0.42547 1.06369,0.21274 2.29757,0.21274 z" />
      <path
         inkscape:export-ydpi="96"
         inkscape:export-xdpi="96"
         inkscape:connector-curvature="0"
         id="path855"
         style="font-style:normal;font-variant:normal;font-weight:normal;font-stretch:normal;font-size:medium;line-height:1.25;font-family:Fontastique;-inkscape-font-specification:Fontastique;letter-spacing:0px;word-spacing:0px;fill:#c0c0c0;fill-opacity:1;stroke:none;stroke-width:1.06368685"
         d="m 225.59005,22.296856 q 2.80814,0 5.40353,0.97859 2.63794,0.97859 4.68022,2.89323 2.04228,1.91463 3.23361,4.76532 1.23388,2.80813 1.23388,6.55231 0,3.74417 -1.23388,6.59485 -1.19133,2.85069 -3.23361,4.80787 -2.04228,1.91464 -4.68022,2.89323 -2.59539,0.97859 -5.40353,0.97859 -2.80813,0 -5.44607,-0.97859 -2.5954,-0.97859 -4.63768,-2.89323 -2.04228,-1.95718 -3.27615,-4.80787 -1.19133,-2.85068 -1.19133,-6.59485 0,-3.74418 1.19133,-6.55231 1.23387,-2.85069 3.27615,-4.76532 2.04228,-1.91464 4.63768,-2.89323 2.63794,-0.97859 5.44607,-0.97859 z m 0,26.80491 q 1.65935,0 3.23361,-0.68076 1.6168,-0.68076 2.89323,-2.12738 1.27642,-1.44661 2.04228,-3.61653 0.76585,-2.16992 0.76585,-5.19079 0,-2.97833 -0.76585,-5.14825 -0.76586,-2.16992 -2.04228,-3.57399 -1.27643,-1.40406 -2.89323,-2.08482 -1.57426,-0.68076 -3.23361,-0.68076 -1.65935,0 -3.27615,0.68076 -1.57426,0.68076 -2.85068,2.08482 -1.27643,1.40407 -2.04228,3.57399 -0.76586,2.16992 -0.76586,5.14825 0,3.02087 0.76586,5.19079 0.76585,2.16992 2.04228,3.61653 1.27642,1.44662 2.85068,2.12738 1.6168,0.68076 3.27615,0.68076 z" />
      <path
         inkscape:export-ydpi="96"
         inkscape:export-xdpi="96"
         inkscape:connector-curvature="0"
         id="path857"
         style="font-style:normal;font-variant:normal;font-weight:normal;font-stretch:normal;font-size:medium;line-height:1.25;font-family:Fontastique;-inkscape-font-specification:Fontastique;letter-spacing:0px;word-spacing:0px;fill:#c0c0c0;fill-opacity:1;stroke:none;stroke-width:1.06368685"
         d="m 249.23626,52.760846 q -2.16992,0 -3.91437,-0.51057 -1.70189,-0.51057 -2.93577,-1.19133 -1.23388,-0.72331 -1.99973,-1.44661 -0.72331,-0.72331 -0.8935,-1.14879 l 0.12764,-0.12764 q 0.38293,-0.55312 0.85095,-0.89349 0.42548,-0.25529 0.8935,-0.25529 0.29783,0 0.55312,0.0851 0.29783,0.0851 0.63821,0.21274 0.34038,0.0851 0.68076,0.25528 0.34038,0.12764 0.76585,0.34038 0.85095,0.34038 1.99973,0.63821 1.14879,0.25529 2.76559,0.34038 h 0.46802 q 1.57426,0 2.68049,-0.34038 1.10624,-0.38292 1.787,-0.93604 0.68076,-0.59566 0.97859,-1.27642 0.29783,-0.72331 0.29783,-1.36152 0.0426,-1.10624 -0.68076,-1.99973 -0.68076,-0.93605 -1.91463,-1.787 -1.23388,-0.85095 -2.89323,-1.74445 -1.65935,-0.89349 -3.53144,-1.91463 -3.06342,-1.74445 -4.55258,-3.87182 -1.48916,-2.16992 -1.27643,-4.55258 0.17019,-1.787 0.97859,-3.10597 0.80841,-1.31897 1.99974,-2.16992 1.23387,-0.89349 2.72303,-1.27642 1.53171,-0.42548 3.06342,-0.42548 2.5954,0 4.55258,0.68076 1.95719,0.68076 3.31871,1.48916 1.57425,0.93605 2.68049,2.12738 l -0.0851,0.12764 q -0.51057,0.63821 -0.85095,0.85095 -0.42547,0.29783 -0.93604,0.29783 -0.46802,0 -1.14878,-0.29783 -0.34038,-0.12764 -0.72331,-0.25529 -0.34038,-0.17018 -0.76586,-0.34037 -1.23387,-0.46803 -2.63794,-0.72331 -1.36152,-0.29783 -2.42521,-0.25529 -0.55311,0 -1.19132,0.0851 -0.63822,0.0851 -1.23388,0.29784 -0.55312,0.21273 -1.02114,0.59566 -0.42548,0.38293 -0.59567,0.97859 -0.38292,1.27643 0.51057,2.25502 0.93605,0.97859 2.46776,1.91463 1.57425,0.93605 3.44634,1.87209 1.91464,0.8935 3.57399,2.04228 2.29756,1.61681 3.4038,3.31871 1.14878,1.65935 1.40407,3.27615 0.25528,1.6168 -0.17019,3.10597 -0.42548,1.48916 -1.19133,2.63794 -1.36152,2.12737 -4.08456,3.27616 -2.68049,1.10623 -5.95665,1.10623 z" />
      <path
         inkscape:export-ydpi="96"
         inkscape:export-xdpi="96"
         inkscape:connector-curvature="0"
         id="path859"
         style="font-style:normal;font-variant:normal;font-weight:normal;font-stretch:normal;font-size:medium;line-height:1.25;font-family:Fontastique;-inkscape-font-specification:Fontastique;letter-spacing:0px;word-spacing:0px;fill:#c0c0c0;fill-opacity:1;stroke:none;stroke-width:1.06368685"
         d="m 275.27222,48.208266 q 0,1.27642 0,2.08483 0.0425,0.8084 0.0851,1.27642 0.0426,0.51057 0.0851,0.76585 -2.63795,0 -4.04201,-1.10623 -1.40407,-1.10623 -1.40407,-3.65908 l 0.0851,-20.59298 H 260.721 q 0,-1.91464 1.06369,-3.06342 1.06368,-1.14878 3.02087,-1.14878 h 19.82712 q 0,1.91464 -1.06369,3.06342 -1.06368,1.14878 -3.02087,1.14878 h -5.31843 z" />
      <path
         inkscape:export-ydpi="96"
         inkscape:export-xdpi="96"
         inkscape:connector-curvature="0"
         id="path861"
         style="font-style:normal;font-variant:normal;font-weight:normal;font-stretch:normal;font-size:medium;line-height:1.25;font-family:Fontastique;-inkscape-font-specification:Fontastique;letter-spacing:0px;word-spacing:0px;fill:#c0c0c0;fill-opacity:1;stroke:none;stroke-width:1.06368685"
         d="m 292.96285,52.760846 q -2.16992,0 -3.91437,-0.51057 -1.7019,-0.51057 -2.93578,-1.19133 -1.23387,-0.72331 -1.99973,-1.44661 -0.7233,-0.72331 -0.89349,-1.14879 l 0.12764,-0.12764 q 0.38293,-0.55312 0.85095,-0.89349 0.42547,-0.25529 0.89349,-0.25529 0.29784,0 0.55312,0.0851 0.29783,0.0851 0.63821,0.21274 0.34038,0.0851 0.68076,0.25528 0.34038,0.12764 0.76586,0.34038 0.85095,0.34038 1.99973,0.63821 1.14878,0.25529 2.76559,0.34038 h 0.46802 q 1.57425,0 2.68049,-0.34038 1.10623,-0.38292 1.78699,-0.93604 0.68076,-0.59566 0.97859,-1.27642 0.29784,-0.72331 0.29784,-1.36152 0.0425,-1.10624 -0.68076,-1.99973 -0.68076,-0.93605 -1.91464,-1.787 -1.23388,-0.85095 -2.89323,-1.74445 -1.65935,-0.89349 -3.53144,-1.91463 -3.06342,-1.74445 -4.55258,-3.87182 -1.48916,-2.16992 -1.27642,-4.55258 0.17019,-1.787 0.97859,-3.10597 0.8084,-1.31897 1.99973,-2.16992 1.23388,-0.89349 2.72304,-1.27642 1.53171,-0.42548 3.06342,-0.42548 2.59539,0 4.55258,0.68076 1.95718,0.68076 3.3187,1.48916 1.57426,0.93605 2.68049,2.12738 l -0.0851,0.12764 q -0.51057,0.63821 -0.85095,0.85095 -0.42548,0.29783 -0.93605,0.29783 -0.46802,0 -1.14878,-0.29783 -0.34038,-0.12764 -0.72331,-0.25529 -0.34038,-0.17018 -0.76585,-0.34037 -1.23388,-0.46803 -2.63794,-0.72331 -1.36152,-0.29783 -2.42521,-0.25529 -0.55312,0 -1.19133,0.0851 -0.63821,0.0851 -1.23388,0.29784 -0.55311,0.21273 -1.02114,0.59566 -0.42547,0.38293 -0.59566,0.97859 -0.38293,1.27643 0.51057,2.25502 0.93604,0.97859 2.46775,1.91463 1.57426,0.93605 3.44635,1.87209 1.91463,0.8935 3.57399,2.04228 2.29756,1.61681 3.40379,3.31871 1.14879,1.65935 1.40407,3.27615 0.25529,1.6168 -0.17019,3.10597 -0.42547,1.48916 -1.19133,2.63794 -1.36152,2.12737 -4.08456,3.27616 -2.68049,1.10623 -5.95664,1.10623 z" />
    </g>
  </g>
</svg>
